<?xml version="1.0" standalone="no"?>
<!DOCTYPE svg PUBLIC "-//W3C//DTD SVG 1.1//EN" "http://www.w3.org/Graphics/SVG/1.1/DTD/svg11.dtd" >
<svg xmlns="http://www.w3.org/2000/svg" xmlns:xlink="http://www.w3.org/1999/xlink" version="1.1" viewBox="-10 0 1034 1024">
   <path fill="currentColor"
d="M555 90q86 12 156 50t119.5 95.5t76.5 132.5t27 161q0 66 -22 130t-65 115q-51 60 -115 100q-63 40 -133.5 56t-143.5 6q-74 -10 -145 -50q-46 -26 -84 -61q-37 -34 -65.5 -75.5t-45.5 -89.5q-17 -47 -22 -100q-9 -93 15 -174q25 -82 76 -144.5t126 -102.5t167 -50
q7 -1 13.5 -0.5t11.5 1.5q1 0 1.5 0.5t0.5 1.5q3 7 2.5 13t-2.5 12t-7.5 9.5t-9.5 9.5q0 1 -0.5 1.5t-1.5 0.5q-51 2 -100 20q-48 18 -90 47.5t-75 69.5q-34 40 -54 86t-27 96q-8 50 -2 99.5t25 95.5q19 47 51 86q52 65 120 100.5t151 43.5q98 9 179 -27t135 -101.5
t75 -153.5t-1 -182q-12 -53 -38 -98t-63 -80.5t-83 -59.5q-46 -25 -99 -36q-10 -2 -21.5 -3.5t-24.5 -2.5q-32 -1 -23.5 -26t35.5 -22v0zM533 222q-73 -7 -133 18t-101.5 71.5t-60.5 110.5q-19 63 -9 133q7 50 28 92q22 42 54.5 73.5t75.5 51.5t92 26q7 0 11.5 1.5t6.5 3.5
q15 10 7 24t-21 18q-4 1 -10 0.5t-14 -1.5q-69 -15 -123 -47q-53 -33 -89.5 -81t-55.5 -108q-18 -61 -17 -130q1 -16 3.5 -31t6.5 -32q8 -33 23 -62.5t38 -55.5q44 -51 98 -83q53 -33 111.5 -43.5t119.5 0.5q61 12 120 50q51 33 86 78q34 45 51.5 98t17.5 110q0 58 -17 115
q-13 41 -37 77t-56 64.5t-71 47.5q-39 20 -81 29q-14 3 -25.5 5t-21.5 3q-5 1 -9.5 0t-9.5 -3l-1.5 -1.5t-0.5 -1.5q-3 -11 0 -20t13 -15l1.5 -1.5t0.5 -1.5l2 -4q0 -1 0.5 -1.5t1.5 -0.5q55 -4 102 -28q48 -23 84 -61t57 -87q22 -50 24 -104q2 -60 -19 -111
q-20 -52 -57 -91.5t-87 -63.5q-51 -25 -109 -30v0z" />
</svg>
