<?xml version="1.0" standalone="no"?>
<!DOCTYPE svg PUBLIC "-//W3C//DTD SVG 1.1//EN" "http://www.w3.org/Graphics/SVG/1.1/DTD/svg11.dtd" >
<svg xmlns="http://www.w3.org/2000/svg" xmlns:xlink="http://www.w3.org/1999/xlink" version="1.1" viewBox="-10 0 1034 1024">
   <path fill="currentColor"
d="M559 91q85 12 154 50t118.5 96t75.5 132q27 75 27 160q0 67 -22 130.5t-65 114.5q-47 56 -105 94q-59 39 -123.5 57t-133.5 14t-138 -34q-43 -19 -85 -49.5t-73 -67.5q-31 -38 -53 -80q-21 -41 -32.5 -86t-12.5 -93q-2 -48 7 -99q13 -72 46 -131q34 -60 84 -104t114 -71
q63 -28 135 -35q7 -1 13.5 -0.5t11.5 1.5q1 0 1.5 0.5t0.5 1.5q3 7 2.5 13t-2.5 12t-7.5 9.5t-9.5 9.5q0 1 -0.5 1.5t-1.5 0.5q-15 1 -26 2t-19 3q-81 17 -144 62q-64 46 -104 109.5t-53 140.5t9 157q15 58 48 105q33 48 78 83t99 56q55 21 113 26q97 9 178 -27
q80 -36 133.5 -101.5t74.5 -152.5q22 -87 1 -180q-12 -54 -38 -99q-26 -46 -63 -81.5t-83 -60.5t-100 -36q-9 -2 -20.5 -3.5t-23.5 -2.5q-12 0 -21.5 -7t-3.5 -21q5 -12 15 -16.5t24 -2.5v0zM893 137q0 7 -5 12.5t-13 5.5q-7 0 -12.5 -5.5t-5.5 -12.5q0 -8 5.5 -13t12.5 -5
q8 0 13 5t5 13zM551 796q-4 -3 -7.5 -6.5t-6.5 -8.5v-2v-2q0 -5 -0.5 -11t-2.5 -11q-1 -1 -1 -2t1 -1q9 -14 17.5 -28.5t17.5 -28.5q14 -21 27 -42.5t24 -44.5q0 -2 -0.5 -2.5t-1.5 -0.5q-16 2 -30.5 1.5t-29.5 6.5q-1 0 -1.5 0.5t-1.5 -0.5l-17 -3h-1t-2 1q-10 4 -19.5 4.5
t-19.5 -3.5q-2 -1 -4 -1h-3q-1 1 -2 1h-1q-7 -1 -13.5 -2t-13.5 -2q-10 -1 -19 0.5t-18 1.5q-4 -1 -8.5 -1.5t-8.5 -0.5v0v0q-1 0 -1 0.5v0.5v0v0q6 19 15 36t21 33q8 11 13.5 22l11.5 23q6 11 13.5 22.5t11.5 25.5q0 2 -0.5 4t-2.5 3q-5 3 -10.5 5t-12.5 2h-1t-2 -1
q-5 -3 -10.5 -5.5t-11.5 -3.5q-1 0 -1.5 -0.5l-1.5 -1.5q-6 -14 -14.5 -27.5t-14.5 -27.5q-12 -27 -27 -52.5t-33 -49.5q-12 -17 -19.5 -36t-19.5 -36q-5 -7 -9.5 -13.5t-9.5 -13.5q-18 -20 -27 -44.5t-24 -44.5q-1 -1 -1.5 -1t-0.5 1q-17 66 -7 130t43.5 115t86.5 85
q54 34 125 40q29 3 20 27t-33 20q-60 -9 -111 -35t-89 -65.5t-63 -90.5q-24 -51 -31 -112q-5 -43 -1 -82t19 -82q12 -33 35 -64q24 -31 54 -57.5t64 -46.5t66 -30q77 -24 154 -9.5t141 61.5q45 32 75 74q31 41 47 88.5t18 99.5q2 51 -11 104q-12 50 -38 92q-25 42 -61.5 74
t-81.5 52q-45 21 -96 29q-11 1 -19.5 3t-20.5 -3q-1 0 -1.5 -0.5t-0.5 -1.5q-6 -19 2 -25t16 -19l1 -0.5l1 -0.5h6t6 -1q1 0 1 -0.5t-1 -0.5v0zM732 319q-36 -38 -79 -61.5t-94 -31.5q-82 -14 -149 10t-119 85l-1 1l1 1q11 1 22 -0.5t22 -0.5q20 1 40 -0.5t40 -5.5
q3 -1 7 -1t8 1q13 2 25.5 2t24.5 -2q23 -4 45.5 -1.5t45.5 3.5q23 0 45.5 2.5t45.5 -0.5q18 -2 35 -1t34 1h1v-1v0zM647 495q3 7 4.5 13t5.5 12q2 3 3.5 5.5t3.5 4.5h0.5t0.5 1h0.5t0.5 -1v0v0q7 -13 13 -26t11 -26q6 -13 13.5 -23t15.5 -22q10 -14 18 -29.5t16 -31.5v0v0
q0 -1 -0.5 -1.5l-1.5 -1.5v0v0q-43 -1 -88.5 -2.5t-89.5 0.5v0v0q-1 0 -1.5 0.5l-0.5 0.5l0.5 0.5l0.5 0.5q1 5 4.5 9.5t4.5 9.5q5 15 13 28t18 24q6 5 8 15t8 17q4 6 10 11.5t9 11.5v0zM392 476q4 -2 6 -6t2 -9v-2v-1q5 -10 10 -15t9 -13q4 -7 12 -14.5t12 -19.5
q2 -8 7 -14.5t10 -12.5v-1.5t-1 -0.5q-11 0 -21.5 0.5t-20.5 1.5q-22 3 -41 2.5t-40 -3.5q-6 -1 -25 -0.5t-51 2.5q-1 0 -1 0.5t1 1.5q4 6 7.5 12t6.5 13q5 11 11.5 20t11.5 20q7 14 16 26t20 23l4 6t4 7q3 9 8 18t11 17v0l1 1t2.5 0.5t2.5 -1.5q1 0 1 -0.5v-0.5
q3 -6 6.5 -12.5t7.5 -12.5q3 -6 4 -11.5t1 -11.5q1 -3 2.5 -5t3.5 -4v0zM624 553q-5 -7 -8.5 -13.5t-7.5 -12.5q-3 -6 -8 -9.5t-10 -7.5q-1 -1 -1 -1.5v-1.5q-1 -5 -2 -8t-6 -7q-9 -8 -12.5 -17.5t-7.5 -19.5l-4 -10t-3 -10q-3 -8 -8.5 -13t-9.5 -13q-4 -10 -9 -19t-12 -17
q-1 -2 -3.5 -3.5t0.5 4.5v1.5t-1 1.5q-8 14 -17.5 28t-18.5 27q-9 12 -12 25t-13 24q-4 4 -6.5 7.5t-4.5 6.5q-3 7 -5 15.5t-6 15.5q-4 6 -9 10.5t-8 10.5q-1 3 -2.5 6t-3.5 6q0 1 0.5 1h0.5q8 -1 16 0t13 2q7 0 13 0.5t13 0.5q9 0 18.5 -1.5t18.5 -2.5q11 0 22 2t23 1
l4.5 -1l13.5 -3q13 -3 22 0t20 3q5 0 9 -0.5t8 -0.5t5 -2t-1 -5v0zM565 794q-1 1 -0.5 1.5t1.5 -0.5q65 -14 117 -51q51 -38 82 -90t39 -115q7 -63 -15 -128q-1 -2 -1.5 -2t-1.5 1q-6 9 -11 18t-9 19q0 1 -0.5 1.5l-1.5 1.5q-11 10 -19.5 32t-12.5 35q-1 4 -5 9.5t-11 13.5
q-2 2 -4.5 7t-5.5 14q-5 13 -10.5 23t-13.5 21q-13 17 -23.5 34.5t-23.5 34.5q-8 10 -13.5 25t-13.5 26q-4 6 -8 12.5t-8 12.5q-6 9 -12 21t-15 23v0zM164 912l-16 30l-1 1l-1 -1l-16 -30l-1 -0.5t-1 -1.5l-30 -16q-1 -1 -1 -1.5t1 -0.5l29 -16q1 0 1.5 -0.5l1.5 -1.5
l16 -31l1 -1l1 1l16 31q1 0 1.5 0.5l1.5 1.5l29 16q1 0 1 1t-1 1l-30 16l-0.5 1t-1.5 1v0z" />
</svg>
