<?xml version="1.0" standalone="no"?>
<!DOCTYPE svg PUBLIC "-//W3C//DTD SVG 1.1//EN" "http://www.w3.org/Graphics/SVG/1.1/DTD/svg11.dtd" >
<svg xmlns="http://www.w3.org/2000/svg" xmlns:xlink="http://www.w3.org/1999/xlink" version="1.1" viewBox="-10 0 1034 1024">
   <path fill="currentColor"
d="M820 124q-2 0 -2 -1t2 -2l29 -15l1.5 -1.5t0.5 -1.5l17 -30q0 -1 0.5 -1t1.5 1l15 30l1.5 1.5t1.5 0.5l30 17q1 0 1 0.5v1.5l-31 16q-1 0 -1.5 0.5t-0.5 1.5l-16 30q-1 1 -1.5 1t-0.5 -1l-16 -29l-1.5 -1.5t-0.5 -1.5l-30 -16v0zM551 796q-4 -3 -7.5 -6.5t-6.5 -8.5v-2
v-2q0 -5 -0.5 -11t-2.5 -11q-1 -1 -1 -2t1 -1q9 -14 17.5 -28.5t17.5 -28.5q14 -21 27 -42.5t24 -44.5q0 -2 -0.5 -2.5t-1.5 -0.5q-16 2 -30.5 1.5t-29.5 6.5q-1 0 -1.5 0.5t-1.5 -0.5l-17 -3h-1t-2 1q-10 4 -19.5 4.5t-19.5 -3.5q-2 -1 -4 -1h-3q-1 1 -2 1h-1
q-7 -1 -13.5 -2t-13.5 -2q-10 -1 -19 0.5t-18 1.5q-5 -1 -9.5 -1.5t-8.5 -0.5h-1.5t0.5 1q9 18 16.5 35.5t20.5 34.5q8 10 13.5 21l11.5 23q5 11 13 22.5t12 25.5q0 2 -0.5 4t-2.5 3q-5 3 -10.5 5t-12.5 2h-1t-2 -1q-5 -3 -10.5 -5.5t-11.5 -3.5q-1 0 -1.5 -0.5l-1.5 -1.5
q-6 -14 -14.5 -27.5t-14.5 -27.5q-12 -26 -26.5 -50.5t-31.5 -48.5q-11 -16 -18.5 -32t-15.5 -33q-2 -5 -9.5 -15.5t-20.5 -27.5q-15 -19 -24 -41t-23 -43h-1l-1 1q-17 66 -7 130q10 63 43 114.5t87 85.5t125 40q29 3 20 27t-33 20q-64 -10 -118 -39q-53 -28 -91.5 -71.5
t-61.5 -99.5q-22 -57 -25 -122q-1 -23 0 -43t5 -37q0 -1 -0.5 -1.5t-1.5 -0.5l-32 -7l-0.5 0.5l-0.5 0.5q-19 88 -1 167q18 80 65 141.5t118 101.5t159 47q43 4 85 -1q41 -6 79 -20.5t73 -38.5q34 -24 64 -56q48 -53 72 -119q24 -67 24 -136.5t-24 -136.5q-24 -66 -72 -119
q-45 -49 -110.5 -81t-131.5 -36q-35 -1 -25.5 -26.5t36.5 -21.5q86 13 156 51t119 95.5t76 131.5q27 75 27 162q0 66 -22 130t-65 114q-52 61 -117 102q-65 40 -136 55t-146 4q-75 -12 -146 -54q-62 -36 -107 -87t-71 -111.5t-32 -128.5q-7 -68 9 -138q1 -8 2.5 -13.5
t1.5 -8.5v-1.5t-1 -1.5q-9 -13 -17 -36t0 -39q1 -3 3.5 -4t5.5 -1q8 0 14.5 3.5t11.5 9.5q2 4 4 5l6 3q1 0 1.5 0.5t0.5 1.5q0 9 4 17t10 15q10 14 31.5 20t35.5 -8q1 0 1.5 -1t0.5 -2q1 -12 10 -12t7 -14v-1.5v-1.5l11 -21q0 -1 0.5 -1.5t-0.5 -1.5q-2 -10 -6.5 -18
t-13.5 -14q-22 -14 -44.5 -16t-37.5 25l-1.5 1.5t-1.5 0.5l-13 5q-3 1 -6 1t-5 -2q-29 -27 -2 -47t48 -28q7 -3 15.5 -2.5t16.5 -1.5q1 0 2 -0.5l1 -0.5q57 -59 127 -93t153 -43q7 -1 13.5 -0.5t11.5 1.5q1 0 1.5 0.5t0.5 1.5q3 7 3 13t-3 12q-2 6 -7.5 9.5t-9.5 9.5
q0 1 -0.5 1.5t-1.5 0.5q-66 3 -125.5 31t-107.5 72v0v0q-1 1 -0.5 1.5l0.5 0.5v0v0q6 6 12 9.5t11 10.5v0v1h1h1v0v0q45 -43 98 -67q52 -25 108 -30.5t112 9.5q56 14 107 50q47 32 78 74q32 42 49.5 90t19.5 101t-11 107q-12 50 -38 92q-25 42 -61.5 74t-81.5 52
q-45 21 -96 29q-11 1 -19.5 3t-20.5 -3q-1 0 -1.5 -0.5t-0.5 -1.5q-6 -19 2 -25t16 -19l1 -0.5l1 -0.5h6t6 -1q1 0 1 -0.5t-1 -0.5v0zM732 319q-48 -52 -112.5 -77.5t-134.5 -20.5q-57 4 -104 27t-84 67q-1 0 -1.5 1t-0.5 2l1 4q1 1 1.5 1h1.5q8 0 16.5 -0.5t17.5 -0.5
q14 1 30 1t30 -3q5 -2 10 -2t10 -1q11 -4 22 -1t23 2t24 -3t23 -2q15 0 30 2t29 2q25 1 49.5 3.5t48.5 -0.5q18 -2 35 -1t34 1h1v-1v0zM647 495q3 7 4.5 13t5.5 12q2 3 3.5 5.5t3.5 4.5h0.5t0.5 1h0.5t0.5 -1v0v0q7 -13 13 -26t11 -26q6 -13 13.5 -23t15.5 -22
q10 -14 18 -29.5t16 -31.5v0v0q0 -1 -0.5 -1.5l-1.5 -1.5v0v0q-43 -1 -88.5 -2.5t-89.5 0.5v0v0q-1 0 -1.5 0.5l-0.5 0.5l0.5 0.5l0.5 0.5q1 5 4.5 9.5t4.5 9.5q5 15 13 28t18 24q6 5 8 15t8 17q4 6 10 11.5t9 11.5v0zM392 476q4 -2 6 -6t2 -9v-2v-1q3 -5 6.5 -10.5
t7.5 -9.5q2 -1 3.5 -4.5t2.5 -5.5q7 -7 13.5 -14.5t9.5 -17.5q2 -8 7 -14.5t10 -12.5v-1.5t-1 -0.5q-11 0 -21.5 0.5t-21.5 1.5q-32 5 -62 1t-63 -1l-0.5 0.5l-1.5 1.5l-14 23q-1 0 -1 1v2q3 9 9 16.5t10 14.5q8 17 18 31.5t23 28.5q2 2 4 5.5t3 6.5q4 9 8.5 17.5t11.5 17.5
v0v0q1 1 2.5 1t2.5 -1v-0.5t1 -0.5l6.5 -13t7.5 -14q3 -5 4 -11t1 -11q1 -3 2.5 -5t3.5 -4v0zM624 553q-5 -7 -8.5 -13.5t-7.5 -12.5q-3 -6 -8 -9.5t-10 -7.5q-1 -1 -1 -1.5v-1.5q-1 -5 -2 -8t-6 -7q-9 -8 -12.5 -17.5t-7.5 -19.5l-4 -10t-3 -10q-3 -8 -8.5 -13t-9.5 -13
q-4 -10 -9 -19t-12 -17q-1 -2 -3.5 -3.5t0.5 4.5v1.5t-1 1.5q-8 14 -17.5 28t-18.5 27q-9 12 -12 25t-13 24q-4 4 -6.5 7.5t-4.5 6.5q-3 7 -5 15.5t-6 15.5q-4 6 -9 10.5t-8 10.5q-1 3 -2.5 6t-3.5 6q0 1 0.5 1h0.5q8 -1 16 0t13 2q7 0 13 0.5t13 0.5q9 0 18.5 -1.5
t18.5 -2.5q11 0 22 2t23 1l4.5 -1l13.5 -3q13 -3 22 0t20 3q5 0 9 -0.5t8 -0.5t5 -2t-1 -5v0zM565 794q-1 1 -0.5 1.5t1.5 -0.5q65 -14 117 -51q51 -38 82 -90t39 -115q7 -63 -15 -128q-1 -2 -1.5 -2t-1.5 1q-6 9 -11 18t-9 19q0 1 -0.5 1.5l-1.5 1.5q-11 10 -19.5 32
t-12.5 35q-1 4 -5 9.5t-11 13.5q-2 2 -4.5 7t-5.5 14q-5 13 -10.5 23t-13.5 21q-13 17 -23.5 34.5t-23.5 34.5q-8 10 -13.5 25t-13.5 26q-4 6 -8 12.5t-8 12.5q-6 9 -12 21t-15 23v0zM119 910l-30 -16v-1.5v-0.5l30 -16q1 0 1.5 -1t1.5 -1l16 -30q0 -1 0.5 -1t1.5 1l16 30
l0.5 1t1.5 1l30 16q1 0 1 0.5t-1 1.5l-30 16q-1 0 -1.5 1l-0.5 1l-16 30q-1 1 -1.5 1t-0.5 -1l-16 -30q-1 0 -1.5 -1t-1.5 -1v0z" />
</svg>
