<?xml version="1.0" standalone="no"?>
<!DOCTYPE svg PUBLIC "-//W3C//DTD SVG 1.1//EN" "http://www.w3.org/Graphics/SVG/1.1/DTD/svg11.dtd" >
<svg xmlns="http://www.w3.org/2000/svg" xmlns:xlink="http://www.w3.org/1999/xlink" version="1.1" viewBox="-10 0 1034 1024">
   <path fill="currentColor"
d="M607 494v0v0q1 1 1.5 1t1.5 -1v0v0v0l186 -174q7 -5 12 -8t12 6q18 24 34 50q3 4 0 8q-27 28 -55 55q-37 36 -74 73t-74 73q0 1 -0.5 1.5t-0.5 1.5v0l12 32v0v0l0.5 0.5t1.5 -0.5v0v0v0q76 -50 153 -97q5 -3 8 -4.5t7 4.5q15 26 29 54q1 1 0.5 2.5t-1.5 2.5v0
q-50 37 -100 75q-50 37 -100 74.5t-101 74.5q-50 38 -100 75h-0.5h-1.5v0q-5 0 -8 1q-70 9 -140 19q-5 1 -7.5 0.5t-5.5 -3.5q-24 -26 -48 -53q-13 -15 -23.5 -32t-21.5 -34q-13 -20 -19 -33q-19 -47 -8 -98l3 -14q28 -153 60 -304q1 -6 3.5 -7.5t7.5 -0.5q33 5 65 12
q1 0 1.5 0.5t0.5 1.5v0q-4 84 -11 170q0 2 0.5 3t1.5 2v0q25 22 28.5 62.5t-12.5 67.5q-2 3 1 2q30 -10 40 -40t3 -58q-5 -17 -14.5 -29.5t-24.5 -21.5q-4 -2 -2 -6q25 -44 50 -87q25 -44 50.5 -87.5t50.5 -87.5q25 -43 49 -87v0v0q1 -2 2 -2h2v0v0v0l63 36q1 0 1 0.5v1.5v0
q-5 10 -10 21q-54 110 -106 221v0v0v1.5t1 0.5v0v0v0l31 10q1 1 1.5 0.5l0.5 -0.5v0q41 -57 81.5 -113.5t80.5 -113.5q4 -6 21 -28q3 -4 5 -6t8 2q23 16 44 35q6 4 6 8t-3 9q-15 23 -30.5 45.5t-30.5 44.5q-53 82 -107 163q-1 1 -0.5 2l0.5 1v1l19 23v0z" />
</svg>
