<?xml version="1.0" standalone="no"?>
<!DOCTYPE svg PUBLIC "-//W3C//DTD SVG 1.1//EN" "http://www.w3.org/Graphics/SVG/1.1/DTD/svg11.dtd" >
<svg xmlns="http://www.w3.org/2000/svg" xmlns:xlink="http://www.w3.org/1999/xlink" version="1.1" viewBox="-10 0 1034 1024">
   <path fill="currentColor"
d="M607 494v0v0q1 1 1.5 1t1.5 -1v0v0q46 -43 92.5 -86.5t93.5 -87.5q7 -5 12 -8t12 6q9 12 17.5 24.5t16.5 25.5q2 2 1.5 4t-1.5 4q-14 14 -27.5 28t-27.5 27q-37 36 -74 73t-74 73q0 1 -0.5 1.5t-0.5 1.5l12 32v0v0l0.5 0.5t1.5 -0.5v0v0q38 -25 76 -49t77 -48
q5 -3 8 -4.5t7 4.5q7 13 14.5 26.5t14.5 27.5q1 1 0.5 2.5t-1.5 2.5q-50 37 -100 75q-50 37 -100 74.5t-101 74.5q-50 38 -100 75h-0.5h-1.5q-2 0 -4 0.5t-4 0.5q-35 5 -70 9.5t-70 9.5q-5 1 -7.5 0.5t-5.5 -3.5q-12 -13 -24 -26.5t-24 -26.5q-13 -15 -23.5 -32t-21.5 -34
q-7 -10 -11.5 -18t-7.5 -15q-9 -23 -11.5 -47.5t3.5 -50.5q1 -7 2 -10.5l1 -3.5q14 -77 29 -153t31 -151q1 -6 3.5 -7.5t7.5 -0.5q17 2 33 5t32 7q1 0 1.5 0.5t0.5 1.5q-2 42 -4.5 84.5t-6.5 85.5q0 2 0.5 3t1.5 2q25 22 28.5 62.5t-12.5 67.5q-1 2 -1 2.5t2 -0.5
q30 -10 40 -40t3 -58q-5 -17 -14.5 -29.5t-24.5 -21.5q-2 -1 -2.5 -2.5t0.5 -3.5q25 -44 50 -87q25 -44 50.5 -87.5t50.5 -87.5q25 -43 49 -87v0v0q1 -2 2 -2h2v0v0l63 36q1 0 1 0.5v1.5q-3 5 -5.5 10.5t-4.5 10.5q-27 55 -53.5 110t-52.5 111v0v0v1.5t1 0.5v0v0l31 10
q1 1 1.5 0.5t1.5 -0.5q40 -57 80.5 -113.5t80.5 -113.5q2 -3 7.5 -10t13.5 -18q3 -4 5 -6t8 2q11 8 22.5 16.5t21.5 18.5q6 4 6 8t-3 9q-15 23 -30.5 45.5t-30.5 44.5q-26 41 -53 81.5t-54 81.5q-1 1 -0.5 2l0.5 1l19 24v0z" />
</svg>
