<?xml version="1.0" standalone="no"?>
<!DOCTYPE svg PUBLIC "-//W3C//DTD SVG 1.1//EN" "http://www.w3.org/Graphics/SVG/1.1/DTD/svg11.dtd" >
<svg xmlns="http://www.w3.org/2000/svg" xmlns:xlink="http://www.w3.org/1999/xlink" version="1.1" viewBox="-10 0 1034 1024">
   <path fill="currentColor"
d="M657 133q40 -26 75 -44.5l35 -18.5l-6 27q-5 27 -14 63t-22 73q-12 36 -26 56q-7 9 -16 15.5t-19 10.5q0 1 -0.5 2t-0.5 2q-5 12 -11 23t-12 21l-35.5 40t-93.5 40h-2v-413h1h1q47 0 86 28t60 75v0zM670 1024h-147v-58h-14v-482h1h1q37 0 68 -14.5t52 -50.5
q31 21 70.5 40.5t59.5 58.5q11 24 43 76t65.5 105.5t59.5 93.5l26 41l38 64l-57 -32l36 75l-67 -50l3 62l-64 -90l-39 44l19 -71l-154 -216v96v261v47v0zM502 384v59h-3q-39 0 -68 -20.5t-44 -38.5h115zM400 68q21 -18 46 -28t53 -10h1h2v38h-102v0zM342 162
q5 -17 12.5 -32.5t16.5 -28.5h131v61h-160zM363 352q-4 -8 -8 -16.5t-8 -16.5l-4 -14l-4 -14h163v61h-139v0zM334 258q-1 -7 -1 -13.5v-13.5q0 -9 0.5 -18.5t1.5 -18.5h167v64h-168zM238 539q4 -6 6.5 -11.5t4.5 -9.5q7 -12 15.5 -22t18.5 -18h169q11 3 22.5 4.5t24.5 1.5h1
h2v55h-264v0zM182 633q10 -17 19.5 -32.5t17.5 -28.5h283v61h-162v-13l-9 13h-149v0zM124 726q9 -14 18.5 -29.5t19.5 -31.5h148l-41 61h-145v0zM64 820q7 -10 17 -26t22 -35h144l-41 61h-142v0zM184 853l-35 52l-69 -52h104zM340 914v-61h162v61h-162zM340 1007v-61h162v20
h-15v41h-147v0zM340 1101v-61h147v61h-147zM340 1195v-61h147v61h-147zM340 1288v-61h147v61h-147zM487 1321v46h-210l38 -36l10 -10h162zM502 759v61h-162v-61h162v0zM502 665v61h-162v-61h162v0zM333 445q12 -6 24 -12.5t22 -13.5q4 7 9 14t11 12h-66v0zM154 195l35 95
l96 36l-96 35l-35 96l-35 -96l-96 -35l96 -36l35 -95v0zM885 339l28 75l74 27l-74 28l-28 74l-27 -74l-75 -28l75 -27zM930 179q0 15 -11 26.5t-26 11.5q-16 0 -27 -11.5t-11 -26.5q0 -16 11 -27t27 -11q15 0 26 11t11 27z" />
</svg>
