<?xml version="1.0" standalone="no"?>
<!DOCTYPE svg PUBLIC "-//W3C//DTD SVG 1.1//EN" "http://www.w3.org/Graphics/SVG/1.1/DTD/svg11.dtd" >
<svg xmlns="http://www.w3.org/2000/svg" xmlns:xlink="http://www.w3.org/1999/xlink" version="1.1" viewBox="-10 0 1034 1024">
   <path fill="currentColor"
d="M151 638q-16 -22 -27.5 -39.5t-15.5 -28.5q-3 -8 -6 -16.5t-6 -16.5q-13 -45 -9 -102t26 -100q15 -29 40.5 -54.5t52.5 -43.5q2 -2 -30.5 -48.5t-49.5 -78.5v-0.5v-0.5v-0.5t1 -0.5v0v0l46 -15t101.5 -33t101.5 -33l46 -14q2 30 11.5 90.5t12.5 59.5q35 -12 88.5 7.5
t85.5 44.5q26 21 45 50.5t31 59.5v1q0 1 2.5 7t2.5 7q15 55 19 109q3 55 -2.5 108t-19.5 105q-13 52 -33 102q0 1 -0.5 1.5t-1.5 0.5q-5 2 -13 5t-18 7l23 88l155 -102l30 159l-61 -68l-148 106q-25 -28 -50.5 -78.5t-33.5 -67.5q-41 18 -74.5 33.5t-34.5 15.5
q-1 -1 -31 -16.5t-64 -34.5l-152 33l36 145l-150 27l76 -67l-54 -119q38 -38 73 -59.5t85 -18.5q-18 -16 -34.5 -32.5t-30.5 -33.5l-23 63l-94 -60l-43 -22l12 -14l13 10l-6 -14l24 16l65 19l11 -48v0zM230 439q-17 6 -21.5 33.5t6.5 60.5q12 32 32.5 51t38.5 13
q18 -7 22.5 -34.5t-7.5 -59.5q-11 -33 -32 -52t-39 -12v0zM344 628q-26 8 -41.5 22t-11.5 25q12 43 25 18t39 -32q26 -8 49.5 6t10.5 -29q-4 -12 -24.5 -14.5t-46.5 4.5zM559 487l60 36l-68 79l-24 21l16 -2l-2 26l23 -13l5 19l7 -44l103 -96l-87 -61l-33 35v0zM946 84
l-335 27v-54l335 27v0zM946 242l-199 27v-54zM946 402l-161 27v-54zM946 565l-161 27v-54l161 27v0z" />
</svg>
