<?xml version="1.0" standalone="no"?>
<!DOCTYPE svg PUBLIC "-//W3C//DTD SVG 1.1//EN" "http://www.w3.org/Graphics/SVG/1.1/DTD/svg11.dtd" >
<svg xmlns="http://www.w3.org/2000/svg" xmlns:xlink="http://www.w3.org/1999/xlink" version="1.1" viewBox="-10 0 1034 1024">
   <path fill="currentColor"
d="M358 266l-3 -238l86 211l46 -173l22 212l172 -158l-37 172l238 -202l-111 297l101 -9l-43 88l179 -2l-205 120q-50 -78 -118 -120q-68 -43 -133.5 -62t-117.5 -21t-68 -2l-67 7l-68 -251l127 131v0zM265 559q-21 40 -69 50t-95 -15t-64.5 -71t3.5 -86q22 -39 70 -49.5
t95 14.5q46 25 64 71t-4 86zM273 610l-36 184l-118 167h126l110 -166l36 -145l200 86l-17 23q-18 23 -40 53.5t-43 60.5t-29 43q-16 28 -3.5 36.5l12.5 8.5h492l-89 -134l-39 36h-167l31 -36q31 -35 45.5 -90t-10.5 -120q-26 -66 -139 -125l-26 -12q-25 -11 -67 -22t-98 -16
q-55 -5 -115 9l19 43.5t-35 115.5v0z" />
</svg>
