<?xml version="1.0" standalone="no"?>
<!DOCTYPE svg PUBLIC "-//W3C//DTD SVG 1.1//EN" "http://www.w3.org/Graphics/SVG/1.1/DTD/svg11.dtd" >
<svg xmlns="http://www.w3.org/2000/svg" xmlns:xlink="http://www.w3.org/1999/xlink" version="1.1" viewBox="-10 0 1034 1024">
   <path fill="currentColor"
d="M97 122l25 -24l443 443q-4 3 -8 5.5t-7 6.5q-3 3 -5.5 6t-4.5 6l-443 -443v0zM130 89l18 -18q15 -15 35.5 -15t35.5 15l101 101q12 12 14.5 29t-5.5 31l132 132q52 11 110 23q57 11 113.5 27t107.5 41q50 24 88 61q34 34 52 81q19 47 19.5 97t-16.5 99q-18 48 -55 86
q-38 37 -86 55q-49 17 -99 16t-97 -19q-46 -18 -80 -52q-38 -38 -63 -88t-42 -105.5t-29 -112.5q-11 -57 -23 -109l-132 -132q-14 7 -30.5 5t-28.5 -14l-102 -101q-14 -15 -14 -35.5t14 -35.5l20 -20l445 445q-11 24 -6.5 50.5t23.5 45.5t45.5 23.5t50.5 -7.5l65 65l8 -8
l-62 -63q3 -2 6 -4.5t6 -5.5t6 -7l6 -8l65 65l9 -9l-68 -67q10 -23 5.5 -48.5t-23.5 -44.5t-44.5 -23.5t-48.5 5.5l-446 -446v0zM821 713l-112 108l16 17l112 -108zM695 177q11 4 24.5 7t29.5 6q41 7 86.5 15.5t93.5 20.5q1 0 2 0.5l1 0.5q19 35 -3.5 88t-92.5 66
q-21 4 -38.5 -1t-15.5 -25q2 -19 23 -45.5t36 -43.5v0h1q1 -2 0.5 -3.5t-1.5 -1.5v0v0q-78 -16 -154 -34t-151 -37q-11 -3 -17 -5.5t-9 -4.5q-7 -7 -7.5 -19t17.5 -21q6 -4 12 -6t12 -3q27 -4 53.5 -6t51.5 -3q37 -1 95 -15.5t97 -39.5q3 -2 6 -3.5t6 -3.5v0v0h1.5t0.5 1v0
v0q-3 22 -16 41.5t-36 36.5q-18 14 -52.5 23t-54.5 13l-2 1l1 1v0zM174 561q20 38 44 75.5t46 74.5q29 49 56.5 94t54.5 91q2 3 1.5 5.5t-2.5 4.5q-24 18 -67.5 30t-92.5 -22q-33 -22 -48 -55t17 -45q21 -7 45 -6.5t51 9.5h1v0q1 0 1.5 -0.5t0.5 -1.5v0v-1q-31 -50 -61 -100
t-61 -100q-17 -25 -30 -52.5t-27 -53.5q-4 -6 -4.5 -11.5t1.5 -10.5q2 -6 9 -5.5t19 7.5q10 6 24 31.5t22 41.5v0z" />
</svg>
