<?xml version="1.0" standalone="no"?>
<!DOCTYPE svg PUBLIC "-//W3C//DTD SVG 1.1//EN" "http://www.w3.org/Graphics/SVG/1.1/DTD/svg11.dtd" >
<svg xmlns="http://www.w3.org/2000/svg" xmlns:xlink="http://www.w3.org/1999/xlink" version="1.1" viewBox="-10 0 1034 1024">
   <path fill="currentColor"
d="M703 344q-5 19 -8.5 41.5t-5.5 48.5q-5 68 -13 143t-18 157l-1.5 3t-1.5 2q-26 22 -65 30q-38 9 -76.5 0t-72.5 -38q-33 -28 -49 -80q-10 -31 -3.5 -61.5t38.5 -34.5q30 -4 76 17.5t76 38.5l0.5 0.5l0.5 0.5q2 1 4.5 0t3.5 -3v-0.5v-0.5q7 -64 15 -128q8 -65 17 -128.5
t19 -127.5q9 -63 20 -126q3 -17 6 -28t6 -16q10 -15 29 -20.5t38 18.5q6 8 10.5 17t6.5 18q10 41 17.5 81.5t12.5 80.5q4 29 14 67t25.5 77t34.5 75q20 36 43 61q4 4 7 8t5 9v0v0q1 2 0.5 3t-1.5 1v0v0q-36 3 -69 -10t-64 -41q-25 -24 -44.5 -74.5t-30.5 -80.5l-1.5 -1.5
t-0.5 1.5v0zM221 402q13 60 31.5 120.5t34.5 121.5q21 79 41 152t40 147q1 5 0 8t-5 5q-41 16 -105.5 15.5t-119.5 -66.5q-37 -44 -45 -95t42 -55q31 -3 64 7.5t68 33.5v0h1q1 1 2 0.5t1 -2.5v0v-1q-12 -40 -23 -81q-11 -40 -22 -80.5t-22 -81.5q-12 -40 -24 -81
q-12 -42 -20 -84.5t-17 -84.5q-2 -10 -1 -17.5t5 -13.5q6 -8 16 -4.5t23 18.5q12 12 21 52t14 67v0zM912 960h-125v-140h-63l126 -166l125 166h-63v140v0zM453 386h-150v-147h-75l150 -200l150 200h-75v147v0zM120 47l19 53l54 20l-53 20l-20 53l-20 -53l-53 -20l53 -20z
M547 818l20 56l55 20l-55 20l-20 56l-21 -56l-55 -20l55 -20zM891 101l16 44l43 15l-43 16l-16 43l-16 -43l-43 -16l43 -15z" />
</svg>
