<?xml version="1.0" standalone="no"?>
<!DOCTYPE svg PUBLIC "-//W3C//DTD SVG 1.1//EN" "http://www.w3.org/Graphics/SVG/1.1/DTD/svg11.dtd" >
<svg xmlns="http://www.w3.org/2000/svg" xmlns:xlink="http://www.w3.org/1999/xlink" version="1.1" viewBox="-10 0 1034 1024">
   <path fill="currentColor"
d="M260 1024l-3 -66l-152 -147l-64 -275l18 -192l58 7l-1 131l-31 9l-5 50l57 200l30 -35l-53 -180l70 6l64 155q75 6 121 35q45 29 69.5 61.5t32.5 58.5l8 26l8 156h-227v0zM536 1024l8 -156l8 -26t32.5 -58.5t70.5 -61.5q45 -29 120 -35l65 -155l69 -6l-53 180l30 35
l57 -200l-5 -50l-30 -9l-2 -131l58 -7l18 192l-63 275l-152 147l-4 66h-227v0zM538 529l19 51l52 19l-52 19l-19 52l-19 -52l-51 -19l51 -19l19 -51v0zM470 180l44 121l122 45l-122 45l-44 121l-45 -121l-122 -45l122 -45l45 -121v0zM328 135l15 40l41 16l-41 15l-15 41
l-15 -41l-41 -15l41 -16zM247 362l56 27l-41 243l-46 -115l31 -155v0zM511 12l15 39l39 15l-39 14l-15 40l-14 -40l-40 -14l40 -15l14 -39v0zM864 279l24 214l-64 5l-16 -209zM776 362l31 155l-46 115l-40 -243l55 -27v0zM318 486l43 29l-17 152l-59 -10l33 -171v0zM159 279
l56 10l-16 209l-64 -5l24 -214v0zM705 486l34 171l-60 10l-17 -152zM673 96l26 71l72 26l-72 26l-26 71l-26 -71l-71 -26l71 -26z" />
</svg>
