<?xml version="1.0" standalone="no"?>
<!DOCTYPE svg PUBLIC "-//W3C//DTD SVG 1.1//EN" "http://www.w3.org/Graphics/SVG/1.1/DTD/svg11.dtd" >
<svg xmlns="http://www.w3.org/2000/svg" xmlns:xlink="http://www.w3.org/1999/xlink" version="1.1" viewBox="-10 0 1034 1024">
   <path fill="currentColor"
d="M0 690h166l-38 55h-128v-55zM0 775h142q2 3 4 5.5t4 5.5q2 11 7.5 20.5t15.5 16.5l10 8h-183v-56zM0 861h222l13 10q10 7 21 10t23 1v34h-279v-55v0zM0 946h279v56h-279v-56zM0 174h381q-1 8 -1.5 16.5t-0.5 17.5q0 6 0.5 12t0.5 12h-380v-58v0zM0 433q34 1 86 1
q52 1 101 1h85q37 -1 41 -2h2q-1 2 -2.5 4.5t-2.5 4.5l-4 8t-5 9q-2 4 -3.5 8t-2.5 8q-3 2 -6 5.5t-5 7.5v0l-1 1h-283v-56v0zM0 519h266q-4 5 -7.5 11.5t-7.5 12.5q-3 3 -4.5 7.5t-2.5 8.5l-6 6t-6 7q0 1 -0.5 1.5l-0.5 0.5h-231v-55v0zM0 604h213l-8 12t-7 12q-3 4 -4.5 8
t-2.5 8q-4 3 -7 6.5t-5 6.5q0 1 -0.5 1.5l-1.5 1.5h-177v-56v0zM762 831h-294v-56h294v56zM628 879h-26v37h-134v-55h294v55h-134v-37v0zM762 745h-294v-55h294v55zM855 489h-480l5.5 -11t4.5 -8q6 -11 13.5 -20t16.5 -17h155q10 3 20.5 4.5t22.5 1.5h4q11 0 22 -1.5
t21 -4.5h154q10 8 17.5 17t13.5 20q2 3 4.5 8l5.5 11v0zM767 232h-305q0 -6 -0.5 -12t-0.5 -12q0 -9 0.5 -17.5t1.5 -16.5h303q1 8 2 16.5t1 17.5q0 6 -0.5 12t-1.5 12v0zM707 59h-185q19 -17 42 -26t49 -9h0.5h1.5v0h1.5h0.5q25 0 48 9t42 26v0zM762 660h-294v-56h294v56z
M760 144h-290q4 -16 10.5 -29.5t15.5 -26.5h238q8 13 14.5 26.5t11.5 29.5zM741 318h-252q-4 -7 -7.5 -15t-7.5 -16q-2 -6 -3.5 -12t-3.5 -13h296q-2 7 -4 13l-4 12q-3 8 -6.5 16t-7.5 15zM762 574h-294v-12l-8 12h-137q10 -15 18.5 -29t15.5 -26h515q8 12 16.5 26t17.5 29
h-136l-8 -12v12v0zM617 401h-4q-36 0 -62 -18.5t-41 -35.5h209q-14 17 -40.5 35.5t-61.5 18.5v0zM461 403l22 -12t20 -12q4 7 8.5 13t9.5 11h-60v0zM2 403q11 -6 56 -12t55 -12q4 7 8.5 13t9.5 11h-129v0zM325 775l-32 48l-63 -48h95v0zM960 660h-133l-37 -56h135
q8 14 17 28l18 28v0zM216 745q6 -9 15 -23.5t20 -31.5h131l-37 55h-129zM400 318h-333q-4 -7 -8 -15t-7 -16l-4 -12t-3 -13h340q0 3 0.5 6.5t1.5 6.5q2 9 4 17t5 16l0.5 0.5l0.5 0.5q1 2 1.5 4.5t1.5 4.5v0zM412 916h-81v-37l4.5 -6t9.5 -12h67v55zM468 1002v-56h134v56
h-134zM402 775h9v56h-46l37 -56v0zM412 1002h-81v-56h81v56zM1014 745h-129l-38 -55h131q12 17 21 31.5t15 23.5v0zM270 660q9 -14 17.5 -28t17.5 -28h135l-38 56h-132v0zM905 775h94l-63 48zM762 1002h-134v-56h134v56zM768 403h-59q4 -5 8.5 -11t9.5 -13q9 6 19.5 12
t21.5 12zM384 144h-336q5 -16 11.5 -30t14.5 -26h325q-5 12 -12.5 26t-2.5 30zM263 401h-0.5h-1.5q-35 0 -81 -18.5t-60 -35.5h276q-14 17 -54.5 35.5t-75.5 18.5h-1.5h-0.5h-1v0zM384 59h-261q27 -17 59.5 -26t67.5 -9h1.5h1.5h1h1.5h1.5q36 0 68 9t59 26v0z" />
</svg>
