<?xml version="1.0" standalone="no"?>
<!DOCTYPE svg PUBLIC "-//W3C//DTD SVG 1.1//EN" "http://www.w3.org/Graphics/SVG/1.1/DTD/svg11.dtd" >
<svg xmlns="http://www.w3.org/2000/svg" xmlns:xlink="http://www.w3.org/1999/xlink" version="1.1" viewBox="-10 0 1034 1024">
   <path fill="currentColor"
d="M290 1024q-5 -5 -10.5 -9.5t-10.5 -9.5q-51 -46 -94 -114q-43 -67 -72 -131.5t-41 -114.5q-12 -49 -2 -61q21 40 40 58.5t36 16.5q-48 -155 -45 -261t28 -173t58 -99q33 -33 43 -41q-34 49 -26 103q7 54 30.5 87.5t49.5 32.5q27 -1 30 -61q5 -77 30 -124q26 -46 55 -71
t53 -32l23 -8q-17 20 -19 53t9.5 67t34.5 62t53 39q73 25 73.5 -48l0.5 -73q55 23 75 58t29.5 71.5t19.5 71.5q9 34 43 57q28 20 38 -7q10 -26 10.5 -66t-3.5 -76l-4 -37q53 42 74 99q21 58 23.5 112t-6.5 96q-8 43 -14 54q-33 185 20 133l53 -52q12 49 12 105
q-1 56 -7.5 110t-17.5 102t-20 81h-53q-22 -39 -47 -82t-46.5 -79t-35.5 -59l-15 -23q-8 -49 -16 -97q-8 -49 -16 -97.5t-16 -96.5q-8 -49 -16 -97q0 -1 -1 -2t-2 -1q-13 0 -25 0.5t-23 0.5q-6 0 -6 3v8q3 35 6 70.5t7 71.5v0v0l-0.5 0.5l-0.5 0.5v0v0l-26 -4h-1.5t-0.5 -1
q-12 -39 -24.5 -78t-24.5 -78q-4 -15 -9 -29.5t-10 -28.5q-1 -2 -2 -3t-3 -1q-12 1 -24 3l-24 4q-8 1 -8 6t2 11q13 48 26.5 96.5t27.5 96.5v0.5t-1 1.5l-23 5q-1 0 -1.5 -0.5l-1.5 -1.5q-19 -33 -37.5 -66.5t-37.5 -67.5q-10 -18 -20 -36.5t-21 -37.5q-2 -4 -5 -5.5t-8 0.5
q-10 4 -20.5 9t-20.5 10q-4 2 -3.5 4.5t2.5 5.5q4 10 7.5 16.5t4.5 8.5q25 49 50 97.5t50 97.5v0.5v1.5l-19 18v0v0h-0.5h-1.5v0v0q-29 -39 -58 -77t-58 -77q-2 -4 -5 -7.5t-6 -7.5h-1h-1l-47 31q-1 1 -1 2v2q44 66 86 130.5t85 130.5q1 2 2.5 2t2.5 -1q12 -7 24.5 -7
t26.5 2q22 5 39.5 23t13.5 43q0 1 -0.5 1t-1.5 -1q-13 -21 -42 -29t-54 2q-1 1 -2 0.5t-2 -0.5q-29 -18 -58 -40t-58 -38q0 -1 -0.5 -0.5t-1.5 0.5q-8 10 -16 20.5t-16 20.5q-2 3 -1.5 5.5t3.5 5.5q47 38 94.5 76t96.5 76l2 1.5t6 5.5q16 13 34 20t38 9q6 1 13 0.5t17 -1.5
q6 -1 19.5 29.5t29.5 71.5h-341v0z" />
</svg>
