<?xml version="1.0" standalone="no"?>
<!DOCTYPE svg PUBLIC "-//W3C//DTD SVG 1.1//EN" "http://www.w3.org/Graphics/SVG/1.1/DTD/svg11.dtd" >
<svg xmlns="http://www.w3.org/2000/svg" xmlns:xlink="http://www.w3.org/1999/xlink" version="1.1" viewBox="-10 0 1044 1024">
   <path fill="currentColor"
d="M0 313l106 -9q-12 35 -17 71.5t-2 73.5l-87 -36v-100v0zM0 599l98 -83q9 34 25 67.5t38 64.5l-161 38v-87v0zM515 1024l-93 -222q11 1 22.5 1.5t22.5 0.5q16 0 37 4.5t45 10.5l-16 205h-18v0zM904 1024l-342 -342q-30 14 -66 12q-37 -2 -73.5 -14.5t-70.5 -32.5
q-34 -21 -59 -44q-9 2 -20 -2t-20 -13q-13 -12 -15.5 -27t6.5 -24q8 -9 23 -6t28 15q6 6 9.5 13t5.5 14q23 4 54.5 9.5t62.5 6.5q29 0 13 -49t-17 -86q-9 3 -19 2.5t-19 -4.5q-4 -2 -8 -4.5t-7 -5.5q-15 -15 -15 -36.5t15 -36.5t36 -15t37 15q3 3 5 6.5t4 6.5q5 9 5.5 19
t-2.5 20q36 1 86.5 18.5t50.5 -11.5q0 -31 -5.5 -63.5t-10.5 -56.5q-7 -1 -14.5 -5t-13.5 -10q-12 -13 -15 -27.5t6 -23.5t24 -6t27 15q8 8 12 18t3 19q24 25 44 60q21 35 33 72t14 74q1 37 -13 67l341 341v122h-120v0zM1024 532l-231 19v-10t1 -9q5 -28 5 -56.5t-4 -57.5
l229 96v18v0zM687 0l-41 170q-31 -24 -65 -41t-70 -26l89 -103h87v0zM414 0l39 92q-38 -3 -75.5 1t-72.5 16l9 -109h100v0zM15 0l228 138q-16 10 -31 22t-29 25q-13 13 -24 26.5t-21 28.5l-138 -227v-13h15v0zM693 212l306 -73l-227 195q-13 -33 -33 -64t-46 -58v0zM329 778
l-189 220l70 -296q27 25 57 44t62 32v0zM241 474q-28 -42 -30.5 -93.5t22.5 -93.5q-9 -12 -8.5 -27.5t11.5 -26.5t27 -12t27 9q43 -25 93.5 -22.5t91.5 30.5q3 0 5 0.5t4 1.5q-11 20 -7 46.5t26 48.5q4 5 8.5 8.5t8.5 5.5q2 10 4 21t3 22q-5 -1 -10.5 -2t-9.5 -2
q-3 0 -5.5 -0.5t-5.5 -0.5q-2 -13 -8.5 -25t-16.5 -22q-27 -27 -65 -27t-65 27t-27 65.5t27 65.5q10 10 22.5 16.5t25.5 8.5q2 7 3 14l2 14q-11 -1 -22 -3l-22 -4q-2 -4 -5.5 -8t-7.5 -8q-21 -22 -47.5 -25.5t-46.5 5.5q0 -2 -0.5 -3.5t-1.5 -3.5v0z" />
</svg>
