<?xml version="1.0" standalone="no"?>
<!DOCTYPE svg PUBLIC "-//W3C//DTD SVG 1.1//EN" "http://www.w3.org/Graphics/SVG/1.1/DTD/svg11.dtd" >
<svg xmlns="http://www.w3.org/2000/svg" xmlns:xlink="http://www.w3.org/1999/xlink" version="1.1" viewBox="-10 0 1044 1024">
   <path fill="currentColor"
d="M0 307l95 -7q-13 35 -18 73t-2 77l-75 -31v-112v0zM0 593l86 -74q9 36 25.5 70.5t40.5 65.5l-152 36v-98v0zM509 1024l-87 -209q11 1 23 2t23 1q17 0 38.5 4t47.5 10l-16 192h-29zM904 1024l-342 -342q-30 14 -66 12q-37 -2 -73.5 -14.5t-70.5 -32.5q-34 -21 -59 -44
q-9 2 -20 -2t-20 -13q-13 -12 -15.5 -27t6.5 -24q8 -9 23 -6t28 15q6 6 9.5 13t5.5 14q23 4 54.5 9.5t62.5 6.5q29 0 13 -49t-17 -86q-9 3 -19 2.5t-19 -4.5q-4 -2 -8 -4.5t-7 -5.5q-15 -15 -15 -36.5t15 -36.5t36 -15t37 15q3 3 5 6.5t4 6.5q5 9 5.5 19t-2.5 20
q36 1 86.5 18.5t50.5 -11.5q0 -31 -5.5 -63.5t-10.5 -56.5q-7 -1 -14.5 -5t-13.5 -10q-12 -13 -15 -27.5t6 -23.5t24 -6t27 15q8 8 12 18t3 19q24 25 44 60q21 35 33 72t14 74q1 37 -13 67l341 341v122h-120v0zM1024 537l-218 18v-10t1 -9q5 -29 5 -59t-4 -59l216 90v29v0z
M692 0l-38 160q-32 -24 -67.5 -41.5t-72.5 -27.5l79 -91h99v0zM420 0l34 81q-40 -4 -78.5 0.5t-75.5 16.5l8 -98h112v0zM26 0l210 128q-16 10 -32 22.5t-30 26.5q-13 13 -24.5 27t-21.5 29l-128 -210v-23h26zM702 204l317 -75l-235 202q-14 -34 -34.5 -66t-47.5 -61v0z
M672 897q17 0 28.5 11.5t11.5 28.5t-11.5 28.5t-28.5 11.5q-16 0 -28 -11.5t-12 -28.5t12 -28.5t28 -11.5zM940 623q16 0 28 11.5t12 28.5q0 16 -12 28t-28 12q-17 0 -28.5 -12t-11.5 -28q0 -17 11.5 -28.5t28.5 -11.5zM326 790l-196 228l73 -306q27 25 58.5 45t64.5 33z
M347 908q16 0 28 11.5t12 28.5q0 16 -12 28t-28 12q-17 0 -28.5 -12t-11.5 -28q0 -17 11.5 -28.5t28.5 -11.5zM78 746q16 0 28 11.5t12 28.5q0 16 -12 28t-28 12q-17 0 -28.5 -12t-11.5 -28q0 -17 11.5 -28.5t28.5 -11.5v0zM945 315q16 0 28 11.5t12 28.5q0 16 -12 28
t-28 12q-17 0 -28.5 -12t-11.5 -28q0 -17 11.5 -28.5t28.5 -11.5zM776 39q17 0 28.5 11.5t11.5 28.5q0 16 -11.5 28t-28.5 12t-28.5 -12t-11.5 -28q0 -17 11.5 -28.5t28.5 -11.5zM241 474q-28 -42 -30.5 -93.5t22.5 -93.5q-9 -12 -8.5 -27.5t11.5 -26.5t27 -12t27 9
q43 -25 93.5 -22.5t91.5 30.5q3 0 5 0.5t4 1.5q-11 20 -7 46.5t26 48.5q4 5 8.5 8.5t8.5 5.5q2 10 4 21t3 22q-5 -1 -10.5 -2t-9.5 -2q-3 0 -5.5 -0.5t-5.5 -0.5q-2 -13 -8.5 -25t-16.5 -22q-27 -27 -65 -27t-65 27t-27 65.5t27 65.5q10 10 22.5 16.5t25.5 8.5q2 7 3 14
l2 14q-11 -1 -22 -3l-22 -4q-2 -4 -5.5 -8t-7.5 -8q-21 -22 -47.5 -25.5t-46.5 5.5q0 -2 -0.5 -3.5t-1.5 -3.5v0z" />
</svg>
