<?xml version="1.0" standalone="no"?>
<!DOCTYPE svg PUBLIC "-//W3C//DTD SVG 1.1//EN" "http://www.w3.org/Graphics/SVG/1.1/DTD/svg11.dtd" >
<svg xmlns="http://www.w3.org/2000/svg" xmlns:xlink="http://www.w3.org/1999/xlink" version="1.1" viewBox="-10 0 1034 1024">
   <path fill="currentColor"
d="M219 386l-130 -75l37 -65l140 80l-46 -125l65 -24l75 204l114 66v-138l-133 -165l54 -44l22 27l19 23.5t38 48.5v-154h76v152l80 -97l53 44l-133 161v142l110 -64l80 -206l65 25l-13 32l-12 31.5t-24 62.5l142 -82l37 65l-128 74l115 20l-12 68l-197 -33l-125 72l104 60
l219 -33l11 68l-35 6l-33 5l-66 10l147 85l-37 65l-134 -77l41 109l-65 24l-70 -187l-120 -70v125l133 166l-54 43l-22 -27l-18.5 -23.5t-38.5 -47.5v166h-76v-164l-79 96l-54 -44l133 -161v-129l-116 68l-74 190l-65 -25l13 -33l9.5 -24.5t20.5 -52.5l-136 78l-37 -65
l145 -84l-132 -22l12 -69l214 37l108 -63l-121 -70l-202 31l-10 -69l34 -5l26 -4t56 -9v0z" />
</svg>
