<?xml version="1.0" standalone="no"?>
<!DOCTYPE svg PUBLIC "-//W3C//DTD SVG 1.1//EN" "http://www.w3.org/Graphics/SVG/1.1/DTD/svg11.dtd" >
<svg xmlns="http://www.w3.org/2000/svg" xmlns:xlink="http://www.w3.org/1999/xlink" version="1.1" viewBox="-10 0 1044 1024">
   <path fill="currentColor"
d="M657 0l367 1003v21h-12l-1012 -370v-654h657zM602 699l-38 16l10 22l66 -29l48 12l-32 31l-76 8l2 23l47 -4l-42 41l19 18l39 -39l-3 29l-2 12l24 2l9 -70l33 -32l12 42l-31 66l22 9l19 -39l14 54l26 -6l-15 -56l36 26l14 -19l-60 -43l-11 -41l47 12l41 55l20 -14
l-24 -32l53 13l7 -25l-58 -14l44 -19l-10 -22l-72 31l-41 -10l37 -36l70 -7l-2 -24l-41 5l37 -37l-19 -18l-41 40l5 -34l1 -12l-24 -2l-9 75l-32 31l-13 -46l31 -66l-22 -10l-19 40l-13 -51l-26 7l14 51l-36 -25l-14 19l60 43l12 45l-45 -11l-44 -61l-20 14l27 38l-55 -14
l-7 25l51 13v0zM143 433q-13 17 -24 32.5l-11 15.5l-15 20l39 28l87 -118l97 -27l-24 86l-127 92l28 39l78 -56l-33 116l52 13l30 -108q8 19 15.5 36l7.5 17l10 23l45 -21l-56 -131l26 -93l63 64l12 147l49 -5l-7 -88l81 81l39 -39l-83 -82l89 8l7 -49l-150 -14l-62 -61
l96 -27l128 57l21 -45l-74 -33l106 -30l-13 -52l-117 33q14 -19 28.5 -38.5l14.5 -19.5l14 -20l-39 -29l-95 129l-83 23l28 -100l117 -84l-27 -39l-69 49l29 -102l-51 -14l-32 113l-28 -65l-9 -22l-46 21l61 142l-24 88l-70 -70l-12 -147l-49 5l7 88l-75 -75l-39 39l76 76
q-22 -2 -43 -4l-21 -2l-24 -3l-6 49l149 15l68 67l-90 26l-140 -62l-21 45l86 38l-112 31l14 52l103 -29v0zM864 902l-8 11l7 5l14 -19l15 -5l-4 14l-20 15l4 6l13 -9l-5 19l8 2l5 -18l5 13l7 -4l-9 -21l4 -14l10 10l2 23l8 -1l-1 -14l13 13l6 -6l-13 -13l14 1l1 -8l-24 -2
l-10 -10l16 -4l20 9l3 -7l-11 -5l16 -5l-2 -8l-18 5l9 -12l-6 -5l-15 20l-14 4l5 -16l18 -13l-4 -6l-11 7l5 -16l-9 -2l-5 18l-4 -10l-1 -4l-8 3l10 23l-4 14l-11 -11l-2 -24l-8 1l1 14l-12 -12l-6 7l12 12l-14 -2l-1 8l24 2l11 11l-15 4l-22 -10l-3 8l14 6l-18 5l2 8l16 -5
v0zM194 810l-82 93l-43 -92zM868 30l-82 94l-43 -93zM276 804l54 55l-102 5zM55 687l35 55l-64 3l29 -58v0zM868 171l34 55l-64 3z" />
</svg>
