<?xml version="1.0" standalone="no"?>
<!DOCTYPE svg PUBLIC "-//W3C//DTD SVG 1.1//EN" "http://www.w3.org/Graphics/SVG/1.1/DTD/svg11.dtd" >
<svg xmlns="http://www.w3.org/2000/svg" xmlns:xlink="http://www.w3.org/1999/xlink" version="1.1" viewBox="-10 0 1034 1024">
   <path fill="currentColor"
d="M386 828q-50 -25 -83.5 -67t-60.5 -101q-21 -46 -34 -103q-12 -57 -16.5 -108.5t-1.5 -87.5q3 -37 13 -43q4 33 12.5 50.5t20.5 20.5q6 -119 34 -191q29 -72 63 -112t64 -54q31 -14 40 -18q-35 26 -44 65q-8 39 0 67.5t26 34.5q18 7 36 -34q45 -104 107 -113l62 -9
q-34 19 -36 80.5t35 91.5q44 35 62.5 -15l18.5 -50q63 59 39.5 115t10.5 104q30 41 40.5 -33.5l10.5 -74.5q40 65 33 133.5t-23 107.5q-47 119 -20.5 97.5l26.5 -21.5q-9 79 -44.5 147.5t-84.5 102.5q-50 35 -98 45t-89 6.5t-73 -14.5q-31 -11 -46 -19v0zM396 638
q25 14 51.5 51.5l26.5 37.5l1 -8.5t-4 -73.5t-48.5 -70.5t-55.5 2.5q-51 36 -23.5 41.5t52.5 19.5v0zM692 651q22 -17 43 -21.5t-15 -29.5q-10 -6 -45 -1.5t-39 56.5t-3 59.5l1 7.5l17.5 -26.5t40.5 -44.5zM224 1024q4 -52 41 -96t87 -72q34 19 75 30t86 11t85.5 -11
t74.5 -30q50 28 85.5 72t38.5 96h-73q-4 -17 -8 -29t-7 -11q-2 1 -4 12.5t-3 27.5h-371q0 -20 -0.5 -35t-3.5 -16t-7.5 14.5t-9.5 36.5h-86v0z" />
</svg>
