<?xml version="1.0" standalone="no"?>
<!DOCTYPE svg PUBLIC "-//W3C//DTD SVG 1.1//EN" "http://www.w3.org/Graphics/SVG/1.1/DTD/svg11.dtd" >
<svg xmlns="http://www.w3.org/2000/svg" xmlns:xlink="http://www.w3.org/1999/xlink" version="1.1" viewBox="-10 0 1034 1024">
   <path fill="currentColor"
d="M867 343q0 25 -17.5 43t-42.5 18q-26 0 -43.5 -18t-17.5 -43t17.5 -43t43.5 -18q25 0 42.5 18t17.5 43zM352 506q-28 -17 -47 -65q-18 -48 -18.5 -107t20.5 -119q22 -59 73 -100q18 -14 3 -39t-38 -22q-20 2 -33 9.5t-29 22.5q-52 50 -60 122t9.5 138.5t52.5 113.5
q34 47 67 46v0zM777 498l-24 21.5t-88 12.5t-69 -53t-4 -57t-8.5 -36.5t-40.5 -22.5q-32 0 -44 17.5t-13 35.5q-1 17 5 55t58 70q52 31 118.5 28.5t109.5 -71.5v0zM330 542q-8 3 -52 -48.5t-71 -105.5q-8 -15 -27 -15t-32 12q-13 11 -13 27.5t9 31.5q14 25 45 45
q30 20 61 33t55 19q24 5 25 1v0zM493 588q-6 4 -42.5 -7t-67.5 -28q-9 -5 -18 1t-12 16t2.5 17.5t14.5 12.5q31 16 78 4.5t45 -16.5v0zM566 57q35 1 72 14q37 12 68 33t53 49t27 59q3 20 22 28.5t34 -3.5q15 -13 16.5 -32.5t-8.5 -48.5q-15 -40 -60 -65q-45 -24 -94 -35.5
t-88 -10.5t-42 12v0zM0 657q49 -3 116.5 -12.5t125.5 -28.5l15.5 4t38.5 10q28 7 59.5 16l52.5 15l257 19l42 76l-29.5 5t-98.5 15q-15 2 -33 4.5t-38 5.5q-30 4 -65 8.5t-76 9.5l61 25.5t200 -10.5q69 -18 126 -46t97 -54.5t62 -45.5l22 -19l78 64l-43 34q-42 34 -106.5 79
t-140.5 91q-77 45 -145 68l-70 11.5t-117 5.5q-37 -5 -70 -22q-34 -18 -77 -36.5t-101 -33.5q-58 -14 -143 -13v-245v0zM751 727l-33 -39l159 -84l43 23l-169 100v0zM719 655l103 -53l-31 -22l-56 26q-2 13 -6.5 25t-9.5 24zM431 59q9 -20 36.5 -31.5t33.5 10.5l-2.5 17
t-67.5 4zM548 578q-78 -20 -98.5 -28.5t-57.5 -37.5q-19 -15 -37 -51q-19 -37 -28.5 -82t-3.5 -92q6 -48 36 -84q62 -74 122.5 -85.5t102.5 -4.5q42 6 92.5 54t29.5 104q-21 57 -55 65t-117 -4q-82 -13 -99.5 26.5l-17.5 39.5q-4 48 16 83q20 34 45.5 55.5t47.5 31.5l22 10
v0z" />
</svg>
