<?xml version="1.0" standalone="no"?>
<!DOCTYPE svg PUBLIC "-//W3C//DTD SVG 1.1//EN" "http://www.w3.org/Graphics/SVG/1.1/DTD/svg11.dtd" >
<svg xmlns="http://www.w3.org/2000/svg" xmlns:xlink="http://www.w3.org/1999/xlink" version="1.1" viewBox="-10 0 1034 1024">
   <path fill="currentColor"
d="M129 580q-8 -16 24 3q31 18 67 40t58 32q23 10 -4 -22q-26 -33 -69 -85q-44 -53 -79.5 -101.5t-52.5 -80.5q-16 -32 11 -23q13 4 49 30q37 27 69.5 50t47.5 31q16 7 -13 -27q-33 -40 -76 -91q-42 -50 -76.5 -96.5t-54.5 -82.5q-20 -35 -9 -45t83 47q71 57 152.5 126
t146.5 124q65 54 63 40t-61 -80q-59 -67 -127 -140.5t-121 -131.5q-52 -58 -42 -55q8 2 38 25t70 55.5t83 69.5q44 37 78 67q59 51 98.5 65.5t2.5 -32.5q-46 -57 -100 -107.5t-42 -62.5q5 -5 52 26q47 30 106 78.5t115 105.5t80 104q25 48 35 94t8 86.5t-14 74.5
q-13 34 -34 59q-42 50 -93 70.5t-128 7.5q-59 -10 -117 -45t-105.5 -75.5t-79.5 -77.5q-32 -36 -39 -50v0zM549 641q-40 32 -95 23t-22 31t84.5 45t91.5 -27q40 -33 45.5 -84.5t-27.5 -91.5t-34.5 15.5t-42.5 88.5v0zM928 236q57 267 2 423q-56 155 -145.5 234.5
t-174.5 100.5l-84 22q72 -30 142 -102q71 -71 114 -169.5t46 -218.5q3 -119 -60 -245l-80 22l115 -205l206 115l-81 23v0zM376 853q12 0 20.5 8.5t8.5 20.5t-8.5 20.5t-20.5 8.5t-20 -8.5t-8 -20.5t8 -20.5t20 -8.5zM139 726q23 0 39.5 16.5t16.5 39.5t-16.5 39.5
t-39.5 16.5t-39.5 -16.5t-16.5 -39.5t16.5 -39.5t39.5 -16.5v0zM596 122q22 0 37.5 15.5t15.5 37.5t-15.5 37t-37.5 15q-21 0 -36.5 -15t-15.5 -37t15.5 -37.5t36.5 -15.5zM686 49q12 0 20.5 8.5t8.5 20.5t-8.5 20.5t-20.5 8.5t-20.5 -8.5t-8.5 -20.5t8.5 -20.5t20.5 -8.5z
M492 67q7 0 12 5.5t5 12.5t-5 12t-12 5t-12.5 -5t-5.5 -12t5.5 -12.5t12.5 -5.5zM203 923q10 0 17 7t7 17t-7 17t-17 7t-17 -7t-7 -17t7 -17t17 -7z" />
</svg>
