<?xml version="1.0" standalone="no"?>
<!DOCTYPE svg PUBLIC "-//W3C//DTD SVG 1.1//EN" "http://www.w3.org/Graphics/SVG/1.1/DTD/svg11.dtd" >
<svg xmlns="http://www.w3.org/2000/svg" xmlns:xlink="http://www.w3.org/1999/xlink" version="1.1" viewBox="-10 0 1034 1024">
   <path fill="currentColor"
d="M757 366v-1.5v-1.5v-0.5v-1.5q-11 -61 -35 -113q-25 -51 -62.5 -88t-87.5 -58t-113 -21t-116 22q-54 22 -93 60.5t-60 91.5q-22 54 -22 117q0 64 17.5 137t60.5 115q66 66 92.5 81.5t68.5 61.5q27 31 49.5 63t45.5 56q18 19 38 31.5t42 15.5q37 5 63 -1t44 -20t29 -36
t16 -51q9 -47 5.5 -87t-7.5 -109v-0.5v-0.5h-22.5t-22.5 1v1v1q4 65 5 102.5t-8 82.5q-3 18 -9.5 32.5t-17.5 23.5t-27.5 11.5t-39.5 -0.5q-19 -3 -34.5 -16.5t-30.5 -31.5q-19 -23 -38 -50t-42 -52q-43 -47 -69.5 -62.5t-93.5 -82.5q-36 -36 -49.5 -98.5t-13.5 -117.5
q0 -52 18 -96t50 -76t76 -50q44 -17 96 -17q53 0 95 17q41 18 72 49.5t51 75.5t29 95v1l1 1v1.5v2.5q1 2 2.5 3.5t1.5 2.5q12 13 28.5 8.5t17.5 -24.5v0zM380 613l48 28t118 11q3 4 5.5 9l5.5 11q12 19 33 34t52 14q25 0 43.5 -7t30.5 -19t16 -32t0 -50q-2 -10 -8.5 -16.5
t-17.5 -4.5q-10 1 -16.5 9.5t-5.5 18.5q2 14 1.5 24t-6.5 16t-16 8t-22 2q-16 0 -25.5 -8t-15.5 -17q-7 -11 -10 -20.5l-3 -9.5q-1 -5 -4.5 -9.5t-7.5 -7.5q-5 -2 -11 -2.5t-11 1.5q-53 21 -93.5 2.5t-41.5 -19.5q-28 -33 -30 -61t3 -47q4 -20 21 -31t37 -15q20 -3 39.5 0.5
t28.5 17.5q6 8 16.5 10t19.5 -4q8 -7 10 -17t-4 -19q-17 -24 -50 -34t-69 -4q-34 6 -62.5 27.5t-36.5 56.5q-7 28 -4.5 67.5t42.5 85.5v0l1 1v0zM472 497q-10 1 -17 9.5t-5 18.5q1 11 9 17.5t19 5.5l34.5 -7t72.5 -28q42 -23 70 -65.5t8 -112.5q-21 -77 -65 -109
q-44 -33 -91 -39.5t-87 3.5q-39 9 -52 16q-17 9 -38 24t-38 42q-16 27 -24.5 70t-1.5 109q2 11 10 17.5t19 5.5q10 -1 17 -9.5t5 -18.5q-6 -55 0 -90t19 -57q12 -20 28 -30.5t28 -17.5q10 -5 40 -12q29 -7 64.5 -2t68.5 29q33 25 49 83q13 47 -6 75.5t-47 44.5
q-32 17 -60.5 22.5l-28.5 5.5v0zM683 270l181 -179q15 -14 35 -14t35 14q14 15 14 35.5t-15 34.5l-213 210q-1 -4 -3 -15.5t-3 -14.5q-4 -12 -9 -24t-10 -23q-1 -2 -1.5 -5t-2.5 -5q-1 -2 -3.5 -6t-4.5 -8v0zM389 697l-22 22v0l-204 202q-15 14 -35.5 14t-34.5 -15
q-14 -14 -14 -34.5t15 -34.5l220 -218q3 2 5 3.5t5 3.5q2 2 5 5.5t5 5.5t4.5 2.5t3.5 2.5q5 5 12.5 11l12.5 10q3 4 7 8.5t8 6.5q2 0 3.5 1.5l3.5 3.5v0z" />
</svg>
