<?xml version="1.0" standalone="no"?>
<!DOCTYPE svg PUBLIC "-//W3C//DTD SVG 1.1//EN" "http://www.w3.org/Graphics/SVG/1.1/DTD/svg11.dtd" >
<svg xmlns="http://www.w3.org/2000/svg" xmlns:xlink="http://www.w3.org/1999/xlink" version="1.1" viewBox="-10 0 1034 1024">
   <path fill="currentColor"
d="M319 530q-13 -20 -24 -42.5t-19 -47.5q-7 -24 -10.5 -49.5t-3.5 -52.5q0 -64 20 -117q19 -53 53 -91t79 -59t96 -21t97 21q45 21 78.5 59t53.5 91q19 53 19 117q0 34 -5.5 66.5t-16.5 61.5q-7 17 -15.5 33.5t-18.5 30.5q0 1 -54 -38.5t-141 -39.5q-98 0 -142.5 38.5
t-45.5 39.5v0zM319 530v0v0v0v0zM360 264h-12v35h12v-35zM394 316q-43 0 -51 18.5l-8 18.5l8 18t51 18t51 -18l8 -18l-7 -18.5t-52 -18.5zM434 264h-12v35h12v-35zM604 264h-13v35h13v-35zM641 264h-13v35h13v-35zM678 264h-13v35h13v-35zM633 316q-44 0 -52 18.5l-8 18.5
l8 18t52 18q43 0 51 -18l8 -18l-7 -18.5t-52 -18.5zM397 264h-12v35h12v-35zM103 1024q0 -72 6.5 -142t31.5 -120q16 -34 42 -54t56 -33v100q0 49 44.5 102.5t148.5 -32.5l5 48t65 48q36 0 58 -17.5t22 -34.5l15 7.5t55 7.5q41 0 83.5 -22.5t42.5 -98.5v-109q32 16 59.5 39
t44.5 58q25 50 31 116.5t5 136.5h-815v0zM327 641q1 -1 2 -1.5t3 -0.5q1 3 3 6.5t4 6.5l-6 -6t-6 -5zM267 477v256q0 44 36 87.5t142 -41.5l2 53.5t55 53.5q44 0 57 -25t13 -42l14.5 12t50.5 12t74.5 -13t38.5 -90v-261l-11 28q-11 27 -38.5 46.5t-74.5 11.5
q-46 -8 -118 -80l-38 28q-37 28 -82.5 46t-82.5 7q-38 -11 -38 -89v0zM150 50l33 71l75 31l-75 32l-33 70l-34 -70l-75 -32l75 -31zM909 262l29 60l64 27l-64 27l-29 59l-29 -59l-64 -27l64 -27zM144 438l17 37l37 17l-37 17l-17 37l-16 -37l-37 -17l37 -17zM853 88l15 32
l33 14l-33 14l-15 32l-15 -32l-33 -14l33 -14z" />
</svg>
