<?xml version="1.0" standalone="no"?>
<!DOCTYPE svg PUBLIC "-//W3C//DTD SVG 1.1//EN" "http://www.w3.org/Graphics/SVG/1.1/DTD/svg11.dtd" >
<svg xmlns="http://www.w3.org/2000/svg" xmlns:xlink="http://www.w3.org/1999/xlink" version="1.1" viewBox="-10 0 1034 1024">
   <path fill="currentColor"
d="M374 129q25 50 20 101t-41 80q-43 35 -106 19.5t-108 -72.5q-46 -56 -47.5 -121t41.5 -100q23 -18 53 -22t61 5q-1 4 -1.5 7.5t-0.5 7.5q0 10 4 19.5t11 17.5q-11 9 -17.5 22.5t-6.5 29.5q0 29 20 49t49 20q27 0 46.5 -18.5t22.5 -44.5v0zM167 52q-18 0 -30 12.5
t-12 29.5t12 29.5t30 12.5q17 0 29.5 -12.5t12.5 -29.5t-12.5 -29.5t-29.5 -12.5zM880 443q0 15 -11 26.5t-27 11.5q-15 0 -26.5 -11.5t-11.5 -26.5q0 -16 11.5 -27t26.5 -11q16 0 27 11t11 27zM761 408q0 22 -15 37t-37 15q-21 0 -36.5 -15t-15.5 -37q0 -21 15.5 -36.5
t36.5 -15.5q22 0 37 15.5t15 36.5zM837 100q0 8 -6 14t-15 6q-8 0 -14.5 -6t-6.5 -14q0 -9 6.5 -15t14.5 -6q9 0 15 6t6 15zM514 465q0 8 -6 14t-15 6q-8 0 -14 -6t-6 -14q0 -9 6 -15t14 -6q9 0 15 6t6 15zM340 106q0 8 -6 14t-15 6q-8 0 -14 -6t-6 -14q0 -9 6 -15t14 -6
q9 0 15 6t6 15zM988 349q0 21 -14.5 35t-34.5 14q-21 0 -35 -14t-14 -35q0 -20 14 -34.5t35 -14.5q20 0 34.5 14.5t14.5 34.5zM412 721q0 20 -14 34.5t-34 14.5q-21 0 -35 -14.5t-14 -34.5t14 -34.5t35 -14.5q20 0 34 14.5t14 34.5zM409 885q0 20 -14.5 34t-34.5 14t-34 -14
t-14 -34t14 -34.5t34 -14.5t34.5 14.5t14.5 34.5zM271 917q0 29 -21 50t-50 21t-50 -21t-21 -50t21 -50t50 -21t50 21t21 50zM172 511l97 -140q6 0 36.5 -1.5t60.5 -13.5q31 -13 44.5 -40l13.5 -27l158 -91q4 10 13.5 16t20.5 6q16 0 27 -11.5t11 -27.5q0 -6 -1.5 -11
t-4.5 -10l21 -12l52 -143l82 20l-6 31q-3 -1 -6 -1.5t-6 -0.5q-17 0 -29 12t-12 29q0 16 10.5 27.5t25.5 12.5l-17 87l-43 35q-8 -6 -18 -10t-21 -4q-25 0 -43 18t-18 43q0 8 2 15.5t6 14.5l-46 38l33 32q-9 8 -13.5 19t-4.5 24q0 24 17 41.5t42 17.5q10 0 19.5 -3.5
t16.5 -8.5q-3 5 -5 11t-2 13q0 17 12 29.5t30 12.5q10 0 19 -5t15 -12l209 102l-54 259l45 60l-124 -32l6 -220l-212 -95l108 166l-109 182l56 53l-158 -8l84 -219l-106 -112l-181 -142l-126 115l-37 162l-90 -8l26 -189l33 -47q5 7 13 11.5t17 4.5q16 0 27 -11.5t11 -26.5
q0 -13 -7.5 -23t-19.5 -14v0zM492 402q-26 0 -45 18.5t-19 45.5q0 26 19 45t45 19q27 0 46 -19t19 -45q0 -27 -19 -45.5t-46 -18.5v0z" />
</svg>
