<?xml version="1.0" standalone="no"?>
<!DOCTYPE svg PUBLIC "-//W3C//DTD SVG 1.1//EN" "http://www.w3.org/Graphics/SVG/1.1/DTD/svg11.dtd" >
<svg xmlns="http://www.w3.org/2000/svg" xmlns:xlink="http://www.w3.org/1999/xlink" version="1.1" viewBox="-10 0 1034 1024">
   <path fill="currentColor"
d="M165 1024q2 -43 9 -82t22 -69q25 -50 74.5 -71t88.5 -48q27 46 66 64.5t85 19.5h0.5h1.5q46 0 86 -18.5t67 -65.5q9 7 19.5 13t21.5 12q43 -26 72.5 -58t39.5 -68q13 -49 -14 -91t-81 -70q0 5 0.5 11t0.5 12q0 30 -5 58t-14 53q-6 16 -13.5 30t-15.5 27l-45 51.5
t-119 51.5h-1.5h-0.5q-84 -1 -123 -52t-38 -51q-12 -18 -21.5 -38t-15.5 -42q-1 -3 -2 -5.5t-1 -6.5q2 1 5 1h6q20 0 35.5 -13.5t18.5 -33.5q2 -21 -9 -38t-31 -22l-16 -6t-15 -6q1 -12 3.5 -23.5t5.5 -22.5q-40 -34 -53 -77t-12.5 -81t7.5 -64l7 -25q18 48 56.5 78t71.5 45
q26 -21 56.5 -32.5t64.5 -12.5h2q39 0 73 15q35 15 62.5 42.5t46.5 65.5t26 84q62 8 112 25q50 18 83 43t47 55q14 31 4 65q-13 48 -68.5 89.5t-136.5 67.5q21 14 39.5 31t29.5 40q15 29 21.5 66t8.5 77h-53q-2 -33 -7.5 -63.5t-17.5 -54.5q-9 -18 -24 -30.5t-32 -23.5
q-12 -7 -23.5 -13.5t-23.5 -12.5q-24 26 -53 41t-62 21q-18 2 -31 3t-23 0v133h-345v0zM510 727q11 1 24.5 -1.5t29.5 -9.5q27 -16 44.5 -36.5t19.5 -23.5q1 -1 1.5 -2t1.5 -2q7 -10 12.5 -21.5t10.5 -23.5q8 -21 11.5 -44.5t3.5 -47.5q0 -69 -29 -120.5t-76 -71.5
q-10 -5 -23 -8.5t-31 -3.5v416v0zM301 537q-67 -3 -121 -23q-54 -21 -90 -54t-51 -77q-15 -43 -4 -93q12 -51 49 -96t91 -78.5t121 -52.5q66 -20 137 -20q-47 12 -91 36q-44 23 -80.5 55.5t-62.5 72.5t-36 83q-19 82 22 147.5t115 93.5q5 2 10 3.5t10 2.5h-10h-9v0zM508 100
q66 0 124 5t101.5 13.5t68.5 20.5q25 11 25 24t-25 25q-25 11 -68.5 19.5t-101.5 13.5t-124 5v-40q87 0 148.5 -6.5t61.5 -16.5q0 -9 -61.5 -16t-148.5 -7v-40v0zM892 243l30 81l82 31l-82 30l-30 82l-31 -82l-81 -30l81 -31zM138 620l23 62l61 22l-61 23l-23 62l-23 -62
l-62 -23l62 -22z" />
</svg>
