<?xml version="1.0" standalone="no"?>
<!DOCTYPE svg PUBLIC "-//W3C//DTD SVG 1.1//EN" "http://www.w3.org/Graphics/SVG/1.1/DTD/svg11.dtd" >
<svg xmlns="http://www.w3.org/2000/svg" xmlns:xlink="http://www.w3.org/1999/xlink" version="1.1" viewBox="-10 0 1034 1024">
   <path fill="currentColor"
d="M630 368q0 1 -32.5 38t-85.5 37q-61 0 -89.5 -37t-28.5 -38q-8 -12 -15 -26.5t-12 -30.5q-4 -15 -6 -31t-2 -33q0 -81 45 -133t108 -52t108 52t45 133q0 22 -3.5 42t-10.5 39q-4 11 -9.5 21t-11.5 19zM376 437q-97 18 -154.5 72t-38.5 122q10 34 37 65q28 32 68.5 57.5
t90.5 43.5q50 19 104 28q-82 0 -158 -15t-137 -41.5t-101 -61.5q-41 -36 -52 -76t10 -75q22 -36 68 -62t114 -42q68 -15 149 -15v0zM680 504q42 -11 75 -34q34 -22 55.5 -53t29.5 -69q8 -37 -1 -79q-10 -41 -35 -79t-61 -68.5t-80 -53.5t-91 -34q71 0 137 19q66 18 120 50
t90 75q37 43 48 91q11 49 -6 92q-17 42 -56 74t-97 51q-57 18 -128 18zM175 47l42 113l113 42l-113 42l-42 112l-42 -112l-112 -42l112 -42zM882 539l29 78l78 29l-78 29l-29 78l-29 -78l-78 -29l78 -29zM366 1024v-153q29 4 58 6t59 2q21 0 36.5 -14t17.5 -35t-11 -38
t-34 -20q-33 -6 -65 -16t-61 -23v-38h-14v32q-17 -9 -32 -18.5t-28 -19.5q-9 -7 -17 -14t-14 -15q0 -32 2 -64t9 -59q21 -16 50.5 -28t63.5 -19q16 -2 27 -12.5t15 -24.5q18 15 39 21t45 6q33 0 62 -13t48 -47q12 8 25 15l26 14q-2 1 -3.5 1.5t-3.5 1.5q-20 5 -31 22t-9 37
q3 21 18.5 34t35.5 13t39 -1.5t37 -3.5q9 41 8 90.5t-1 94.5q0 9 -0.5 17.5t-0.5 17.5v155h-90v-233h-14v240v89h-135v-99h-21v99h-136v0zM263 795v-22q-1 -9 -1.5 -17.5t-0.5 -17.5v-4q20 15 43 28t48 24v29q-23 -4 -45.5 -9t-43.5 -11v0zM366 817v-25q28 11 57 19.5
t60 13.5q-30 0 -59 -2t-58 -6zM369 439l1.5 -1.5t1.5 -0.5h4q-1 0 -3 0.5t-4 1.5zM724 487q3 3 6 6.5t5 7.5q-13 1 -27 2t-28 1q12 -3 23 -7.5t21 -9.5v0zM352 869v59h-89v-77q21 6 43.5 10.5t45.5 7.5v0z" />
</svg>
