<?xml version="1.0" standalone="no"?>
<!DOCTYPE svg PUBLIC "-//W3C//DTD SVG 1.1//EN" "http://www.w3.org/Graphics/SVG/1.1/DTD/svg11.dtd" >
<svg xmlns="http://www.w3.org/2000/svg" xmlns:xlink="http://www.w3.org/1999/xlink" version="1.1" viewBox="-10 0 1034 1024">
   <path fill="currentColor"
d="M59 1024l5 -308q15 -15 36.5 -24t50.5 -8v-449h24v452q22 5 48 16.5t56 32.5l-121 94l22 128q-1 -11 27 -48t33 -47q10 -19 24.5 -33t31.5 -24q22 -14 46 -25t44 -25q24 42 60 58.5t77 16.5q42 0 78 -16.5t60 -58.5q35 24 80 46.5t68 67.5q6 13 29.5 45.5l23.5 32.5
l13 -21.5t30 -50.5q4 -6 -47 -48.5t-48 -48.5q9 -15 27 -23t40 -11v-510h27v507q31 -2 56.5 1t25.5 6l-25 275h-211l-45 -50v50h-363v-53l-48 53h-235v0zM341 472q18 -72 68 -116.5t114 -44.5q65 0 115.5 45t67.5 118l117 -212l-6 26q-5 25 -9.5 63t-6.5 82q-1 44 7 81
q13 61 -35.5 56t16.5 159q13 34 -30 -23.5t-58 -77.5q-1 3 -2 6.5t-2 7.5q-6 13 -12.5 26t-14.5 24q1 0 -39.5 46.5t-107.5 46.5q-76 0 -111 -46.5l-35 -46.5q-9 -14 -17 -30t-14 -33q-15 21 -54.5 65.5t-31.5 13.5q39 -151 9.5 -146.5t-21.5 -52.5q5 -34 4 -75t-3.5 -76
t-5.5 -58l-3 -24l101 196v0zM427 588q-14 13 -22 29t-8 34q0 9 2 17t6 17l17 -43l24 57h14l24 -57l23 57h21l23 -57l23 57h19l23 -57l18 42q3 -8 5 -16.5t2 -16.5q0 -19 -8.5 -35t-22.5 -29l-23 69l-31 -96q-2 -1 -4 -1.5t-4 -0.5l-32 98l-31 -97q-1 0 -2.5 0.5t-3.5 0.5
l-31 96l-21 -68v0zM625 465q-17 0 -29 11.5t-12 28.5t12 29t29 12t29 -12t12 -29t-12 -28.5t-29 -11.5v0zM625 485q8 0 14 6t6 14q0 9 -6 15t-14 6t-14 -6t-6 -15q0 -8 6 -14t14 -6zM417 465q-17 0 -29 11.5t-12 28.5t12 29t29 12t29 -12t12 -29t-12 -28.5t-29 -11.5v0z
M417 485q9 0 15 6t6 14q0 9 -6 15t-15 6q-8 0 -14 -6t-6 -15q0 -8 6 -14t14 -6zM517 115l398 -88l25 64l-260 57l261 53l-22 64l-401 -81l-398 88l-25 -64l260 -57l-262 -53l23 -64l401 81v0z" />
</svg>
