<?xml version="1.0" standalone="no"?>
<!DOCTYPE svg PUBLIC "-//W3C//DTD SVG 1.1//EN" "http://www.w3.org/Graphics/SVG/1.1/DTD/svg11.dtd" >
<svg xmlns="http://www.w3.org/2000/svg" xmlns:xlink="http://www.w3.org/1999/xlink" version="1.1" viewBox="-10 0 1044 1024">
   <path fill="currentColor"
d="M890 1024q-36 -20 -73 -47q-38 -26 -73 -61.5t-66 -78.5q-30 -44 -52 -98q-34 -87 -66.5 -157.5t-134.5 -189.5q-30 18 -101 5t-140 -82q-24 -24 -38 -62q-14 -37 -22 -73t-10 -61l-2 -26l24 1t58.5 8t73.5 22t68 42q63 56 91 123.5t8 93.5q25 17 60 44q36 27 76 65
t83 86t84 106q18 28 48 53q31 26 68.5 50t81.5 46q43 22 88 41v150h-134v0zM778 553q8 -55 60 -105.5l52 -50.5l34 59.5t27 125.5q-7 70 -39 122t-59 49q-26 -3 -57.5 -58t-17.5 -142v0zM456 748q100 4 154.5 51t51.5 77q-3 31 -67.5 55.5t-145.5 16.5q-74 -8 -133 -59
l-59 -51l19 -14q20 -15 49 -32.5t64 -31.5t67 -12v0zM306 461q100 5 154.5 52t51.5 77q-2 30 -67 54.5t-146 16.5q-74 -7 -133 -58l-59 -51l19 -15q20 -14 49.5 -31.5t64.5 -31.5t66 -13v0zM548 236q5 -30 26 -62q21 -31 44.5 -56t41.5 -41l19 -16l37 68t29 143
q-9 80 -46.5 138.5t-67.5 54.5q-30 -3 -65 -66.5t-18 -162.5v0z" />
</svg>
