<?xml version="1.0" standalone="no"?>
<!DOCTYPE svg PUBLIC "-//W3C//DTD SVG 1.1//EN" "http://www.w3.org/Graphics/SVG/1.1/DTD/svg11.dtd" >
<svg xmlns="http://www.w3.org/2000/svg" xmlns:xlink="http://www.w3.org/1999/xlink" version="1.1" viewBox="-10 0 1034 1024">
   <path fill="currentColor"
d="M40 514v-170l24 5q23 4 55.5 11.5t65.5 17.5q33 9 51 18q32 16 56 42.5t47 53.5q19 23 46 64q28 40 57 82.5t57 79.5q27 37 47 54t53 13.5t52 -21.5q29 -28 64.5 -95.5t63.5 -115.5q24 -42 54 -82.5t43 -86.5q13 -47 8 -103t1 -100q7 -40 21 -95.5t25 -58.5
q11 -4 22.5 45t16.5 82q6 33 6 66.5t1 67.5q0 38 3.5 84.5t-7.5 84.5q-10 38 -38 68.5t-43 66.5q-18 42 -26.5 100.5t-31.5 94.5q-21 33 -56 54.5t-70 38.5q-36 18 -80.5 34t-81.5 16q-36 1 -73.5 -10t-63.5 -37q-30 -31 -57 -97.5t-51 -105.5q-19 -29 -39 -58.5t-49 -47.5
q-33 -21 -103 -40.5l-70 -19.5v0zM83 297q-13 -17 -22 -36t-10 -37q-2 -38 25 -88.5t54 -74.5q26 -22 80 -26t56 3q8 20 -22.5 25t-37.5 23q-8 20 -15 57.5t8 58.5q14 21 49.5 24.5t61.5 8.5q25 3 50.5 1t50.5 -1q25 0 52 -2t52 3q24 5 49 12.5t42 26.5q19 21 31.5 66
t29.5 67q13 16 35 21.5t40 15.5q8 4 16.5 7.5t16.5 8.5l-22 32t-21 32q-13 22 -27 49l-28 54q-38 -27 -71.5 -51.5t-50.5 -40.5q-12 -12 -14 -31t-11 -34q-9 -17 -18 -39.5t-29 -30.5q-26 -9 -74.5 -9t-89.5 -3q-13 -12 -27.5 -23t-30.5 -19q-29 -14 -85 -28t-93 -22v0z
M960 582q12 15 21.5 31t15.5 31q9 23 8.5 48t-0.5 49q0 25 -3.5 51t-7.5 51q-4 31 -14 95l-10 64h-215l16 -38.5t28 -71.5q24 -15 45 -33.5t35 -41.5q12 -18 20 -41.5t15 -48.5q7 -30 12.5 -60t15.5 -53q3 -9 8 -16.5t10 -15.5v0zM923 542q-9 12 -17.5 24.5t-13.5 25.5
q-18 41 -26.5 99.5t-31.5 94.5q1 -9 -1 -17.5t-7 -16.5q-13 -17 -42 -41.5t-64 -50.5q16 -28 31 -56.5t28 -50.5q10 -17 21.5 -34t23.5 -34l4 2t4 3q22 11 46.5 23t44.5 29v0zM662 261v-3.5t1 -3.5q4 -27 33.5 -59t4.5 -45q-13 -7 -42 -14q-29 -6 -66 -12.5t-78 -12.5
t-78 -11q-13 -3 -67.5 21t-66.5 22q-24 -4 -10 -30.5t31 -37.5q59 -39 111 -44.5t104 -9.5q50 -4 105 4t96 16q28 6 60.5 12t52.5 22q-7 24 -12.5 50.5t-8.5 46.5q-4 25 -3.5 53t1.5 58q0 22 -0.5 44t-5.5 41q-4 12 -9 23.5t-11 22.5q-9 -4 -18.5 -9t-18.5 -9
q-9 -5 -19 -8.5t-20 -6.5q-5 -2 -10 -3t-9 -5q-8 -10 -13.5 -29t-12.5 -37q-5 -13 -10 -24.5t-11 -21.5v0zM852 439q8 -13 14 -26.5t10 -27.5q8 18 15.5 36t9.5 36v4t1 3q-12 -5 -22.5 -11t-21.5 -11q-1 -1 -2.5 -2t-3.5 -1zM724 732q-16 7 -32.5 13.5t-33.5 11.5
q8 -9 17 -21.5t18 -27.5l0.5 0.5l0.5 0.5q8 6 15.5 11.5t14.5 11.5zM650 676q-10 15 -19 27.5t-17 20.5q-4 3 -9 5t-11 2q-3 0 -6.5 0.5t-5.5 -0.5q-22 -19 -52.5 -62t-62.5 -89q14 -1 29 0t29 2q20 17 54 42t71 52v0zM775 461l-22 32t-21 32q-13 22 -27 49l-28 54
q-19 -13 -36.5 -26t-33.5 -25q1 0 2 -0.5t2 -0.5q35 -13 70 -43t42 -56q3 -11 -1.5 -22.5t-12.5 -22.5q8 3 17 6t16 7q8 4 16.5 7.5t16.5 8.5v0zM899 525q-2 16 -6.5 31.5t-11.5 29.5q-14 30 -39.5 59t-54.5 50l-6 4l-6 4q-12 -10 -26 -21t-29 -22q16 -28 31 -56.5t28 -50.5
q10 -17 21.5 -34t23.5 -34l4 2t4 3q16 8 33.5 16.5t33.5 18.5v0zM374 924q-3 32 -5 55l-2 23h-328l8 -41q8 -42 22.5 -97t34.5 -109q19 -54 43 -79q12 -13 26 -23.5t28 -18.5q17 15 29.5 35.5t24.5 40.5q14 22 28.5 56t30.5 66q13 28 27.5 51t28.5 38l2 2t2 1zM552 776
q-26 3 -49.5 5.5t-39.5 5.5q-18 4 -40.5 4.5t-29.5 17.5q-3 6 -5.5 16t-4.5 22q-22 -38 -42.5 -87t-39.5 -79q-11 -18 -22.5 -36t-24.5 -34q40 -12 80 -16t73 -8q37 54 75.5 108.5t63.5 76.5q1 1 2.5 2t3.5 2v0z" />
</svg>
