<?xml version="1.0" standalone="no"?>
<!DOCTYPE svg PUBLIC "-//W3C//DTD SVG 1.1//EN" "http://www.w3.org/Graphics/SVG/1.1/DTD/svg11.dtd" >
<svg xmlns="http://www.w3.org/2000/svg" xmlns:xlink="http://www.w3.org/1999/xlink" version="1.1" viewBox="-10 0 1034 1024">
   <path fill="currentColor"
d="M831 271l-70.5 -26.5t-207.5 39.5q-33 15 -57 35.5l-24 20.5l-22.5 31t-14.5 85q4 27 18 62q13 35 27.5 66.5t25.5 53.5l11 21l-176 309h179l-26 -33l131 -252l-60 -194l77 119l11 16v-222l28 -13l-1 337l65 19l1 -29q2 -28 4.5 -66.5t4.5 -78.5t3 -63l-24.5 -30.5
t-15.5 -96.5q5 -47 30 -76.5t83 -33.5v0zM785 618l30 48l-28 257l47 45h-159l21 -196l75 19l14 -173v0zM925 330q41 31 51.5 77t-15.5 80q-26 35 -73.5 37.5t-87.5 -28.5q-41 -31 -51.5 -77t15.5 -80q26 -35 73.5 -37.5t87.5 28.5zM812 532l28 6.5t51 7.5l9 69.5t-1 111.5
l-66 13l1 -24t0 -57t-5 -68q-5 -36 -17 -59v0zM874 74q5 -5 12.5 -5t12.5 5q5 6 5 13.5t-5 12.5q-5 4 -7.5 8t-2.5 8q-1 4 0 8t3 7q3 8 7.5 16t8.5 16q5 11 7 22t-1 22q-2 8 -7.5 15.5t-14.5 15.5q-6 5 -13.5 4t-11.5 -6q-5 -6 -4.5 -13.5t6.5 -12.5q4 -3 7 -6.5t4 -6.5
q1 -6 -1 -11t-5 -10q-3 -6 -6.5 -12t-6.5 -12q-5 -11 -7.5 -22.5t0.5 -23.5q2 -7 6.5 -15.5t13.5 -16.5v0zM745 77q-4 -7 -1.5 -14t8.5 -10q7 -4 14 -1.5t10 8.5q6 11 11.5 21t9.5 20q3 9 4.5 19t-1.5 20q-2 9 -8 19t-18 20q-6 5 -13.5 4t-11.5 -6q-5 -6 -4.5 -13.5
t6.5 -12.5t9.5 -9.5t4.5 -8.5q2 -7 0 -14t-5 -14l-8 -14t-7 -14v0zM245 526q-24 0 -45.5 -5t-38.5 -14q-18 -10 -31.5 -23t-22.5 -29q-10 -16 -14.5 -33t-4.5 -35h97q0 15 5 26.5t14 18.5q10 8 21 11.5t24 3.5t23.5 -3t18.5 -9q8 -7 12.5 -16.5t4.5 -22.5t-5.5 -23.5
t-15.5 -18.5q-11 -8 -27.5 -12t-38.5 -4v-63q17 0 30.5 -4.5t23.5 -12.5q11 -8 16 -17.5t5 -20.5q0 -9 -3 -16.5t-8 -12.5q-6 -6 -14.5 -9t-20.5 -3t-21.5 3.5t-17.5 10.5q-7 7 -11 15.5t-4 19.5h-90q0 -18 4.5 -34.5t12.5 -30.5q9 -15 21.5 -26.5t29.5 -19.5q16 -8 35 -12
t41 -4q23 0 42.5 3.5t35.5 11.5q16 7 28.5 17.5t20.5 23.5q8 12 12.5 26.5t4.5 30.5t-5 29t-14 25q-10 11 -23 19.5t-29 14.5q19 6 34 16t26 22q11 13 16.5 29.5t5.5 35.5q0 18 -4.5 34t-14.5 29q-9 14 -23 24.5t-32 18.5t-39.5 11.5t-46.5 3.5v0z" />
</svg>
