<?xml version="1.0" encoding="UTF-8" standalone="no"?>
<svg
   version="1.1"
   viewBox="-10 0 1034 1024"
   id="svg4"
   sodipodi:docname="exhaustion.svg"
   inkscape:version="1.2.1 (9c6d41e410, 2022-07-14)"
   xmlns:inkscape="http://www.inkscape.org/namespaces/inkscape"
   xmlns:sodipodi="http://sodipodi.sourceforge.net/DTD/sodipodi-0.dtd"
   xmlns="http://www.w3.org/2000/svg"
   xmlns:svg="http://www.w3.org/2000/svg">
  <defs
     id="defs8" />
  <sodipodi:namedview
     id="namedview6"
     pagecolor="#505050"
     bordercolor="#eeeeee"
     borderopacity="1"
     inkscape:showpageshadow="0"
     inkscape:pageopacity="0"
     inkscape:pagecheckerboard="0"
     inkscape:deskcolor="#505050"
     showgrid="false"
     inkscape:zoom="1.0029297"
     inkscape:cx="499.53651"
     inkscape:cy="512"
     inkscape:window-width="2400"
     inkscape:window-height="1261"
     inkscape:window-x="-9"
     inkscape:window-y="-9"
     inkscape:window-maximized="1"
     inkscape:current-layer="svg4" />
  <path
     fill="currentColor"
     d="M 831,271 760.5,244.5 553,284 c -22,10 -41,21.83333 -57,35.5 L 472,340 449.5,371 435,456 c 2.66667,18 8.66667,38.66667 18,62 8.66667,23.33333 17.83333,45.5 27.5,66.5 9.66667,21 18.16667,38.83333 25.5,53.5 l 11,21 -176,309 h 179 l -26,-33 131,-252 -60,-194 77,119 11,16 V 402 l 28,-13 -1,337 65,19 1,-29 c 1.33333,-18.66667 2.83333,-40.83333 4.5,-66.5 1.66667,-25.66667 3.16667,-51.83333 4.5,-78.5 1.33333,-26.66667 2.33333,-47.66667 3,-63 L 733.5,477.5 718,381 c 3.33333,-31.33333 13.33333,-56.83333 30,-76.5 16.66667,-19.66667 44.33333,-30.83333 83,-33.5 z m -46,347 30,48 -28,257 47,45 H 675 l 21,-196 75,19 z M 925,330 c 27.33333,20.66667 44.5,46.33333 51.5,77 7,30.66667 1.83333,57.33333 -15.5,80 -17.33333,23.33333 -41.83333,35.83333 -73.5,37.5 -31.66667,1.66667 -60.83333,-7.83333 -87.5,-28.5 -27.33333,-20.66667 -44.5,-46.33333 -51.5,-77 -7,-30.66667 -1.83333,-57.33333 15.5,-80 17.33333,-23.33333 41.83333,-35.83333 73.5,-37.5 31.66667,-1.66667 60.83333,7.83333 87.5,28.5 z m -113,202 28,6.5 51,7.5 9,69.5 -1,111.5 -66,13 1,-24 v -57 c 0,-38 -1.66667,-60.66667 -5,-68 -3.33333,-24 -9,-43.66667 -17,-59 z M 874,74 c 3.33333,-3.333333 7.5,-5 12.5,-5 5,0 9.16667,1.666667 12.5,5 3.33333,4 5,8.5 5,13.5 0,5 -1.66667,9.166667 -5,12.5 -3.33333,2.66667 -5.83333,5.33333 -7.5,8 -1.66667,2.66667 -2.5,5.33333 -2.5,8 -0.66667,2.66667 -0.66667,5.33333 0,8 0.66667,2.66667 1.66667,5 3,7 2,5.33333 4.5,10.66667 7.5,16 3,5.33333 5.83333,10.66667 8.5,16 3.33333,7.33333 5.66667,14.66667 7,22 1.33333,7.33333 1,14.66667 -1,22 -1.33333,5.33333 -3.83333,10.5 -7.5,15.5 -3.66667,5 -8.5,10.16667 -14.5,15.5 -4,3.33333 -8.5,4.66667 -13.5,4 -5,-0.66667 -8.83333,-2.66667 -11.5,-6 -3.33333,-4 -4.83333,-8.5 -4.5,-13.5 0.33333,-5 2.5,-9.16667 6.5,-12.5 2.66667,-2 5,-4.16667 7,-6.5 2,-2.33333 3.33333,-4.5 4,-6.5 0.66667,-4 0.33333,-7.66667 -1,-11 -1.33333,-3.33333 -3,-6.66667 -5,-10 -2,-4 -4.16667,-8 -6.5,-12 -2.33333,-4 -4.5,-8 -6.5,-12 -3.33333,-7.33333 -5.83333,-14.83333 -7.5,-22.5 -1.66667,-7.66667 -1.5,-15.5 0.5,-23.5 1.33333,-4.66667 3.5,-9.833333 6.5,-15.5 3,-5.666667 7.5,-11.166667 13.5,-16.5 z m -129,3 c -2.66667,-4.666667 -3.16667,-9.333333 -1.5,-14 1.66667,-4.666667 4.5,-8 8.5,-10 4.66667,-2.666667 9.33333,-3.166667 14,-1.5 4.66667,1.666667 8,4.5 10,8.5 4,7.333333 7.83333,14.333333 11.5,21 3.66667,6.666667 6.83333,13.333333 9.5,20 2,6 3.5,12.33333 4.5,19 1,6.66667 0.5,13.33333 -1.5,20 -1.33333,6 -4,12.33333 -8,19 -4,6.66667 -10,13.33333 -18,20 -4,3.33333 -8.5,4.66667 -13.5,4 -5,-0.66667 -8.83333,-2.66667 -11.5,-6 -3.33333,-4 -4.83333,-8.5 -4.5,-13.5 0.33333,-5 2.5,-9.16667 6.5,-12.5 4,-3.33333 7.16667,-6.5 9.5,-9.5 2.33333,-3 3.83333,-5.83333 4.5,-8.5 1.33333,-4.66667 1.33333,-9.33333 0,-14 -1.33333,-4.66667 -3,-9.33333 -5,-14 l -8,-14 z"
     id="path2"
     sodipodi:nodetypes="cccsccccsccccccccccccccsscccsccccccccccscscscsccccccccscccscscscscscscscscscscscscscsccscscscscssscssscsccc" />
</svg>
