<?xml version="1.0" standalone="no"?>
<!DOCTYPE svg PUBLIC "-//W3C//DTD SVG 1.1//EN" "http://www.w3.org/Graphics/SVG/1.1/DTD/svg11.dtd" >
<svg xmlns="http://www.w3.org/2000/svg" xmlns:xlink="http://www.w3.org/1999/xlink" version="1.1" viewBox="-10 0 1034 1024">
   <path fill="currentColor"
d="M343 523l-217 -114l247 37q-12 16 -20 35.5t-10 41.5v0zM386 430l-67 -161l135 116q-19 7 -36.5 18.5t-31.5 26.5zM470 381l42 -345l43 347q-11 -3 -23 -5t-24 -2q-10 0 -19.5 1t-18.5 4v0zM568 387l138 -118l-70 167q-14 -16 -31 -28.5t-37 -20.5v0zM644 447l255 -38
l-225 118q-2 -22 -10 -42.5t-20 -37.5v0zM674 545l151 92l-171 -14q9 -18 14.5 -37.5t5.5 -40.5zM641 642l110 222l-174 -170q19 -9 35.5 -22t28.5 -30v0zM550 703l-38 310l-38 -308q9 2 17 3t17 1q11 0 21.5 -1.5t20.5 -4.5v0zM445 696l-172 168l107 -215q13 15 29.5 27
t35.5 20v0zM363 623l-164 14l143 -87q1 20 6.5 38.5t14.5 34.5v0zM629 542q0 51 -35.5 86.5t-85.5 35.5t-85.5 -35.5t-35.5 -86.5q0 -50 35.5 -85.5t85.5 -35.5t85.5 35.5t35.5 85.5v0zM751 768q19 -21 34.5 -44.5t26.5 -49.5l6 2l6 2q-12 28 -28 52.5t-36 46.5l-5 -5l-4 -4
v0zM580 866q22 -5 44 -13.5t42 -18.5q1 2 3 4.5t4 5.5q-20 11 -42.5 19.5t-45.5 14.5v0v0q-1 -2 -2.5 -5.5t-2.5 -6.5v0zM345 831q23 12 47.5 21.5t50.5 14.5q-1 3 -1.5 6t-1.5 7q-27 -6 -53 -15.5t-49 -23.5q2 -2 3.5 -5t3.5 -5v0zM197 656q12 33 31 62.5t43 54.5
q-1 2 -2.5 3t-1.5 3q-1 0 -2.5 0.5t-2.5 0.5q0 1 -0.5 1t-0.5 1q-25 -26 -44 -56.5t-32 -64.5q3 -1 6 -2.5t6 -2.5v0zM347 238q26 -13 53.5 -22.5t57.5 -13.5l2 6t1 6q-28 5 -55.5 13.5t-52.5 21.5l-2.5 -5t-3.5 -6v0zM672 254q-20 -11 -41.5 -19.5t-43.5 -13.5q0 -4 0.5 -7
t0.5 -6q25 6 48 15t44 22q-2 2 -4 4.5t-4 4.5v0zM278 188h1v0q39 -26 84.5 -42.5t94.5 -22.5q1 2 1.5 3.5t1.5 2.5q0 1 0.5 4t0.5 7q-47 5 -91 21t-82 41q-2 -3 -5 -6.5t-6 -7.5v0zM738 209q-37 -26 -80 -43.5t-90 -23.5q1 -5 2 -9l2 -8q48 7 92 25t82 44q-2 4 -4 7.5
t-4 7.5v0zM915 656q-17 58 -48 109q-32 51 -76 90.5t-98 66.5q-54 26 -115 37q0 -3 -1 -8t-1 -9q58 -10 110 -35q51 -26 93 -63.5t73 -86.5q30 -48 46 -104q5 1 9.5 1.5t7.5 1.5v0zM454 961q-62 -8 -117 -33q-55 -24 -100.5 -62.5t-78.5 -87.5q-34 -50 -52 -107q4 -2 8 -3.5
t8 -2.5q17 55 49 103q32 47 75.5 83.5t96.5 60.5q52 24 111 32v8.5v8.5v0zM683 407l31 -7q31 -8 75.5 -21.5t93.5 -31.5q49 -17 84 -38q36 -20 36 -77v-57l-49.5 -28.5t-84.5 -7.5q-36 20 -69 65q-34 44 -59.5 89.5t-41.5 79.5l-16 34v0zM339 407l-31 -8q-31 -7 -75.5 -20.5
t-92.5 -30.5q-49 -18 -84 -39q-35 -20 -35.5 -76.5l-0.5 -56.5l49.5 -28.5t84.5 -7.5q35 20 68 64q34 45 60 90t41 79zM695 535l24 -10q23 -10 58 -22.5t75 -24.5q39 -11 72 -15q32 -3 59 33l27 36l-18.5 41.5t-50.5 45.5t-75 -9q-42 -13 -80 -29.5t-64 -31.5l-27 -14v0z
M325 535l-23 -10q-24 -10 -58.5 -22.5t-74.5 -24.5q-40 -11 -72 -15q-32 -3 -59.5 33l-27.5 36l18.5 41.5t50.5 45.5q33 4 75 -9q43 -13 81 -29.5t64 -31.5l26 -14v0z" />
</svg>
