<?xml version="1.0" standalone="no"?>
<!DOCTYPE svg PUBLIC "-//W3C//DTD SVG 1.1//EN" "http://www.w3.org/Graphics/SVG/1.1/DTD/svg11.dtd" >
<svg xmlns="http://www.w3.org/2000/svg" xmlns:xlink="http://www.w3.org/1999/xlink" version="1.1" viewBox="-10 0 1034 1024">
   <path fill="currentColor"
d="M527 415q43 -34 84.5 -69t83.5 -69q-1 2 -8.5 25.5t-6.5 29.5q0 2 17.5 -31.5t22.5 -43.5q16 -14 33 -27.5t34 -27.5q21 -15 41 -30.5t40 -32.5q34 -31 65.5 -64t66.5 -64l-22 80t-22.5 80t-24.5 81q-14 40 -29 81q-3 1 -27 24q-23 23 -51 49.5t-51 48.5t-23 23v0v0
q0 1 46.5 -23t67.5 -36q-5 11 -10 21t-11 20q-17 32 -35 65t-39 65q-5 6 -9 12.5t-9 12.5q-2 1 -4.5 1.5t-5.5 2.5q-9 5 -61 22.5t-53 19.5t9.5 1.5t11.5 0.5q3 2 34 -1.5t38 -4.5q-7 9 -14.5 18.5t-14.5 18.5q-25 31 -51.5 60.5t-56.5 57.5q-36 34 -75 46.5t-75 15.5
q-37 3 -71.5 2t-67.5 -5q-13 -1 -26 -2.5t-26 -3.5q137 -107 255 -223q117 -115 203.5 -210t136.5 -157l49 -61q-70 80 -161 164q-91 83 -187.5 162t-190.5 150q-95 71 -173 126q0 -7 1 -14.5t2 -14.5q5 -42 20 -88t54 -89q8 -8 16 -15.5t17 -14.5q6 -5 11.5 -9.5t12.5 -8.5
q2 11 4.5 28t3.5 23q1 9 5.5 26.5t6.5 18.5q0 1 2 -50t2 -61q30 -18 59 -35.5t58 -37.5q13 -10 27 -20.5t28 -20.5q-1 1 -10 23t-8 32v0v0v1.5v0.5v-0.5v-1.5q1 -2 18.5 -32t22.5 -41v0zM502 492v0.5v1.5l-0.5 -1t0.5 -1v0v0zM28 930l51 -34q52 -35 131.5 -90t174.5 -125
t183 -142l-36 37q-37 38 -107 102.5t-173 149.5q-102 86 -235 181l3 -19t8 -60v0zM281 475l-35 24v-446h35v422v0zM443 360l-34 25v-332h34v307zM604 247l-35 24v-218h35v194v0zM763 134l-35 25v-106h35v81v0zM124 586l-35 25v-558h35v533v0z" />
</svg>
