<?xml version="1.0" standalone="no"?>
<!DOCTYPE svg PUBLIC "-//W3C//DTD SVG 1.1//EN" "http://www.w3.org/Graphics/SVG/1.1/DTD/svg11.dtd" >
<svg xmlns="http://www.w3.org/2000/svg" xmlns:xlink="http://www.w3.org/1999/xlink" version="1.1" viewBox="-10 0 1034 1024">
   <path fill="currentColor"
d="M169 902q1 4 1 9t-1 10q-5 27 -27.5 42.5t-49.5 11.5q-27 -5 -43 -27.5t-11 -49.5q5 -26 27.5 -42t49.5 -11q1 0 2.5 0.5t2.5 0.5l172 -175l-88 -88l51 -52l39 38l470 -470l201 -47l-50 204l-468 466l40 36l-53 55l-88 -88l-177 177v0zM394 669l365 -363l13 -58l-65 17
l-359 358l46 46v0zM306 460l-220 -217l-49 -202l204 49l219 216l-53 54l-115 -114l-57 -13l17 65l109 107l-55 55v0zM750 517l52 50l-88 89l178 175h10h10q27 5 43 27.5t11 49.5q-4 27 -26.5 43t-49.5 12q-27 -5 -42.5 -27.5t-11.5 -49.5q0 -1 0.5 -2.5t0.5 -2.5l-176 -171
l-87 89l-22 -21q2 -5 2.5 -10.5t0.5 -11.5q0 -8 -2.5 -16.5t-7.5 -15.5l68 -70v0l38 -38l99 -99v0zM907 363l48 48l-61 61l61 62l-48 48l-86 -85q-10 -10 -10 -24.5t10 -24.5l86 -85v0zM105 596l-48 -49l61 -61l-61 -61l48 -49l85 86q10 10 10 24t-10 24l-85 86v0zM401 90
l48 -48l61 61l62 -61l48 48l-86 86q-10 10 -24 10t-24 -10l-85 -86v0z" />
</svg>
