<?xml version="1.0" standalone="no"?>
<!DOCTYPE svg PUBLIC "-//W3C//DTD SVG 1.1//EN" "http://www.w3.org/Graphics/SVG/1.1/DTD/svg11.dtd" >
<svg xmlns="http://www.w3.org/2000/svg" xmlns:xlink="http://www.w3.org/1999/xlink" version="1.1" viewBox="-10 0 1034 1024">
   <path fill="currentColor"
d="M181 964q-27 -11 -49.5 -28.5t-31.5 -34.5q-14 -23 -24.5 -61.5t-8.5 -73.5q3 -35 27 -78.5t46 -76.5t55 -61t56 -67q21 -34 37.5 -79t14.5 -77q-2 -25 -21.5 -48.5t-35.5 -31.5q-17 -10 -37 -16l-20 -6q-15 -4 -22.5 -17t-3.5 -28t17.5 -22.5t28.5 -3.5l25 7.5t47 19.5
q27 15 59.5 55.5t36.5 84.5q3 40 -16.5 98.5t-45.5 102.5q-24 39 -57.5 67.5t-55.5 62.5q-18 26 -38 59.5t-23 60.5q-2 24 5.5 50t17.5 42q3 6 11 12.5t17 11.5q8 -31 20 -67q13 -35 31.5 -71.5t42.5 -71.5q24 -36 54 -67l134 -199l127 -283l24.5 -53.5t49.5 -63.5l19 44
l15.5 -14t39.5 -20v71l34 2.5t51 30.5q17 27 32 52.5t47 27.5l5.5 4.5t-0.5 38.5q-7 33 -22.5 59t-71.5 27q-56 2 -59.5 26t1.5 52t29 74t27 73q5 36 7 103q1 67 1 133t-1 115l-1 48q22 4 29 16.5t1 33.5h-66l-35 -207l-10 3l17 157q14 3 19.5 14.5t3.5 32.5h-55l-55 -229
l-66 59q27 18 17.5 58t-38.5 60l71 -6q22 3 30 18t5 40h-500q-7 -2 -11 -13.5t-4 -31.5v0zM786 549q1 -36 -9 -53l-10 -17l2 32l-20 -14q-1 32 18 42l19 10v0zM798 172l5 16t28 10l-2 -20t-31 -6z" />
</svg>
