<?xml version="1.0" standalone="no"?>
<!DOCTYPE svg PUBLIC "-//W3C//DTD SVG 1.1//EN" "http://www.w3.org/Graphics/SVG/1.1/DTD/svg11.dtd" >
<svg xmlns="http://www.w3.org/2000/svg" xmlns:xlink="http://www.w3.org/1999/xlink" version="1.1" viewBox="-10 0 1044 1024">
   <path fill="currentColor"
d="M860 0l164 493v322l-81 -61l-74 -197l-24 -77l4 -46l-80 19l-6 47l26 92l-29 120l82 90l-116 -63v-175l-287 -236l-47 46l140 126l16 -9l147 109l-46 288l105 64l94 3l78 69h-319l-607 -205v-819h860v0zM466 755l2 60l137 52l8 -58l-147 -54v0zM657 616l-123 -78l-39 59
l145 84l17 -65v0zM678 385l-41 -291l-91 88l-119 -104l127 195l48 -77l76 189v0zM206 440v0h19v0h4h4q12 0 24 -0.5t24 -1.5q9 -1 14 -2.5t13 -4.5q3 -1 4 -2.5t2 -4.5q4 -30 11 -60.5t11 -61.5q3 -21 24.5 -21.5t21.5 -22.5q0 -12 -1 -24.5t-4 -25.5q-9 -53 -39 -99.5
t-90 -57.5q-5 -1 -11.5 -2t-13.5 -1v0v0h-15h-1v0v0q-7 0 -13 1l-12 2q-60 11 -90 57.5t-39 99.5q-2 13 -3.5 25.5t-1.5 24.5q0 22 22 22.5t24 21.5q4 31 11 62t11 62q0 2 1.5 3.5t3.5 2.5q8 4 14 4.5t14 1.5q12 1 24.5 1.5t24.5 0.5h3.5h4.5v0zM120 290q-15 -9 -20.5 -27.5
t-5.5 -33.5q0 -5 10.5 -7t13.5 -3q13 -1 27.5 0.5t27.5 3.5q3 1 10 8.5t8 10.5q4 13 3.5 21t-11.5 18q-2 2 -4.5 4t-5.5 3q-12 5 -26.5 6.5t-26.5 -4.5zM310 290q-12 6 -26.5 4.5t-26.5 -6.5q-3 -1 -5.5 -3t-4.5 -4q-10 -10 -8.5 -18t4.5 -21q1 -3 8.5 -11t10.5 -8
q13 -3 25 -4t25 0q4 1 14 3t10 7q1 15 -5 33.5t-21 27.5v0zM236 383l-46 -1v21h-16v0v0v-20v-1v0l-53 1v0v0v-16v0v0l52 -1h1v-1v-20v0v0h16v21l46 1v-0.5v-0.5v-20v0h1h16v0v0v20v0.5t1 0.5l57 -1v7.5v7.5l-57 2h-1v0v21v0v0h-16h-1v0v-21v0v0v0zM245 325l-29 -10l-14.5 5
l-14.5 5l15 -23.5l15 -23.5l14 23.5l14 23.5v0zM96 497l126 188l193 -147l-170 64l-149 -105v0zM490 651l-27 68l156 56l10 -56l-139 -68v0z" />
</svg>
