<?xml version="1.0" standalone="no"?>
<!DOCTYPE svg PUBLIC "-//W3C//DTD SVG 1.1//EN" "http://www.w3.org/Graphics/SVG/1.1/DTD/svg11.dtd" >
<svg xmlns="http://www.w3.org/2000/svg" xmlns:xlink="http://www.w3.org/1999/xlink" version="1.1" viewBox="-10 0 1039 1024">
   <path fill="currentColor"
d="M512 224q105 0 197 14t161 38t109 56t40 69t-40 69t-109 56t-161 38t-197 14t-197 -14t-161 -38t-109 -56t-40 -69t40 -69t109 -56t161 -38t197 -14v0zM510 475q-56 2 -122 -3t-124 -11t-98 -11q-39 -4 -42 -1t33 12q36 10 93 20t126 18t134 8q97 0 181 -10
q85 -10 148 -27t100 -40q36 -24 36 -50q-14 20 -56 36t-104 28.5t-140 20.5t-165 10v0zM277 874q-21 -6 -32.5 -12t-11.5 -13q0 -8 18 -15.5t49 -13.5zM333 815q13 -2 28.5 -3.5t31.5 -2.5l-33 78q-15 -2 -29 -3.5t-26 -4.5zM424 807q14 -1 29 -1.5t30 -0.5l-38 88
q-15 -1 -29 -1.5t-27 -1.5zM513 805h29.5t28.5 1l-38 88h-10.5h-10.5h-18.5h-18.5l38 -89v0zM600 807q15 1 29 2t27 2l-34 79q-14 1 -29 2t-30 1l37 -86v0zM685 814q15 2 29 4.5t25 5.5l-24 56q-14 2 -29.5 4t-32.5 4zM766 831q12 4 18.5 9t6.5 9q0 7 -11.5 13t-31.5 11
l18 -42v0z" />
</svg>
