<?xml version="1.0" standalone="no"?>
<!DOCTYPE svg PUBLIC "-//W3C//DTD SVG 1.1//EN" "http://www.w3.org/Graphics/SVG/1.1/DTD/svg11.dtd" >
<svg xmlns="http://www.w3.org/2000/svg" xmlns:xlink="http://www.w3.org/1999/xlink" version="1.1" viewBox="-10 0 1044 1024">
   <path fill="currentColor"
d="M0 169h119q10 0 16.5 6.5t6.5 16.5v46q0 9 -6.5 15.5t-16.5 6.5h-119v-91v0zM0 778h380q10 0 16.5 7t6.5 16v46q0 10 -6.5 16.5t-16.5 6.5h-380v-92v0zM1024 600h-265q-10 0 -16.5 -6.5t-6.5 -16.5v-45q0 -10 6.5 -16.5t16.5 -6.5h265v91v0zM1024 146h-126
q-10 0 -16.5 -7t-6.5 -16v-46q0 -9 6.5 -16t16.5 -7h126v92v0zM0 46h325q9 0 16 6.5t7 16.5v45q0 10 -7 16.5t-16 6.5h-325v-91v0zM453 691h-292q-61 0 -104.5 -43.5t-43.5 -104.5q0 -62 43.5 -105.5t104.5 -43.5q11 0 21.5 1.5t20.5 4.5q-2 -8 -3 -17t-1 -18q0 -40 16 -76
q16 -37 42.5 -63.5t62.5 -42.5q36 -15 77 -15q46 0 85 19t66 51q13 -48 52.5 -79.5t90.5 -31.5q62 0 105 43.5t43 104.5q0 18 -4 34.5t-11 30.5h3.5h2.5q64 0 112 40.5t60 101.5h-243q-21 0 -35.5 14.5t-14.5 35.5v45q0 13 5.5 23.5t15.5 17.5h-227q-20 0 -35 14.5t-15 35.5
v23v0zM999 819v45q0 10 -6.5 16.5t-16.5 6.5h-258q-9 0 -16 -6.5t-7 -16.5v-45q0 -10 7 -16.5t16 -6.5h258q10 0 16.5 6.5t6.5 16.5zM949 645h12q9 0 16 6.5t7 16.5v46q0 9 -7 15.5t-16 6.5h-458q-9 0 -15.5 -6.5t-6.5 -15.5v-46q0 -10 6.5 -16.5t15.5 -6.5h446v0zM523 919
v46q0 9 -7 16t-16 7h-239q-10 0 -16.5 -7t-6.5 -16v-46q0 -9 6.5 -16t16.5 -7h239q9 0 16 7t7 16z" />
</svg>
