<?xml version="1.0" standalone="no"?>
<!DOCTYPE svg PUBLIC "-//W3C//DTD SVG 1.1//EN" "http://www.w3.org/Graphics/SVG/1.1/DTD/svg11.dtd" >
<svg xmlns="http://www.w3.org/2000/svg" xmlns:xlink="http://www.w3.org/1999/xlink" version="1.1" viewBox="-10 0 1034 1024">
   <path fill="currentColor"
d="M352 106q15 52 -3.5 96.5t-58.5 55.5t-78 -18t-53 -82q-14 -52 4.5 -96.5t58.5 -55.5q39 -11 77.5 18.5t52.5 81.5v0zM215 286l57.5 7t106.5 -48l107 3l120 96l82 123l-58 35l-81 -119l-78 -41l78 181l-38 244l112 154l-45 98l-26 -93l-135 -149l21 -205l-28 9l-61 196
l65 144l-54 86l-10 -85l-98 -158l74 -233l-65 -155l-54 112l-104 115l-54 -50l95 -112l35 -106l36 -49v0zM432 89q20 -10 43 -13.5t48 -1.5q60 8 108.5 49t63.5 99q0 1 0.5 2.5t0.5 2.5q12 -7 26.5 -11.5t31.5 -5.5q58 -3 108.5 33.5t63.5 91.5q12 47 -9 84t-63 51
q36 23 63 57t37 75q18 74 -23.5 129.5t-118.5 59.5h-17t-17 -1q5 9 9 18t6 19q12 49 -12 88t-72 50q0 -1 -6 -37t-6 -37q33 -13 49 -44t7 -69q-2 -8 -5 -16t-7 -15q7 1 14 1h14q65 -4 100.5 -51t20.5 -110q-9 -35 -31.5 -64t-53.5 -49q36 -11 53.5 -43t7.5 -71
q-11 -47 -54 -78.5t-92 -28.5q-14 1 -26.5 4.5t-23.5 10.5v-2.5t-1 -2.5q-12 -49 -53.5 -84t-92.5 -42q-20 -2 -38.5 1t-34.5 10q-5 -15 -10.5 -29.5t-7.5 -29.5v0z" />
</svg>
