<?xml version="1.0" standalone="no"?>
<!DOCTYPE svg PUBLIC "-//W3C//DTD SVG 1.1//EN" "http://www.w3.org/Graphics/SVG/1.1/DTD/svg11.dtd" >
<svg xmlns="http://www.w3.org/2000/svg" xmlns:xlink="http://www.w3.org/1999/xlink" version="1.1" viewBox="-10 0 1044 1024">
   <path fill="currentColor"
d="M1024 302v229l-52 -18l-27 -6q-26 -6 -66.5 -13t-88.5 -11q-48 -5 -92 -3l-12 -6.5t-30 -17.5q-22 -12 -46.5 -26.5t-40.5 -24.5l-211 -74l-19 -74l26 2t86 9q14 2 29.5 3.5t33.5 4.5q25 3 55.5 7t66.5 9l-45 -35.5t-170 -36.5q-63 0 -117 11q-54 12 -94 25t-63 25
l-22 11l-51 -72l43 -19q44 -20 108.5 -44t138.5 -46q75 -21 137 -25l61.5 6t99.5 21q33 14 59 39q27 26 64 54t92 55q56 26 147 41v0zM296 271l19 41l-153 36l-31 -29l165 -48v0zM306 340l-98 22l21 26l52 -10q6 -10 12 -19.5t13 -18.5zM333 717q-6 31 -51.5 66t-37.5 33
l-69 -16l-41 36l123 60l133 -71l208 35l216 49l143 -83l60 15l-51 -83l-170 32l-148 -37l6 -23l159 25l75 -106l70 -22l-110 -37l-92 52l-126 -29l-323 -90l-25 9q-25 10 -58.5 23t-66.5 26t-50 21q-11 14 -56 77l-45 63l90 -2l-2 -28.5t16 -58.5q10 -17 30 -30t41 -16
q23 -4 50.5 -4.5t63.5 22.5q35 23 37 55t1 37v0zM277 754l17.5 -18.5t14.5 -46.5q-3 -32 -23.5 -44.5t-21.5 -12.5q-7 -3 -14.5 -6t-16.5 -4q-7 -2 -15.5 -2t-17.5 1q-42 4 -66.5 30t-20.5 59q3 32 32.5 52.5t71.5 16.5q11 -2 21 -4.5t19 -7.5q6 -3 11 -6t9 -7v0zM410 860
l-73 38l17 34t116 19t46.5 -30t11.5 -8q64 8 78.5 -2.5l14.5 -10.5l-211 -40v0z" />
</svg>
