<?xml version="1.0" standalone="no"?>
<!DOCTYPE svg PUBLIC "-//W3C//DTD SVG 1.1//EN" "http://www.w3.org/Graphics/SVG/1.1/DTD/svg11.dtd" >
<svg xmlns="http://www.w3.org/2000/svg" xmlns:xlink="http://www.w3.org/1999/xlink" version="1.1" viewBox="-10 0 1044 1024">
   <path fill="currentColor"
d="M0 864l43 -17q21 -8 41 1t28 30l5 14l24 -10l-7 -26q-6 -22 5 -41.5t33 -25.5l166 -44q22 -6 41.5 5t25.5 33l5 17l27 -5q-7 -12 -5 -26t13 -23q58 -19 105 -46q48 -26 85.5 -59.5t65.5 -72.5q28 -40 48 -85q11 -10 26.5 -8.5t26.5 12.5l49 57q10 12 6.5 23.5t-10.5 29.5
q-23 53 -55 95q-31 42 -69 74.5t-83 55.5q-46 23 -97 38q-15 4 -29 5.5t-24 -9.5l-3 -4l-60 12l6 24q6 22 -5 41.5t-33 25.5l-166 45q-22 6 -41.5 -5.5t-25.5 -33.5l-4 -14l-17 7l10 24q4 12 3 24t-7 22h-100l27 -11q12 -4 17 -15t0 -23v0l-37 15q-6 2 -12.5 -0.5t-8.5 -8.5
l-13 -31q-3 -6 0 -12.5t9 -9.5l37 -15q-6 -8 -15.5 -11t-18.5 1l-32 12v-51v0zM748 1024l-130 -147q74 -14 123 -50q49 -37 78.5 -75.5t41.5 -68.5l13 -30l150 137v234h-276zM458 673l-28 -32l-75.5 13.5t-143.5 -14.5l-42 -23t-55 -42l29 -86l63 43l21.5 9t54.5 9
l-202 -165l51 -77l68 39l9 -11l-60 -74l70 -72l78 67l10 -8l-51 -79l93 -59l69 74l12 -9l-38 -63l89 -22l21 33q21 32 49 81.5t56 106.5q28 58 43 109l32 30l-6 28q-6 27 -28.5 63.5t-67.5 73.5q-44 37 -121 57v0zM353 810q-6 -7 -14.5 -10t-17.5 0l-106 28
q-11 3 -17.5 12.5t-5.5 20.5l32 -13q6 -3 12.5 0t9.5 9l12 31q3 6 0.5 12.5t-9.5 8.5l-39 17q4 11 14 16.5t22 2.5l106 -29q12 -3 18.5 -14t3.5 -23l-2 -5l-5 1q-7 1 -12.5 -2.5t-7.5 -10.5l-6 -33q-1 -6 2.5 -11.5t9.5 -7.5z" />
</svg>
