<?xml version="1.0" standalone="no"?>
<!DOCTYPE svg PUBLIC "-//W3C//DTD SVG 1.1//EN" "http://www.w3.org/Graphics/SVG/1.1/DTD/svg11.dtd" >
<svg xmlns="http://www.w3.org/2000/svg" xmlns:xlink="http://www.w3.org/1999/xlink" version="1.1" viewBox="-10 0 1044 1024">
   <path fill="currentColor"
d="M49 0l119 308l-21 32l-147 -99v-241h49v0zM0 356l105 99l-2 8l-103 -15v-92v0zM0 555l75 24l-2 9l-73 23v-56v0zM0 718l43 -6l-18 75l-25 24v-93v0zM0 1008l21 16h-21v-16zM95 1024l11 -6l-2 6h-9zM199 1024l45 -78l62 -33l9 111h-116zM408 1024l14 -171l2 -1l101 172
h-117v0zM620 1024l-88 -227l338 227h-250zM951 1024l-306 -288l44 -23l335 48v263h-73v0zM1024 129l-163 53l163 -126v73zM1024 4l-242 141l-28 371l-371 -19l-134 204l-3 -311l368 -1l12 -347l358 -42h40v4zM602 0l-68 78l56 207l-158 71l83 -113l-64 -177l104 -66h47v0z
M420 0l-69 97l40 244l-122 -65l-43 72l-17 -136l111 12l-57 -154l97 -70h60zM54 889l45 -185l78 -322l37 366l521 -118l-708 371l27 -112v0zM441 536l427 21l-55 -136l50 -47l-59 -58l164 -114l-67 120l103 9l-102 97l45 185l-468 -16l-169 94l131 -155v0z" />
</svg>
