<?xml version="1.0" standalone="no"?>
<!DOCTYPE svg PUBLIC "-//W3C//DTD SVG 1.1//EN" "http://www.w3.org/Graphics/SVG/1.1/DTD/svg11.dtd" >
<svg xmlns="http://www.w3.org/2000/svg" xmlns:xlink="http://www.w3.org/1999/xlink" version="1.1" viewBox="-10 0 1036 1024">
   <path fill="currentColor"
d="M890 1024l-135 -117l-93 104l-63 -54l41 -46l-560 -495l-66 -222l233 43l556 493l38 -46l65 55l-94 105l204 180h-126zM746 793l-433 -384l-65 -11l23 71l427 378l48 -54v0zM266 185l-89 -24l15 -39.5t2 -94.5q16 25 39 54.5t41 63.5q1 2 1 4t1 4q7 -24 21.5 -59
t34.5 -67q-9 39 19.5 111t42.5 106q19 -52 30.5 -74t-3.5 -86q16 25 34.5 56.5t36.5 65.5q16 -34 35 -65.5t34 -55.5q-9 39 -1 75t21 70q19 -52 40.5 -108t6.5 -120q29 46 65 112t58 127q15 -38 24 -79t-2 -85q19 30 42 69q22 38 42.5 80t36.5 83q17 41 23 75q0 1 5 52.5
t8 109.5q11 -40 23.5 -84.5t23.5 -83.5q-12 79 -8 137q4 59 12.5 107.5t16.5 91.5t4 90q-3 26 -23.5 43t-46.5 15q-11 -1 -28.5 -12.5l-17.5 -11.5l87 -101l-71 -69q-12 -8 -26 -20.5t-24 -22.5q-6 -35 -14 -74.5t-17 -87.5q4 68 -7 112t-22 82l-85 -77q3 -4 4.5 -9.5
t1.5 -11.5q0 -60 -23.5 -113.5t-16.5 -153.5q-13 69 -24 122t-15 101l-92 -82q-9 -32 -16.5 -71t-3.5 -94q-7 35 -13 66t-11 59l-232 -208v0z" />
</svg>
