<?xml version="1.0" standalone="no"?>
<!DOCTYPE svg PUBLIC "-//W3C//DTD SVG 1.1//EN" "http://www.w3.org/Graphics/SVG/1.1/DTD/svg11.dtd" >
<svg xmlns="http://www.w3.org/2000/svg" xmlns:xlink="http://www.w3.org/1999/xlink" version="1.1" viewBox="-10 0 1034 1024">
   <path fill="currentColor"
d="M571 799v49l-5.5 49t-71.5 49q-67 0 -86 -9.5t-39 -32.5t-49.5 -42.5t-93.5 -26.5t-114 -41t-59 -71l-3 -141l23 60t171 91q35 7 49 16.5t73 53.5q26 18 50 33t70 13q49 -1 67 -25.5l18 -24.5v0zM504 128q-1 -4 -2 -7.5t-1 -7.5q0 -16 12 -28t28 -12q11 0 20 5.5t14 13.5
q9 -22 30 -36t46 -14q22 0 40.5 10t29.5 28l8 -2t8 -1q21 0 36 15t15 36h-284v0v0zM504 128v0v0v0v0v0v0zM516 803q-20 9 -44 9t-97 -58q-73 -59 -102 -58.5t-74 -10.5t-83 -43.5t-50 -84.5q-7 -27 3 -60t33 -62t58 -47t78 -15q86 7 122 45l36 38l21 30q22 30 50 70.5
t54 82.5t36 67q19 49 -11 73zM185 541q-6 5 -6 14t20 19q21 11 39.5 -4.5l18.5 -15.5l36 29t47 41q11 11 27.5 10.5t25.5 -12.5t-1.5 -22.5l-10.5 -10.5l-73 -65q24 -11 18.5 -34t-28.5 -17q-24 7 -68.5 37.5l-44.5 30.5v0zM402 379q-5 15 -65.5 -24t-173.5 -11
q-71 17 -96.5 74t-33.5 42q-8 -13 -12 -28t-4 -31q0 -49 34.5 -83.5t83.5 -34.5q13 0 25 3t23 7q13 -31 42.5 -51.5t65.5 -20.5q49 0 83.5 34.5t34.5 83.5q0 11 -1.5 21t-5.5 19v0zM622 750q-12 -36 -27.5 -75t-27.5 -62q-23 -42 -66 -99l-43 -57l29 -281h311l11 107h6h6
q79 0 134.5 56t55.5 134q0 72 -47 125.5t-116 63.5l4 35l-6 4l-6 4q2 -29 -16.5 -52t-47.5 -26q-30 -4 -54 14.5t-28 48.5q-1 11 1 22t6 20q-4 -2 -8 -3t-9 -2q-18 -2 -34.5 4t-27.5 19v0zM854 724l7 65q-3 -9 -9 -17t-14 -14v-2v-2q2 -9 6 -16.5t10 -13.5v0zM827 802
q-19 3 -39 6.5t-41 5.5v-2t1 -3v-6.5v-6.5q3 -8 8.5 -14t12.5 -9q7 -1 14 -2.5t13 -4.5q1 1 2 1h1q5 0 9 1.5t7 3.5q1 8 4 15.5t8 14.5v0zM720 817q-18 1 -37 1.5t-38 -0.5l-4 -11.5t-10 -29.5q7 -13 20.5 -20.5t29.5 -5.5q17 2 28.5 13.5t14.5 27.5q-1 4 -2 7.5t-2 7.5v4.5
v5.5v0zM842 606q48 -8 80.5 -45.5t32.5 -87.5q0 -55 -39.5 -94t-94.5 -39h-3.5h-2.5zM791 743q-7 0 -14 1.5t-13 4.5h-1.5t-1.5 -1q-21 -2 -33.5 -18.5t-9.5 -36.5q2 -20 18.5 -32.5t36.5 -10.5q21 3 33.5 19t9.5 37q-1 12 -8 21.5t-17 15.5v0zM692 921q-3 21 -19 33.5
t-36 9.5q-21 -2 -33.5 -18.5t-9.5 -36.5q2 -21 18.5 -33.5t36.5 -9.5q20 2 33 18.5t10 36.5zM724 806q-3 21 -19 33.5t-36 9.5q-21 -2 -33.5 -18.5t-9.5 -36.5q2 -20 18.5 -33t36.5 -10t33 19t10 36zM806 927q-3 21 -19 33.5t-37 9.5q-20 -2 -32.5 -18.5t-10.5 -36.5
q3 -21 19 -33.5t37 -9.5q20 2 32.5 18.5t10.5 36.5zM816 706q-2 20 -18.5 32.5t-36.5 10.5q-21 -3 -33.5 -19.5t-9.5 -36.5q2 -20 18.5 -32.5t36.5 -10.5q21 3 33.5 19t9.5 37zM842 822q-2 21 -18.5 33.5t-36.5 9.5t-33 -19t-10 -36q3 -21 19 -33.5t36 -9.5q21 2 33.5 18.5
t9.5 36.5zM937 767q-3 20 -19 32.5t-37 10.5q-20 -3 -32.5 -19t-10.5 -37q3 -20 19.5 -32.5t36.5 -9.5q20 2 32.5 18.5t10.5 36.5zM940 896q-3 20 -19 32.5t-37 10.5q-20 -3 -32.5 -19t-10.5 -37q3 -20 19 -32.5t37 -10.5q20 3 32.5 19t10.5 37zM156 257l-26.5 -2t-42.5 2
l30.5 -29t101.5 -8l-63 37v0z" />
</svg>
