<?xml version="1.0" standalone="no"?>
<!DOCTYPE svg PUBLIC "-//W3C//DTD SVG 1.1//EN" "http://www.w3.org/Graphics/SVG/1.1/DTD/svg11.dtd" >
<svg xmlns="http://www.w3.org/2000/svg" xmlns:xlink="http://www.w3.org/1999/xlink" version="1.1" viewBox="-10 0 1044 1024">
   <path fill="currentColor"
d="M829 271l15 36l36 15l-36 14l-15 37l-14 -37l-37 -14l37 -15zM651 18l22 58l58 23l-58 23l-22 57l-23 -57l-58 -23l58 -23l23 -58v0zM286 142l26 65l65 26l-65 25l-26 65l-25 -65l-65 -25l65 -26zM477 167q0 5 -4 8.5t-9 3.5t-8.5 -3.5t-3.5 -8.5t3.5 -9t8.5 -4t9 4t4 9z
M1024 851q-84 -1 -141 13q-57 15 -99.5 33.5t-76.5 35.5q-33 18 -70 22q-47 6 -117 -5.5l-70 -11.5q-68 -22 -144 -68q-77 -45 -141.5 -90.5t-106.5 -79.5l-42 -34l77 -63l22 19t62.5 45t96.5 54q57 28 127 46q139 37 199.5 11.5l60.5 -25.5q-41 -5 -76 -10t-65 -9
q-20 -2 -37.5 -4.5t-33.5 -4.5q-69 -10 -98.5 -15.5l-29.5 -5.5l43 -76l257 -18q21 -7 52.5 -15.5t59.5 -15.5q22 -6 38 -10l16 -4q56 18 122 27.5t115 13.5v245v0zM277 675l34 -39l-159 -84l-44 23l169 100v0zM309 603l-102 -53l31 -21l55 25q3 13 7 25.5t9 23.5zM528 65
q0 5 -4 8.5t-9 3.5t-8.5 -3.5t-3.5 -8.5q0 -6 3.5 -9.5t8.5 -3.5t9 3.5t4 9.5zM600 254q72 19 119.5 79t47.5 138q0 16 -2.5 39.5t-6.5 24.5q-27 8 -73 21.5t-121 20.5q-52 4 -116.5 9.5t-86.5 8.5q-5 0 -5.5 -2.5t-3.5 -7.5q-15 -25 -23 -54t-8 -60q0 -78 47 -138t119 -79
l15 -3.5t41 -3.5q21 0 39 3.5l18 3.5v0zM837 177q0 5 -3.5 8.5t-8.5 3.5t-9 -3.5t-4 -8.5t4 -9t9 -4t8.5 4t3.5 9z" />
</svg>
