<?xml version="1.0" standalone="no"?>
<!DOCTYPE svg PUBLIC "-//W3C//DTD SVG 1.1//EN" "http://www.w3.org/Graphics/SVG/1.1/DTD/svg11.dtd" >
<svg xmlns="http://www.w3.org/2000/svg" xmlns:xlink="http://www.w3.org/1999/xlink" version="1.1" viewBox="-10 0 1034 1024">
   <path fill="currentColor"
d="M137 1024q4 -13 8.5 -25.5t9.5 -23.5q28 -55 83 -78t98 -53q29 51 73 71.5t95 20.5q52 0 96 -20.5t73 -71.5q44 29 99.5 57t83.5 83q4 9 8 19t7 21h-734v0zM685 765q1 0 -49 56.5t-132 56.5q-93 0 -136.5 -56.5l-43.5 -56.5q-13 -20 -23.5 -42t-17.5 -46
q-6 -23 -9.5 -47.5t-3.5 -49.5q0 -62 19 -114q18 -52 50 -90t74 -59q43 -21 91 -21q49 0 91 21q43 21 75 59t50 90t18 114q0 32 -5 63t-15 60q-7 16 -15 32t-18 30v0zM614 453l-116 116l-116 -116l-25 25l115 116l-115 116l25 26l116 -116l116 116l26 -26l-116 -116
l116 -116l-26 -25v0zM360 105l6.5 -32.5t7.5 -33.5q1 -4 2 -7.5t2 -4.5l3 -3t3 -2q2 -2 9 -3t13 7q3 3 8 14t10 20q5 -2 11 -4.5t13 -4.5q29 -8 67 -9.5t61 2.5q30 7 63 26.5t46 49.5q12 30 11 53.5t-11 41.5q-15 26 -42 40t-50 18q-25 3 -45 -1t-35 -11q-3 1 -7 1.5t-9 1.5
q-12 1 -25.5 1.5t-27.5 -0.5v7.5t-1 6.5q-1 6 -6.5 10t-11.5 2q-7 -1 -10.5 -6.5t-2.5 -11.5v-5.5v-5.5q-22 -2 -40 -6t-27 -8q-17 -8 -27 -24t-6 -37q1 -3 6.5 -11t17.5 -11q20 -6 36 0t29 19q10 9 17.5 21t13.5 19l2 4t2 5h18h18q-7 -6 -13.5 -12.5t-11.5 -14.5
q-8 -11 -11.5 -24t0.5 -27q3 -15 10.5 -26t9.5 -13q29 -27 67 -19.5t54 37.5q10 19 7 46.5t-30 59.5q8 1 16.5 1.5t17.5 -0.5q18 -3 38 -13t31 -29q7 -12 7 -28.5t-9 -37.5q-10 -23 -36 -37.5t-50 -19.5q-20 -4 -53.5 -2.5t-59.5 8.5q-9 3 -15.5 5.5t-9.5 6.5q-3 3 -6.5 4.5
t-7.5 1.5q-2 0 -6 -1.5t-7 -6.5q-1 -2 -2.5 -4.5t-3.5 -5.5q-2 9 -3.5 18t-3.5 14q-1 5 -2.5 8l-2.5 5t-2.5 3t-2.5 2q-9 6 -17 6t-15 -3q-2 -1 -4 -1.5t-4 -1.5q-2 0 -3 -0.5t-3 0.5q-5 3 -11.5 2t-10.5 -7q-4 -5 -2.5 -11.5t7.5 -10.5q9 -6 17 -6t15 2q3 1 5 2t4 1
q0 1 0.5 1h0.5v0zM517 226h0.5h0.5q4 -1 6.5 -2.5t4.5 -3.5q18 -22 22 -40t-2 -31q-10 -18 -32 -21.5t-39 12.5l-4.5 7t-6.5 15q-2 7 0 13.5t6 12.5q5 8 12.5 14.5t14.5 11.5q3 2 7 5.5t10 6.5v0zM395 228q-3 -5 -7.5 -11t-9.5 -11q-6 -6 -14.5 -9.5t-18.5 -0.5h-1h-1
q0 8 4.5 13.5t10.5 8.5t15.5 5.5t21.5 4.5v0z" />
</svg>
