<?xml version="1.0" standalone="no"?>
<!DOCTYPE svg PUBLIC "-//W3C//DTD SVG 1.1//EN" "http://www.w3.org/Graphics/SVG/1.1/DTD/svg11.dtd" >
<svg xmlns="http://www.w3.org/2000/svg" xmlns:xlink="http://www.w3.org/1999/xlink" version="1.1" viewBox="-10 0 1034 1024">
   <path fill="currentColor"
d="M45 1024q5 -33 13 -63t21 -55q2 -5 5 -10l6 -10q12 10 24.5 20t24.5 19q-1 2 -2.5 4.5t-2.5 4.5q-10 20 -16.5 42.5t-10.5 47.5h-62v0zM903 1024q-4 -22 -10.5 -42t-15.5 -38l-4 -8t-5 -7q11 -10 22.5 -20t24.5 -22q5 7 9.5 14t8.5 15q11 24 19 51t13 57h-62v0zM161 819
q6 -4 12 -7.5t12 -7.5q22 -12 44.5 -23t43.5 -22q-1 19 -1.5 40.5t0.5 29.5q-14 7 -28.5 14t-28.5 15q-3 2 -6.5 4t-6.5 4q-10 -11 -20 -23t-21 -24v0zM808 872q-3 -3 -7 -5t-8 -5q-12 -7 -24.5 -14t-24.5 -14q0 -18 0.5 -35.5t0.5 -34.5q19 10 38.5 20.5t38.5 22.5
q-3 16 -6.5 33t-7.5 32v0zM796 519q-4 19 -8.5 37t-10.5 36h-0.5t-0.5 1q-8 20 -18 39.5t-22 36.5q0 1 -0.5 2t-1.5 2q-6 9 -25 32q-18 23 -48 47t-70 42q-39 19 -87 19q-77 0 -127.5 -35t-76.5 -67q1 -1 1.5 -1t0.5 -1q5 -3 20 -11.5t32 -18.5q21 25 58 48.5t92 23.5
q74 0 121.5 -49t56.5 -63l0.5 -0.5l0.5 -0.5q0 -1 0.5 -1.5l1.5 -1.5q10 -15 18.5 -31t14.5 -33q6 -15 10 -31t7 -32q15 2 32.5 5t28.5 6v0zM146 618l22 59l60 23l-60 22l-22 59l-22 -59l-60 -22l60 -23zM843 646l13 38l38 13l-38 14l-13 38l-14 -38l-37 -14l37 -13zM867 58
l31 84l85 32l-85 31l-31 85l-32 -85l-84 -31l84 -32zM740 460v-9v-10q0 -51 -12 -96t-34 -81.5t-52 -62.5t-66 -39q1 -5 6 -28t7 -33q46 15 85 46t67.5 75t44.5 100q16 55 16 119v8.5v8.5q-24 1 -42.5 1.5l-18.5 0.5h-0.5h-0.5v0zM293 308q-12 30 -18.5 63.5t-6.5 69.5
q0 27 3.5 53t10.5 50t17.5 46.5t23.5 41.5q-13 6 -29.5 12.5t-28.5 12.5q-13 -22 -24 -46t-19 -50v0v0q-7 -28 -11.5 -58.5t-4.5 -61.5q0 -45 8.5 -86t23.5 -76q10 5 29.5 16t25.5 13v0zM465 153q-43 8 -79 33t-62 64q-12 -8 -26 -17.5t-26 -16.5q34 -50 81.5 -82.5
t102.5 -42.5q2 12 5 34t4 28v0z" />
</svg>
