<?xml version="1.0" standalone="no"?>
<!DOCTYPE svg PUBLIC "-//W3C//DTD SVG 1.1//EN" "http://www.w3.org/Graphics/SVG/1.1/DTD/svg11.dtd" >
<svg xmlns="http://www.w3.org/2000/svg" xmlns:xlink="http://www.w3.org/1999/xlink" version="1.1" viewBox="-10 0 1034 1024">
   <path fill="currentColor"
d="M309 948h-77q-1 1 -2.5 1h-2.5q-44 0 -76.5 -28.5t-38.5 -70.5q-1 -2 -1.5 -4t-0.5 -4v-10v-701v-1.5v-0.5q1 -48 35 -81.5t82 -33.5h641q8 0 13.5 5.5t5.5 13.5v695q0 1 0.5 2.5t0.5 2.5v196q0 8 -5.5 13.5t-13.5 5.5h-375v54q0 6 -2.5 10.5t-6.5 7.5q-5 3 -10 3t-9 -3
l-66 -36l-64 32q-4 2 -9 1.5t-9 -2.5q-4 -3 -6.5 -7.5t-2.5 -10.5v-49v0zM869 842v-17h-375v17h375zM475 1002v-226h-147v221l72 -36l75 41v0zM309 784h-70v18h70v-18zM309 825h-70v17h70v-17zM869 802v-18h-375v18h375zM869 749v-16l-643 1q-40 0 -68.5 29t-28.5 69
q0 8 1.5 15t3.5 15q10 29 35.5 48t57.5 19h2.5h2.5h77v-16h-52h-2h-2q-34 0 -58 -24t-24 -57q0 -34 24 -58t57 -24l617 -1v0zM752 248l-60 23l59 185l1 -208v0zM738 268v101l-29 -89l14.5 -6l14.5 -6v0zM337 232l58 24l119 -137l-177 113v0zM366 230l77 -50l-52 60zM324 244
l-4 207l63 -183l-59 -24v0zM337 264l29 12l-31 89l2 -101v0zM742 236l-173 -112l116 133l57 -21v0zM713 233l-24 9l-50 -58l74 49v0zM869 883v-18h-375v18h375zM309 865h-70v18h70v-18zM412 264l252 2l-125 -147l-127 145v0zM441 251l97 -112l48.5 57l48.5 57zM494 929h375
v-16h-375v16v0zM341 498l185 108l-3 -80l-182 -28v0zM422 527l85 13l1 18.5l1 18.5l-87 -50v0zM731 506l-181 23l1 77l180 -100v0zM653 532l-87 48v-37zM658 289l-241 -2l118 218l123 -216v0zM631 304l-96 169l-91 -171l187 2v0zM331 478l182 27l-118 -219zM352 465l47 -140
l85 160l-132 -20v0zM742 483l-62 -195l-122 219zM721 469l-134 18l89 -159z" />
</svg>
