<?xml version="1.0" standalone="no"?>
<!DOCTYPE svg PUBLIC "-//W3C//DTD SVG 1.1//EN" "http://www.w3.org/Graphics/SVG/1.1/DTD/svg11.dtd" >
<svg xmlns="http://www.w3.org/2000/svg" xmlns:xlink="http://www.w3.org/1999/xlink" version="1.1" viewBox="-10 0 1044 1024">
   <path fill="currentColor"
d="M0 1012l321 -320q1 -1 1.5 -1h1.5q8 6 17 11.5t18 10.5v0v0q1 0 1 1v1h-1v0l-214 309h-145v-12v0zM162 1024l210 -302q1 -1 2 -1h2l36 14q1 0 1.5 0.5t-0.5 1.5v0v0l-130 287h-121v0zM505 1024l1 -273q0 -1 0.5 -1.5t1.5 -0.5q12 0 24.5 -0.5t24.5 -2.5q1 0 2 0.5l1 0.5
q14 70 28.5 139t29.5 138h-113v0zM631 1024q-14 -70 -29 -140t-30 -139v-1l1 -1l45 -12l0.5 0.5l0.5 0.5q17 36 34 73q17 36 33.5 72.5t33.5 73.5q17 36 33 73h-122v0zM1012 1024l-325 -326v0v0v-0.5v-0.5v0v-1l42 -31q1 -1 1.5 -1t0.5 1l293 216v143h-12v0zM1024 865
l-285 -208v0v0v-1.5v-0.5v0q7 -7 13.5 -15t13.5 -16h0.5h0.5l257 117v124v0zM1024 518h-202v0v0l-0.5 -0.5l-0.5 -0.5v0v0q5 -17 8 -33.5t5 -33.5v-1h1l189 -35v104v0zM1024 397l-188 36v0v0h-1v0v0v0q0 -18 -1.5 -35.5t-5.5 -35.5q0 -1 0.5 -1.5l1.5 -1.5
q48 -22 96.5 -44.5t97.5 -43.5v126v0zM1024 11l-238 238h-0.5h-0.5q0 1 -1 1t-1 -1v0v0q-10 -15 -21 -29t-23 -26q-1 -1 -1 -2t1 -1l145 -191h140v11v0zM867 0l-137 184h-1h-1v0v0q-12 -11 -24.5 -20.5t-26.5 -17.5q-1 -1 -1.5 -2t0.5 -2l65 -142h126zM519 0l-1 97l-0.5 0.5
l-0.5 0.5q-21 0 -41.5 2t-41.5 6q-1 1 -2 0.5t-1 -2.5l-29 -104h117v0zM386 0l30 109q0 1 -0.5 1.5l-0.5 0.5q-20 7 -39 15.5t-37 19.5v0v0q0 1 -1 0.5l-1 -0.5v-0.5v-0.5l-67 -145h116v0zM11 0l233 233q1 0 1 1t-1 1q-8 13 -15.5 26t-14.5 26v0v0v1h-1v0v0
q-53 -38 -106.5 -76t-106.5 -76v-136h11v0zM0 155l206 147q1 0 1 1v2q-6 15 -10 31t-7 32v0v0q0 1 -0.5 1h-1.5v0v0l-188 -86v-128v0zM0 506h191q1 0 1.5 0.5l1.5 1.5q4 14 9 28t12 27v0.5v0.5l-0.5 0.5t-0.5 1.5v0v0l-214 49v-109v0zM0 630l221 -52l0.5 0.5t1.5 0.5
q8 15 17 28t19 26v0v0q1 0 0.5 0.5l-0.5 0.5v0v0l-259 119v-123v0zM522 132v30t-1 30q0 1 -0.5 1h-0.5q-16 1 -32 2.5t-31 5.5q-1 0 -1.5 -0.5l-0.5 -0.5l-15 -58q-1 -1 -0.5 -2t2.5 -1v0v0q19 -4 38.5 -6.5t39.5 -2.5q1 0 1.5 0.5t0.5 1.5zM440 205q-16 6 -32 13.5
t-30 16.5q-2 1 -3.5 0.5t-2.5 -2.5l-25 -53q0 -1 0.5 -2t1.5 -2q17 -10 35.5 -18t38.5 -14l0.5 0.5l0.5 0.5l17 59l-0.5 0.5l-0.5 0.5v0zM656 174v0v0q1 -1 2 -1h2v0v0q13 8 25 17t24 20v0.5v1.5l-34 46v0v0h-0.5h-1.5v0v0q-9 -9 -18.5 -16.5t-20.5 -13.5q0 -1 -0.5 -1.5
t-0.5 -1.5l23 -51v0zM761 278q-9 10 -19 19.5t-20 19.5v0v0h-1.5h-0.5v0v0q-8 -14 -17.5 -26.5t-20.5 -23.5v-1.5v-1.5l35 -44v0v0q0 -1 0.5 -1t1.5 1v0v0q12 12 22.5 25.5t20.5 28.5v2t-1 2v0zM272 259q12 10 23.5 22t22.5 23q1 1 1 1.5t-1 0.5q-6 11 -12 21.5t-11 21.5v0
v0v0.5t-1 -0.5v0v0l-50 -37q-1 0 -1.5 -1.5t0.5 -3.5q6 -12 13 -24t15 -24l0.5 -0.5t0.5 0.5v0zM289 363l0.5 0.5t-0.5 1.5q-3 11 -6 23.5t-4 25.5v0v0l-1.5 1.5t-1.5 0.5v0v0l-58 -26q-1 -1 -1 -1.5v-1.5q3 -15 7 -30t10 -30v0v0q0 -1 1 -1h2v0v0zM746 448q1 -14 0.5 -27.5
t-2.5 -26.5q0 -1 0.5 -2t1.5 -1l49 -23h1v0h0.5t1.5 1v0v0q2 15 3.5 31.5t0.5 34.5q0 1 -0.5 2t-2.5 2l-51 10v0v0h-1.5t-0.5 -1v0v0v0zM731 518q4 -13 8.5 -27t4.5 -27q0 -1 0.5 -1.5l0.5 -0.5l55 -9v0v0q1 0 1 0.5v0.5v0v0q-1 16 -4 32t-8 32l-1 0.5l-1 0.5h-55v0v0
l-0.5 -0.5l-0.5 -0.5v0v0v0zM292 505h1.5t0.5 1l8 20t9 19v0.5v0.5v0.5v0.5v0v0l-59 13q-1 0 -1.5 -0.5t-1.5 -0.5q-6 -13 -10.5 -26t-8.5 -28v0v0v-0.5t1 -0.5v0v0l61 1v0zM350 599v0.5v0.5v0.5t-1 0.5v0v0l-54 25h-1.5t-1.5 -1q-10 -12 -18.5 -24.5t-16.5 -25.5v0v0
q0 -1 0.5 -1.5l0.5 -0.5v0v0l58 -15q1 0 2 0.5t1 1.5q7 10 14.5 20t16.5 19v0zM668 608h-0.5h-0.5v-2v-1v-0.5v-0.5l18 -18q1 -1 2 -1h2l47 21v0v0q1 1 1 1.5v0.5v0h-1q-5 8 -11.5 15t-13.5 14h-1.5h-0.5l-41 -29v0zM701 643v0v0v2v1v0v0q-9 8 -19 15.5t-20 14.5
q-1 1 -1.5 1t-0.5 -1l-37 -36v0v-1q-1 0 -0.5 -1l0.5 -1v0v0q9 -6 17.5 -11.5t17.5 -12.5q0 -1 1.5 -1t2.5 1l39 30v0zM345 670l-1 -1v0l-0.5 -1t0.5 -2v0v0l39 -38q1 -1 2 -1h2l24 14v0v0q1 0 1.5 1t-0.5 1v0v0l-31 45q-1 1 -2 1h-2l-32 -19v0zM394 697v0v0q-1 -1 -1 -1.5
v-1.5v0v0l31 -45q0 -1 1 -1.5t2 0.5l27 9v0v0l0.5 0.5t-0.5 1.5v0l-22 50q-1 0 -1.5 0.5l-0.5 0.5q-9 -3 -18 -6.5t-18 -6.5v0zM540 658q1 0 1.5 0.5l0.5 0.5l10 51v0v0q0 1 -0.5 1.5t-1.5 0.5v0v0q-12 2 -23.5 3t-23.5 1v0v0q-1 0 -1.5 -0.5t-0.5 -1.5l1 -53l0.5 -0.5
l0.5 -0.5l37 -2v0zM566 709h-1.5t-0.5 -1l-12 -50q0 -1 0.5 -1.5t1.5 -0.5l31 -7q0 -1 0.5 -0.5l0.5 0.5l22 47v1l-1 1v0v0l-20 6t-21 5v0z" />
</svg>
