<?xml version="1.0" standalone="no"?>
<!DOCTYPE svg PUBLIC "-//W3C//DTD SVG 1.1//EN" "http://www.w3.org/Graphics/SVG/1.1/DTD/svg11.dtd" >
<svg xmlns="http://www.w3.org/2000/svg" xmlns:xlink="http://www.w3.org/1999/xlink" version="1.1" viewBox="-10 0 1034 1024">
   <path fill="currentColor"
d="M951 127v-5l-311 -53l40 100zM534 619v-4l-195 -39l13 74l182 -31v0zM951 314v-5l-235 -57l46 104zM534 758v-4l-166 -36l18 93zM951 501v-5l-158 -44l38 91l120 -42v0zM540 881v-4l-139 -18l8 73l131 -51v0zM951 688v-5l-78 -22l31 68l47 -41v0zM163 0h381l373 899
l-240 56l62 -112l-289 -530l-55 17l-131 210l65 397l-250 39l95 -88l-112 -365l169 -308l-68 -215v0z" />
</svg>
