<?xml version="1.0" standalone="no"?>
<!DOCTYPE svg PUBLIC "-//W3C//DTD SVG 1.1//EN" "http://www.w3.org/Graphics/SVG/1.1/DTD/svg11.dtd" >
<svg xmlns="http://www.w3.org/2000/svg" xmlns:xlink="http://www.w3.org/1999/xlink" version="1.1" viewBox="-10 0 1034 1024">
   <path fill="currentColor"
d="M685 131q24 10 41.5 34.5t19.5 50.5q2 38 -14 71.5t-58 40.5q-19 3 -37 -2.5t-35 -12.5q-45 -17 -74 -53t-30 -86q-1 -64 45 -103.5t103 -48.5q58 -10 116 2t104 50q7 5 13.5 12t11.5 15q23 29 37 61t18 70q1 4 0.5 9t-0.5 9q2 23 -1 44t-12 42q-3 6 -5.5 12.5t-5.5 12.5
q-10 23 -32.5 42.5t-43.5 32.5q-4 2 -8.5 4t-9.5 2v0v-1q22 -21 40.5 -43t30.5 -51q17 -38 16 -79.5t-20 -79.5q-12 -23 -30.5 -44t-40.5 -36q-38 -26 -86 -36t-93 6q-33 11 -49 36t-19 59q-2 20 3.5 37t18.5 30q19 20 44 23.5t47 -15.5q26 -22 19.5 -57.5t-25.5 -58.5
q-1 -1 -0.5 -1h1.5v0zM376 48q8 2 12.5 10t2.5 16q-2 9 -10 13.5t-16 2.5q-9 -2 -13.5 -10t-2.5 -17q2 -8 10 -12.5t17 -2.5zM631 717l56 -5l3 22l-15 13.5l-25 22.5l-35.5 -18.5t-59.5 -27.5q-18 -7 -67 -21t-103 -29t-101 -27q-47 -13 -60 -16q-7 -1 -13.5 -4t-12.5 -5v0
h-1l28 -28q28 -29 63 -63.5t65 -64.5t34 -33q38 -28 98.5 -70.5t62.5 -37.5l9 35.5t8 36.5q-11 21 -23 42t-24 41q-1 3 -33.5 23.5t-50.5 34.5q-11 9 -21.5 26.5t0.5 30.5l36 -1q36 0 79.5 -1.5t79.5 -2.5q37 -1 38 -1q28 -8 75.5 -21.5t49.5 -15.5q29 -23 80.5 -63
t57.5 -44q2 0 34.5 -2t37.5 5q1 1 -18 25q-18 23 -44 55.5t-55 67.5q-28 35 -48 59q-1 1 -30 10q-28 10 -63 21.5t-63 21.5zM713 454l48 -51l18 53l3 52l-72 31l7 -46l-4 -39v0zM607 494l36 -57l44 92l3 19l-69 13l3 -21l-17 -46v0zM160 703q-20 -4 -38 -12t-34 -19
q-10 -8 -16 -23t-7 -26q-3 -17 5.5 -37t16.5 -34q8 -12 20.5 -26t22.5 -28q17 -23 48 -38t58 -20q26 -4 51 -6.5t51 -3.5h1.5t0.5 1q1 1 0.5 2.5t-2.5 2.5q-7 5 -14 11t-14 13q-4 3 -12.5 2t-14.5 -1q-39 0 -74 11.5t-66 33.5q-7 5 -13 13t-8 16q-10 33 5 59t44 41
q41 21 115 42.5t82 23.5q22 6 55 16q33 9 65 19t57 18q24 8 29 10q14 8 28.5 14t27.5 15q26 17 48.5 38.5t29.5 52.5q2 9 2.5 18.5t0.5 19.5q1 15 -8.5 36t-23.5 28q-21 10 -48.5 17t-51.5 1q-31 -9 -55.5 -23t-35.5 -47l-4 -12t-5 -12v0v0q0 -1 0.5 -1.5l1.5 -1.5v0v0
q4 0 6.5 1.5t4.5 4.5q18 29 58.5 44t71.5 6q35 -11 18.5 -50.5t-29.5 -53.5q-14 -15 -29.5 -25.5t-34.5 -17.5q-6 -3 -38.5 -16t-57.5 -21q-34 -10 -89 -24.5t-93 -24.5q-7 -2 -48.5 -12t-60.5 -15v0zM520 515l34 -37l17 88l-54 4l3 -55v0zM970 621q7 2 11 8.5t2 13.5
t-8.5 10.5t-13.5 2.5q-7 -2 -11 -8.5t-2 -13.5q2 -8 8.5 -11.5t13.5 -1.5v0zM0 837q37 -21 73 -42.5t38 -23.5q8 -17 11 -23.5t12 -22.5q0 -1 27 6q27 6 60.5 14t63.5 15q29 8 32 9q22 6 56 15q33 9 67 19.5t63 19.5q29 10 43 16q1 1 -23 12t-60 27t-76 33q-39 18 -70 32
q-7 4 -37 31t-55 50h-225v-187v0zM187 141l36 76l81 34l-81 34l-36 76l-36 -76l-81 -34l81 -34l36 -76v0zM884 710l31 65l70 30l-70 30l-31 65l-32 -65l-69 -30l69 -30z" />
</svg>
