<?xml version="1.0" standalone="no"?>
<!DOCTYPE svg PUBLIC "-//W3C//DTD SVG 1.1//EN" "http://www.w3.org/Graphics/SVG/1.1/DTD/svg11.dtd" >
<svg xmlns="http://www.w3.org/2000/svg" xmlns:xlink="http://www.w3.org/1999/xlink" version="1.1" viewBox="-10 0 1044 1024">
   <path fill="currentColor"
d="M1024 640l-344 207l-67 39q-68 39 -162.5 77t-195.5 55t-168 -27q-8 -4 -15 -9t-13 -12q-8 -8 -14.5 -17.5t-10.5 -19.5q-41 -71 -29 -170q13 -98 44 -187t64 -151l33 -63l229 -362h121l-280 410l-32 47q-32 48 -69.5 118.5t-66.5 152.5q-30 81 -25 149q-1 -57 27 -120
q27 -64 60.5 -117.5t60.5 -88.5l28 -35l402 -516h423v425l-501 391l-32 26q-33 27 -83.5 60t-111.5 64q-60 30 -117 37q67 -6 144 -39q77 -34 143 -72.5t110 -69.5l44 -31l404 -263v112v0zM911 90l-24 63l-63 24l63 23l24 63l23 -63l63 -23l-63 -24zM406 780q1 0 1.5 -0.5
l0.5 -0.5l226 -208q-62 -24 -104 -67.5t-67 -104.5l-216 224q-20 20 -46 61q-27 41 -48.5 85.5t-31.5 82.5q-9 39 5 53q13 14 52 3q38 -10 82 -32t85 -49t61 -47v0zM580 156l-14 38l-38 14l38 14l14 37l14 -37l38 -14l-38 -14zM757 18l-14 38l-36 13l36 14l14 38l14 -38
l36 -14l-36 -13zM740 233l-44 117l-117 44l117 43l44 118l43 -118l118 -43l-118 -44l-43 -117v0zM738 881l16 44l44 16l-44 16l-16 44l-17 -44l-44 -16l44 -16l17 -44v0zM903 749l29 79l79 29l-79 29l-29 78l-29 -78l-79 -29l79 -29zM197 30l15 41l41 15l-41 15l-15 42
l-16 -42l-41 -15l41 -15zM105 136l23 61l62 22l-62 23l-23 61l-23 -61l-63 -23l63 -22l23 -61v0z" />
</svg>
