<?xml version="1.0" standalone="no"?>
<!DOCTYPE svg PUBLIC "-//W3C//DTD SVG 1.1//EN" "http://www.w3.org/Graphics/SVG/1.1/DTD/svg11.dtd" >
<svg xmlns="http://www.w3.org/2000/svg" xmlns:xlink="http://www.w3.org/1999/xlink" version="1.1" viewBox="-10 0 1034 1024">
   <path fill="currentColor"
d="M399 172v107h-113v113h-107v-113h-113v-107h113v-113h107v113h113v0zM798 617v181h-212v212h-181v-212h-213v-181h213v-212h181v212h212zM1000 313v99h-101v101h-99v-101h-100v-99h100v-101h99v101h101zM628 5l27 69l68 27l-68 27l-27 68l-27 -68l-68 -27l68 -27z
M885 808l26 65l64 25l-64 26l-26 64l-25 -64l-65 -26l65 -25zM92 421l23 57l57 22l-57 23l-23 57l-22 -57l-57 -23l57 -22l22 -57v0z" />
</svg>
