<?xml version="1.0" standalone="no"?>
<!DOCTYPE svg PUBLIC "-//W3C//DTD SVG 1.1//EN" "http://www.w3.org/Graphics/SVG/1.1/DTD/svg11.dtd" >
<svg xmlns="http://www.w3.org/2000/svg" xmlns:xlink="http://www.w3.org/1999/xlink" version="1.1" viewBox="-10 0 1044 1024">
   <path fill="currentColor"
d="M0 707l174 -31q1 0 1 -0.5v-1.5q-6 -4 -11 -9.5t-9 -9.5q-9 -8 -18 -15.5t-19 -14.5q-1 -1 -2 -2.5t-1 -3.5q-3 -11 -1 -21.5t6 -22.5q0 -1 0.5 -1.5l0.5 -0.5q3 -2 5.5 -1.5t5.5 2.5q28 21 57 42.5t57 43.5q2 1 4 1.5t4 0.5l22 -4q1 0 1.5 -1t-0.5 -2q-42 -43 -77 -81.5
t-86 -91.5q-4 -4 -3.5 -13t2.5 -17q1 -7 13 -10.5t12 -2.5q49 43 93.5 81t94.5 80q2 2 4 1.5t4 -2.5l16 -21q1 0 1 -1t-1 -1q-37 -56 -75 -111t-75 -109q-5 -6 -3 -13.5t2 -8.5q12 -15 30.5 -16t21.5 2l70 100l70 100q1 1 2.5 1.5t3.5 0.5l31 -9v0v0l0.5 -0.5t0.5 -1.5v0v0
l-3 -8q-1 0 -1 -0.5v-0.5h1v0q12 9 26 14t27 12q0 1 0.5 1.5t0.5 1.5q-1 11 -3 21.5t-3 21.5q-3 20 5.5 26t23.5 12q8 4 17.5 6t17.5 6q1 0 1.5 0.5l0.5 0.5q8 16 -8.5 36t4.5 36q5 4 13 10t20 13q16 11 23 20.5t8 28.5q2 17 7 33.5t13 31.5q9 18 24 27.5t36 9.5
q17 1 35.5 0.5t36.5 -7.5v0v0h1t1 1v0v0q1 4 2.5 8t2.5 8q10 36 22 72t26 71h-228l-17 -93q-1 -2 -2 -3t-3 -1q-35 -2 -70.5 -10t-64.5 -28q-5 -3 -13 -9.5t-19 -16.5q-17 -15 -34 -30.5t-34 -30.5q-9 -8 -19 -18t-20 -18q-1 0 -2 -0.5t-2 0.5q-69 28 -139 55.5t-140 53.5
v-43q41 -16 82.5 -32t82.5 -32q18 -7 40 -14.5t42 -16.5q12 -4 21.5 -8t17.5 -6q48 -16 95.5 -31.5t95.5 -30.5q4 -1 13 -5t2 -9h-0.5h-1.5q-13 3 -26 5.5t-27 4.5q-31 6 -63 13.5t-64 14.5q-23 5 -47.5 9t-48.5 9q-2 0 -4 -0.5t-4 0.5q-51 11 -102.5 22t-103.5 21v-39v0z
M813 1024v0v-1q1 -1 1.5 -1t1.5 2v0v0h-3v0zM972 1024q-13 -28 -31.5 -63t-30.5 -60q-10 -23 -22.5 -46.5t-23.5 -47.5q0 -2 0.5 -3t1.5 -2q12 -11 24.5 -22.5t25.5 -22.5q5 -4 9.5 -9t8.5 -11q1 -2 0.5 -2t-2.5 1q-18 9 -37.5 21t-35.5 20q-29 15 -62.5 27.5t-65.5 15.5
q-5 0 -10 -1t-11 -3q-25 -9 -31 -40t-10 -55q-2 -13 -8.5 -24t-17.5 -20q-4 -3 -9 -5l-10 -4q-10 -4 -16.5 -13.5t-0.5 -19.5q7 -12 14 -23t13 -23v-1t-1 -1q-3 -3 -6.5 -5.5t-7.5 -4.5q-17 -7 -31 -13.5t-24 -11.5q-9 -5 -8.5 -12.5t2.5 -17.5q2 -8 4 -16.5t4 -16.5
q1 -3 0 -4.5t-4 -1.5q-12 -2 -24 -4.5t-25 -6.5q-16 -6 -35.5 -21t-13.5 -36q4 -14 11.5 -29t13.5 -28q10 -22 21.5 -45t20.5 -46q3 -9 5.5 -19.5t-1.5 -18.5q-6 -14 -15.5 -28t-11.5 -30q-3 -28 -3.5 -49t2.5 -47q2 -20 5.5 -38.5t8.5 -36.5h503v1024h-52v0zM0 782
q3 -2 5.5 -4t4.5 -5q0 -1 0.5 -1.5t1.5 -0.5q4 -1 6.5 -4t5.5 -5q9 -4 15.5 1.5t11.5 12.5q1 0 1 0.5v1.5q-2 4 -6 4.5t-9 0.5l-0.5 0.5l-0.5 0.5q-5 6 -10.5 10t-13.5 -1l-0.5 -0.5t-1.5 -0.5q-2 1 -5 1t-5 -1v-10v0zM386 295q13 10 22.5 26t18.5 31q1 1 1 1.5v1.5
q-6 22 -14.5 42t-13.5 42q-1 1 -1 2.5v3.5q0 1 -0.5 1t-0.5 -1q-17 -35 -33.5 -69.5t-33.5 -69.5q-2 -4 -1.5 -7.5t3.5 -7.5q11 -11 26 -8.5t27 12.5v0zM78 767q-4 1 -7.5 2.5t-6.5 1.5q-3 1 -4 0t0 -4q2 -6 7 -13t12 -7q4 0 8 2t7 -4v-0.5t1 -0.5q7 -5 12.5 -2.5t7.5 11.5
q2 8 -4.5 10t-11.5 6q-2 2 -4.5 2.5t-4.5 -0.5l-10 -5h-1.5t-0.5 1v0zM280 711q-1 -1 -1 -2.5v-3.5q1 0 1 -0.5t1 -0.5l11 -3h0.5t-0.5 1q-1 2 -2.5 4.5t-3.5 4.5q-1 1 -3 1t-3 -1v0zM228 726q-10 -4 5 -16t25 1l0.5 0.5t0.5 1.5q-1 3 -2.5 4.5t-4.5 2.5q-5 0 -10 2t-9 4
q-1 1 -2.5 1t-2.5 -1v0zM130 753q-2 0 -2.5 -1.5t0.5 -2.5q0 -1 0.5 -1t0.5 -1q5 -2 9.5 -6t7.5 -8q4 -5 7.5 -7t9.5 -1q2 0 4 1.5t5 1.5h1.5t0.5 -1q7 -4 14.5 -4.5t14.5 1.5q2 1 3 2.5t0 3.5q-3 6 -8 9t-12 4q-8 2 -13 7.5t-14 -4.5q-1 -1 -2 -1t-2 1q-5 5 -11.5 7.5
t-13.5 -0.5v0z" />
</svg>
