<?xml version="1.0" standalone="no"?>
<!DOCTYPE svg PUBLIC "-//W3C//DTD SVG 1.1//EN" "http://www.w3.org/Graphics/SVG/1.1/DTD/svg11.dtd" >
<svg xmlns="http://www.w3.org/2000/svg" xmlns:xlink="http://www.w3.org/1999/xlink" version="1.1" viewBox="-10 0 1044 1024">
   <path fill="currentColor"
d="M60 1024l-45 -133l134 133h-89zM336 1024l196 -145l64 91l-77 54h-183zM560 1024l1 -2l44 -38l28 40h-73v0zM909 1024l-152 -246l117 -183l120 -19l30 43v405h-115v0zM1024 369l-39 26l-205 -395h4l240 276v93zM282 1021l-1 1l-75 -29l-160 -223l27 -53l95 113l49 -39
l-11 -23l-37 16l-97 -130l42 -74l130 179l43 -31l-11 -22l-24 14l-120 -176l86 -31l55 108l23 -4l44 78l43 6l-6 106l-3 38l98 -3l-73 -27l8 -113h40l-18 -36l-77 4l-21 -51l152 -44l97 169l-32 106l-239 168l-27 4v-1v0zM306 604l-65 -93l93 -19l59 90l-87 22v0zM84 205
l169 168l-92 57l-77 -225v0zM913 471l73 91l-269 17l111 -64l85 -44v0zM645 624l53 -25l158 -12l-112 189zM806 343h1l-15 23l-249 153l-110 -12l-120 -154l100 -122l40 39l-34 69l26 30l16 -36l108 37l-4 77l41 -88l-37 -12l-100 -37l11 -41l-55 -70l12 -20l-78 -92l62 -67
l116 178l-21 17l16 19l45 -27l-115 -189l84 -10l84 140l-30 27l17 20l56 -31l-69 -130l60 -4l145 233l-3 80v0v0zM409 203l-55 71l-61 -89l54 -78zM576 516l254 -147l67 80l-261 161l-60 -94v0z" />
</svg>
