<?xml version="1.0" standalone="no"?>
<!DOCTYPE svg PUBLIC "-//W3C//DTD SVG 1.1//EN" "http://www.w3.org/Graphics/SVG/1.1/DTD/svg11.dtd" >
<svg xmlns="http://www.w3.org/2000/svg" xmlns:xlink="http://www.w3.org/1999/xlink" version="1.1" viewBox="-10 0 1044 1024">
   <path fill="currentColor"
d="M41 1024l140 -204l168 -196q69 -3 123.5 -27t91.5 -75l-9 43q-8 44 -17.5 98t-18.5 101q-8 48 -8 58q0 53 38 91t92 38q21 0 55 -26q35 -26 67.5 -56.5t56.5 -56.5l23 -26l79 166l78 72h-540l22 -32l-85 -197l-129 162l-39 67h-188v0zM1024 563l-361 338l-46 -11t-62 -68
l111 -650v396l272 -501l-109 394l195 -177v3l-237 420l237 -157v13v0zM1024 184l-107 129l107 -211v82zM866 0l-168 438l59 -438h109zM1024 476l-125 112l125 -193v81zM105 187q1 -2 2.5 -3t3.5 -1t4 1t3 3l13 33l35 3q2 0 3.5 1t2.5 3t0.5 4t-2.5 4l-27 23l8 34q1 2 0 4
t-2 3q-2 1 -4 1t-4 -1l-30 -18l-30 18q-2 1 -4 1t-3 -1q-2 -1 -2.5 -3t-0.5 -4l8 -34l-26 -23q-2 -2 -2.5 -4t0.5 -4q0 -2 1.5 -3t3.5 -1l36 -3l13 -33v0zM578 148q14 11 24 24.5t14 29.5q6 25 -2 52t-30 53q-28 33 -77 61.5t-111 45.5q-18 4 -35 7.5t-34 5.5q-29 40 -61 70
t-63 47q-33 19 -63.5 21.5t-54.5 -10.5t-38 -40t-16 -65q-2 -30 4 -66t19 -74q1 2 3 3.5t4 3.5q4 3 8 4t9 1q-24 74 -19.5 132t39.5 77q36 20 89.5 -9t103.5 -92q-32 1 -60.5 -2.5t-51.5 -11.5q-32 -12 -52.5 -31.5t-27.5 -44.5q-2 -6 -2.5 -12t-0.5 -12l15 -9l12 7
q0 5 0.5 9.5t1.5 9.5q10 39 62.5 57t124.5 12q8 -13 16 -25.5t16 -26.5q31 -57 46.5 -111.5t15.5 -98.5q-19 2 -39 5.5t-41 8.5q-40 11 -74 27t-61 35q-3 -7 -9.5 -11t-13.5 -4h-1q29 -23 67.5 -42t84.5 -31q22 -6 43.5 -9.5t41.5 -5.5q-3 -24 -12.5 -41.5t-26.5 -26.5
q-41 -23 -105 18.5t-118 125.5l-4 -10q-2 -5 -5 -8.5t-7 -5.5q31 -46 66 -80t68 -53q34 -18 64.5 -21t53.5 10q22 12 35.5 35t17.5 56h16h16q-1 7 1.5 12.5t7.5 9.5l7 7q-11 -1 -22.5 -2t-23.5 0q1 46 -15.5 104.5t-49.5 119.5q-5 9 -10 17.5t-11 16.5q11 -2 21 -4t21 -5
q96 -26 155 -78.5t46 -100.5q-2 -8 -6 -15t-10 -13q4 -5 6 -11t0 -13l-2 -9v0zM193 238q26 -20 61 -37t77 -29l28 -6t27 -5q-3 39 -18 85.5t-41 94.5q-6 11 -12.5 21.5t-13.5 20.5q-37 3 -69 -1.5t-54 -16.5q-1 0 -2 -0.5t-1 -1.5q-3 -13 -4.5 -26.5t-1.5 -26.5q3 -5 4 -11
t0 -12l-2 -9q1 -5 1.5 -9t1.5 -9q4 -3 7.5 -6l3.5 -3q3 -2 5 -5.5t3 -7.5v0zM451 171q22 18 40.5 42.5t32.5 54.5q3 6 5.5 12.5t4.5 12.5q-26 23 -64 43t-84 33q28 -52 44 -103t21 -95v0zM549 364q0 14 -0.5 27t-3.5 25q1 1 -16 57t-76 82q-66 29 -115 3t-48 -27
q-5 -3 -9.5 -6t-9.5 -7q17 -15 33.5 -33.5t32.5 -39.5q16 -2 31.5 -5.5t31.5 -7.5q44 -12 81.5 -29.5t67.5 -38.5v0zM225 472q-5 -7 -10 -14.5t-10 -15.5q11 2 22 3.5t23 2.5q-6 7 -12.5 13t-12.5 11zM173 595l2 -2t3 -1q1 0 2.5 1t2.5 2l10 25l26 2q2 0 3 1t2 3v2.5t-2 2.5
l-20 17l6 26q1 2 0.5 3.5t-2.5 2.5q-1 0 -2.5 0.5t-2.5 -0.5l-23 -14l-23 14q-1 1 -2.5 0.5t-3.5 -0.5q-1 -1 -1.5 -2.5t0.5 -3.5l6 -26l-21 -17q-1 -1 -1.5 -2.5t0.5 -2.5q0 -2 1.5 -3t2.5 -1l27 -2l10 -25v0zM525 83q0 -1 1.5 -2t3.5 -1q1 0 2.5 1t1.5 2l11 25l26 2
q2 0 3 1l2 2q0 2 -0.5 3.5t-1.5 2.5l-20 17l6 26q0 2 -0.5 3.5t-1.5 1.5q-1 1 -2.5 1.5t-3.5 -0.5l-22 -14l-23 14q-2 1 -3.5 0.5t-2.5 -1.5q-1 0 -1.5 -1.5t-0.5 -3.5l6 -26l-20 -17q-1 -1 -1.5 -2.5t0.5 -3.5q0 -1 1.5 -2t2.5 -1l27 -2l10 -25v0z" />
</svg>
