<?xml version="1.0" standalone="no"?>
<!DOCTYPE svg PUBLIC "-//W3C//DTD SVG 1.1//EN" "http://www.w3.org/Graphics/SVG/1.1/DTD/svg11.dtd" >
<svg xmlns="http://www.w3.org/2000/svg" xmlns:xlink="http://www.w3.org/1999/xlink" version="1.1" viewBox="-10 0 1044 1024">
   <path fill="currentColor"
d="M0 880l272 -370l28 12q28 11 69.5 8.5t87.5 -32.5t82 -113l117 -16l319 172l3 184l-89 51l-19 -140l-149 -93l65 141l81 172l100 87l57 44v37h-684l86 -127l-46 -92l-26.5 -58t-29.5 -60q-1 -1 -36 46q-34 47 -74.5 103.5t-75.5 104.5q-34 47 -36 48l-102 -59v-50v0z
M1024 428q-27 -23 -51.5 -45.5t-52.5 -46.5q-15 29 -26 47t-26 47q-9 -7 -23 -18.5t-22 -18.5q6 -13 13 -26t13 -26q-30 -28 -76 -72q-45 -44 -94.5 -92t-96.5 -95q-48 -47 -82 -82h256q54 49 104.5 94.5t83.5 73.5q5 -12 11 -24t11 -24q9 7 23.5 17.5t23.5 16.5
q-14 29 -22.5 45t-22.5 45q16 13 29.5 29t26.5 32v123v0zM468 321l-10.5 56t-65.5 82q-63 29 -114.5 3t-51.5 -27q-17 -9 -32.5 -21.5t-30.5 -27.5q-13 -14 -25 -30.5t-23 -34.5q-49 -87 -35 -165.5t79 -109.5q32 -15 69 -14q37 2 73.5 18.5t69.5 47.5q34 31 58 75
q14 23 22.5 46.5t13.5 46.5q2 14 3 28t0 27v0zM536 297q-2 -24 -12.5 -56.5t-28.5 -65.5q-18 -34 -40 -61t-40 -43q26 -13 63 11.5t62 70.5q25 47 24 89t-28 55zM41 296q7 23 22.5 53.5t39.5 60.5q23 30 49 53t47 36q-24 17 -64 -0.5t-73 -59.5q-32 -42 -38.5 -84t17.5 -59
v0z" />
</svg>
