<?xml version="1.0" standalone="no"?>
<!DOCTYPE svg PUBLIC "-//W3C//DTD SVG 1.1//EN" "http://www.w3.org/Graphics/SVG/1.1/DTD/svg11.dtd" >
<svg xmlns="http://www.w3.org/2000/svg" xmlns:xlink="http://www.w3.org/1999/xlink" version="1.1" viewBox="-10 0 1044 1024">
   <path fill="currentColor"
d="M1024 577l-369 118l369 -222v104zM1024 388l-562 377l-58 -21.5t-74 -95.5l224 -648h36l-53 325l252 -325h88l-101 219l248 -161v36l-293 384l293 -109v19zM479 0l-130 488l13 -488h117v0zM1024 286l-183 116l183 -201v85zM972 0l-48 41l30 -41h18zM701 0l-93 160
l48 -160h45zM913 956q-1 0 -2 -1t-2 -3q0 -1 0.5 -2.5t1.5 -2.5l21 -15l-4 -25q-1 -1 -0.5 -2.5t2.5 -2.5q1 -1 2.5 -1t2.5 1l21 15l22 -12h3.5t2.5 1t1.5 2.5t-0.5 2.5l-7 24l18 18q1 1 1 2.5v3.5l-2 2t-3 1h-25l-12 23q0 1 -1.5 1.5t-2.5 0.5q-2 0 -3 -1l-2 -2l-8 -24
l-25 -4v0zM57 951q-1 0 -2 -1t-2 -3q0 -1 0.5 -2.5t1.5 -2.5l21 -15l-4 -25q-1 -1 0 -2.5t2 -2.5t2.5 -1t2.5 1l21 15l23 -11q1 -1 2.5 -1t2.5 1t1.5 2.5t-0.5 2.5l-7 24l18 18q1 1 1 2.5v3.5l-2 2t-3 1h-25l-11 23q-1 1 -2.5 1.5t-2.5 0.5q-2 0 -3 -1t-1 -2l-8 -24l-26 -4
v0zM82 102q-2 0 -3 -1t-1 -3q-1 -1 -0.5 -2.5t2.5 -2.5l22 -17l-5 -27q0 -2 1 -3l2 -2t2.5 -1t3.5 1l22 16l25 -13h2.5t3.5 1q1 1 1.5 2.5t-0.5 3.5l-8 26l20 19q1 2 1 3.5v2.5q-1 2 -2.5 2.5t-2.5 0.5l-28 1l-12 24q-1 2 -2.5 2.5t-2.5 0.5q-2 0 -3 -1l-2 -2l-9 -27l-27 -4
v0zM53 379q-3 0 -4.5 -1.5t-2.5 -4.5q0 -2 0.5 -4t2.5 -4l32 -23l-6 -40q0 -2 1 -4t3 -3q1 -2 3.5 -1.5t4.5 1.5l32 23l36 -18q2 -1 4.5 -1t3.5 2q2 1 2.5 3.5t0.5 4.5l-12 38l28 28q2 2 2 4v4q-1 2 -3 3.5t-4 1.5h-40l-18 36q-1 2 -3 3t-5 1q-2 0 -4 -1.5t-2 -3.5l-13 -38
l-39 -6v0zM327 239q-34 -15 -62.5 -14t-52.5 15q-11 6 -19.5 14t-15.5 19q-8 -5 -18 -5t-18 4l-13 7q11 -25 27 -44t37 -30q28 -16 62 -17t71 12q1 11 1 19t1 20v0zM354 951q-3 0 -5.5 -2t-2.5 -5q-1 -3 0 -6t3 -5l43 -31l-9 -52q0 -3 1 -6t4 -4q3 -2 6 -2t5 2l43 31l47 -24
q3 -2 6 -1.5t5 2.5t3 5t0 6l-16 50l38 37q2 2 2.5 5t-0.5 6t-3.5 4.5t-5.5 1.5l-53 1l-24 47q-1 2 -4 3.5t-6 1.5t-5 -2t-3 -5l-17 -50l-52 -8v0zM312 518q-38 -1 -72 2.5t-63 10.5q10 27 22 55t28 56q29 54 64.5 98.5t73.5 75.5q-9 7 -12.5 17.5t-1.5 21.5v2
q-43 -34 -84.5 -83.5t-75.5 -111.5q-16 -30 -29 -60t-23 -59q-34 14 -56 34.5t-29 46.5q-9 35 9 72q17 38 56 74.5t96 69.5q58 32 128 57l-13 10q-6 4 -10 9.5t-6 12.5q-78 -29 -140 -67.5t-101 -80.5t-53.5 -85t-4.5 -82q10 -35 38.5 -63.5t74.5 -45.5q-4 -12 -6.5 -23.5
t-4.5 -22.5q10 -2 17.5 -7.5t11.5 -13.5l7 -13q2 16 5 33t8 34q31 -8 68.5 -11.5t78.5 -2.5l-0.5 18.5t-0.5 21.5v0zM660 728v17.5t-1 16.5q-5 51 -26 88t-55 56q-8 4 -16.5 7t-17.5 6l-19 -19l6 -20q7 -1 14 -3.5t13 -6.5q31 -16 46 -49.5t16 -82.5q2 0 17 -4t23 -6v0z
M829 673l4.5 4.5l3.5 3.5q39 42 53.5 85.5t4.5 82.5q-11 39 -45 69t-89 47q-42 13 -96 17.5t-115 -0.5l4 -6t4 -7q2 -6 2.5 -13t-1.5 -13q58 4 109 -1t90 -18t64 -35q26 -22 34 -51q10 -38 -9.5 -77t-67.5 -79q2 0 22 -4.5t28 -4.5v0z" />
</svg>
