<?xml version="1.0" standalone="no"?>
<!DOCTYPE svg PUBLIC "-//W3C//DTD SVG 1.1//EN" "http://www.w3.org/Graphics/SVG/1.1/DTD/svg11.dtd" >
<svg xmlns="http://www.w3.org/2000/svg" xmlns:xlink="http://www.w3.org/1999/xlink" version="1.1" viewBox="-10 0 1034 1024">
   <path fill="currentColor"
d="M124 1024q40 -117 117 -188q78 -71 172 -100.5t196 -19.5q101 9 190 53l52 -66l109 228l-248 -50l47 -60q-74 -33 -153 -41q-80 -7 -156.5 16t-145.5 79q-68 56 -121 149h-59v0zM258 1024q41 -66 98 -106t114.5 -56.5t106.5 -12.5q48 5 71 27q-48 4 -94 14q-45 10 -87 27
t-79 43q-38 27 -69 64h-61v0zM754 0l114 80l-1 434l140 15l-180 130l-130 -462l-263 -125l-87 390l-202 243l-1 150l-121 -166l155 -260l-5 -429h581v0zM460 402l204 -105l25 89zM497 535l205 -105l25 89z" />
</svg>
