<?xml version="1.0" standalone="no"?>
<!DOCTYPE svg PUBLIC "-//W3C//DTD SVG 1.1//EN" "http://www.w3.org/Graphics/SVG/1.1/DTD/svg11.dtd" >
<svg xmlns="http://www.w3.org/2000/svg" xmlns:xlink="http://www.w3.org/1999/xlink" version="1.1" viewBox="-10 0 1034 1024">
   <path fill="currentColor"
d="M248 448q-9 9 -16 15t-18 14q-9 7 -17 14t-15 15q-4 5 -8.5 5t-5.5 -7q-3 -13 -4 -26.5t-2 -27.5q-1 -33 -2.5 -66.5t-3.5 -66.5q0 -14 -0.5 -28t0.5 -28q0 -2 1 -4t3 -3q10 -6 20 -11.5t21 -10.5q27 -10 51 -22t46 -24q5 -4 11.5 -8.5t14.5 -10.5q10 -9 22 -14t25 -8
q14 -4 29 -7.5t30 -7.5q2 -1 6 -1h10q12 0 22 2.5t17 12.5q9 13 17.5 27t15.5 29l6 12l6 12q13 22 24 46t19 49q2 7 -0.5 10.5t-10.5 0.5q-32 -11 -65.5 -6t-64.5 18q-18 7 -39.5 10t-34.5 6q-12 3 -26.5 16t-24.5 23q-15 14 -30.5 26t-28.5 25v0zM525 825l-4 18q0 2 -1 3.5
t-3 2.5q-33 12 -66.5 23t-66.5 21q-2 1 -4 0t-3 -3q-7 -15 -13.5 -30t-13.5 -31q-1 -3 -2.5 -6t-3.5 -6q-17 -23 -19.5 -52t1.5 -56q2 -12 2 -24t-1 -22q-2 -16 -11.5 -29.5t-19.5 -25.5q-16 -17 -26 -39t-20 -43q-1 -3 -2 -5t-1 -5q-1 -4 0.5 -7t4.5 -5q6 -5 13 -9.5
t14 -8.5q15 -10 33 -18.5t35 -17.5q17 -8 32 -15t29 -20q15 -15 35 -28.5t37 -22.5q9 -5 20.5 -3.5t20.5 4.5l1 0.5t1 1.5q0 6 0.5 11.5t1.5 10.5q4 45 7.5 89.5t6.5 88.5v7.5v6.5q0 2 -1.5 3t-3.5 1q-6 0 -12 8t-7 13q-4 10 -6.5 21t-3.5 24v0v0v0.5v0.5v0v0q1 0 1 -0.5
v-0.5q9 -16 23.5 -30t32.5 -19q11 -3 18.5 -5t17.5 -3q49 -2 98 -4.5t98 -4.5h1.5t0.5 1q11 7 22 15l22 16q6 4 9.5 9.5t6.5 11.5q5 14 9.5 29.5t-0.5 26.5q-1 1 -1.5 2t-2.5 1q-72 34 -144.5 67t-144.5 65q-4 2 -9 4t-10 3q-3 1 -5.5 0.5t-5.5 -2.5l-15 -10v0v0
q-1 -1 -1.5 -0.5l-0.5 0.5v1v0v0z" />
</svg>
