<?xml version="1.0" standalone="no"?>
<!DOCTYPE svg PUBLIC "-//W3C//DTD SVG 1.1//EN" "http://www.w3.org/Graphics/SVG/1.1/DTD/svg11.dtd" >
<svg xmlns="http://www.w3.org/2000/svg" xmlns:xlink="http://www.w3.org/1999/xlink" version="1.1" viewBox="-10 0 1044 1024">
   <path fill="currentColor"
d="M1024 220l-511 582l-513 -574v-228h1024v220zM243 1024q11 -7 18 -18.5t-3 -28.5q-19 -32 -60.5 -85t-119.5 -128l-61 -165l-1 -192l59 15l19 159l57 94l73 64l47 20l-46 -42l-54 -53l-24 -57l63 -15l71 85l113 92l45 189l-22 66h-174v0zM604 1024l-17 -66l44 -189
l113 -92l71 -85l63 15l-23 57l-55 53l-45 42l46 -20l74 -64l57 -94l18 -159l60 -15l-1 192l-61 165q-75 72 -116.5 123.5t-60.5 83.5q-12 20 -7 33t13 20h-173v0zM925 130h-72v-72h-50v72h-72v51h72v71h50v-71h72v-51zM513 679l26 -114l67 47l-23 -78l116 10l-100 -61
l65 -49l-81 -2l45 -108l-89 77l-26 -77l-27 77l-89 -77l46 108l-81 2l64 49l-100 61l117 -10l-24 78l67 -47l27 114v0zM351 155h-90v-89h-70v89h-89v71h89v89h70v-89h90v-71zM477 127l-9 25l-26 9l26 9l9 24l10 -24l26 -9l-26 -9zM249 378l-10 24l-26 9l26 10l10 24l9 -24
l26 -10l-26 -9zM756 337l-14 35l-37 14l37 13l14 35l14 -35l37 -13l-37 -14zM599 30l-15 39l-41 14l41 14l15 39l15 -39l40 -14l-40 -14zM105 519l6 -47l36 65l-8 66l-26 -42l-8 -42v0zM921 519l-8 42l-26 42l-8 -66l35 -65l7 47v0z" />
</svg>
