<?xml version="1.0" standalone="no"?>
<!DOCTYPE svg PUBLIC "-//W3C//DTD SVG 1.1//EN" "http://www.w3.org/Graphics/SVG/1.1/DTD/svg11.dtd" >
<svg xmlns="http://www.w3.org/2000/svg" xmlns:xlink="http://www.w3.org/1999/xlink" version="1.1" viewBox="-10 0 1034 1024">
   <path fill="currentColor"
d="M302 361q33 -67 88.5 -104t121.5 -37t121.5 37t88.5 104q10 -17 14.5 -48.5t-36.5 -55.5q-54 -32 -29.5 -54t47.5 -36q12 -7 51 -29t81 -45.5t76 -41.5l33 -18l34 -14t-8 34q-43 48 -90 83.5l-47 35.5l51 -25.5t60 -11.5q8 13 -49.5 55.5t-82.5 53.5l47.5 -17.5
t62.5 -15.5t4.5 22t-47.5 38q-38 17 -61 26l-23 9l48.5 -3.5t41.5 14.5q-7 19 -43 26.5t-58 8.5l31.5 9.5t19.5 20.5q-11 11 -28 7.5t-23 -4.5l7.5 6t0.5 10q-6 5 -20.5 6t-25.5 -1l8 7.5t2 13.5q-4 3 -10.5 2t-13.5 -3q7 26 11 54t4 59v0q-18 68 -17.5 136t17.5 137
q-42 14 -79.5 62t-65.5 93v-339l54 -82h-77l-35 40v381l-49 39l-52 -39v-380l-36 -40h-85l65 81v339q-29 -49 -66 -97.5t-74 -57.5q19 -69 18.5 -137t-18.5 -136v0q0 -31 4 -59t11 -54q-7 2 -13.5 3t-10.5 -2q-6 -6 2 -13.5l8 -7.5q-11 2 -25.5 1t-20.5 -6q-7 -4 0.5 -10
l7.5 -6q-6 1 -23 4.5t-28 -7.5q-12 -11 19.5 -20.5l31.5 -9.5q-22 -1 -58 -8.5t-43 -26.5q-7 -18 41.5 -14.5l48.5 3.5l-23 -9t-61 -26q-37 -18 -47.5 -38t4.5 -22t62.5 15.5l47.5 17.5q-25 -11 -82.5 -53.5t-49.5 -55.5q9 -14 60 11.5l51 25.5l-47 -35.5t-90 -83.5
q-42 -48 -8 -34l34 14l33 18q34 18 76 41.5t81 45.5t51 29q23 14 47.5 36t-29.5 54q-41 24 -36.5 55.5t14.5 48.5v0zM84 548h68v259l121 121l-48 48l-131 -131q-5 -4 -7.5 -10.5t-2.5 -13.5v-273v0zM867 548h68v273q0 7 -2.5 13.5t-7.5 10.5l-131 131l-48 -48l121 -121v-259
v0z" />
</svg>
