<?xml version="1.0" standalone="no"?>
<!DOCTYPE svg PUBLIC "-//W3C//DTD SVG 1.1//EN" "http://www.w3.org/Graphics/SVG/1.1/DTD/svg11.dtd" >
<svg xmlns="http://www.w3.org/2000/svg" xmlns:xlink="http://www.w3.org/1999/xlink" version="1.1" viewBox="-10 0 1034 1024">
   <path fill="currentColor"
d="M1004 76q-56 37 -111.5 89.5t-111.5 90.5q0 89 1 178t1.5 178t0.5 178l2 178q27 -19 55 -46q28 -28 56 -57.5t56 -56.5q27 -28 55 -47q0 -89 -1 -174t-1.5 -169t-0.5 -169q-1 -84 -1 -173v0zM22 82q56 37 112.5 89t112.5 89q0 89 1 178t1.5 178t0.5 178l2 178
q-29 -19 -57 -46t-56 -56t-56 -57q-29 -27 -57 -45q0 -89 -1 -174q0 -85 -1 -169t-1 -169q-1 -85 -1 -174v0zM752 256l4 713l-475 3l-5 -712l476 -4v0zM477 586h93l-47 -53zM444 579v76l22 -67l-22 -9v0zM602 580l-22 8l22 67v-75v0zM598 575l-64 -40l43 48l21 -8v0z
M376 567v-1l1 -1q1 -2 0.5 -4.5t-2.5 -3.5q-2 -2 -5 -1.5t-4 2.5q-1 3 -0.5 5.5t2.5 3.5q1 1 2.5 1h2.5q1 1 3 4t5 6v0v0q1 4 3.5 7.5t6.5 6.5q0 1 0.5 1t1.5 -1v-0.5v-1.5q-4 -3 -6 -6.5t-3 -6.5q0 -1 1 -3.5t2 -4.5q2 1 4.5 0t3.5 -3t0.5 -4.5t-2.5 -3.5q-2 -2 -4.5 -1.5
t-4.5 3.5q-1 1 -0.5 3.5t1.5 3.5l-1.5 3l-1.5 3q-1 -8 0 -14l1 -6v0v0q1 0 2 -1t1 -2q2 -2 1.5 -4t-2.5 -4q-2 -1 -4.5 -0.5t-3.5 2.5q-2 2 -1.5 4.5t2.5 3.5q1 0 1 0.5t1 0.5q-1 1 -1.5 6.5t0.5 11.5q-1 -1 -2 -2.5l-1 -1.5v0zM449 575l21 8l44 -50l-65 42v0zM567 595
l-88 -1l43 80l45 -79v0zM653 675q-1 -1 -3.5 -1t-4.5 1t-2.5 3.5t1.5 5.5q1 2 3.5 2.5t5.5 -1.5q1 -1 2 -3t0 -4q1 -1 2.5 -2t2.5 -2q-2 8 -5 13l-3 5h-0.5h-0.5q-1 0 -2 0.5t-2 0.5q-2 2 -2.5 4t0.5 4q2 2 4.5 2.5t4.5 -0.5t2.5 -3.5t-1.5 -4.5q0 -1 -0.5 -1h-0.5
q1 -2 4 -6.5t4 -11.5q1 2 1 3.5t1 2.5q-1 0 -1 0.5t-1 0.5q-2 1 -2.5 4t1.5 5q1 2 3.5 2.5t4.5 -1.5q3 -1 3.5 -3.5t-1.5 -4.5q-1 -2 -2 -2.5t-2 -0.5q-1 -2 -2 -5t-2 -8v0v0q0 -4 -0.5 -8t-3.5 -9l-0.5 -0.5l-0.5 -0.5q-1 1 -1 1.5v0.5q2 4 2.5 8.5t0.5 7.5q-1 1 -2.5 3
t-4.5 3v0zM593 689l-17 9q2 1 3.5 1.5t2.5 1.5q31 9 48 -14t21 -49q7 4 13.5 7t12.5 6q19 11 22 12.5t10 5.5t11 6.5t0 -2.5q-16 -18 -31 -28t-37 -21v-3.5v-3.5q-1 -32 -14.5 -63.5t-35.5 -54.5q-15 -15 -44.5 -27t-46.5 15q-4 8 -5 16.5t2 16.5l14 -6q0 -7 2 -12.5t7 -9.5
q20 -17 41.5 -4.5t32.5 28.5t19.5 35t10.5 39q1 7 1.5 13t0.5 14q-5 -2 -10 -4.5t-11 -4.5l1 15q5 2 9.5 4t9.5 5q-1 11 -5 21t-11 18q-6 5 -12.5 10.5t-14.5 7.5v0zM387 536q2 1 4 0.5t3 -2.5q1 -1 0.5 -3t-1.5 -4q-2 -1 -4 -0.5t-3 2.5t-1 4t2 3zM468 547l9 -5
q-3 -3 -7 -5t-8 -3q-31 -7 -46.5 16.5t-17.5 49.5q-7 -3 -15 -6t-15 -6q-19 -9 -33 -19t-23 -16q-4 -3 2 5t11 12q17 17 33.5 26t38.5 18v3.5v3.5q4 32 19 62.5t39 52.5q16 14 46 24.5t45 -17.5q4 -7 4.5 -14.5t-1.5 -14.5l-15 8q-1 5 -2.5 9.5t-5.5 7.5q-19 18 -41 7
t-34 -27q-12 -15 -21.5 -33.5t-13.5 -37.5q-1 -7 -2 -13t-1 -15q4 2 8.5 3.5t8.5 3.5v-14q-4 -2 -8.5 -3.5t-8.5 -3.5q1 -11 4 -21.5t10 -18.5q6 -8 15 -14.5t20 -5.5h3t3 1v0zM641 707q-2 -2 -4 -2.5t-4 0.5q-1 2 -1.5 4t0.5 3q1 2 3 2.5t4 -0.5t2.5 -3t-0.5 -4zM447 664
l68 10l-44 -80l-24 70v0zM598 665l-22 -71l-45 80l67 -9v0zM595 674l-67 8l1 28l66 -36v0zM451 672l69 38l-2 -29l-67 -9v0z" />
</svg>
