<?xml version="1.0" standalone="no"?>
<!DOCTYPE svg PUBLIC "-//W3C//DTD SVG 1.1//EN" "http://www.w3.org/Graphics/SVG/1.1/DTD/svg11.dtd" >
<svg xmlns="http://www.w3.org/2000/svg" xmlns:xlink="http://www.w3.org/1999/xlink" version="1.1" viewBox="-10 0 1044 1024">
   <path fill="currentColor"
d="M0 657l48 23q7 3 12 8.5t9 11.5q3 7 4.5 14t1.5 15q0 9 -2 17.5t-6 17.5l-3 7l-54 -28q-1 -6 -3.5 -10.5t-6.5 -8.5v-67v0zM0 889l7 3q-2 3 -3.5 5.5t-3.5 4.5v-13v0zM0 766l137 71l-7 80q0 2 -0.5 3t-0.5 3q-2 1 -5 0.5t-5 -1.5l-119 -61v-95v0zM75 1024
q-18 -13 -27.5 -33t-7.5 -43l3 -37l64 33q7 4 14.5 4.5t15.5 -1.5q6 9 15 14.5t21 6.5l172 15q9 1 17.5 -2t15.5 -8l102 -4l-1 17q-1 10 -4.5 20t-8.5 18h-391v0zM494 1024q3 -6 5 -12.5t3 -13.5q1 3 2.5 5.5t2.5 5.5v15h-13zM548 1024q-11 -11 -18 -25.5t-8 -31.5l104 -4
q6 4 13 6t15 2l169 -3q17 0 29 -10.5t16 -25.5q10 12 24.5 15.5t26.5 -3.5l35 -18l1 31q0 20 -8.5 37.5t-23.5 29.5h-375v0zM1024 899q-1 -1 -2 -3l-2 -4l4 -2v9zM1024 862l-117 60q-6 3 -13 0t-10 -11l-16 -32v-18v0q-1 -4 -1 -18.5v-14.5v-4t-1 -3q-3 -17 -16 -28t-30 -10
l-170 3q-12 0 -22.5 6.5t-16.5 16.5l-92 4v-16q-1 -34 23 -59.5t59 -25.5l265 -5q17 -1 32.5 5.5t27.5 17.5q0 11 2.5 22.5t7.5 22.5l4 8l-36 18l11 23l109 -57v95v0zM1024 727q-3 3 -5 7t-3 9l-54 28l-3 -7q-5 -11 -7 -22t0 -21q1 -14 8 -25t18 -16l46 -22v69v0zM1024 630
l-30 14l-79 -38q-12 -6 -16.5 -20.5t1.5 -31.5q1 -1 1.5 -2.5t0.5 -2.5l40 -84q2 -5 5 -9t6 -7q9 -9 20 -12t21 2l30 14v46l-29 -14q-1 0 -1.5 -0.5t-1.5 -0.5q-7 -2 -14 2.5t-11 12.5h-1v1l-22 46q-1 2 -1.5 4.5t-0.5 5.5q-1 7 1.5 13t8.5 9l42 20q2 4 5.5 7.5t7.5 5.5
l17 9v10v0zM0 467l58 -28q10 -5 21.5 -1.5t20.5 12.5q3 3 5.5 7t4.5 8l40 84q1 2 1.5 4t1.5 4q4 16 0 30t-16 19l-92 44l-39 -19l39 -20q4 -2 7.5 -5.5t5.5 -7.5l43 -20q5 -3 7.5 -8.5t2.5 -11.5q0 -3 -1 -6l-2 -6l-22 -46v-1h-1q-4 -8 -10.5 -12t-13.5 -3q-1 0 -2 0.5
t-2 0.5l-57 28v-46v0zM0 541l8 -4q4 -2 9 0t7 8l13 26q1 2 1.5 4.5t0.5 4.5q-1 3 -2 5t-4 4l-33 17v-65v0zM1024 591l-5 -2q-3 -2 -4 -4t-2 -5q0 -2 0.5 -4.5t1.5 -4.5l9 -18v38zM98 711q11 -6 23.5 -9t25.5 -2l269 23q34 3 57 29.5t20 61.5l-96 4q-6 -10 -15.5 -16
t-20.5 -7l-172 -15q-16 -1 -29.5 7.5t-18.5 23.5l-55 -28l4 -8q8 -17 9.5 -33.5t-1.5 -30.5v0zM884 529l-72 -29q-4 -1 -7.5 -4.5t-3.5 -9.5l1 -29q0 -6 3 -10t8 -4l98 29l-27 57v0zM843 873l-21 9l-37 -74h35q9 0 15.5 6t6.5 15l1 44v0zM169 532l-26 -57l88 -29
q4 0 7.5 4.5t3.5 10.5v28q0 6 -3 9.5t-8 5.5l-62 28v0zM163 822q2 -8 8.5 -12.5t15.5 -4.5l66 6l-32 66l-32 -13q0 -13 -6 -23.5t-16 -16.5l-4 -2v0zM189 679q9 -24 38.5 -79t49.5 -95q19 -38 56.5 -54t67.5 -36q21 35 51 49t66 14q35 0 65.5 -14t50.5 -49q30 20 68.5 39
t57.5 57q21 42 51.5 97.5t36.5 73.5l-127 2l-34 -66l-14 17l-1 50l-71 2q-33 0 -59.5 18t-38.5 46q-13 -22 -35.5 -36t-49.5 -17l-54 -4v-54l-19 -18l-33 67l-123 -10v0zM642 360q1 0 -33.5 39.5t-90.5 39.5q-65 0 -95 -39.5l-30 -39.5q-9 -13 -16 -28.5t-12 -31.5
q-4 -16 -6.5 -33t-2.5 -35q0 -85 47.5 -140t114.5 -55t114 55t47 140q0 23 -3.5 44.5t-10.5 40.5q-5 12 -10.5 22.5t-12.5 20.5v0zM667 832q10 -1 18 6.5t9 18.5l2 51q0 11 -7 19t-18 9l-330 13q-11 1 -19 -6.5t-8 -18.5l-2 -51q-1 -11 6.5 -19t18.5 -9l330 -13v0z" />
</svg>
