<?xml version="1.0" standalone="no"?>
<!DOCTYPE svg PUBLIC "-//W3C//DTD SVG 1.1//EN" "http://www.w3.org/Graphics/SVG/1.1/DTD/svg11.dtd" >
<svg xmlns="http://www.w3.org/2000/svg" xmlns:xlink="http://www.w3.org/1999/xlink" version="1.1" viewBox="-10 0 1044 1024">
   <path fill="currentColor"
d="M97 0q10 14 15 31t5 36q0 8 -1.5 17t-3.5 17q17 11 28 29.5t11 40.5q0 34 -24.5 58t-58.5 24h-7.5t-7.5 -1q-8 16 -22 27.5t-31 15.5v-295h97v0zM1024 510q-10 15 -26.5 24t-36.5 9q-32 0 -54 -22t-22 -54v-1.5v-1.5q-36 -5 -60 -32t-24 -64q0 -40 28.5 -68t68.5 -28h4h4
q2 -34 27 -57t59 -23q9 0 17 1.5t15 4.5v161q-7 3 -14.5 4.5t-15.5 1.5v1.5v1.5q0 8 -1 15t-3 14q10 4 19 11t15 17v85v0zM158 355q-6 5 -13.5 7.5t-15.5 2.5q-20 0 -34 -13.5t-14 -33.5q0 -18 12 -31.5t29 -15.5q4 -16 17 -26.5t30 -10.5q19 0 33 14t14 33q0 13 -6 23
t-15 17q9 3 14.5 10.5t5.5 16.5q0 12 -8.5 21t-20.5 9q-10 0 -18 -6.5t-10 -16.5v0zM603 359q48 18 89 51q41 32 70.5 76t46.5 98q16 53 16 112q0 76 -28 143t-75 116q-58 23 -115 34t-112.5 11t-109.5 -11t-107 -34q-48 -49 -76 -116t-28 -143q0 -59 17 -112
q16 -54 45.5 -98t70.5 -76q41 -33 89 -51v-60h-52v-132h311v132h-52v60v0zM495 912v0h21v0q2 -1 4 -0.5t4 0.5q13 0 26.5 -0.5t27.5 -2.5q9 -1 15 -2.5t15 -5.5q2 -1 3.5 -3t2.5 -5q4 -35 12 -70t12 -70q3 -23 27 -24t24 -27q0 -13 -1.5 -27t-3.5 -30q-10 -61 -43.5 -114
t-99.5 -66q-6 -1 -13 -2t-14 -1h-0.5h-0.5h-17v0v0v0q-8 0 -14.5 1t-12.5 2q-67 13 -100 66t-43 114q-2 16 -3.5 30t-1.5 27q0 26 24 27t26 24q5 35 12.5 71t11.5 71q0 3 2 4.5t4 2.5q9 4 15.5 5t15.5 2q14 2 27 2.5t27 0.5q1 0 3.5 -0.5t5.5 0.5v0zM400 739
q-17 -10 -23 -31t-6 -39q1 -5 12 -7.5t15 -3.5q14 -1 31 7t32 11q3 0 9.5 2.5t7.5 6.5q4 14 3.5 23.5t-11.5 21.5q-2 2 -5 3.5l-7 3.5q-13 6 -29 8t-29 -6v0zM516 871v-24h-21v24h-15v0v0v-24h-0.5h-0.5h-14v0v0v24v0h-1h-18v0v0v-24v0v0h-14h-0.5h-0.5v24v0v0h-18h-0.5
h-0.5v-24v0v0h-17v0v0v-19v0v0h17v0v-1v-23h0.5h0.5h18v0v0v23q0 1 0.5 1h0.5h14v0v-1v-23v0v0h18h1v0v23v1v0h14h0.5t0.5 -1v-23v0v0h15v24h21v-24h5v0h9v0v0v23v1h1h14v0v-1v-23v0v0h18h1v0v23v1v0h14v0v-1v-23h0.5h0.5h18v0v0v23q0 1 0.5 1h0.5h17v0v0v19v0v0h-17h-0.5
h-0.5v24v0v0h-18h-0.5h-0.5v-24v0v0h-14v0v0v24v0h-1h-18v0v0v-24v0v0h-14h-1v0v24v0v0h-14v0zM538 780l-32 -12l-16 6l-16 6l16.5 -27t16.5 -28l15.5 27.5l15.5 27.5v0zM609 739q-12 8 -28 6t-30 -8q-3 -2 -6 -3.5t-5 -3.5q-11 -12 -9.5 -21.5t4.5 -23.5q2 -4 8.5 -6.5
t9.5 -2.5q15 -3 30 -11t29 -7q4 1 15 3.5t11 7.5q1 18 -5.5 39t-23.5 31v0zM941 64q22 0 38.5 16t16.5 39q0 22 -16.5 38.5t-38.5 16.5q-23 0 -39.5 -16.5t-16.5 -38.5q0 -23 16.5 -39t39.5 -16zM85 431q23 0 39 16t16 39t-16 39t-39 16t-39 -16t-16 -39t16 -39t39 -16v0z
M279 40q14 0 23.5 10t9.5 23q0 14 -9.5 24t-23.5 10t-24 -10t-10 -24q0 -13 10 -23t24 -10zM599 28l-22 111h-156l-21 -111h199zM768 34q24 0 41.5 17.5t17.5 41.5t-17.5 41t-41.5 17t-41 -17t-17 -41t17 -41.5t41 -17.5zM72 719q14 0 23.5 10t9.5 24t-9.5 23.5t-23.5 9.5
t-24 -9.5t-10 -23.5t10 -24t24 -10zM932 734q22 0 38.5 16.5t16.5 39.5q0 22 -16.5 38.5t-38.5 16.5q-23 0 -39 -16.5t-16 -38.5q0 -23 16 -39.5t39 -16.5z" />
</svg>
