<?xml version="1.0" standalone="no"?>
<!DOCTYPE svg PUBLIC "-//W3C//DTD SVG 1.1//EN" "http://www.w3.org/Graphics/SVG/1.1/DTD/svg11.dtd" >
<svg xmlns="http://www.w3.org/2000/svg" xmlns:xlink="http://www.w3.org/1999/xlink" version="1.1" viewBox="-10 0 1044 1024">
   <path fill="currentColor"
d="M795 1024q19 -32 49 -75q29 -42 56.5 -79.5t47.5 -62.5l20 -26l-3 -28q-3 -27 -6.5 -60t-5.5 -62q-2 -28 -1 -31q1 -1 1 -1.5t-2 0.5q-14 9 -28 19t-25 17q-21 13 -46 24.5t-49 15.5h-8t-8 -2q-20 -5 -26.5 -28.5t-11.5 -41.5q-2 -10 -7.5 -18t-14.5 -14q-3 -2 -7 -3.5
t-8 -2.5q-8 -2 -13.5 -9t-0.5 -15q4 -9 18 -21t18 -21q1 -1 0.5 -1.5l-0.5 -0.5q-3 -2 -5.5 -4t-6.5 -3q-13 -4 -33.5 -5t-28.5 -5q-8 -3 -6.5 -8.5t3.5 -13.5q1 -6 4.5 -13.5t4.5 -13.5q0 -2 -1 -3.5t-3 -1.5q-9 0 -22.5 -0.5t-22.5 -3.5q-14 -3 -29.5 -13.5t-12.5 -26.5
q2 -11 9 -23.5t11 -23.5q6 -17 16.5 -33t16.5 -34q2 -7 3.5 -15t-2.5 -14q-6 -11 -19 -22.5t-15 -23.5q-4 -21 -5.5 -37t-1.5 -36q1 -18 11.5 -56.5t17.5 -63.5h407v1024h-229v0zM593 686q13 0 21.5 9t8.5 21t-8.5 21t-21.5 9q-12 0 -20.5 -9t-8.5 -21t8.5 -21t20.5 -9z
M174 68q12 0 21 9t9 21t-9 21t-21 9t-21 -9t-9 -21t9 -21t21 -9zM663 772q6 0 11 5t5 11q0 7 -5 12t-11 5q-7 0 -12 -5t-5 -12q0 -6 5 -11t12 -5zM456 422q7 0 11.5 5t4.5 12q0 6 -4.5 11t-11.5 5t-11.5 -5t-4.5 -11q0 -7 4.5 -12t11.5 -5zM501 952q7 0 12 5t5 12q0 6 -5 11
t-12 5q-6 0 -11 -5t-5 -11q0 -7 5 -12t11 -5v0zM191 0q-57 32 -92.5 74.5t11.5 85.5q38 35 64 20q27 -15 56 -42t69 -48q39 -21 103 3q128 48 123.5 127t-91.5 171q-43 47 -12 73q30 27 84.5 40t106.5 16l53 3l-41 35.5t-93 110.5q-29 42 -13 69q17 28 30.5 52.5t0.5 53.5
t-100 74q-35 18 -26.5 46t42.5 60h-466v-1024h191v0zM75 527q19 23 47.5 47.5t63.5 46.5q5 40 15 75t23 61q5 13 11.5 22.5t13.5 17.5q10 12 21.5 17.5t22.5 4.5q11 -2 21 -10t17 -22q9 -16 14.5 -40.5t7.5 -53.5q11 2 21 3.5t19 1.5q9 1 17 0.5t15 -1.5l-20 -9
q-3 -1 -5 -3.5t-2 -5.5h-2h-2q-9 0 -19 -1.5t-21 -4.5q0 -18 -1 -37t-3 -39q-3 -26 -8 -50t-12 -45q37 25 64.5 51t43.5 51q2 3 4 6.5t4 7.5q2 0 3.5 1t2.5 3l18 20l3 -1q-1 -11 -6 -23t-13 -25q-18 -29 -53 -60.5t-82 -60.5q-7 -17 -15 -31t-17 -24q-11 -12 -22 -17.5
t-22 -4.5q-10 1 -18.5 7t-15.5 17q-15 -5 -29.5 -9t-27.5 -7l-3 5l11 17q9 2 19.5 5t20.5 6q-4 11 -7.5 24t-6.5 29q-3 23 -4 50t2 57q-29 -19 -52.5 -39.5t-40.5 -40.5q-4 -6 -8.5 -11.5t-7.5 -10.5q-6 -9 -10 -17.5t-5 -16.5q-2 -7 -1.5 -13t3.5 -11q2 -3 4.5 -5.5
t6.5 -4.5l-15 -5q-1 -1 -2.5 -2t-2.5 -2q-2 2 -4 4.5t-3 5.5q-9 14 -5.5 34t18.5 43q3 6 7 11.5t9 11.5v0zM305 659q-21 -8 -43.5 -18.5t-44.5 -23.5q-3 -2 -6.5 -4t-6.5 -4q-3 -33 -3 -63.5t4 -55.5q2 -10 4.5 -20t5.5 -18q1 -2 1.5 -4.5t1.5 -4.5q19 7 38.5 16.5
t39.5 21.5l4 2l4 2q9 24 16 53t11 61q2 19 3 36t1 33q-8 -2 -15.5 -4.5t-14.5 -4.5v0zM240 746q-11 -22 -19 -50.5t-14 -61.5q23 13 46 23.5t44 18.5q10 4 19 7t18 5q-1 22 -4.5 40.5t-8.5 33.5q-3 9 -6.5 16t-8.5 12q-3 4 -7 6.5t-8 3.5q-5 0 -9 -1.5t-9 -4.5
q-5 -4 -10 -10t-11 -14q-3 -5 -6 -11t-6 -13v0zM290 455q-16 -8 -31.5 -15.5t-30.5 -13.5l0.5 -0.5l1.5 -1.5q3 -4 7 -6.5t8 -3.5q4 0 8.5 1.5t8.5 4.5q6 4 11 10t10 14q2 3 3.5 5.5t3.5 5.5v0zM391 166l-37 9l-24 -28q-2 -2 -4 -2.5t-4 0.5q-2 0 -3 2l-2 4l-2 37l-34 15
q-2 1 -3.5 2.5t-1.5 4.5q1 2 2 3.5t3 2.5l34 14l4 37q0 2 1.5 3.5t3.5 2.5t4 0.5t4 -2.5l23 -29l37 8q2 1 4 0t3 -2q1 -2 1 -4t-1 -4l-19 -32l18 -32q2 -2 1.5 -4t-1.5 -4q-1 -1 -3 -2t-4 0v0zM148 909l-25 7l-17 -20q-1 -1 -2 -1.5t-3 0.5q-1 0 -2 1.5t-1 2.5l-2 26l-24 10
q-1 1 -1.5 2t-0.5 3q0 1 0.5 2.5t2.5 1.5l23 10l3 25q0 2 1 3l2 2q2 0 3.5 -0.5t2.5 -1.5l16 -20l25 6q2 0 3 -0.5t2 -1.5t1 -2.5t-1 -2.5l-13 -22l13 -22q1 -2 0.5 -3.5t-1.5 -2.5q0 -1 -1.5 -1.5t-3.5 -0.5v0zM211 362q-1 -2 -4 -2.5t-5 1.5q-3 2 -3 4.5t1 5.5q2 2 5 2.5
t5 -1.5t2.5 -4.5t-1.5 -5.5zM374 736q-2 -2 -5 -2.5t-5 1.5t-2.5 4.5t1.5 5.5q1 2 4 2.5t5 -1.5q3 -2 3.5 -4.5t-1.5 -5.5v0zM145 379l-25 6l-17 -20q-1 -1 -2.5 -1.5t-3.5 0.5q-1 0 -2 1.5t-1 2.5l-2 26l-24 11q-1 0 -2 1.5t-1 2.5q0 2 1 3t3 2l24 10l2 26q0 1 1 2t3 2
q1 0 2.5 -0.5t2.5 -1.5l17 -20l25 6q2 0 3 -0.5t2 -1.5t1 -2.5t-1 -3.5l-13 -22l13 -22q1 -1 0.5 -2.5t-0.5 -3.5q-1 -1 -2.5 -1.5t-3.5 0.5v0zM233 325q-2 -4 -7 -4.5t-8 1.5q-4 3 -4.5 7.5t1.5 8.5q3 4 7.5 4.5t8.5 -2.5q4 -2 4.5 -7t-2.5 -8zM190 684l-19 5l-12 -15
q-1 -1 -2 -1h-2q-1 1 -2 1.5t-1 1.5l-1 20l-18 8q-1 0 -1.5 1t-0.5 2t0.5 2t1.5 1l18 8l2 19q0 1 1 2t2 1h2t2 -1l12 -15l19 4q1 1 2 0.5t2 -1.5v-2v-2l-10 -17l9 -16q1 -1 1 -2.5t-1 -2.5l-1.5 -0.5t-2.5 -0.5v0zM228 829q-1 -3 -4 -3t-5 1q-3 2 -3.5 5t1.5 5t5 2.5t5 -0.5
q2 -2 2.5 -5t-1.5 -5v0zM488 650l-22 5l-15 -17q-1 -1 -2.5 -1.5t-2.5 0.5q-1 0 -2 1t-1 3l-2 23l-21 9l-2 2t-1 2t1 2.5t2 1.5l22 9l2 23q0 1 1 2l2 2q1 0 2.5 -0.5t2.5 -1.5l14 -17l23 5q1 0 2.5 -0.5t2.5 -1.5v-2.5v-2.5l-13 -20l12 -20q1 -1 1 -2t-1 -3q-1 -1 -2 -1.5
t-3 0.5v0zM399 769q-3 -3 -7.5 -4t-8.5 2t-4.5 7.5t2.5 8.5t7.5 4.5t8.5 -2.5q3 -3 4 -7.5t-2 -8.5z" />
</svg>
