<?xml version="1.0" standalone="no"?>
<!DOCTYPE svg PUBLIC "-//W3C//DTD SVG 1.1//EN" "http://www.w3.org/Graphics/SVG/1.1/DTD/svg11.dtd" >
<svg xmlns="http://www.w3.org/2000/svg" xmlns:xlink="http://www.w3.org/1999/xlink" version="1.1" viewBox="-10 0 1034 1024">
   <path fill="currentColor"
d="M259 1024l76 -112v-301l66 -166l94 -140v103l-72 131l-26 86v115h26l18 -148l53 -120v399l-49 153h-186v0zM579 1024l-49 -153v-399l53 120l18 148h26v-115l-26 -86l-72 -131v-103l94 140l66 166v301l76 112h-186v0zM512 212q-21 -49 -35 -100t-20 -103q28 -4 55 -4t55 3
q-6 53 -20 104t-35 100zM340 558v-81l35 -35zM960 652v69h-69v68h-68v-68h-69v-69h69v-69h68v69h69v0zM227 498q-49 21 -100 34.5t-104 19.5q-3 -27 -3 -54.5t3 -54.5q53 6 104 19.5t100 35.5v0zM834 120v71h-71v70h-70v-70h-70v-71h70v-70h70v70h71zM410 185v114h-115v115
h-114v-115h-114v-114h114v-114h114v114h115v0zM797 498q49 -22 100 -35.5t104 -19.5q3 27 3 54.5t-3 54.5q-53 -6 -104 -19.5t-100 -34.5v0zM689 558l-34 -116l34 35v81zM265 640q-32 43 -69 80.5t-80 68.5q-16 -22 -30 -45.5t-25 -48.5q49 -22 100 -35.5t104 -19.5v0z
M759 355q32 -43 69 -80.5t80 -68.5q17 22 30.5 45.5t24.5 48.5q-49 22 -100 35.5t-104 19.5v0z" />
</svg>
