<?xml version="1.0" standalone="no"?>
<!DOCTYPE svg PUBLIC "-//W3C//DTD SVG 1.1//EN" "http://www.w3.org/Graphics/SVG/1.1/DTD/svg11.dtd" >
<svg xmlns="http://www.w3.org/2000/svg" xmlns:xlink="http://www.w3.org/1999/xlink" version="1.1" viewBox="-10 0 1034 1024">
   <path fill="currentColor"
d="M427 591l1 5q0 11 -7.5 17.5t-17.5 11.5q-68 38 -140 45t-149 -24q-13 -5 -20.5 -9t-8.5 -16l-4 -53q-1 -12 6.5 -20.5t18.5 -8.5q66 25 138 21.5t151 -43.5q11 0 19.5 7t9.5 18v9l38 -11v-7q0 -9 6 -15.5t14 -6.5h64q8 0 14 6.5t6 15.5v6l33 8v-5q1 -11 9.5 -18t19.5 -7
q79 40 151 43.5t138 -21.5q11 0 18.5 8.5t6.5 20.5l-4 53q-1 12 -8.5 16t-20.5 9q-78 31 -150 24t-139 -45q-10 -5 -18 -11.5t-7 -17.5l1 -9l-31 -7q0 8 -6 14t-13 6h-64q-7 0 -12.5 -5.5t-6.5 -13.5l-36 10v0zM539 546q0 -4 -3 -7t-7 -3h-30q-4 0 -6.5 3t-2.5 7v19
q0 4 2.5 6.5t6.5 2.5h30q4 0 7 -2.5t3 -6.5v-19zM98 1024l31 -335l22 9q21 9 55.5 13.5t78.5 -1.5q44 -7 88 -38l36 352h-311v0zM616 1024l34 -352q44 31 88 38q43 6 78 1.5t56 -13.5l22 -9l7 154l11 181h-296v0zM672 487l2 -30l-45 -32t-66 -81l-9.5 -33t-6.5 -49l59 -29
l10 53l6 16t23 33l-19 -188l66 -13l14 53l10 -1l8 -56l72 -1l5 62l9 1l15 -54l77 17l-3 60l11 2l14 -49l55 34l-5 27q-6 27 -17 66.5t-26 83.5t-33 77v32l-64 28.5t-162 -29.5v0zM350 487q-97 58 -161.5 29.5l-64.5 -28.5l1 -32q-18 -33 -33 -77t-26 -83.5t-17 -66.5l-6 -27
l56 -34l13 48l10 -3l-2 -58l78 -17l13 52l10 -1l6 -60l72 1l7 54l10 1l15 -51l66 13l-19 188q17 -17 23 -33l6 -16l10 -53l59 29q3 16 -6.5 49l-9.5 33q-21 49 -66 81l-45 32l1 30v0z" />
</svg>
