<?xml version="1.0" standalone="no"?>
<!DOCTYPE svg PUBLIC "-//W3C//DTD SVG 1.1//EN" "http://www.w3.org/Graphics/SVG/1.1/DTD/svg11.dtd" >
<svg xmlns="http://www.w3.org/2000/svg" xmlns:xlink="http://www.w3.org/1999/xlink" version="1.1" viewBox="-10 0 1034 1024">
   <path fill="currentColor"
d="M144 314l15 10.5t64 -11.5q40 -18 52 -33.5t17 -30.5l68 6l154 114l139 34l-12 78l-126 -17l-139 -77l84 175l161 148l172 45l13 127l-65 -63l-156 -11l-215 -143l99 191l149 44l-38 119l-33 -71l-169 -32l-140 -284l-64 -133l10 88l-23 111l-84 -12l31 -110l-14 -188
l50 -74v0zM799 291h-68l135 -211l135 211h-75q-2 31 -7 62.5t-13 56.5q-18 57 -53 102q-36 44 -82.5 71t-101.5 34t-112 -12q34 -8 68 -28q35 -20 65.5 -50t54.5 -70q25 -39 40 -85q5 -16 8.5 -38t5.5 -43v0zM642 153h-36l73 -114l73 114h-41q-1 17 -3.5 34t-7.5 30
q-20 62 -73.5 94t-115.5 12q37 -9 72.5 -42.5t51.5 -83.5q3 -9 4.5 -21t2.5 -23v0zM57 170q0 -6 -0.5 -11.5t-0.5 -10.5v-9.5v-9.5l20 15l-19 26v0zM60 107q10 -46 39 -75.5t68 -30.5q46 0 79.5 42t34.5 102q0 60 -32 102.5t-79 43.5q-40 0 -70.5 -31t-40.5 -78l9 6l24 -32
l33 24l12 -16l-32 -24l24 -32l-16 -12l-25 32l-28 -21v0zM220 75l-27 36l-36 -27l-14 18l36 27l-27 36l18 13l27 -35l36 27l13 -18l-36 -27l27 -36l-17 -14v0z" />
</svg>
