<?xml version="1.0" standalone="no"?>
<!DOCTYPE svg PUBLIC "-//W3C//DTD SVG 1.1//EN" "http://www.w3.org/Graphics/SVG/1.1/DTD/svg11.dtd" >
<svg xmlns="http://www.w3.org/2000/svg" xmlns:xlink="http://www.w3.org/1999/xlink" version="1.1" viewBox="-10 0 1040 1024">
   <path fill="currentColor"
d="M269 564l17.5 17t18.5 60q1 41 -10.5 58.5t-21.5 28.5l34 57l65 94l84 117l63 -44l-64 -112l-48 -99l207 -1l170 75l31 184l115 -41l-65 -31l14 -183l-214 -125l186 12l81 147l88 -83l-76 2l-59 -176l-304 -2l-143 1l80 -28l90 -37l-44 -58l-87 34l-168 67l-40 66v0z
M118 560l-10 4l-10 4q-4 2 -7.5 4t-7.5 5l21 10l14 -27v0zM65 589q-35 28 -48.5 65.5t2.5 71.5q19 40 69.5 51t102.5 -13q52 -25 75.5 -71t4.5 -87q-17 -34 -57 -47.5t-85 -1.5l10 5l-17 34l34 18l-9 17l-34 -18l-18 35l-17 -9l18 -34l-31 -16v0zM105 740l20 -38l-39 -20
l10 -19l39 19l19 -38l19 10l-19 38l38 20l-9 19l-39 -20l-20 39l-19 -10v0zM262 368h-122v-186h-61l122 -122l122 122h-61v186zM886 368h-122v-186h-61l122 -122l122 122h-61v186zM574 332h-122v-150h-61l122 -122l122 122h-61v150v0z" />
</svg>
