<?xml version="1.0" standalone="no"?>
<!DOCTYPE svg PUBLIC "-//W3C//DTD SVG 1.1//EN" "http://www.w3.org/Graphics/SVG/1.1/DTD/svg11.dtd" >
<svg xmlns="http://www.w3.org/2000/svg" xmlns:xlink="http://www.w3.org/1999/xlink" version="1.1" viewBox="-10 0 1034 1024">
   <path fill="currentColor"
d="M911 572q-34 53 -103 99q-69 47 -143 83.5t-137 60.5t-86 32l1 2l58 84l-114 -25l-13 -36q-13 6 -26.5 12t-28.5 11q-36 14 -70 21.5t-60 8.5l26 19l-101 10l-25 -68l78 -56l-3 25q21 -16 51.5 -32t66.5 -29q15 -6 29 -10l28 -8l-15 -39l55 -77l14 2l12 85l1 2
q23 -7 87.5 -31t144.5 -62l273 -84v0zM755 325l12 -23l-19 -34q13 -6 27 -12.5t28 -14.5q35 -20 63 -41t47 -41l-2 33l75 -72l-37 -65l-96 24l22 14q-27 6 -59.5 19t-66.5 33q-14 7 -27 15.5t-25 16.5l-21 -37l-115 -10l69 80l2 2q-14 8 -48 28q-33 19 -80 43.5t-105 50.5
q-57 25 -119 47l125 60q48 -18 93 -39t82 -40t64 -34q28 -16 40 -23l1 2l14 55l56 -37v0zM9 498l158 -96l63 5l190 91l176 -13l185 -123l34 -4l190 65l-102 105l-288 88l-89 -46l-79 53l-306 -38l-132 -87v0zM634 538q-3 11 4.5 12l7.5 1q113 -6 169.5 -38.5t65.5 -38.5
q9 -5 5 -9.5l-4 -4.5l-29 -12.5t-37 -16.5q-8 -5 -15.5 -2l-7.5 3l-159 106v0zM407 555l-171 -83l-8 -1.5t-16 3.5q-7 6 -34 23l-27 17l-3 4.5t6 8.5q10 4 70.5 28.5t172.5 13.5l7.5 -2t2.5 -12v0zM660 912q35 19 90.5 9.5t108.5 -47.5q52 -37 78.5 -87.5t19.5 -88.5
q-27 29 -61.5 61t-75.5 62q-41 29 -82 52t-78 39v0zM436 111q-32 -24 -89 -21t-114 35q-56 33 -87 81t-27 88q32 -26 70.5 -53t80.5 -51q43 -25 85.5 -44.5t80.5 -34.5v0z" />
</svg>
