<?xml version="1.0" standalone="no"?>
<!DOCTYPE svg PUBLIC "-//W3C//DTD SVG 1.1//EN" "http://www.w3.org/Graphics/SVG/1.1/DTD/svg11.dtd" >
<svg xmlns="http://www.w3.org/2000/svg" xmlns:xlink="http://www.w3.org/1999/xlink" version="1.1" viewBox="-10 0 1044 1024">
   <path fill="currentColor"
d="M0 73v-73h203l181 196q-2 4 -4.5 8t-4.5 8l-375 -139v0zM237 0h137l49 133q-4 6 -7.5 12t-7.5 12zM408 0h87l-7 174l-80 -174v0zM650 0h137l-163 151q-5 -8 -9.5 -15.5t-8.5 -15.5l44 -120v0zM821 0h203v73l-369 137q-3 -5 -5.5 -10l-4.5 -9l176 -191v0zM1024 88v196
l-310 -12l-3 -29l-14 28h-15q-2 -5 -4 -10.5t-5 -11.5l351 -161v0zM1024 301v196l-247 -113q0 -10 -0.5 -20t-1.5 -20l-3 8t-15 22l-43 -19v-42zM1024 512v512h-310v-377q8 -11 19.5 -34t21.5 -57l267 247l-258 -280q5 -22 8.5 -47.5t4.5 -54.5l247 91v0zM310 1024h-310
v-512l264 -98q-2 29 0.5 53t6.5 44l-269 292l279 -258q7 20 14.5 35t14.5 24v420zM0 497v-196l279 11v0v0q-4 17 -7 32.5t-5 29.5zM0 284v-196l308 142l-8 22t-8 21zM616 0l-36 77q-2 -12 -10.5 -26.5t-13.5 -25.5q-1 24 -8.5 33t-14.5 44l-4 -102h87zM575 458
q16 11 36.5 21.5t30.5 30.5q13 25 12.5 84t-1.5 64v88h-50v-132h-8v136v171l13 14l20 19h-110v-210h-12v210h-110l20 -19l13 -14v-171v-136h-8v132h-50v-88q-1 -5 -1 -10v-10v-69.5t13 -61.5q10 -20 30 -29t36 -20q11 19 27.5 27t35.5 8t35.5 -8t27.5 -27v0zM579 429
l-18.5 21t-48.5 21q-35 0 -51 -21l-16 -21q-5 -7 -8.5 -15.5t-6.5 -16.5q-2 -9 -3.5 -18t-1.5 -19q0 -46 25.5 -75.5t61.5 -29.5t61.5 29.5t25.5 75.5q0 13 -2 24.5t-6 21.5q-2 6 -5.5 12t-6.5 11v0zM315 233l39 18q-3 5 -5.5 10t-4.5 10l-27 1q-1 -11 -2 -20.5t0 -18.5v0z
" />
</svg>
