<?xml version="1.0" standalone="no"?>
<!DOCTYPE svg PUBLIC "-//W3C//DTD SVG 1.1//EN" "http://www.w3.org/Graphics/SVG/1.1/DTD/svg11.dtd" >
<svg xmlns="http://www.w3.org/2000/svg" xmlns:xlink="http://www.w3.org/1999/xlink" version="1.1" viewBox="-10 0 1044 1024">
   <path fill="currentColor"
d="M0 332l212 90q11 -31 24 -60t29 -55l-265 -261v-46h241l104 212q25 -21 52 -36t55 -22l-23 -154h166l-23 154q28 7 55 22t52 36l104 -212h241v46l-265 261q16 26 29 55t24 60l212 -90v218h-184q2 20 3 41t1 42q0 15 -0.5 29.5t-1.5 28.5l182 78v255h-31l-182 -179
q-14 44 -34 82.5t-45 70.5l13 26h-172q46 -16 85 -53t67.5 -89.5t44.5 -118.5t16 -139q0 -85 -21 -159q-22 -75 -59 -130.5t-87 -88.5q-50 -32 -107 -32t-107 32q-50 33 -87 88.5t-59 130.5q-21 74 -21 159q0 73 16 139t44.5 118.5t67.5 89.5t85 53h-172l13 -26
q-25 -32 -45 -70.5t-34 -82.5l-182 179h-31v-255l182 -78q-1 -14 -1.5 -28.5t-0.5 -29.5q0 -21 1 -42t3 -41h-184v-218v0zM566 483q14 9 32 18t27 27q11 21 10.5 72.5t-0.5 55.5v77h-44v-115h-7v118v0v149l11 12l18 16h-96v-182h-10v182h-95l17 -16l11 -12v-149v0v-118h-7
v115h-44v-77v-8.5v-8.5v-60.5t11 -53.5q8 -18 26 -25.5t32 -16.5q9 16 23 23t31 7q16 0 30.5 -7t23.5 -23v0zM570 457l-16 18.5t-42 18.5q-30 0 -44 -18.5l-14 -18.5q-4 -6 -7.5 -13t-5.5 -15q-2 -7 -3 -15t-1 -16q0 -40 22 -66t53 -26t53 26t22 66q0 10 -1.5 20t-4.5 19
l-5.5 11t-5.5 9v0z" />
</svg>
