<?xml version="1.0" standalone="no"?>
<!DOCTYPE svg PUBLIC "-//W3C//DTD SVG 1.1//EN" "http://www.w3.org/Graphics/SVG/1.1/DTD/svg11.dtd" >
<svg xmlns="http://www.w3.org/2000/svg" xmlns:xlink="http://www.w3.org/1999/xlink" version="1.1" viewBox="-10 0 1034 1024">
   <path fill="currentColor"
d="M114 353q-17 -11 -29 -22.5t-25 -26.5q-42 -49 -41 -107.5t50 -110.5q35 -38 102 -46t131 51q21 19 38 51q17 31 30 67t23 72t17 65q-21 -32 -51 -49.5t-62 -29.5q23 47 47 98t78 81q-33 -5 -75 -14q-42 -8 -84.5 -20t-81.5 -27q-39 -14 -67 -32v0zM189 177q11 -1 34 3.5
t34 11.5q-15 -19 -39.5 -43.5t-46.5 -31.5h-3t-3 -1q-9 -2 -17.5 -1t-17.5 5q-22 10 -28 34t4 45q15 35 52 62t70 48q-24 -31 -30 -65.5t-9 -66.5v0zM657 301q-8 -14 -12 -26t-8 -26q-12 -49 9.5 -88t73.5 -58q37 -14 85.5 3.5t70.5 80.5q15 41 5.5 104.5t-19.5 107.5
q-3 -29 -18 -51.5t-32 -41.5q-1 40 -2 83.5t25 82.5q-42 -31 -97 -79.5t-81 -91.5v0zM769 207q9 3 23 14t19 19q-4 -18 -12 -43t-21 -37q-1 -1 -2 -1.5t-2 -1.5q-5 -5 -11.5 -7t-13.5 -3q-18 -1 -30.5 13.5t-13.5 32.5q-1 29 14.5 60t30.5 57q-5 -29 2.5 -54.5t16.5 -48.5v0
zM217 875q-16 -2 -28.5 -5.5t-26.5 -9.5q-46 -19 -65.5 -59t-3.5 -93q10 -38 53 -67t107 -11q42 12 88 57t75 79q-26 -14 -52.5 -15.5t-52.5 1.5q32 24 66.5 50.5t81.5 28.5q-49 16 -120.5 32t-121.5 12v0zM206 728q8 -4 25 -9t27 -5q-17 -7 -42.5 -15t-42.5 -5q-1 0 -2 0.5
t-2 0.5q-7 2 -13 5.5t-10 9.5q-12 14 -7.5 32.5t18.5 29.5q23 19 57.5 24.5t64.5 7.5q-27 -12 -43.5 -33.5t-29.5 -42.5v0zM246 428l58 15q58 14 131 41.5t141 67.5q67 40 85 90l9 27t10 45q1 9 -6 -11q-8 -20 -31.5 -51t-66.5 -63t-114 -48q-145 -31 -168 -55.5t-48 -57.5
v0zM721 398l35 30q34 30 74.5 74.5t72.5 94.5q32 51 27 92l-3.5 21.5t-8.5 33.5q-5 13 -4 -55.5t-85 -138.5q-88 -72 -95.5 -96.5t-12.5 -55.5v0zM333 880l44 -11q45 -10 104.5 -17t119.5 -3q59 4 90 32l15 15.5t23 26.5q7 12 -48 -29t-161 -13q-110 29 -134.5 20.5
t-52.5 -21.5v0zM695 638q2 2 -34 -32q-36 -33 -86.5 -93.5t-103.5 -143.5t-83 -181l20 33q21 32 50.5 74t62.5 81q33 40 59 54q56 31 57 82t58 126v0zM643 470l22 26q22 25 52.5 64t61.5 85q32 45 50 84q19 39 38 80q20 40 34.5 70.5t20.5 45.5q6 14 -4 1q-6 -9 -28.5 -33.5
t-114.5 -154.5q-84 -118 -97 -170.5t-35 -97.5v0zM954 698q1 1 -12 -34t-26.5 -94t-20.5 -134t6 -153l3 30q2 29 8 68t15 77q9 39 21 57q27 41 10.5 76.5t-4.5 106.5zM712 866q2 1 -34 -9q-37 -11 -92 -34.5t-120 -61.5t-121 -94l26 15q25 15 60 33t71 33q37 16 59 16
q49 2 67.5 36.5t83.5 65.5v0zM518 502l-21 -16t-50 -42t-58 -60t-46 -70l62.5 44.5t112.5 143.5zM881 543l-28 -64.5t-26 -124.5l27 52t27 137zM544 835l-68.5 -15t-116.5 -52l58 8.5t127 58.5zM696 681l16.5 76t111.5 84l-44.5 -48t-83.5 -112v0zM869 762l73 166l68 85
l-8 -25t-25 -62.5t-44 -81.5q-26 -44 -64 -82v0zM205 457q-8 0 -14 -5.5t-6 -14.5q0 -8 5.5 -14t13.5 -6q9 0 15 6t6 14t-6 14t-14 6v0zM557 305q-16 0 -27.5 -11t-12.5 -27q0 -16 11 -27.5t27 -12.5q16 0 28 11t12 27t-11 28t-27 12zM508 680q-15 0 -26 -10.5t-11 -25.5
t10.5 -26t25.5 -11t26 10.5t11 25.5t-10.5 26t-25.5 11zM814 948q-11 0 -18.5 -7.5t-8.5 -18.5q0 -11 7.5 -19t18.5 -8t19 7.5t8 18.5t-7.5 18.5t-18.5 8.5zM273 565q-8 0 -14 -6t-6 -14q-1 -8 5 -14t14 -6q9 -1 15 5t6 14q0 9 -6 15t-14 6v0zM845 671q-8 0 -14 -6t-7 -14
q0 -8 6 -14t14 -7q9 0 15 6t6 14q0 9 -6 15t-14 6zM374 586q-5 0 -8.5 -3.5t-3.5 -8.5t3.5 -8.5t8.5 -3.5t8.5 3.5t3.5 8.5t-3.5 8.5t-8.5 3.5zM591 388q-5 0 -8.5 -3.5t-3.5 -8.5t3.5 -8.5t8.5 -3.5t8.5 3.5t3.5 8.5t-3.5 8.5t-8.5 3.5zM622 733q-5 0 -8.5 -3.5t-3.5 -8.5
t3 -8.5t8 -3.5t9 3.5t4 8.5t-3.5 8.5t-8.5 3.5zM459 235q-7 0 -12 -5t-5 -12t5 -12t11 -5q7 0 12 5t6 12q0 7 -5 12t-12 5z" />
</svg>
