<?xml version="1.0" standalone="no"?>
<!DOCTYPE svg PUBLIC "-//W3C//DTD SVG 1.1//EN" "http://www.w3.org/Graphics/SVG/1.1/DTD/svg11.dtd" >
<svg xmlns="http://www.w3.org/2000/svg" xmlns:xlink="http://www.w3.org/1999/xlink" version="1.1" viewBox="-10 0 1044 1024">
   <path fill="currentColor"
d="M0 497l52 41l-2 171l-50 27v-239v0zM0 781l81 -42h141l16 108l-22 177h-216v-243zM245 1024l14 -174l34 -80l130 65l87 101l-15 88h-250v0zM517 1024l35 -110l-209 -164l233 -21l184 148l-92 70l-14 77h-137v0zM685 1024l16 -66l169 -133l78 43l76 151v5h-339zM20 0
l174 193l-30 72l-164 58v-323h20v0zM326 632l57 -68l20 107zM212 503l23 103l-29 84l-111 3l-1 -151l118 -39v0zM926 414q17 7 22 24.5t-4 35.5q-10 17 -29 25t-36 1l-43 -22q-43 -21 -100.5 -69t-114.5 -125q-57 -76 -83 -186q-5 -18 5.5 -35.5t29.5 -24.5t35.5 0.5
t21.5 25.5q23 96 72 162q49 67 99 108.5t87 60.5zM870 620q17 7 22 24.5t-5 34.5q-10 18 -28.5 26t-35.5 1l-63 -31q-62 -31 -144.5 -100t-163.5 -179q-82 -111 -120 -269q-5 -17 5.5 -34.5t29.5 -24.5t35.5 0.5t21.5 25.5q35 143 109 244q74 100 148.5 162.5t131.5 91.5
l57 28v0zM930 787l57 -68l20 107zM986 212q17 7 22.5 24.5t-4.5 35.5q-10 17 -28.5 25t-35.5 1l-25 -12q-24 -12 -56.5 -39t-64.5 -70t-47 -105q-4 -18 6.5 -35.5t29.5 -24.5t35.5 0.5t20.5 25.5q23 95 85 134.5l62 39.5v0zM81 380l178 -58l5 173l-183 -115v0z" />
</svg>
