<?xml version="1.0" standalone="no"?>
<!DOCTYPE svg PUBLIC "-//W3C//DTD SVG 1.1//EN" "http://www.w3.org/Graphics/SVG/1.1/DTD/svg11.dtd" >
<svg xmlns="http://www.w3.org/2000/svg" xmlns:xlink="http://www.w3.org/1999/xlink" version="1.1" viewBox="-10 0 1034 1024">
   <path fill="currentColor"
d="M578 389q20 14 45 26.5t37 36.5q15 30 14.5 102t-0.5 78v107h-62v-161h-9v165v0v208l15 17l25 23h-133v-255h-15v255h-133l25 -23l15 -17v-208v0v-165h-9v161h-62v-107q0 -6 -0.5 -12t-0.5 -12q0 -40 0.5 -85t14.5 -74q13 -25 37.5 -35.5t44.5 -23.5q13 23 32.5 32
t42.5 9t43 -9t33 -33v0zM584 354l-22.5 25.5t-59.5 25.5q-42 0 -61.5 -25.5l-19.5 -25.5q-5 -9 -10 -18.5t-8 -20.5t-4.5 -22t-1.5 -22q0 -56 31 -92t74 -36q44 0 74.5 36t30.5 92q0 15 -2 28.5t-7 26.5q-3 8 -6.5 15t-7.5 13v0zM89 840l-27 6q-7 -40 -10.5 -82t-3.5 -86
q0 -46 4 -91t12 -88l27 5q-8 42 -12 85t-4 88q0 43 3.5 83.5t10.5 79.5v0zM105 446l-27 -7q15 -58 37.5 -110.5t50.5 -96.5l23 15q-27 43 -48.5 93t-35.5 106v0zM272 146l-20 -22q54 -52 117.5 -80t132.5 -28q21 0 42 3t42 8l-7 28q-19 -5 -37.5 -7.5t-37.5 -2.5
q-64 0 -123 26.5t-109 74.5v0zM667 92l13 -24q26 16 50.5 36.5t46.5 45.5t42.5 53.5t37.5 60.5l-19 15q-17 -31 -36.5 -58.5t-41.5 -51.5q-21 -23 -44.5 -42.5t-48.5 -34.5v0zM895 415l23 -6q18 62 28 129.5t10 139.5q0 27 -1 53t-4 51l-23 -3q3 -25 4.5 -50.5t1.5 -51.5
q0 -70 -10 -136t-29 -126v0zM917 854l22 7q-8 40 -18.5 77t-24.5 71l-4 11h-27q17 -38 30 -79.5t22 -86.5zM143 1020h-31l-4 -11q-10 -24 -18 -49t-14 -52l27 -6q8 31 18 60.5t22 57.5v0zM121 510l28 6q-8 39 -11.5 79.5t-3.5 82.5q0 39 3 76.5t10 73.5l-28 6
q-7 -37 -10.5 -76.5t-3.5 -80.5q0 -43 4 -85t12 -82v0zM215 264l23 15q-25 40 -44 85.5t-33 96.5l-27 -7q14 -53 34.5 -101t46.5 -89v0zM132 895l27 -6q8 28 17 55t20 52l10 24h-30q-13 -29 -24 -60.5t-20 -64.5v0zM832 1020h-34l10 -24q16 -36 28 -76.5t20 -84.5l31 10
q-9 48 -23 91.5t-32 83.5v0zM898 774l-32 -5q2 -22 3 -44.5t1 -46.5q0 -66 -9 -128t-27 -118l32 -9q18 58 27.5 122t9.5 132q0 25 -1 49t-4 48v0zM813 297l-25 20q-16 -31 -35 -58.5t-40 -50.5q-17 -20 -36 -36t-39 -29l14 -25q23 14 44.5 32t41.5 40q21 23 40 50t35 57v0z
M571 84l-7 27q-15 -5 -30.5 -7t-31.5 -2q-53 0 -101.5 23t-90.5 63l-18 -20q46 -44 100 -68.5t112 -24.5q17 0 34 2.5t33 6.5v0z" />
</svg>
