<?xml version="1.0" standalone="no"?>
<!DOCTYPE svg PUBLIC "-//W3C//DTD SVG 1.1//EN" "http://www.w3.org/Graphics/SVG/1.1/DTD/svg11.dtd" >
<svg xmlns="http://www.w3.org/2000/svg" xmlns:xlink="http://www.w3.org/1999/xlink" version="1.1" viewBox="-10 0 1034 1024">
   <path fill="currentColor"
d="M62 244l44 343l37 -22l78 181l5 46l35 4l47 60l100 24l86 71l211 52l-65 -121l-58 -2l-153 -118l17 -44l-78 -35l-62 -113l37.5 20.5t19.5 -2.5q-9 -11 -37 -42q-29 -31 -59 -64t-54 -58l-24 -26l8 -72l-156 -196l21 114v0zM284 78l86 295l19 -109l128 380l83 20l128 119
l124 96l-75 -279l-39 44l-87 -233l-27.5 6t-39.5 -8q-6 -6 -21 -31q-14 -25 -29.5 -52.5t-27.5 -48.5l-11 -22l-209 -224l-2 47v0zM571 28l216 119l-19 77l138 173l10 84l33 123l-166 -164l-35 -121l-97 -133l-80 -158v0z" />
</svg>
