<?xml version="1.0" standalone="no"?>
<!DOCTYPE svg PUBLIC "-//W3C//DTD SVG 1.1//EN" "http://www.w3.org/Graphics/SVG/1.1/DTD/svg11.dtd" >
<svg xmlns="http://www.w3.org/2000/svg" xmlns:xlink="http://www.w3.org/1999/xlink" version="1.1" viewBox="-10 0 1034 1024">
   <path fill="currentColor"
d="M695 591q16 27 70.5 44.5t47.5 19.5l60 -40l50 20l-96 99l-150 -22l-186 104l-187 120l-165 -30l-51 34l20 -95l172 -28l128 -85l-13 -20l-143 78l-107 -75l-74 3l92 -72l105 17l109 -70l276 -195h27q27 1 63 1.5t72 1.5q36 2 55 3q15 10 79 54.5l64 44.5l-86 29
l-7.5 -28t-35.5 -50q-15 -12 -38.5 -18t-44.5 -2q-23 5 -49.5 13.5t-52.5 42.5q-25 34 -16 65t12 36v0zM760 607l-23 -12t-30 -39q-7 -31 8 -50t16 -19q5 -6 11.5 -11t13.5 -10q7 -4 15 -7t17 -5q41 -10 73 6t40 49q8 32 -13 61t-62 39q-11 3 -22 4t-21 -1q-6 0 -12 -1.5
t-11 -3.5v0zM759 522l-14 9l30 45l14 -9l-30 -45v0zM15 304l243 -111l32 36l7 245l156 -115l50 46l-219 180l-74 -69l15 -233l-157 100l-53 -79v0zM355 94l169 -15l12 29l-48 148l118 -36l21 38l-170 61l-30 -56l58 -137l-115 27l-15 -59v0zM649 142l134 36l1 26l-79 100
l101 6l5 35l-148 -1l-7 -52l84 -89l-96 -12l5 -49v0z" />
</svg>
