<?xml version="1.0" standalone="no"?>
<!DOCTYPE svg PUBLIC "-//W3C//DTD SVG 1.1//EN" "http://www.w3.org/Graphics/SVG/1.1/DTD/svg11.dtd" >
<svg xmlns="http://www.w3.org/2000/svg" xmlns:xlink="http://www.w3.org/1999/xlink" version="1.1" viewBox="-10 0 1034 1024">
   <path fill="currentColor"
d="M108 1024q3 -11 7 -22t9 -20q30 -60 90 -85t107 -58q32 56 80 78t103 22q56 0 104 -22t80 -78q47 32 108 62.5t91 89.5q4 8 7.5 16t6.5 17h-793v0zM250 546q-14 1 -27 1t-25 -1q-50 -4 -84 -21.5t-46 -45.5q-2 -6 -3.5 -11.5t-2.5 -11.5q3 0 6 -0.5t5 -2.5l25 -15
q-1 7 -0.5 14t3.5 13q4 9 12.5 16.5t19.5 12.5q13 7 30.5 11t37.5 5q12 1 24.5 1t26.5 -1q47 -2 104 -14.5t118 -33.5q-47 -29 -87 -60.5t-70 -63.5q-20 -20 -36 -40t-27 -39q-17 12 -32.5 24t-29.5 24l-36 -3l-4 -10q18 -17 40 -34t47 -33q-8 -23 -7.5 -42t9.5 -34
q10 -18 30.5 -29t50.5 -13q24 -2 54 1.5t64 11.5q47 -18 93 -32q45 -14 87.5 -22t79.5 -11q38 -3 70 -1q28 2 51.5 8.5t40.5 16.5l-2 5l-50 4q-3 1 -6.5 2t-5.5 4q-7 -2 -14.5 -3t-15.5 -1q-54 -4 -124 8t-148 39q39 14 80.5 33t83.5 43q33 19 62.5 39t55.5 40
q15 -13 28.5 -26.5t24.5 -26.5q1 -1 2 -2.5t2 -2.5q6 2 11.5 2t10.5 -3l35 -21q-6 12 -14.5 24.5t-18.5 25.5q-11 13 -24.5 26.5t-28.5 26.5q42 36 71.5 71.5t44.5 66.5q12 27 13.5 50.5t-9.5 41.5q-10 17 -31 28t-50 13q-19 2 -40.5 0t-46.5 -6q-53 -11 -116 -35t-129 -61
q-72 27 -139.5 42.5t-123.5 17.5v0zM701 351q13 -8 25 -16.5t23 -17.5q-24 -18 -50.5 -36t-56.5 -35q-52 -30 -103 -52t-96 -34q-4 1 -8 3t-8 3q-39 17 -75 35.5t-68 38.5q2 4 4.5 8t5.5 8q9 13 20.5 27t25.5 29q33 34 78 68t98 66q7 -3 13 -5.5t13 -5.5q44 -18 84 -39.5
t75 -44.5v0zM366 290q30 -23 65 -35.5t73 -12.5q52 0 97 22t79 61q-33 21 -71 41.5t-80 38.5q-3 1 -5 2t-5 2q-46 -29 -85 -59t-68 -60v0zM382 147q-6 -1 -12 -1.5t-12 -1.5q-17 -1 -32 0t-26 5q-10 3 -17 7.5t-11 12.5q-4 7 -4.5 15.5t1.5 17.5q0 2 0.5 3t0.5 2
q26 -16 54 -31t58 -29v0zM759 546q13 2 25.5 4t24.5 3q17 1 32 0t26 -5q10 -3 17 -7.5t11 -11.5t4.5 -16t-1.5 -18q-3 -12 -9 -25.5t-16 -27.5q-16 -24 -40 -50t-55 -52q-14 11 -28.5 21.5t-29.5 20.5q-36 23 -77.5 45t-86.5 41q55 29 107 49t96 29v0zM734 412q9 23 15 47.5
t8 51.5q-28 -6 -59 -16.5t-64 -25.5q27 -13 52 -27.5t48 -29.5v0zM706 603q12 4 24.5 7t23.5 5q-3 18 -7.5 35.5t-9.5 34.5q-8 18 -16.5 35t-19.5 33q1 0 -13 19q-14 20 -40 43t-63 42q-36 20 -81 20q-102 0 -149 -62l-47 -62q-14 -21 -25.5 -45t-19.5 -50q-5 -19 -8 -38.5
t-5 -39.5q56 -3 122.5 -17.5t137.5 -40.5q19 10 37.5 19.5t36.5 17.5l-1 3l-42 4q-6 0 -11 4t-7 10t-0.5 12t6.5 10l32 27l-10 41q-1 6 1 12t7 10t11.5 4t11.5 -3l36 -22l36 22q5 3 11.5 3t11.5 -4t7.5 -10t0.5 -12l-9 -41l30 -26v0zM125 86q9 0 15 6t6 15t-6 15t-15 6
q-8 0 -14.5 -6t-6.5 -15t6.5 -15t14.5 -6v0zM971 335q8 0 14 6t6 14q0 9 -6 15t-14 6q-9 0 -15 -6t-6 -15q0 -8 6 -14t15 -6zM870 654q5 0 9 4t4 9t-4 9t-9 4q-6 0 -9.5 -4t-3.5 -9t3.5 -9t9.5 -4zM894 335q5 0 9 3.5t4 9.5q0 5 -4 9t-9 4q-6 0 -9.5 -4t-3.5 -9
q0 -6 3.5 -9.5t9.5 -3.5zM107 277q1 -3 3.5 -4.5t5.5 -1.5t5 1.5t3 4.5l19 45l48 4q3 0 5 1.5t3 4.5t0.5 5.5t-2.5 4.5l-37 31l11 47q1 3 0 5.5t-4 4.5q-2 2 -4.5 2t-5.5 -2l-41 -25l-42 25q-2 2 -4.5 2t-5.5 -2q-2 -2 -3 -4.5t0 -5.5l11 -47l-37 -31q-2 -2 -2.5 -4.5
t-0.5 -5.5q1 -3 3.5 -4.5t4.5 -1.5l49 -4l18 -45v0zM892 68q1 -2 3 -3.5t5 -1.5q2 0 4 1.5t3 3.5l17 40l43 3q2 1 4 2.5t3 3.5t0 4.5t-3 4.5l-32 28l10 42q0 2 -0.5 4.5t-2.5 3.5q-2 2 -4.5 2t-4.5 -1l-37 -23l-37 23q-2 1 -4.5 1t-4.5 -2q-2 -1 -3 -3.5t0 -4.5l10 -42
l-33 -28q-2 -2 -2.5 -4.5t0.5 -4.5t2.5 -3.5t4.5 -2.5l43 -3l16 -40v0zM157 160q5 0 9 4t4 9q0 6 -4 9.5t-9 3.5q-6 0 -9.5 -3.5t-3.5 -9.5q0 -5 3.5 -9t9.5 -4zM612 550q1 -2 2.5 -3.5t3.5 -1.5t4 1.5t3 3.5l13 33l36 3q2 0 4 1.5t2 3.5q1 2 0.5 4t-2.5 3l-27 23l8 36
q1 2 0 3.5t-2 3.5q-2 1 -4 1t-4 -1l-31 -19l-31 19q-1 1 -3.5 1t-3.5 -1q-2 -2 -2.5 -3.5t-0.5 -3.5l8 -35l-27 -24q-1 -1 -2 -3t0 -4t2.5 -3.5t3.5 -1.5l36 -3l14 -33v0zM256 477q6 -31 16.5 -59t25.5 -52q21 22 46 43t54 42q-39 11 -74.5 17t-67.5 9v0zM190 604q12 0 21 9
t9 21q0 13 -9 21.5t-21 8.5q-13 0 -21.5 -8.5t-8.5 -21.5q0 -12 8.5 -21t21.5 -9z" />
</svg>
