<?xml version="1.0" standalone="no"?>
<!DOCTYPE svg PUBLIC "-//W3C//DTD SVG 1.1//EN" "http://www.w3.org/Graphics/SVG/1.1/DTD/svg11.dtd" >
<svg xmlns="http://www.w3.org/2000/svg" xmlns:xlink="http://www.w3.org/1999/xlink" version="1.1" viewBox="-10 0 1034 1024">
   <path fill="currentColor"
d="M847 879q5 -1 10 -1t9 1q27 5 42.5 26.5t10.5 47.5q-4 27 -25.5 42.5t-48.5 10.5q-26 -4 -41.5 -25.5t-11.5 -48.5q1 -1 1 -2.5v-2.5l-172 -166l-86 86l-51 -49l37 -38l-464 -453l-48 -195l200 48l460 451l35 -39l55 51l-86 86l174 170v0zM618 663l-359 -352l-56 -13
l17 63l354 346l44 -44v0zM678 241v148h-133v-184h-124l190 -190l78 78l-87 87q-7 8 -9 18.5t2 20.5t13 16t19 6h51v0zM884 537h-133v-332h-124l190 -190l191 190h-124v332zM283 974h-108v-175h-100l154 -154l154 154h-100v175v0z" />
</svg>
