<?xml version="1.0" standalone="no"?>
<!DOCTYPE svg PUBLIC "-//W3C//DTD SVG 1.1//EN" "http://www.w3.org/Graphics/SVG/1.1/DTD/svg11.dtd" >
<svg xmlns="http://www.w3.org/2000/svg" xmlns:xlink="http://www.w3.org/1999/xlink" version="1.1" viewBox="-10 0 1034 1024">
   <path fill="currentColor"
d="M60 1024q4 -34 12 -64t21 -55q33 -65 97.5 -92.5t114.5 -62.5q35 61 87 85t112 24q61 0 112.5 -24.5t86.5 -84.5q51 35 117 67.5t98 97.5q12 24 20 51.5t12 57.5h-890v0zM717 657q1 0 -14 21q-16 21 -43.5 46t-67.5 46q-39 21 -88 21q-55 0 -95 -21t-66 -46t-39 -46
l-12 -21q-15 -23 -27.5 -49t-20.5 -54q-8 -27 -12 -56t-4 -59q0 -73 22 -135q22 -61 59.5 -105.5t87.5 -69.5t107 -25t108 25q50 25 87.5 69.5t58.5 105.5q22 62 22 135q0 38 -6.5 74.5t-17.5 70.5q-8 19 -17.5 37.5t-21.5 35.5v0zM383 409q2 2 -0.5 2.5t-5.5 0.5
q-9 0 -16 -10.5t0 -24.5q2 -3 9 -7t19 -5q20 0 32.5 9t19.5 20q4 6 4.5 14.5t-0.5 16.5q-1 10 -4.5 18.5t-9.5 13.5q-10 10 -28 16t-39 3q-10 -1 -25.5 -10.5t-24.5 -21.5q-14 -21 -16 -42t13 -49q5 -10 15 -17.5t22 -12.5q19 -8 40.5 -9.5t36.5 3.5q5 2 10 0t7 -8
q2 -5 -0.5 -10t-7.5 -7q-19 -7 -45.5 -5.5t-50.5 11.5q-17 7 -30.5 18t-20.5 25q-19 36 -16.5 63t21.5 55q12 17 33.5 30t34.5 14q29 3 52.5 -5.5t36.5 -20.5q9 -9 14.5 -21.5t7.5 -26.5t0.5 -27t-7.5 -22q-10 -17 -28.5 -29.5t-46.5 -11.5q-22 0 -34.5 9.5t-16.5 15.5
q-17 29 0.5 51.5t37.5 23.5q12 1 19.5 -4t11.5 -11q4 -8 3.5 -16.5t-7.5 -16.5q-4 -4 -9.5 -4t-9.5 3q-4 4 -4.5 9.5t3.5 9.5v0zM625 381q-1 -2 1 -2.5t5 -0.5q10 0 17 11t-1 24q-2 3 -9 7.5t-18 4.5q-20 0 -33 -8.5t-20 -20.5q-3 -4 -3.5 -10t0.5 -13q0 -11 4.5 -21.5
t11.5 -17.5q10 -10 26.5 -16.5t38.5 -3.5q10 1 25.5 10.5t23.5 22.5q15 21 16.5 41.5t-12.5 48.5q-5 11 -15 18t-22 12q-20 8 -41 10t-37 -4q-5 -2 -10 0.5t-7 7.5t0.5 10t7.5 7q19 7 46 5.5t51 -11.5q17 -7 30.5 -17.5t20.5 -24.5q18 -37 15.5 -64t-21.5 -55
q-12 -17 -33.5 -29.5t-34.5 -14.5q-29 -3 -51.5 6t-35.5 21q-10 10 -16.5 25.5t-7.5 31.5q-1 11 1 21.5t6 17.5q11 17 29.5 29.5t46.5 12.5q22 -1 34.5 -10.5t15.5 -15.5q17 -28 0 -51t-38 -24q-11 0 -19 4.5t-12 10.5q-4 8 -3 17t8 16q3 4 9 4.5t10 -3.5t4 -9.5t-4 -9.5v0z
M618 566q-13 -12 -45 -19q-31 -6 -67.5 -6.5t-70.5 5.5q-34 7 -51 20q-9 8 -4.5 26.5l4.5 18.5q59 -20 117.5 -20t116.5 20l4 -18.5t-4 -26.5z" />
</svg>
