<?xml version="1.0" standalone="no"?>
<!DOCTYPE svg PUBLIC "-//W3C//DTD SVG 1.1//EN" "http://www.w3.org/Graphics/SVG/1.1/DTD/svg11.dtd" >
<svg xmlns="http://www.w3.org/2000/svg" xmlns:xlink="http://www.w3.org/1999/xlink" version="1.1" viewBox="-10 0 1034 1024">
   <path fill="currentColor"
d="M242 63l56 151l151 56l-151 56l-56 151l-55 -151l-152 -56l152 -56l55 -151v0zM847 36l36 97l97 36l-97 35l-36 97l-36 -97l-96 -35l96 -36l36 -97v0zM652 261l83 223l223 83l-223 83l-83 223l-82 -223l-223 -83l223 -83zM320 621h-159v-94h141q-7 8 -11 18.5t-4 21.5
q0 17 9 31.5t24 22.5v0zM987 620v1h-2q1 0 1 -0.5t1 -0.5zM911 649h77v94h-214v-25l8 -22l43 -16t86 -31v0zM753 774h114v94h-149l35 -94v0zM708 896h34v94h-214v-94h69q7 17 22 27t33 10q19 0 34 -10t22 -27v0zM587 868h-180v-94h145q9 26 18.5 51.5t16.5 42.5v0zM540 743
h-12v-33q2 6 5 14.5t7 18.5zM496 686v57h-214v-94h112l102 37v0zM375 556v22l-28 -11l28 -11v0zM895 591v-48l63 24zM867 533v68l-54 20h-160v-94h196l18 6v0zM456 527h165v94h-129l-85 -32v-44l49 -18v0zM568 649h169l-2 1l-34 93h-97l-34 -93zM654 868h-1v-94h36zM616 774
h5v15zM250 896v94h-214v-94h214zM250 649v94h-214v-94h214v0zM129 527v94h-92v-94h92zM129 774v94h-92v-94h92v0zM987 774v94h-92v-94h92v0zM496 896v94h-214v-94h214zM375 774v94h-214v-94h214v0zM988 896v94h-214v-94h214v0zM538 53l19 51l51 19l-51 19l-19 50l-18 -50
l-51 -19l51 -19zM918 380l11 30l30 12l-30 11l-11 30l-12 -30l-30 -11l30 -12z" />
</svg>
