<?xml version="1.0" standalone="no"?>
<!DOCTYPE svg PUBLIC "-//W3C//DTD SVG 1.1//EN" "http://www.w3.org/Graphics/SVG/1.1/DTD/svg11.dtd" >
<svg xmlns="http://www.w3.org/2000/svg" xmlns:xlink="http://www.w3.org/1999/xlink" version="1.1" viewBox="-10 0 1034 1024">
   <path fill="currentColor"
d="M523 52q19 0 49 57.5l30 57.5q-41 -16 -80.5 -15.5t-78.5 15.5l30 -57.5t50 -57.5zM523 969q-20 0 -50 -57l-30 -57q41 15 80.5 14.5t78.5 -14.5l-30 57t-49 57v0zM793 42q9 5 7 38q-3 33 -9 70.5t-13 68.5l-6 30q-31 -26 -69 -45.5t-76 -31.5l23 -22q22 -23 51.5 -48.5
t56.5 -45.5q27 -19 35 -14v0zM258 969q-9 -5 -6 -36q2 -32 8.5 -67.5t13.5 -64.5l7 -30q28 24 63.5 40.5t76.5 33.5l-23 22q-22 21 -50.5 45.5t-54.5 43.5q-27 18 -35 13zM243 25q-9 5 -5 41q4 35 11.5 76t15.5 74l8 33q30 -28 68.5 -46.5t76.5 -30.5l-24 -25t-55 -53.5
t-59 -50.5q-29 -22 -37 -18v0zM790 973q8 -5 6 -37q-3 -32 -10 -68.5t-14 -66.5l-7 -29q-28 23 -64 39.5t-76 33.5l22 22q23 22 52 47t55 45q27 19 36 14zM340 401q-59 14 -108 33q-49 20 -84 37t-54 29l-20 12l36 -45q35 -46 96 -100.5t142 -100.5q82 -45 175 -45
q92 0 174 45q82 46 142.5 100.5t96.5 100.5l35 45l-20 -12q-19 -12 -54 -29t-84 -37q-49 -19 -107 -33q-42 -11 -88.5 -17.5t-94.5 -6.5q-49 0 -95.5 6.5t-87.5 17.5v0zM731 462q84 25 139.5 55t67.5 38q-25 30 -66 73q-42 42 -96 81.5t-119 66.5q-64 28 -134 28
q-71 0 -135 -28q-65 -27 -119 -66.5t-96 -81.5q-41 -43 -66 -73q12 -8 67.5 -38t139.5 -55q-3 12 -4.5 24.5t-1.5 25.5q0 45 17 84t46 68t68 46t84 17q44 0 83 -17t68 -46t46 -68t17 -84q0 -13 -1.5 -25.5t-4.5 -24.5v0zM670 492q0 -16 -8 -27t-19 -11q-65 25 -125 25
t-116 -25q-11 0 -19 11t-8 27v75q0 16 8 27t19 11q60 -26 120.5 -25t120.5 25q11 0 19 -11t8 -27v-75v0z" />
</svg>
