<?xml version="1.0" standalone="no"?>
<!DOCTYPE svg PUBLIC "-//W3C//DTD SVG 1.1//EN" "http://www.w3.org/Graphics/SVG/1.1/DTD/svg11.dtd" >
<svg xmlns="http://www.w3.org/2000/svg" xmlns:xlink="http://www.w3.org/1999/xlink" version="1.1" viewBox="-10 0 1034 1024">
   <path fill="currentColor"
d="M262 206l36 12q36 13 80 38t84 63q39 38 46 88l-1 437l-14 -29q-15 -30 -47 -69.5t-83 -79.5t-123 -61l22 -399v0zM649 264q-41 25 -75 61t-41 82l1 437l15 -29q14 -30 46 -69.5t83 -79.5t124 -61l-15 -259l-1 2q-4 12 -15.5 20t-24.5 8q-14 0 -25 -8t-15 -20l-27 -73
l-30 -11v0zM208 234l-60 -5l-87 587l47 -12q46 -12 114 -11.5t144 27.5q76 26 136 104l-15 -32t-52 -76t-99 -89t-156 -72l28 -421v0zM893 232l87 584l-47 -12q-46 -12 -113.5 -11.5t-144.5 27.5q-76 26 -136 104l15 -32t52 -76t99 -89t157 -72l-26 -383l7 -21l50 -19v0z
M752 21l38 104l104 38l-104 38l-38 103l-38 -103l-103 -38l103 -38l38 -104v0zM957 116q0 11 -8 19t-19 8t-19 -8t-8 -19t8 -19t19 -8t19 8t8 19zM124 931q0 11 -7.5 18.5t-18.5 7.5t-18.5 -7.5t-7.5 -18.5t7.5 -18.5t18.5 -7.5t18.5 7.5t7.5 18.5v0z" />
</svg>
