<?xml version="1.0" standalone="no"?>
<!DOCTYPE svg PUBLIC "-//W3C//DTD SVG 1.1//EN" "http://www.w3.org/Graphics/SVG/1.1/DTD/svg11.dtd" >
<svg xmlns="http://www.w3.org/2000/svg" xmlns:xlink="http://www.w3.org/1999/xlink" version="1.1" viewBox="-10 0 1034 1024">
   <path fill="currentColor"
d="M555 90q86 12 156 50t119.5 95.5t76.5 132.5t27 161q0 66 -22 130t-65 115q-51 60 -115 100q-63 40 -133.5 56t-143.5 6q-74 -10 -145 -50q-46 -26 -84 -61q-37 -34 -65 -75.5t-46 -89.5q-17 -47 -22 -100q-9 -93 15 -174q25 -82 76 -144.5t126 -102.5t167 -50
q7 -1 13.5 -0.5t11.5 1.5q1 0 1.5 0.5t0.5 1.5q3 6 2.5 12.5t-2.5 12.5q-2 5 -7.5 9t-9.5 10q0 1 -0.5 1.5t-1.5 0.5q-67 4 -127 31q-60 28 -106.5 72t-76.5 103q-30 58 -38 125q-9 81 14 153q23 73 71 128t115 90q68 35 148 42q98 9 179 -27t134.5 -102t74.5 -153
q21 -88 -1 -182q-12 -53 -38 -98t-63 -80.5t-83 -59.5q-46 -25 -99 -36q-10 -2 -21.5 -3.5t-24.5 -2.5q-32 -1 -23.5 -26t35.5 -22v0zM238 427l-1 -1l-1 1q-12 47 -10 93q1 47 15.5 90t42.5 80q28 36 69 63q30 19 63 30.5t68 14.5q29 3 20 27t-33 20q-69 -11 -133.5 -48
t-103.5 -97q-29 -44 -45 -97q-15 -53 -15 -107t17 -106q17 -51 54 -93q44 -51 98 -83q53 -33 111.5 -43.5t119.5 1.5q61 11 120 49q51 33 86 78q34 45 51.5 98t17.5 110q0 58 -17 115q-16 50 -45 89t-67.5 68t-85.5 46q-46 18 -96 24q-4 0 -8 -1t-9 -3l-1.5 -1.5t-0.5 -1.5
q-3 -11 0 -20t13 -15l1.5 -1.5t0.5 -1.5l2 -4q0 -1 0.5 -1.5t1.5 -0.5q55 -4 102 -28q48 -23 84 -61t57 -87q22 -50 24 -104q2 -67 -23 -123t-69 -95.5t-102 -60.5q-59 -21 -124 -18q-74 4 -133.5 43.5t-95.5 103.5v1.5t1 1.5q8 11 13 22t12 21q12 20 22.5 38t26.5 35
q8 9 10.5 18.5t9.5 18.5q11 13 21 28.5t16 32.5q1 3 2.5 6t4.5 6q9 14 18.5 38t24.5 44q8 10 13.5 21l11.5 23q6 11 13.5 22.5t11.5 26.5v2t-1 1q-14 15 -25 9t-25 -9q-1 0 -1.5 -0.5l-1.5 -1.5q-13 -25 -26 -49.5t-26 -49.5q-14 -27 -32.5 -52t-29.5 -52
q-5 -12 -13.5 -25.5t-17.5 -24.5q-19 -21 -28.5 -45.5t-24.5 -47.5v0z" />
</svg>
