<?xml version="1.0" standalone="no"?>
<!DOCTYPE svg PUBLIC "-//W3C//DTD SVG 1.1//EN" "http://www.w3.org/Graphics/SVG/1.1/DTD/svg11.dtd" >
<svg xmlns="http://www.w3.org/2000/svg" xmlns:xlink="http://www.w3.org/1999/xlink" version="1.1" viewBox="-10 0 1034 1024">
   <path fill="currentColor"
d="M555 90q86 12 156 50t119.5 95.5t76.5 132.5t27 161q0 66 -22 130t-65 115q-51 60 -115 100q-63 40 -133.5 56t-143.5 6q-74 -10 -145 -50q-46 -26 -84 -61q-37 -34 -65 -75.5t-46 -89.5q-17 -47 -22 -100q-9 -93 15 -174q25 -82 76 -144.5t126 -102.5t167 -50
q7 -1 13.5 -0.5t11.5 1.5q1 0 1.5 0.5t0.5 1.5q3 6 2.5 12.5t-2.5 12.5q-2 5 -7.5 9t-9.5 10q0 1 -0.5 1.5t-1.5 0.5q-67 4 -127 31q-60 28 -106.5 72t-76.5 103q-30 58 -38 125q-9 82 14 154q24 72 71.5 127.5t116.5 90.5q68 34 147 41q98 9 178 -27q81 -36 134 -101.5
t74 -152.5q22 -87 1 -180q-12 -54 -38 -99q-26 -46 -63 -81.5t-83 -60.5t-100 -36q-10 -2 -21.5 -3.5t-24.5 -2.5q-32 -1 -23.5 -26t35.5 -22v0zM551 796q-4 -3 -7.5 -6.5t-6.5 -8.5v-1v-2q0 -6 -0.5 -12t-2.5 -12q-1 -1 -0.5 -1.5t0.5 -1.5q9 -13 17.5 -27.5t16.5 -27.5
q19 -28 31.5 -49.5t24.5 -48.5q6 -13 13.5 -25.5t16.5 -24.5q10 -13 17.5 -28.5t14.5 -30.5q5 -14 12.5 -26.5t16.5 -24.5q14 -18 23 -40t24 -39v-1.5v-1.5q-51 -71 -120 -105t-157 -30q-73 3 -132.5 44t-94.5 103v1.5t1 1.5q8 11 13 22t12 21q12 20 22.5 38t26.5 35
q8 9 10.5 18.5t9.5 18.5q12 14 21 28.5t15 28.5q2 6 4 10t3 7q12 20 20.5 40.5t23.5 40.5q8 10 13.5 21l11.5 23q5 11 13 22.5t12 25.5q0 2 -0.5 3.5t-2.5 3.5q-5 3 -10.5 5t-12.5 2h-1t-2 -1q-5 -3 -10.5 -5.5t-11.5 -3.5q-1 0 -1.5 -0.5l-1.5 -1.5q-13 -24 -26 -49
t-25 -49q-15 -28 -33.5 -53t-29.5 -52t-30 -48.5t-30 -49.5q-6 -14 -11.5 -24t-12.5 -21h-1h-1q-17 67 -7 130q10 64 43 115.5t87 85.5t125 40q29 3 20 27t-33 20q-69 -11 -133.5 -48t-103.5 -97q-29 -44 -45 -97q-15 -53 -15 -107t17 -106q17 -51 54 -93q51 -59 118.5 -95
t146.5 -37q52 0 100.5 15.5t94.5 47.5q45 32 77 74q31 42 48 90t19 100q2 53 -11 106q-11 50 -37 92t-62.5 73.5t-80.5 52.5q-45 21 -95 28q-12 2 -21 4t-22 -3q0 -1 -0.5 -1.5t-0.5 -1.5q-5 -18 2.5 -24t15.5 -19l1 -0.5l1 -0.5h6t6 -1q1 0 1 -0.5t-1 -0.5v0zM566 794
q-1 1 -1 1.5t2 -0.5q65 -14 116 -52q51 -37 82 -89t39 -115q7 -62 -16 -128q0 -2 -0.5 -2t-1.5 1q-6 9 -11 18t-9 19q0 1 -0.5 1.5l-1.5 1.5q-10 9 -18 28t-11 31q-3 9 -7.5 16t-10.5 13l-4 6t-3 7q-5 15 -13 30t-18 28q-3 3 -6 8t-7 12t-12 18.5t-20 26.5q-7 10 -13 26
t-15 28q-11 16 -20 33t-20 33v0z" />
</svg>
