<?xml version="1.0" standalone="no"?>
<!DOCTYPE svg PUBLIC "-//W3C//DTD SVG 1.1//EN" "http://www.w3.org/Graphics/SVG/1.1/DTD/svg11.dtd" >
<svg xmlns="http://www.w3.org/2000/svg" xmlns:xlink="http://www.w3.org/1999/xlink" version="1.1" viewBox="-10 0 1034 1024">
   <path fill="currentColor"
d="M555 90q86 12 156 50t119.5 95.5t76.5 132.5t27 161q0 66 -22 130t-65 115q-51 60 -115 100q-63 40 -133.5 56t-143.5 6q-74 -10 -145 -50q-46 -26 -84 -61q-37 -34 -65 -75.5t-46 -89.5q-17 -47 -22 -100q-9 -93 15 -174q25 -82 76 -144.5t126 -102.5t167 -50
q7 -1 13.5 -0.5t11.5 1.5q1 0 1.5 0.5t0.5 1.5q3 7 2.5 13t-2.5 12t-7.5 9.5t-9.5 9.5q0 1 -0.5 1.5t-1.5 0.5q-15 1 -26 2t-19 3q-81 17 -144 62q-64 46 -104 109.5t-53 140.5t9 157q15 58 48 105q33 48 78 83t99 56q55 21 113 26q43 4 85 -1q41 -6 79 -20.5t73 -38.5
q34 -24 64 -56q28 -31 48 -66t31 -74q24 -81 15 -160q-9 -78 -46 -144t-100 -113q-62 -47 -146 -65q-10 -2 -21.5 -3.5t-24.5 -2.5q-32 -1 -23.5 -26t35.5 -22v0zM551 796q-4 -3 -7.5 -6.5t-6.5 -8.5v-1v-2q0 -6 -0.5 -12t-2.5 -12q-1 -1 -0.5 -1.5t0.5 -1.5
q9 -13 17.5 -27.5t16.5 -27.5q19 -28 31.5 -49.5t24.5 -48.5q6 -14 14 -27t17 -25q18 -23 27.5 -50t27.5 -51q13 -18 23 -35t19 -36v-0.5v-0.5q1 -1 0 -2t-2 -1v-1v0q-33 -1 -65.5 -1.5t-66.5 -1.5q-30 -1 -61 2.5t-60 -1.5q-5 -1 -17 -1t-30 1q-20 1 -45 3.5t-50 -0.5
q-24 -3 -47.5 -2t-47.5 2q-1 0 -1 0.5t1 1.5q8 11 12.5 22.5t12.5 22.5q3 3 5.5 7t4.5 9q7 15 16.5 28.5t21.5 25.5q8 9 10.5 18.5t9.5 18.5q12 14 21 28.5t15 28.5q2 6 4 10t3 7q12 20 20.5 40.5t23.5 40.5q8 10 13.5 21l11.5 23q5 11 13 22.5t12 25.5q0 2 -0.5 4t-2.5 3
q-5 3 -10.5 5t-12.5 2h-1t-2 -1q-5 -3 -10.5 -5.5t-11.5 -3.5q-1 0 -1.5 -0.5l-1.5 -1.5q-6 -14 -14 -27.5t-15 -26.5q-6 -14 -13 -27l-14 -26q-9 -16 -21 -32.5t-22 -32.5l-5.5 -11t-11.5 -26q-10 -19 -22.5 -35t-23.5 -33q-8 -14 -16 -33t-20 -35q-1 -1 -1.5 -1t-0.5 1
q-17 66 -7 130t43.5 115t87.5 85q53 34 124 40q29 3 20 27t-33 20q-60 -9 -111 -35t-89 -65.5t-63 -90.5q-24 -51 -31 -112q-5 -43 -1 -82t19 -82q12 -33 35 -64q24 -31 54 -57.5t64 -46.5t66 -30q72 -23 143 -12q71 12 130.5 48.5t101.5 95.5t55 131q7 37 5.5 76t-11.5 79
q-12 50 -38 92q-25 42 -61.5 74t-81.5 52q-45 21 -96 29q-11 2 -19.5 3.5t-20.5 -3.5q-1 0 -1.5 -0.5t-0.5 -1.5q-6 -19 2 -25t16 -19l1 -0.5l1 -0.5h6t6 -1q1 0 1 -0.5t-1 -0.5v0zM732 320q-35 -39 -78.5 -62.5t-93.5 -31.5q-82 -14 -149.5 10t-119.5 85l-1 1h1
q12 2 23.5 1t22.5 -1q19 1 37.5 0t37.5 -5q4 -1 8.5 -1.5t9.5 0.5q12 1 21 1.5t22 -1.5q17 -3 33.5 -2.5t33.5 2.5q4 1 9.5 1h13.5q16 -1 44.5 2.5t55.5 0.5q17 -2 34 -1t35 1h0.5t-0.5 0v0zM567 792q-1 0 -1.5 0.5t-0.5 1.5q-1 0 -0.5 0.5t1.5 0.5q43 -8 80 -27
q37 -20 67 -49t52 -65q21 -36 32 -77q3 -8 4 -17l2 -18q4 -34 0.5 -67t-14.5 -64q-1 -2 -1.5 -2t-1.5 1q-6 9 -11 18t-9 19q0 1 -0.5 1.5l-1.5 1.5q-10 9 -18 28t-11 31q-3 9 -7.5 16t-10.5 13l-4 6t-3 7q-5 15 -13 30t-18 28q-3 3 -6 8t-7 12t-12 18.5t-20 26.5
q-7 10 -13 26t-15 28q-9 13 -17 26.5t-14 28.5q-2 4 -4 6t-4 3v0z" />
</svg>
