<?xml version="1.0" standalone="no"?>
<!DOCTYPE svg PUBLIC "-//W3C//DTD SVG 1.1//EN" "http://www.w3.org/Graphics/SVG/1.1/DTD/svg11.dtd" >
<svg xmlns="http://www.w3.org/2000/svg" xmlns:xlink="http://www.w3.org/1999/xlink" version="1.1" viewBox="-10 0 1034 1024">
   <path fill="currentColor"
d="M555 90q86 12 156 50t119.5 95.5t76.5 132.5t27 161q0 66 -22 130t-65 115q-47 56 -105 94q-59 39 -123.5 57t-133.5 14t-138 -34q-43 -19 -85 -49.5t-73 -67.5q-31 -38 -53 -80q-21 -41 -32.5 -86t-12.5 -93q-2 -48 7 -99q13 -72 46 -131q34 -60 84 -104t114 -71
q63 -28 135 -35q7 -1 13.5 -0.5t11.5 1.5q1 0 1.5 0.5t0.5 1.5q3 7 2.5 13t-2.5 12t-7.5 9.5t-9.5 9.5q0 1 -0.5 1.5t-1.5 0.5q-15 1 -26 2t-19 3q-81 17 -144 62q-64 46 -104 109.5t-53 140.5t9 157q15 58 48 105q33 48 78 83t99 56q55 21 113 26q43 4 85 -1
q41 -6 79 -20.5t73 -38.5q34 -24 64 -56q28 -31 48 -66t31 -74q24 -81 15 -160q-9 -78 -46 -144t-100 -113q-62 -47 -146 -65q-10 -2 -21.5 -3.5t-24.5 -2.5q-32 -1 -23.5 -26t35.5 -22v0zM551 796q-13 -8 -13 -16t-2 -20q0 -1 -0.5 -1.5l-1.5 -1.5q-1 -2 -1 -3.5t2 -3.5
q9 -13 17 -27t16 -27q19 -27 31.5 -49t24.5 -49q6 -14 14 -27t17 -25q18 -23 27.5 -50t27.5 -51q13 -18 23 -35t19 -36v-1v0q1 -1 0 -2l-2 -2v0v0q-30 0 -60 -1l-60 -2q-28 -1 -58 1t-60 3v0v0q-1 0 -1 0.5v0.5v0v1v3q1 1 1 1.5t-1 1.5q-7 12 -14 22t-17 24q-7 9 -12 20
t-9 23q-2 7 -9 13.5t-10 14.5q-4 8 -6 16.5t-7 15.5q-3 5 -7.5 9t-7.5 9q-5 10 -10 20.5t-11 20.5v1v2q13 22 23.5 45.5t25.5 44.5q8 11 13.5 21.5t11.5 22.5q5 11 13 22.5t12 25.5q0 2 -0.5 4t-2.5 3q-5 3 -10.5 5t-12.5 2h-1t-2 -1q-5 -3 -10.5 -5.5t-11.5 -3.5
q-1 0 -1.5 -0.5l-1.5 -1.5q-13 -24 -25.5 -48.5t-25.5 -48.5q-12 -25 -29 -46.5t-28 -46.5q-7 -18 -16 -33t-18 -27q-12 -15 -18.5 -26t-16.5 -33q-4 -9 -9.5 -18.5t-11.5 -17.5q-1 -1 -1.5 -1t-0.5 1q-17 66 -7 130t43.5 115t86.5 85q54 34 125 40q29 3 20 27t-33 20
q-60 -9 -111 -35t-89 -65.5t-63 -90.5q-24 -51 -31 -112q-5 -43 -1 -82t19 -82q12 -33 35 -64q24 -31 54 -57.5t64 -46.5t66 -30q72 -23 143 -12q71 12 130.5 48.5t101.5 95.5t55 131q7 37 5.5 76t-11.5 79q-12 50 -38 92q-25 42 -61.5 74t-81.5 52q-45 21 -96 29
q-11 1 -19.5 3t-20.5 -3q-1 0 -1.5 -0.5t-0.5 -1.5q-6 -19 2 -25t16 -19l1 -0.5l1 -0.5h6t6 -1q1 0 1 -0.5t-1 -0.5v0zM732 320q-35 -39 -78.5 -62.5t-94.5 -31.5q-82 -14 -149 10t-119 85l-1 1l1 1q11 1 22 -0.5t22 -0.5q20 1 40 -0.5t40 -5.5q3 -1 7 -1t8 1q13 2 26 2
t25 -3q16 -2 32 -1.5t31 2.5q4 1 8.5 1h10.5q16 -1 44.5 2.5t55.5 0.5q17 -2 34 -1t35 1h0.5t-0.5 0v0zM392 476q4 -2 6 -6t2 -9v-2v-1q5 -10 10 -15t9 -13q4 -6 12.5 -14t10.5 -20q2 -8 7.5 -14.5t10.5 -12.5v-1.5t-1 -0.5q-11 0 -21.5 0.5t-21.5 1.5q-21 4 -40.5 3
t-40.5 -4q-6 -1 -24.5 -0.5t-50.5 2.5l-0.5 0.5t0.5 1.5q4 6 7.5 12t6.5 13q5 11 11.5 20.5t12.5 20.5q6 13 14.5 24.5t18.5 22.5q11 12 15 26t17 25v0v0h1.5h0.5v0v0q4 -8 8 -15l8 -14q3 -5 4 -10.5t1 -11.5q1 -3 2.5 -5t3.5 -4v0zM567 792q-1 0 -1.5 0.5t-0.5 1.5
q-1 0 -0.5 0.5t1.5 0.5q43 -8 80 -27q37 -20 67 -49t52 -65q21 -36 32 -77q3 -8 4 -17l2 -18q4 -34 0.5 -67t-14.5 -64q-1 -2 -1.5 -2t-1.5 1q-6 9 -11 18t-9 19q0 1 -0.5 1.5l-1.5 1.5q-10 9 -18 28t-11 31q-3 9 -7.5 16t-10.5 13l-4 6t-3 7q-5 15 -13 30t-18 28q-3 3 -6 8
t-7 12t-12 18.5t-20 26.5q-7 10 -13 26t-15 28q-9 13 -17 26.5t-14 28.5q-2 4 -4 6t-4 3v0zM182 894q0 7 -5 12.5t-13 5.5q-7 0 -12.5 -5.5t-5.5 -12.5q0 -8 5.5 -13t12.5 -5q8 0 13 5t5 13v0z" />
</svg>
