<?xml version="1.0" standalone="no"?>
<!DOCTYPE svg PUBLIC "-//W3C//DTD SVG 1.1//EN" "http://www.w3.org/Graphics/SVG/1.1/DTD/svg11.dtd" >
<svg xmlns="http://www.w3.org/2000/svg" xmlns:xlink="http://www.w3.org/1999/xlink" version="1.1" viewBox="-10 0 1034 1024">
   <path fill="currentColor"
d="M555 90q86 12 156 50t119.5 95.5t76.5 132.5t27 161q0 66 -22 130t-65 115q-51 60 -115 100q-63 40 -133.5 56t-143.5 6q-74 -10 -145 -50q-63 -36 -109 -85q-45 -49 -72 -108.5t-35 -125.5q-8 -67 4 -138q13 -72 47 -132q34 -59 84 -103t114 -71q63 -27 134 -34
q8 -1 14 -0.5t11 1.5q1 0 1.5 0.5t0.5 1.5q3 7 2.5 13t-2.5 12t-7.5 9.5t-9.5 9.5q0 1 -0.5 1.5t-1.5 0.5q-15 1 -26 2t-19 3q-81 17 -144 62q-64 46 -104 109.5t-53 140.5t9 157q15 58 48 105q33 48 78 83t99 56q55 21 113 26q43 4 85 -1q41 -6 79 -20.5t73 -38.5
q34 -24 64 -56q28 -31 48 -66t31 -74q24 -81 15 -160q-9 -78 -46 -144t-100 -113q-62 -47 -146 -65q-10 -2 -21.5 -3.5t-24.5 -2.5q-32 -1 -23.5 -26t35.5 -22v0zM155 166q0 10 -7.5 17.5t-18.5 7.5t-18.5 -7.5t-7.5 -17.5q0 -11 7.5 -18.5t18.5 -7.5t18.5 7.5t7.5 18.5z
M551 796q-4 -3 -7.5 -6.5t-6.5 -8.5v-1v-2q0 -6 -0.5 -12t-2.5 -12v-1v-2q16 -26 33 -52.5t34 -52.5q10 -15 17.5 -34t16.5 -36q1 -1 0.5 -1.5t-0.5 -1.5q-4 -5 -7 -10.5t-5 -12.5l-0.5 -1l-0.5 -1q-3 -2 -4 -3.5t-2 -2.5q-4 -10 -10 -18t-15 -13l-1.5 -1.5t-0.5 -1.5
l-3 -12q-1 0 -1.5 -1l-0.5 -1q-11 -8 -14.5 -18t-7.5 -19q-3 -5 -4.5 -10t-3.5 -10q-3 -9 -8.5 -13.5t-8.5 -12.5q-4 -11 -10 -20.5t-13 -19.5q-1 0 -1.5 -0.5t-1.5 -0.5q-1 1 -0.5 2t0.5 2q1 1 1 1.5t-1 1.5q-7 11 -13 21t-14 21q-9 10 -15 22.5t-10 25.5q-2 7 -9 13.5
t-10 13.5q-4 8 -6 17t-7 16q-3 5 -7.5 9t-7.5 9q-5 10 -10 20.5t-11 20.5v1v2q13 22 23.5 45.5t25.5 44.5q8 11 13.5 21.5t11.5 22.5q5 11 13 22.5t12 25.5q0 2 -0.5 4t-2.5 3q-5 3 -10.5 5t-12.5 2h-1t-2 -1q-5 -3 -10.5 -5.5t-11.5 -3.5q-1 0 -1.5 -0.5l-1.5 -1.5
q-13 -24 -25.5 -48.5t-25.5 -48.5q-12 -25 -29 -46.5t-28 -46.5q-7 -18 -16 -33t-18 -27q-12 -15 -18.5 -26t-16.5 -33q-4 -9 -9.5 -18.5t-11.5 -17.5q-1 -1 -1.5 -1t-0.5 1q-17 66 -7 130t43.5 115t86.5 85q54 34 125 40q29 3 20 27t-33 20q-70 -11 -133.5 -48t-103.5 -97
q-42 -64 -55.5 -141t7.5 -150q11 -43 32 -76t53 -64q32 -30 67 -53t77 -36q76 -24 153 -9.5t141 61.5q45 32 75 74q31 41 47 88.5t18 99.5q2 51 -11 104q-12 50 -38 92q-25 42 -61.5 74t-81.5 52q-45 21 -96 29q-11 2 -19.5 3.5t-20.5 -3.5q-1 0 -1.5 -0.5t-0.5 -1.5
q-6 -19 2 -25t16 -19l1 -0.5l1 -0.5h6t6 -1q1 0 1 -0.5t-1 -0.5v0zM732 320q-35 -39 -78.5 -62.5t-94.5 -31.5q-82 -14 -149 10t-119 85l-1 1l1 1q11 1 22 -0.5t22 -0.5q20 1 40 -0.5t40 -5.5q3 -1 7 -1t8 1q13 2 25.5 2t24.5 -2q23 -4 46 -1.5t45 3.5q23 0 45.5 2.5
t46.5 -0.5q17 -2 34 -1t35 1h0.5t-0.5 0v0zM647 495q4 7 5 13.5t6 11.5q1 3 3 6l4 6h0.5t0.5 -1q2 -5 5 -11l6 -12q6 -12 11.5 -27t14.5 -26q15 -19 27.5 -40t21.5 -44v0v0q1 0 0.5 -0.5l-1.5 -1.5v0v0q-43 -1 -88.5 -2.5t-89.5 0.5v0v0q-1 0 -1.5 0.5l-0.5 0.5l0.5 0.5
l0.5 0.5q1 5 4.5 9.5t4.5 9.5q5 15 13 28t18 24q6 5 8 15t8 17q4 6 10.5 11.5t8.5 11.5v0zM392 476q4 -2 6 -6t2 -9v-2v-1q5 -10 10 -15t9 -13q4 -7 12 -14.5t12 -19.5q2 -8 7 -14.5t10 -12.5v-1.5t-1 -0.5q-11 0 -21.5 0.5t-21.5 1.5q-21 3 -40.5 2.5t-40.5 -3.5
q-6 -1 -24.5 -0.5t-50.5 2.5l-0.5 0.5t0.5 1.5q4 6 7.5 12t6.5 13q5 11 11.5 20.5t12.5 20.5q6 13 14.5 24.5t18.5 22.5q11 12 15 26t17 25v0v0h1.5h0.5v0v0q4 -8 8 -15l8 -14q3 -5 4 -10.5t1 -11.5q1 -3 2.5 -5t3.5 -4v0zM567 792q-1 0 -1.5 0.5t-0.5 1.5q-1 0 -0.5 0.5
t1.5 0.5q43 -8 80 -27q37 -20 67 -49t52 -65q21 -36 32 -77q3 -8 4 -17l2 -18q4 -34 0.5 -67t-14.5 -64q-1 -2 -1.5 -2t-1.5 1q-6 9 -11 18t-9 19q0 1 -0.5 1.5l-1.5 1.5q-11 10 -19.5 32t-12.5 35q-1 4 -5 9.5t-11 13.5q-2 2 -4.5 7t-5.5 14q-5 13 -10.5 23.5t-13.5 20.5
q-12 17 -23 34t-23 33q-8 10 -14 26.5t-15 29.5q-10 13 -18 27t-15 28q-1 4 -3 6t-4 3v0z" />
</svg>
