<?xml version="1.0" standalone="no"?>
<!DOCTYPE svg PUBLIC "-//W3C//DTD SVG 1.1//EN" "http://www.w3.org/Graphics/SVG/1.1/DTD/svg11.dtd" >
<svg xmlns="http://www.w3.org/2000/svg" xmlns:xlink="http://www.w3.org/1999/xlink" version="1.1" viewBox="-10 0 1034 1024">
   <path fill="currentColor"
d="M881 140l-30 -16v-1.5v-0.5l30 -16l1.5 -1.5l1.5 -1.5l16 -29q0 -1 0.5 -1t0.5 1l16 29l1.5 1.5l0.5 0.5l31 17q1 0 1 0.5t-1 1.5l-30 16l-1.5 1.5l-0.5 0.5l-17 30q0 1 -0.5 1t-0.5 -1l-16 -29l-1.5 -1.5l-1.5 -1.5v0zM275 264v0v0q0 1 0.5 1h0.5v-0.5v-0.5
q48 -45 104 -70t115 -28.5t117 15.5t110 60q3 3 5 6t5 6q0 1 1 1.5t2 0.5q4 1 8 3.5t7 6.5v0v0q1 1 2 1t2 -1v0v0l22 -19v0v0q1 0 1 -1t-1 -2v0v0l-11 -10q-1 0 -1 -1v-1l17 -33q2 -4 5 -4.5t6 2.5l28 26l1 0.5l1 0.5q14 0 30.5 2.5t28.5 9.5q12 8 21 13t16 21q0 2 -0.5 4
t-1.5 3q-5 4 -11 6.5t-12 4.5h-2t-2 -1q-4 -2 -8.5 -1.5t-8.5 2.5h-1.5t-1.5 -1q-6 -7 -13.5 -9t-17.5 -3q-21 -4 -39.5 10t-17.5 37q0 1 0.5 1.5l1.5 1.5q1 2 1.5 5t0.5 7q-1 4 -0.5 7t1.5 6q4 8 9 17t14 13q7 3 14.5 4t15.5 -1q23 -5 39 -18t12 -41q-1 -13 7 -21.5
t21 -4.5q30 8 19.5 43t-20.5 52v1.5v1.5q13 49 16 100q4 50 -4.5 99t-28.5 95t-53 85q-57 67 -127 108t-146.5 53t-155.5 -7q-78 -18 -151 -69q-53 -38 -91 -88t-59.5 -108t-25.5 -120q-4 -63 10 -127q1 -8 2.5 -13.5t1.5 -8.5v-1.5t-1 -1.5q-9 -13 -17 -36t0 -39
q1 -3 3.5 -4t5.5 -1q8 0 14.5 3.5t11.5 9.5q2 4 4 5l6 3q1 0 1.5 0.5t0.5 1.5q0 9 4 17t10 15q10 14 31.5 20t35.5 -8q1 0 1.5 -1t0.5 -2q1 -12 10 -12t7 -14v-1.5v-1.5l11 -21q0 -1 0.5 -1.5t-0.5 -1.5q-2 -10 -6.5 -18t-13.5 -14q-22 -14 -44.5 -16t-37.5 25l-1.5 1.5
t-1.5 0.5l-13 5q-3 1 -6 1t-5 -2q-29 -27 -2 -47t48 -28q7 -3 15.5 -2.5t16.5 -1.5q1 0 2 -0.5l1 -0.5q57 -59 127 -93t153 -43q7 -1 13.5 -0.5t11.5 1.5q1 0 1.5 0.5t0.5 1.5q3 7 3 13t-3 12q-2 6 -7.5 9.5t-9.5 9.5q0 1 -0.5 1.5t-1.5 0.5q-66 3 -125.5 31t-107.5 72v0v0
q-1 1 -0.5 1.5l0.5 0.5v0v0q6 6 13 10t10 11v0zM727 313q-32 -37 -82 -60t-98 -29q-76 -10 -138.5 12.5t-112.5 77.5q0 1 -0.5 2l-0.5 1l1 5q1 1 1.5 1h1.5q30 -1 59 -1t59 -7q9 -2 20 1t21 2q12 -1 24 -3t23 -2q16 1 31.5 2.5t30.5 2.5q20 0 41 2.5t42 0.5q18 -2 36 -2
t37 1q5 1 6 -1t-2 -6v0zM647 495q3 7 4.5 13t5.5 12q2 3 3.5 5.5t3.5 4.5h0.5h0.5q0 1 0.5 1t0.5 -1v0v0q7 -13 13 -25.5t11 -25.5q6 -14 13.5 -24.5t15.5 -21.5q7 -10 12.5 -20.5t11.5 -21.5v-1v-2l-8 -18l-0.5 -0.5t-1.5 -0.5q-37 0 -78 -2t-82 0h-0.5h-0.5l-0.5 0.5
t0.5 1.5v0v0q6 12 13 29.5t16 27.5q7 8 12.5 16t8.5 18q1 4 3 7.5t4 5.5q4 6 10 11.5t8 10.5v0zM392 476q4 -2 6 -6t2 -9v-2v-1q3 -5 6.5 -10.5t7.5 -9.5q2 -1 3.5 -4.5t2.5 -5.5q7 -7 13.5 -14.5t9.5 -17.5q2 -8 7 -14.5t10 -12.5v-1.5t-1 -0.5q-11 0 -21.5 0.5t-21.5 1.5
q-32 5 -62 1t-63 -1l-0.5 0.5l-1.5 1.5l-14 23q-1 0 -1 1v2q3 9 9 16.5t10 14.5q8 17 18 31.5t23 28.5q2 2 4 5.5t3 6.5q4 9 8.5 17.5t11.5 17.5v0v0q1 1 2.5 1t2.5 -1v-0.5t1 -0.5l6.5 -13t7.5 -14q3 -5 4 -11t1 -11q1 -3 2.5 -5t3.5 -4v0zM624 553q-5 -7 -8.5 -13.5
t-7.5 -12.5q-3 -6 -8 -9.5t-10 -7.5q-1 -1 -1 -1.5v-1.5q-1 -5 -2 -8t-6 -7q-9 -8 -12.5 -17.5t-7.5 -19.5l-4 -10t-3 -10q-3 -8 -8.5 -13t-9.5 -13q-4 -10 -9 -19t-12 -17q-1 -2 -3.5 -3.5t0.5 4.5v1.5t-1 1.5q-8 14 -17.5 28t-18.5 27q-9 12 -12 25t-13 24q-4 4 -6.5 7.5
t-4.5 6.5q-3 7 -5 15.5t-6 15.5q-4 6 -9 10.5t-8 10.5q-1 3 -2.5 6t-3.5 6q0 1 0.5 1h0.5q8 -1 16 0t13 2q7 0 13 0.5t13 0.5q9 0 18.5 -1.5t18.5 -2.5q11 0 22 2t23 1l4.5 -1l13.5 -3q13 -3 22 0t20 3q5 0 9 -0.5t8 -0.5t5 -2t-1 -5v0zM565 794q-1 1 -0.5 1.5t1.5 -0.5
q41 -9 76.5 -27t65.5 -45q31 -28 53 -62q21 -34 32.5 -72t11.5 -79q1 -41 -11 -82q0 -1 -0.5 -1.5t-1.5 -0.5l-12 -6v0v0h-1t-1 1v0v0q-4 11 -8 18t-7 12q-11 15 -18.5 32t-12.5 35q-1 3 -5 8.5t-11 13.5q-2 2 -4.5 7.5t-5.5 13.5q-5 13 -10.5 23t-13.5 21
q-13 17 -23.5 34.5t-23.5 34.5q-8 10 -13.5 25t-13.5 26q-4 6 -8 12.5t-8 12.5q-6 9 -12 21t-15 23v0zM538 799q3 -1 5.5 -1.5t4.5 0.5q4 0 4.5 -0.5t-3.5 -3.5q-14 -9 -11.5 -18.5t-3.5 -20.5q-1 0 -1 -1t1 -2q14 -24 29.5 -48.5t30.5 -48.5q8 -12 14 -23t11 -23q1 -3 0 -4
t-3 0q-8 3 -16 2t-13 -1q-7 1 -15 2.5t-16 4.5q-2 1 -3 0.5t-2 -0.5q-5 -2 -9 -2.5t-10 1.5q-9 3 -18 3.5t-18 -3.5q-2 -1 -4 -1h-3t-2 0.5l-1 0.5l-24 -4t-23 0q-10 2 -17.5 1.5t-16.5 -1.5v0v0q-1 0 -1 0.5v0.5v0v0q6 18 14.5 34.5t19.5 31.5q9 13 15 25t13 25
q6 11 13.5 22t10.5 25v2t-1 1q-15 16 -25 9t-25 -9q-1 0 -1.5 -0.5l-0.5 -0.5q-7 -15 -15 -28.5t-15 -26.5q-13 -30 -29.5 -57.5t-36.5 -53.5q-4 -6 -9 -15.5t-10 -23.5q-10 -24 -28 -44t-28 -43q-6 -17 -13.5 -30.5t-14.5 -24.5h-1l-1 1q-16 64 -8 125t38 111t80 85t117 47
q7 1 17 1t17 5q14 11 6.5 25t-20.5 18q-4 1 -10 0.5t-14 -1.5q-69 -15 -124 -49t-92.5 -83.5t-54.5 -112.5q-18 -62 -13 -132q0 -9 1.5 -17.5t3.5 -16.5v0v0q0 -1 -0.5 -1.5t-1.5 -0.5v0v0l-31 -6q-1 -1 -1.5 -0.5t-0.5 1.5v0v0q-17 74 -5 149.5t55 138.5q23 34 52 62t63 49
t72 35q37 14 78 20q74 10 144 -5.5t130 -60.5q46 -35 78 -79q31 -44 49 -94t21 -105q4 -54 -8 -110v0v0q0 -1 -0.5 -1h-1.5v0v0q-6 3 -13 6t-15 4q0 1 -0.5 1.5l-0.5 0.5q7 39 6 80q-1 40 -10.5 79t-26.5 75q-18 36 -45 65q-38 42 -89 70t-107 37q-13 2 -25.5 5t-25.5 -4
q-1 0 -1.5 -1l-0.5 -1q-2 -12 1 -20.5t12 -14.5q2 -1 3 -2.5t2 -3.5q0 -1 0.5 -1.5t1.5 -0.5v0zM678 125q2 1 2 1.5t-2 0.5q-9 5 -22.5 12t-15.5 18v0v0q0 1 -0.5 1h-1.5v0v0q-22 -9 -45.5 -13.5t-46.5 -6.5q-12 0 -22 -7t-4 -20q5 -13 15 -18t25 -3q30 5 59.5 13.5
t58.5 21.5v0zM795 154q1 1 1 2t-1 1l-32 18q-1 0 -1.5 1t-1.5 1l-18 33q0 1 -0.5 1t-0.5 -1l-19 -33l-1.5 -1.5l-1.5 -1.5l-32 -17q-1 -1 -1 -1.5t1 -0.5l33 -18l1.5 -1.5l0.5 -0.5l18 -34h1.5h0.5q4 7 7.5 13.5t6.5 13.5q5 9 17 15l22 11v0zM188 912l-16 30q-1 1 -1.5 1
t-0.5 -1l-16 -30l-1 -0.5t-1 -1.5l-30 -16q-1 -1 -1 -1.5t1 -0.5l29 -16q1 0 1.5 -0.5t0.5 -1.5l17 -30q0 -1 0.5 -1t1.5 1l17 30q0 1 0.5 1.5l1.5 1.5l29 15q1 1 1 1.5t-1 0.5l-30 16l-1 1l-1 1v0z" />
</svg>
