<?xml version="1.0" standalone="no"?>
<!DOCTYPE svg PUBLIC "-//W3C//DTD SVG 1.1//EN" "http://www.w3.org/Graphics/SVG/1.1/DTD/svg11.dtd" >
<svg xmlns="http://www.w3.org/2000/svg" xmlns:xlink="http://www.w3.org/1999/xlink" version="1.1" viewBox="-10 0 1034 1024">
   <path fill="currentColor"
d="M899 106l31 16v0.5v1.5l-30 15l-1.5 1.5t-0.5 1.5l-17 30q0 1 -0.5 1t-1.5 -1l-16 -30l-0.5 -0.5l-1.5 -1.5l-30 -16q-1 -1 -1 -1.5t1 -0.5l30 -16l1.5 -1.5t0.5 -1.5l16 -30q1 -1 1.5 -1t0.5 1l16 30l1.5 1.5t0.5 1.5v0zM765 233q-2 -3 -4.5 -5.5t-5.5 -3.5
q-1 -1 -2 -1.5t-2 -1.5t-1 -2t1 -1q6 -13 10.5 -19t18.5 -12h1.5t1.5 1l37 34l1 0.5t2 0.5q21 0 40.5 6t37.5 18q7 4 11 10.5t6 14.5v1.5t-1 1.5q-5 4 -11.5 7t-12.5 5h-2t-2 -1q-4 -2 -8.5 -1.5t-8.5 2.5h-1.5t-1.5 -1q-2 -2 -5 -4.5t-7 -3.5q-23 -8 -41 -3t-31 24
q-3 5 -3.5 10.5t-0.5 11.5v1t1 1q2 3 2.5 6t0.5 7q-1 4 -0.5 7.5t2.5 6.5q4 8 8.5 16.5t13.5 12.5q7 3 14.5 4t15.5 -1q23 -5 39 -18t12 -41q-1 -13 7 -21.5t21 -5.5q30 8 19.5 43.5t-20.5 52.5v1.5v1.5q21 78 16.5 154.5t-37.5 150.5q0 1 -0.5 1t-0.5 -1l-32 -60v-1.5v-1.5
q16 -52 19 -104.5t-8 -106.5v0v0q0 -1 -0.5 -1.5t-1.5 0.5v0v0q-6 3 -13 6t-15 4q0 1 -0.5 1.5l-0.5 0.5q8 46 5.5 91t-15.5 89q-7 23 -18.5 45.5t-23.5 43.5q-1 2 -3 3.5t-4 2.5q-14 8 -28 15.5t-29 15.5q-12 6 -17.5 15t6.5 21v0v0q1 1 1 1.5t-1 0.5v0v0
q-21 16 -40.5 26.5t-36.5 16.5q-6 3 -11 5t-8 3q-1 0 -1 1v2q0 9 -1.5 18t-3.5 17v1v0l0.5 0.5l0.5 0.5h0.5h0.5q38 -10 71.5 -28t63.5 -44h1.5h1.5q7 3 22 10.5t17 15.5v1.5t-1 1.5q-60 55 -131 82q-70 28 -143 28.5t-145 -25.5q-71 -25 -133 -76q-41 -34 -71 -75
q-29 -41 -47.5 -88t-25.5 -98t-3 -103q1 -20 3 -34t5 -24q2 -7 3 -12t1 -10v-1.5t-1 -1.5q-8 -13 -16.5 -36t-0.5 -39q1 -3 3.5 -4t5.5 -1q8 0 14.5 3.5t11.5 9.5q2 4 4 5l6 3q1 0 1.5 0.5t0.5 1.5q0 10 4 17.5t10 15.5q11 14 32 19.5t35 -8.5q1 0 1.5 -1t0.5 -2
q1 -12 10 -12t7 -14v-1.5v-1.5l11 -21q0 -1 0.5 -1.5t-0.5 -1.5q-2 -10 -6.5 -18t-13.5 -14q-22 -14 -44.5 -16t-37.5 25l-1.5 1.5t-1.5 0.5l-13 5q-3 1 -6 1t-5 -2q-29 -27 -2 -47t48 -28q7 -3 15.5 -2.5t16.5 -1.5q1 0 2 -0.5l1 -0.5q57 -59 127 -93t153 -43
q7 -1 13.5 -0.5t11.5 1.5q1 0 1.5 0.5t0.5 1.5q3 7 3 13t-3 12q-2 6 -7.5 9.5t-9.5 9.5q0 1 -0.5 1.5t-1.5 0.5q-66 3 -125.5 31t-107.5 72v0v0q-1 1 -0.5 1.5l0.5 0.5v0v0q6 6 12 9.5t11 10.5v0.5v0.5h1h1v0v0q33 -32 74 -56t85 -34q64 -15 130 -4t120 47q3 2 6 4.5t5 6.5
q4 8 13 23t23 0h1h1l16 14h1.5h1.5l22 -19v0v0v-1v-1v0v0l-11 -11v0zM713 300q-37 -34 -80.5 -53t-93.5 -24q-73 -8 -134 15t-109 76q0 1 -0.5 2l-0.5 1l2 5q0 1 0.5 1h1.5q30 -1 59 -1t59 -7q9 -2 20 1t21 2q12 -1 24 -3t23 -2q16 1 31.5 2.5t30.5 2.5q20 0 41 2.5t42 0.5
q18 -2 36 -2t37 1q5 1 6 -1t-2 -6l-6.5 -6.5t-7.5 -6.5v0zM647 495q3 7 4.5 13t5.5 12q2 3 3.5 5.5t3.5 4.5h0.5t0.5 1h0.5t0.5 -1v0v0l6 -12t6 -11q6 -13 12 -28.5t16 -27.5q12 -16 21 -31t16 -29v-2v-1l-8 -18l-1 -0.5l-1 -0.5q-37 0 -78 -2t-82 0h-0.5h-0.5l-0.5 0.5
t0.5 1.5v0v0q6 12 13 29.5t16 27.5q7 8 12.5 16t8.5 18q1 4 3 7.5t4 5.5q4 6 10 11.5t8 10.5v0zM392 476q4 -2 6 -6t2 -9v-2v-1q3 -5 6.5 -10.5t7.5 -9.5q2 -1 3.5 -4.5t2.5 -5.5q7 -7 13.5 -14.5t9.5 -17.5q2 -8 7 -14.5t10 -12.5v-1.5t-1 -0.5q-11 0 -21.5 0.5t-21.5 1.5
q-32 5 -62 1t-63 -1l-0.5 0.5l-1.5 1.5l-14 23q-1 0 -1 1v2q3 9 9 16.5t10 14.5q8 17 18 31.5t23 28.5q2 2 4 5.5t3 6.5q4 9 8.5 17.5t11.5 17.5v0v0q1 1 2.5 1t2.5 -1v-0.5t1 -0.5l6.5 -13t7.5 -14q3 -5 4 -11t1 -11q1 -3 2.5 -5t3.5 -4v0zM624 553q-5 -7 -8.5 -13.5
t-7.5 -12.5q-3 -6 -8 -9.5t-10 -7.5q-1 -1 -1 -1.5v-1.5q-1 -5 -2 -8t-6 -7q-9 -8 -12.5 -17.5t-7.5 -19.5l-4 -10t-3 -10q-3 -8 -8.5 -13t-9.5 -13q-4 -10 -9 -19t-12 -17q-1 -2 -3.5 -3.5t0.5 4.5v1.5t-1 1.5q-8 14 -17.5 28t-18.5 27q-9 12 -12 25t-13 24q-4 4 -6.5 7.5
t-4.5 6.5q-3 7 -5 15.5t-6 15.5q-4 6 -9 10.5t-8 10.5q-1 3 -2.5 6t-3.5 6q0 1 0.5 1h0.5q8 -1 16 0t14 2h12t12 1q16 1 29.5 -1.5t30.5 -0.5q19 3 35 -2t33 0q9 2 16.5 1.5t15.5 -0.5q4 0 5 -2t-1 -5v0zM791 425q-2 -2 -5 -3l-6 -2q-1 0 -1.5 0.5l-0.5 0.5q-4 10 -7.5 17
t-7.5 13q-11 16 -18.5 32.5t-12.5 33.5q-1 4 -5 9.5t-11 13.5q-3 2 -6.5 10.5t-8.5 22.5q-1 5 -7 14.5t-15 21.5q-12 15 -21.5 31t-25.5 38q-2 2 -5.5 10t-9.5 21q-5 12 -12.5 22.5t-14.5 22.5v1t1 2l16 25q1 1 1.5 1h1.5q55 -21 96 -58q42 -36 66.5 -83.5t30.5 -102.5
q7 -55 -9 -112v-0.5t-1 -0.5v0v0q-1 -1 -1.5 -1h-0.5v0zM412 832q-51 -17 -93 -47q-42 -29 -72.5 -68.5t-49.5 -87.5q-18 -47 -22 -101q-1 -25 -0.5 -48t5.5 -47q0 -1 -0.5 -1.5t-1.5 -0.5l-31 -6q-1 -1 -1.5 -0.5t-0.5 1.5q-17 74 -6 143q11 70 45 128t89 102t126 67
q5 2 9.5 3t9.5 2h0.5h0.5l0.5 -0.5l0.5 -0.5v-0.5v-0.5l-7 -36v-0.5t-1 -0.5v0zM236 428q-14 56 -9 111q5 56 28 104t64 85t98 56v0v0q1 0 1.5 -0.5l0.5 -0.5v0v0q2 -5 4.5 -9.5t6.5 -7.5q1 -1 1 -1.5v-1.5q-4 -9 -9 -17t-9 -15q-15 -32 -25 -51t-14 -24q-13 -20 -27 -40
t-23 -42q-7 -17 -16 -30.5t-19 -26.5q-17 -21 -27 -44.5t-24 -45.5h-1l-1 1v0zM594 606q-11 -1 -21 2t-18 5h-2h-2q-6 -2 -12 -2.5t-12 2.5q-7 2 -12.5 2t-12.5 -1l-10 -2t-8 -1q-11 0 -22.5 -2.5t-22.5 -0.5q-9 2 -17 1.5t-17 -1.5v0v0q-1 0 -1 0.5v0.5v0v0q6 19 15.5 36.5
t20.5 33.5q10 13 16.5 26.5t13.5 27.5v0v0q1 1 1.5 1h1.5q17 -10 35.5 -11t37.5 5q1 1 1.5 0.5t1.5 -0.5q17 -30 37 -59t33 -61q1 -2 0.5 -2.5t-2.5 -0.5q-6 1 -11.5 1.5t-11.5 -0.5v0zM560 798q-6 -1 -11.5 -4t-9.5 -8q0 -1 -0.5 -1.5l-1.5 -1.5q-13 -4 -27.5 -5t-25.5 7
q-13 9 -16 23.5t-6 32.5q-1 16 11 28t25 15q1 0 1.5 0.5l1.5 1.5q3 7 7 12t0 14v0v0q0 1 0.5 1.5l0.5 0.5v0v0q3 1 5 1t5 -1l0.5 -0.5l1.5 -1.5l2 -9q0 -1 0.5 -1.5l1.5 -1.5q4 -3 5.5 -6.5t2.5 -7.5q0 -1 0.5 -1.5l0.5 -0.5q25 -11 35 -36t-6 -48l-1.5 -1.5t-1.5 -0.5v0z
M668 121h1l-1 1q-9 5 -25 12.5t-22 15.5q0 1 -1 1h-1q-18 -5 -36.5 -8.5t-36.5 -4.5q-36 -2 -26.5 -26.5t36.5 -21.5q29 4 57 11.5t55 19.5zM740 177l-18 33l-1 1l-1 -1l-16 -31l-1.5 -1.5t-1.5 -0.5l-34 -20q-2 0 -2 -1t2 -1l33 -18l1.5 -1.5t0.5 -1.5l18 -33h1h1l20 35
q0 1 0.5 1.5l1.5 1.5l31 16q1 1 1 1.5t-1 0.5l-33 18q0 1 -1 1.5zM770 765q-1 -1 -1 -1.5t1 -1.5l46 -24l1.5 -1.5l1.5 -1.5l25 -46h0.5h0.5l25 45q0 2 1.5 3t2.5 2l45 24q1 0 1 1t-1 1l-46 25q-1 0 -1.5 1t-1.5 1l-25 46q0 1 -0.5 1t-0.5 -1l-25 -45q0 -1 -1.5 -2.5
t-2.5 -1.5l-45 -24v0zM101 893q-1 0 -1 -0.5t1 -0.5l30 -16l1 -0.5t1 -1.5l17 -31q0 -1 0.5 -1t0.5 1l16 30l1.5 1.5t1.5 0.5l30 17l1 1l-1 1l-30 16q-1 0 -1.5 1l-0.5 1l-17 30q0 1 -0.5 1t-0.5 -1l-16 -30q-1 0 -1.5 -0.5l-1.5 -1.5l-30 -17v0z" />
</svg>
