<?xml version="1.0" standalone="no"?>
<!DOCTYPE svg PUBLIC "-//W3C//DTD SVG 1.1//EN" "http://www.w3.org/Graphics/SVG/1.1/DTD/svg11.dtd" >
<svg xmlns="http://www.w3.org/2000/svg" xmlns:xlink="http://www.w3.org/1999/xlink" version="1.1" viewBox="-10 0 1044 1024">
   <path fill="currentColor"
d="M1024 862q-6 1 -11.5 2t-11.5 2q-40 1 -68.5 -26t-29.5 -67q-1 -39 26 -67.5t66 -30.5q8 0 15 1t14 3v183v0zM1024 479q-5 2 -11 2.5t-11 0.5q-25 1 -46 -9t-36 -27q8 12 13.5 26t7.5 29q25 8 41 28.5t17 47.5q1 33 -22 57.5t-57 25.5q-11 0 -21 -2.5t-19 -7.5l-39 19
q0 48 -33.5 82.5t-81.5 36.5q-23 0 -43 -7t-36 -20l-472 222l-50 19.5t-89 -17.5q-33 -30 -19.5 -68.5l13.5 -38.5l300 -748q8 -22 22 -41t32 -34q-3 -6 -5 -13.5t-2 -15.5q0 -7 1 -13.5t4 -12.5h130q2 5 3.5 10.5t1.5 11.5v1.5v1.5q32 7 58.5 25.5t44.5 45.5
q5 -40 35 -67.5t71 -28.5q5 0 9.5 0.5t8.5 0.5v-0.5v-0.5h124q-2 19 -14.5 33t-30.5 19q8 12 13.5 32.5t5.5 35.5v1v1l-441 433l-60 -162l-195 475l462 -229l-163 -45l579 -558v234q-2 -4 -4 -9.5t-3 -10.5q-1 -2 -1 -4.5t-1 -5.5q-2 1 -5 1h-6q-16 1 -32 -2t-30 -9
q3 7 4.5 15t1.5 16q0 7 -1 14.5t-2 14.5q11 -7 23.5 -11t26.5 -4q8 -1 15 0t14 3v201v0zM341 0q-1 4 -2 7.5t-3 6.5q-11 26 -36 38.5t-52 6.5q-28 28 -68.5 36t-79.5 -8q-29 -13 -48.5 -36t-27.5 -51h317zM963 0l-112 113v-3t-1 -3q0 -29 9 -56.5t26 -50.5h78v0zM638 0
q1 14 -9 24.5t-25 11.5q-14 0 -25 -10t-11 -24v-1.5v-0.5h70zM831 799q27 -1 47.5 18t21.5 47t-18.5 48.5t-46.5 21.5q-28 1 -48.5 -18.5t-21.5 -47.5t18.5 -48t47.5 -21v0zM122 173q40 -1 68.5 26t29.5 66t-26 67.5t-66 29.5t-67.5 -26t-29.5 -66t25.5 -67.5t65.5 -29.5v0z
M240 120q17 0 29 11.5t12 27.5q1 17 -10.5 29t-28.5 13q-16 0 -28.5 -11t-12.5 -28q-1 -17 10.5 -29t28.5 -13zM773 505q-22 0 -37.5 15.5t-15.5 37.5t15.5 37.5t37.5 15.5q23 0 38.5 -15.5t15.5 -37.5t-15.5 -37.5t-38.5 -15.5v0zM445 320q-14 0 -24 9.5t-10 23.5t10 24
t24 10q13 0 23 -10t10 -24t-10 -23.5t-23 -9.5zM900 345q-9 5 -19.5 8t-22.5 3q-18 1 -35 -6t-30 -19q-2 14 -7 27.5t-12 24.5q5 -1 10.5 -1.5t10.5 -0.5q35 -1 65 13.5t50 38.5q-7 -11 -11 -24t-4 -27q-1 -10 0.5 -19.5t4.5 -17.5v0zM488 124q-23 0 -39.5 16.5t-16.5 40.5
q0 23 16.5 39.5t39.5 16.5q24 0 40.5 -16.5t16.5 -39.5q0 -24 -16.5 -40.5t-40.5 -16.5v0z" />
</svg>
