<?xml version="1.0" standalone="no"?>
<!DOCTYPE svg PUBLIC "-//W3C//DTD SVG 1.1//EN" "http://www.w3.org/Graphics/SVG/1.1/DTD/svg11.dtd" >
<svg xmlns="http://www.w3.org/2000/svg" xmlns:xlink="http://www.w3.org/1999/xlink" version="1.1" viewBox="-10 0 1044 1024">
   <path fill="currentColor"
d="M298 530q-3 13 -4 25t-1 23q0 45 17 84q16 39 45.5 68t68.5 46t83 17q45 0 84 -17t68 -46t46 -68t17 -84q0 -55 -29 -140q-30 -84 -67.5 -163t-71.5 -135q-35 -57 -47 -57q-10 0 -41 49t-66 120q28 21 44.5 53t16.5 69q0 65 -46 110.5t-110 45.5h-4h-3v0zM882 270
q0 34 -24 58t-57 24q-34 0 -58 -24t-24 -58q0 -33 24 -57t58 -24q33 0 57 24t24 57v0zM696 103q0 17 -12.5 29.5t-30.5 12.5q-17 0 -29.5 -12.5t-12.5 -29.5q0 -18 12.5 -30t29.5 -12q18 0 30.5 12t12.5 30zM387 374q0 34 -24 58t-58 24t-58 -24t-24 -58t24 -58t58 -24
t58 24t24 58zM0 588h166q0 6 -0.5 13t-0.5 14q0 70 27 131q26 62 72 108t108 72q61 27 131 27t132 -27q61 -26 107 -72t73 -108q26 -61 26 -131v-14t-1 -13h184v436h-1024v-436v0z" />
</svg>
