<?xml version="1.0" standalone="no"?>
<!DOCTYPE svg PUBLIC "-//W3C//DTD SVG 1.1//EN" "http://www.w3.org/Graphics/SVG/1.1/DTD/svg11.dtd" >
<svg xmlns="http://www.w3.org/2000/svg" xmlns:xlink="http://www.w3.org/1999/xlink" version="1.1" viewBox="-10 0 1044 1024">
   <path fill="currentColor"
d="M1024 773l-110 -180l-80 -451l-244 -43l127 117l2 83q-16 63 -16.5 112t8.5 90q-35 -34 -35.5 -103t23.5 -112l-128 -121l-245 -120l-227 101l212 4l180 136l-11 19l-253 -98l-188 107l214 -18l173 93l-4 9l-259 -51l-133 118l160 -40l149 78l-4 11l-167 -28l-146 131
l179 -55l131 60l26 29q27 30 63.5 68t73.5 73q38 34 59 45q59 27 101 28.5l42 1.5q31 -2 46.5 -7.5t45.5 -22.5q-21 30 -49.5 37.5t-65.5 7.5l54 142h296v-251v0zM202 659l-29 79l-80 29l80 30l29 79l29 -79l80 -30l-80 -29l-29 -79v0zM932 79l-17 46l-45 17l45 17l17 45
l17 -45l45 -17l-45 -17zM440 829l-17 45l-46 17l46 17l17 45l17 -45l45 -17l-45 -17z" />
</svg>
