<?xml version="1.0" standalone="no"?>
<!DOCTYPE svg PUBLIC "-//W3C//DTD SVG 1.1//EN" "http://www.w3.org/Graphics/SVG/1.1/DTD/svg11.dtd" >
<svg xmlns="http://www.w3.org/2000/svg" xmlns:xlink="http://www.w3.org/1999/xlink" version="1.1" viewBox="-10 0 1034 1024">
   <path fill="currentColor"
d="M0 979l69 -120l221 -491l12 -29t30.5 -65t41.5 -69t44 -42l34 77l26.5 -24t68.5 -34v123l59.5 4t89.5 52t55.5 91.5t81.5 48.5l9.5 7.5t-2.5 66.5t-38 103.5t-124 46.5q-98 3 -104 45.5t2 90.5q6 29 26 74t39 89h-39q-7 -24 -15 -36l-8 -12l2 48h-9l-24 -17v8.5t1 8.5
h-549v-45v0zM633 441l8.5 28t47.5 17l-3 -34t-53 -11zM856 180q19 -35 51 -38t51 14q20 18 20 50.5t-20 67.5q-13 26 -43 51t-59 43q-28 -18 -58.5 -43t-43.5 -51q-19 -35 -19 -67.5t19 -50.5q19 -17 51 -14t51 38v0zM639 74q10 -17 25 -18.5t24 6.5q9 9 9 24.5t-9 31.5
q-6 13 -20.5 25t-28.5 20q-13 -8 -27.5 -20t-20.5 -25q-9 -16 -9 -31.5t9 -24.5q9 -8 24 -6.5t24 18.5z" />
</svg>
