<?xml version="1.0" standalone="no"?>
<!DOCTYPE svg PUBLIC "-//W3C//DTD SVG 1.1//EN" "http://www.w3.org/Graphics/SVG/1.1/DTD/svg11.dtd" >
<svg xmlns="http://www.w3.org/2000/svg" xmlns:xlink="http://www.w3.org/1999/xlink" version="1.1" viewBox="-10 0 1034 1024">
   <path fill="currentColor"
d="M33 1024q-11 -28 -17 -56.5t-7 -58.5q-2 -3 2.5 -6.5t11.5 -5.5l36 -7q7 -2 13 -0.5t7 5.5q0 34 7 66t21 63h-74v0zM355 1024q-24 -29 -36 -65t5 -43q35 0 70 -3.5t70 -10.5l-29 -125q-39 8 -78.5 13.5t-79.5 8.5q-7 2 -13 -2t-8 -12l-8 -35q-2 -8 2 -14t11 -8
q40 -2 79.5 -7t78.5 -13l-10 -42q-33 6 -66.5 10t-67.5 6q-6 1 -11.5 -3.5t-7.5 -11.5l-8 -37q-2 -8 1 -14.5t9 -7.5q34 -1 67.5 -4t67.5 -10l-22 -92q-15 0 -29.5 -1t-29.5 -3q-11 -1 -18.5 -2t-17.5 -6q-3 -1 -4.5 -3t-1.5 -5q-4 -39 -12 -78.5t-12 -78.5
q-3 -26 -30 -27.5t-27 -29.5q1 -15 2.5 -30.5t4.5 -32.5q13 -67 52.5 -125t115.5 -70q7 -1 15 -2t16 -1h1v1v0h19h0.5h0.5q8 0 16 1t15 3q76 16 112.5 75t46.5 127q3 17 4 32.5t1 30.5q-1 28 -28.5 28.5t-31.5 26.5q-5 38 -15.5 76.5t-15.5 76.5q-1 3 -2.5 5t-4.5 3
q-10 5 -17 6.5t-18 2.5q-10 1 -20 1h-21l18 77q34 -9 67.5 -21.5t65.5 -27.5q6 -1 12 3.5t7 11.5l9 37q2 8 -1 14.5t-9 7.5q-33 14 -66.5 25.5t-68.5 20.5l10 43q43 -10 85 -24.5t84 -31.5q7 -2 13.5 2t7.5 12l9 35q1 8 -2.5 14t-11.5 8q-41 16 -83.5 29.5t-85.5 24.5
l29 124q31 -9 62 -20.5t62 -26.5q16 -1 21 30q4 31 -1.5 65.5t-21.5 58.5q-15 25 -39 12q-71 -37 -97.5 -30.5t-67.5 48.5h-89v0zM891 1024q12 -20 23 -42t20 -44q2 -4 8 -3.5t11 4.5l25 23q5 5 7 11t-1 10q-5 11 -9.5 21t-9.5 20h-74v0zM954 854q4 -1 8 3t5 11l4 34
q0 7 -2.5 12.5t-7.5 6.5q-66 0 -130 15.5t-125 46.5q-5 1 -8.5 -3t-4.5 -11l-4 -34q-1 -7 2 -12.5t8 -6.5q62 -29 125.5 -45t129.5 -17zM91 391l15 39l40 15l-40 15l-15 40l-15 -40l-39 -15l39 -15zM27 824q19 -63 51.5 -120t78.5 -108q2 -5 8.5 -5.5t13.5 1.5l34 14
q7 3 10 8t1 9q-49 50 -81.5 107t-49.5 121q-2 4 -8.5 5t-13.5 -2l-33 -14q-7 -2 -10.5 -7t-0.5 -9v0zM906 408q-52 38 -112.5 64.5t-127.5 40.5q-4 2 -10 -1t-10 -9l-18 -30q-3 -6 -2.5 -12t4.5 -8q68 -11 128 -37.5t112 -67.5q5 -2 10.5 1t9.5 10l18 29q4 7 3.5 12.5
t-5.5 7.5v0zM869 594l22 61l62 23l-62 22l-22 62l-23 -62l-61 -22l61 -23zM724 24l15 39l40 15l-40 15l-15 40l-15 -40l-40 -15l40 -15l15 -39v0zM903 103q26 44 39 93.5t13 104.5q1 3 -3 7.5t-11 7.5l-32 13q-7 3 -12.5 2.5t-6.5 -4.5q3 -55 -10 -104.5t-42 -92.5
q-1 -4 3 -8.5t11 -7.5l32 -13q7 -3 12.5 -2t6.5 4v0zM423 431v0v1l-1 26h0.5h0.5h20h1v0v-26h0.5h0.5l78 -14v8v8v-20v-10v-9l-78 16v0v-1v-25v-0.5v-0.5h-21v0v0l-1 26v0v0l-58 -1l1 -27l-20 -1q-1 0 -1 0.5v0.5v25l-0.5 0.5l-0.5 0.5l-72 -23q-1 0 -1 0.5v0.5v20v0v0
l73 23v0v0v26v0v0l20 1l1 -27l58 2v0zM279 310q15 9 33.5 7.5t33.5 -8.5q4 -1 7 -3l6 -4q13 -13 14 -23.5t-3 -26.5q-1 -4 -8.5 -6.5t-11.5 -3.5q-17 -4 -36 -13t-35 -8q-5 0 -18 3t-13 9q-1 19 5.5 42t25.5 35zM519 315q19 -11 27 -33.5t8 -42.5q0 -6 -13 -9t-18 -4
q-16 -2 -33 6.5t-34 11.5q-4 1 -11.5 3t-9.5 7q-4 15 -6 25.5t11 23.5q2 3 5 5t7 4q15 7 33.5 9t33.5 -6v0zM436 358l-17.5 -30l-17.5 -30l-19.5 29.5l-19.5 29.5l18.5 -6l18.5 -6l37 13v0z" />
</svg>
