<?xml version="1.0" standalone="no"?>
<!DOCTYPE svg PUBLIC "-//W3C//DTD SVG 1.1//EN" "http://www.w3.org/Graphics/SVG/1.1/DTD/svg11.dtd" >
<svg xmlns="http://www.w3.org/2000/svg" xmlns:xlink="http://www.w3.org/1999/xlink" version="1.1" viewBox="-10 0 1037 1024">
   <path fill="currentColor"
d="M244 308q7 -11 15.5 -21.5t17.5 -19.5q24 -23 57 -39.5t65 -25.5q4 -1 -11.5 -58.5t-21.5 -96.5v0v0l0.5 -0.5l0.5 -0.5v0v0l50 1q49 1 108.5 2.5t108.5 3.5q50 1 49 2q-7 30 -18.5 94t-8.5 64q31 0 68.5 27.5t63.5 60.5q26 -23 59.5 -33t67.5 10l-76 -106
q-6 18 -14.5 18t-28.5 -7l2 -25.5t18 -42.5q22 -22 40 -17.5l18 4.5l143 203l-176 145v6.5v6.5v0v8.5v7.5q-4 71 -24 135.5t-51 123.5q41 1 77.5 16.5t69.5 40.5l-66 148l66 56l-146 -18l26 -139l-82 -15q-11 16 -23 32t-25 31q-1 1 -1.5 1h-0.5q-20 0 -61 3q-42 3 -84 6.5
t-74 6.5q-31 3 -32 3q-1 -1 -23.5 -26.5t-48.5 -56.5l-79 15l25 139l-146 18l66 -56l-66 -148q30 -28 63.5 -43.5t71.5 -15.5q-37 -69 -58 -138.5t-23 -97.5v-18.5v-18.5v-2.5v-2.5l-185 -153l142 -203l18 -4.5t40 17.5q16 17 18 42.5l2 25.5q-20 7 -28.5 7t-14.5 -18
l-75 106q36 -21 72 -8t63 38v0zM532 784q45 0 77.5 -19.5t32.5 -32.5q0 -47 -33 -16t-79 31t-77.5 -17t-31.5 30q0 14 32.5 19t78.5 5zM399 490q-18 0 -31 24.5t-13 60.5q0 35 13 60t31 25q19 0 32 -25t13 -60q0 -36 -13 -60.5t-32 -24.5zM653 543q-12 0 -20 15.5t-8 37.5
q0 21 8 36.5t20 15.5q11 0 19 -15.5t8 -36.5q0 -22 -8 -37.5t-19 -15.5zM102 532q-23 7 -32.5 37t1.5 66q10 36 34.5 57t47.5 14q-11 -13 -23 -34.5t-19 -47.5q-8 -26 -9.5 -50.5t0.5 -41.5v0zM879 708q24 7 47.5 -14.5t33.5 -57.5q9 -36 -0.5 -66t-33.5 -37q3 18 2 42
t-8 50q-7 27 -18.5 48.5t-22.5 34.5v0z" />
</svg>
