<?xml version="1.0" standalone="no"?>
<!DOCTYPE svg PUBLIC "-//W3C//DTD SVG 1.1//EN" "http://www.w3.org/Graphics/SVG/1.1/DTD/svg11.dtd" >
<svg xmlns="http://www.w3.org/2000/svg" xmlns:xlink="http://www.w3.org/1999/xlink" version="1.1" viewBox="-10 0 1044 1024">
   <path fill="currentColor"
d="M1024 0q-1 47 -9 111.5t-31 116.5q-24 55 -45.5 77t-35.5 35l-46.5 47.5t-47.5 51.5l-6 78q2 34 -2.5 87t-14.5 57q-9 2 -47.5 -20t-65.5 -40l-32 45l-16.5 -8t-33.5 -19l-21 -21q-21 -19 -45 -42.5t-44 -41.5q-21 -19 -23 -18q-3 3 -33.5 50t-28.5 53q5 15 32 35
q27 19 57 37t55 30l24 12l-52 42l-43 30l-13.5 53t-84.5 53q-98 0 -130 -52l-32 -52l-139 -258l-3 -191l-32 189l124 246l-159 140v-913h1024v0zM517 1024l62 -121l32 -130l74 123l-57 128h-111v0zM830 1024l-15 -146l-161 -162l249 86l23 127l98 27v68h-194v0zM568 81
l107 59l73 213l63 -56l-52 5l-26 -203l-165 -18v0zM695 435l-5 -65l-123 -146l29 152l99 59v0z" />
</svg>
