<?xml version="1.0" standalone="no"?>
<!DOCTYPE svg PUBLIC "-//W3C//DTD SVG 1.1//EN" "http://www.w3.org/Graphics/SVG/1.1/DTD/svg11.dtd" >
<svg xmlns="http://www.w3.org/2000/svg" xmlns:xlink="http://www.w3.org/1999/xlink" version="1.1" viewBox="-10 0 1044 1024">
   <path fill="currentColor"
d="M919 1024l-176 -176q-6 -6 -9 -14t-2 -17l-171 -171q-58 -5 -69.5 69t90.5 199q-27 3 -84 -3.5t-77 -14.5q-4 -1 -13 -41t-13 -41q-4 -2 -2 34.5t-2 34.5q-70 -33 -128 -80.5t-102 -104.5q-5 -7 16.5 -39l21.5 -32l-37 9.5t-38 7.5q-12 -20 -21 -54t-10 -75.5t7 -87.5
q9 -46 33 -89q60 112 131 121.5t99 -11.5q-5 -6 -4 -15t7 -15l-7 -28t0 -35t35 0l28 7q6 -6 14.5 -6.5t15.5 3.5q19 -30 8 -99.5t-120 -128.5q43 -23 89 -32q45 -9 86.5 -8t75.5 10t55 22q2 1 -8 38l-10 37l32 -22t39 -17q58 44 105.5 102t79.5 128q2 4 -34 2.5t-35 2.5
q2 4 41.5 13t41.5 12q8 20 14.5 77t3.5 85q-122 -100 -196 -91t-73 64l174 174q9 -1 17 2t14 9l172 172v113h-105v0z" />
</svg>
