<?xml version="1.0" standalone="no"?>
<!DOCTYPE svg PUBLIC "-//W3C//DTD SVG 1.1//EN" "http://www.w3.org/Graphics/SVG/1.1/DTD/svg11.dtd" >
<svg xmlns="http://www.w3.org/2000/svg" xmlns:xlink="http://www.w3.org/1999/xlink" version="1.1" viewBox="-10 0 1034 1024">
   <path fill="currentColor"
d="M178 1024l23 -130l295 6q-1 8 -1 16t2 16q4 18 14.5 32t25.5 22l-7 38h-352v0zM624 889q2 3 3.5 7t2.5 8q4 21 -8 39.5t-33 22.5q-22 5 -40.5 -7t-23.5 -33q-4 -21 8 -39.5t33 -23.5h3t2 -1l75 -181l-92 -39l22 -54l41 17l207 -490l135 -96l24 167l-207 486l40 15l-22 57
l-92 -39l-78 184v0zM721 649l161 -379l-7 -47l-43 32l-159 374l48 20v0zM512 865l-420 -9l89 -338q29 -25 68 -34t71 -24q16 43 47 64.5t70 28.5t75.5 -2.5t66.5 -45.5q4 4 12.5 13t20.5 22l-11 26l-14 -5q-5 -3 -11 -3t-11 3q-6 2 -10 6t-6 10l-22 54q-5 11 0 22t16 16
l65 28l-8 18l-13 -14l-4 24l-274 -6q-7 0 -12 5t-6 13q0 7 5 12t13 6l272 5l-32 78q-11 4 -20.5 11t-16.5 16v0zM598 446q1 1 -45 37.5t-108 25.5q-72 -13 -97.5 -62l-25.5 -49q-7 -17 -12 -35t-7 -38q-2 -18 -1 -37t4 -39q8 -47 30 -85q21 -37 50 -61.5t65 -34.5
q35 -11 72 -4q37 6 67 28t49 55t26 76q7 42 -1 89q-5 25 -13 48t-19 43q-8 12 -16 23t-18 20v0zM52 246l187 -44v87l-187 -43v0zM52 115l187 -43v87l-187 -44v0zM819 760q47 50 80 85.5l33 35.5l-89 86l-153 -159l27 -65l65 28q6 2 12 2t11 -2q4 -2 7.5 -4.5t6.5 -6.5v0z
M52 365l187 -44v88l-187 -44v0z" />
</svg>
