<?xml version="1.0" standalone="no"?>
<!DOCTYPE svg PUBLIC "-//W3C//DTD SVG 1.1//EN" "http://www.w3.org/Graphics/SVG/1.1/DTD/svg11.dtd" >
<svg xmlns="http://www.w3.org/2000/svg" xmlns:xlink="http://www.w3.org/1999/xlink" version="1.1" viewBox="-10 0 1034 1024">
   <path fill="currentColor"
d="M97 122l25 -24l443 443q-4 3 -8 5.5t-7 6.5q-3 3 -5.5 6t-4.5 6l-443 -443v0zM130 89l18 -18q15 -15 35.5 -15t35.5 15l101 101q12 12 14.5 29t-5.5 31l132 132q52 11 110 23q57 11 113.5 27t107.5 41q50 24 88 61q34 34 52 81q19 47 19.5 97t-16.5 99q-18 48 -55 86
q-38 37 -86 55q-49 17 -99 16t-97 -19q-46 -18 -80 -52q-38 -38 -63 -88t-42 -105.5t-29 -112.5q-11 -57 -23 -109l-132 -132q-14 7 -30.5 5t-28.5 -14l-102 -101q-14 -15 -14 -35.5t14 -35.5l20 -20l445 445q-11 24 -6.5 50.5t23.5 45.5t45.5 23.5t50.5 -7.5l65 65l8 -8
l-62 -63q3 -2 6 -4.5t6 -5.5t6 -7l6 -8l65 65l9 -9l-68 -67q10 -23 5.5 -48.5t-23.5 -44.5t-44.5 -23.5t-48.5 5.5l-446 -446v0zM821 713l-112 108l16 17l112 -108z" />
</svg>
