<?xml version="1.0" standalone="no"?>
<!DOCTYPE svg PUBLIC "-//W3C//DTD SVG 1.1//EN" "http://www.w3.org/Graphics/SVG/1.1/DTD/svg11.dtd" >
<svg xmlns="http://www.w3.org/2000/svg" xmlns:xlink="http://www.w3.org/1999/xlink" version="1.1" viewBox="-10 0 1034 1024">
   <path fill="currentColor"
d="M505 223q60 0 139 23t150.5 62t120.5 92q49 52 49 112t-49 112q-49 53 -120.5 92t-150.5 62t-139 23t-137 -25q-77 -24 -145.5 -65.5t-115.5 -95.5t-47 -114t47 -111t115.5 -88t145.5 -58t137 -21v0zM512 302q-43 0 -82 17q-38 16 -66.5 44.5t-44.5 66.5q-17 39 -17 82
t17 82q16 38 44.5 66.5t66.5 44.5q39 17 82 17t82 -17q38 -16 66.5 -44.5t44.5 -66.5q17 -39 17 -82t-17 -82q-16 -38 -44.5 -66.5t-66.5 -44.5q-39 -17 -82 -17v0zM648 304l216 -213q15 -14 35 -14t35 14q14 15 14 35.5t-15 34.5l-204 201q-13 -11 -23.5 -20.5t-15.5 -14.5
q-8 -8 -20 -12t-22 -11v0zM629 465l-165 161q-14 15 -34.5 14.5t-34.5 -14.5q-14 -15 -14 -35t14 -35l165 -161q15 -15 35 -14.5t35 14.5q14 15 14 35t-15 35v0zM367 719l-204 202q-15 14 -35.5 14t-34.5 -15q-14 -14 -14 -34.5t15 -34.5l200 -198q8 10 16.5 19t17.5 18
q4 4 15.5 12.5t23.5 16.5v0z" />
</svg>
