<?xml version="1.0" standalone="no"?>
<!DOCTYPE svg PUBLIC "-//W3C//DTD SVG 1.1//EN" "http://www.w3.org/Graphics/SVG/1.1/DTD/svg11.dtd" >
<svg xmlns="http://www.w3.org/2000/svg" xmlns:xlink="http://www.w3.org/1999/xlink" version="1.1" viewBox="-10 0 1034 1024">
   <path fill="currentColor"
d="M505 88l397 356l-277 309l-397 -355l277 -310v0zM976 508q4 -5 4 -11.5t-5 -10.5l-22 -20q-5 -4 -11.5 -4t-10.5 5l-282 313q-4 5 -4 11t5 10l23 21q4 4 10.5 3.5t10.5 -5.5l282 -312v0zM481 65q4 -5 4 -11t-5 -11l-23 -20q-4 -4 -10.5 -3.5t-10.5 4.5l-282 313
q-4 5 -4 11t5 10l22 21q5 4 11.5 3.5t10.5 -4.5l282 -313v0zM450 634l-88 -80l-215 234q-8 9 -7.5 21.5t9.5 20.5l44 41q9 8 21.5 7.5t20.5 -9.5l215 -235v0zM192 945q8 -9 7.5 -22t-9.5 -21l-72 -66q-9 -9 -22 -8.5t-22 10.5l-41 45q-9 9 -8.5 22t10.5 21l71 66
q10 9 22.5 8.5t21.5 -10.5l42 -45v0z" />
</svg>
