<?xml version="1.0" standalone="no"?>
<!DOCTYPE svg PUBLIC "-//W3C//DTD SVG 1.1//EN" "http://www.w3.org/Graphics/SVG/1.1/DTD/svg11.dtd" >
<svg xmlns="http://www.w3.org/2000/svg" xmlns:xlink="http://www.w3.org/1999/xlink" version="1.1" viewBox="-10 0 1034 1024">
   <path fill="currentColor"
d="M765 418q-41 40 -82.5 80t-80.5 82q-1 0 -1 0.5v0.5l12 33v0v0h0.5h0.5h0.5h0.5q38 -25 76 -49.5t77 -48.5q2 -1 3.5 -2t3.5 -1q2 -1 3.5 -0.5t3.5 2.5l30 56q1 1 0.5 2.5t-1.5 1.5q-49 38 -98 74q-49 37 -98 73.5t-98 72.5q-50 37 -99 73q-3 3 -6 5t-8 2q-4 1 -5.5 1
h-1.5q-35 5 -70.5 9.5t-71.5 9.5q-2 1 -4 0t-3 -2q-11 -12 -22.5 -24.5t-22.5 -25.5q-14 -16 -25.5 -34t-23.5 -36q-7 -10 -11.5 -18.5t-7.5 -14.5q-7 -17 -10 -36.5t-2 -38.5q0 -3 1.5 -12t4.5 -24q15 -76 30 -152.5t31 -152.5q1 -4 2.5 -6.5t7.5 -1.5q16 2 32.5 5t33.5 7
q1 0 1.5 0.5t0.5 1.5q-2 42 -5 84.5t-6 85.5q0 2 0.5 3t0.5 2q26 22 29.5 62t-13.5 68q-1 2 -0.5 2.5t2.5 -0.5q47 -17 46 -71.5t-42 -77.5q-2 -1 -2.5 -2.5t0.5 -3.5q25 -44 50 -87t50 -86.5t50 -87.5q24 -43 49 -86q1 -3 3 -3.5t4 0.5l60 34q1 1 1.5 2t-0.5 1
q-28 61 -57.5 121.5t-58.5 120.5v0v0q0 1 0.5 1.5l0.5 0.5v0v0l32 11l1 -0.5l1 -0.5q25 -37 50.5 -73t51.5 -71q21 -29 41.5 -57.5t41.5 -56.5q2 -3 4.5 -3.5t5.5 2.5q12 8 23 16.5t22 17.5q4 4 5.5 8t-1.5 8q-14 22 -32 47.5t-34 50.5q-26 39 -51.5 78.5t-51.5 78.5
q-1 1 -1 1.5t1 1.5l19 24v0h1l0.5 0.5t1.5 -0.5v0v0q47 -45 95 -89.5t96 -88.5q9 -9 16 -1t12 16q6 8 11.5 16t10.5 16q3 4 4 7t-3 7q-8 8 -18 18.5t-20 20.5v0zM911 159l-187 26v-53l187 27v0zM911 277l-116 26v-53l116 27v0zM911 867l-380 26v-53l380 27v0zM911 749
l-253 26v-53l253 27v0zM911 631l-100 26v-53l100 27v0zM911 513l-74 26v-53l74 27v0zM911 395l-76 26v-53l76 27v0z" />
</svg>
