<?xml version="1.0" standalone="no"?>
<!DOCTYPE svg PUBLIC "-//W3C//DTD SVG 1.1//EN" "http://www.w3.org/Graphics/SVG/1.1/DTD/svg11.dtd" >
<svg xmlns="http://www.w3.org/2000/svg" xmlns:xlink="http://www.w3.org/1999/xlink" version="1.1" viewBox="-10 0 1044 1024">
   <path fill="currentColor"
d="M0 275q2 2 4 4.5t4 4.5l137 137l-145 -24v-122v0zM0 551l235 -39l68 68l-303 151v-180v0zM0 974l346 -351l56 56l-180 345h-222v-50v0zM586 1024l75 -225l33 -54l-37 -33l-91 90l-54 -53l40 -39l-485 -486l-48 -207l211 53l481 484l37 -40l57 54l-92 90l23 20l20 -34
q49 8 86 36t60 79l-45 45l38 36q5 -1 10 -0.5t10 0.5q28 5 44 28.5t11 51.5q-5 27 -28 43.5t-51 11.5t-44 -28.5t-11 -51.5q0 -1 0.5 -2.5t0.5 -2.5l-31 -29l-17 13l-37 150h-166v0zM1024 393l-246 42q-7 -3 -15.5 -4.5t-16.5 -1.5t-16.5 2t-15.5 6l-51 -51l361 -180v187v0z
M976 0l-346 352l-48 -48l158 -304h236zM578 0l-39 261l-91 -91l-25 -170h155v0zM655 608l-374 -377l-59 -14l17 66l369 371z" />
</svg>
