<?xml version="1.0" standalone="no"?>
<!DOCTYPE svg PUBLIC "-//W3C//DTD SVG 1.1//EN" "http://www.w3.org/Graphics/SVG/1.1/DTD/svg11.dtd" >
<svg xmlns="http://www.w3.org/2000/svg" xmlns:xlink="http://www.w3.org/1999/xlink" version="1.1" viewBox="-10 0 1034 1024">
   <path fill="currentColor"
d="M60 1024q4 -34 12 -64t21 -55q33 -65 97.5 -92.5t114.5 -62.5q35 61 87 85t112 24q61 0 112.5 -24.5t86.5 -84.5q51 35 117 67.5t98 97.5q12 24 20 51.5t12 57.5h-890v0zM717 657q1 0 -14 21q-16 21 -43.5 46t-67.5 46q-39 21 -88 21q-55 0 -95 -21t-66 -46t-39 -46
l-12 -21q-15 -23 -27.5 -49t-20.5 -54q-8 -27 -12 -56t-4 -59q0 -73 22 -135q22 -61 59.5 -105.5t87.5 -69.5t107 -25t108 25q50 25 87.5 69.5t58.5 105.5q22 62 22 135q0 38 -6.5 74.5t-17.5 70.5q-8 19 -17.5 37.5t-21.5 35.5v0zM502 367q-24 -47 -63 -51t-63 20
q-23 23 -23 66t23 90q17 35 53.5 68.5t72.5 56.5q35 -23 71.5 -56.5t53.5 -68.5q23 -47 23 -90t-23 -66q-24 -24 -63 -20t-62 51v0z" />
</svg>
