<?xml version="1.0" standalone="no"?>
<!DOCTYPE svg PUBLIC "-//W3C//DTD SVG 1.1//EN" "http://www.w3.org/Graphics/SVG/1.1/DTD/svg11.dtd" >
<svg xmlns="http://www.w3.org/2000/svg" xmlns:xlink="http://www.w3.org/1999/xlink" version="1.1" viewBox="-10 0 1044 1024">
   <path fill="currentColor"
d="M0 783q15 -9 25 -17.5t14 -16.5q27 -51 42 -150q15 -100 22.5 -199.5t9.5 -174.5l2 -74l168 -29l17 85l34 -144l173 17l-16 138l164 -218h111l84 58l-149 241l249 -159l74 114v40l-278 240l-86 160l5 22l44 -15l65 -48l113 135l-126 109l-30 3q-29 4 -74.5 10t-99.5 15
q-55 9 -107 21q-26 6 -62 28t-72 50h-166q10 -10 20 -19.5t20 -18.5q8 -10 12 -19t0 -12l-33 -31q-3 -3 -12 1.5t-17 14.5q-15 20 -30.5 41t-31.5 43h-68q25 -26 48.5 -49.5t44.5 -43.5q9 -10 12.5 -19t0.5 -12l-33 -31q-4 -3 -12.5 1.5t-17.5 14.5q-13 17 -26 35.5
t-27 37.5v-175v0zM915 293q3 -3 3 -8t-3 -10l-17 -23q-4 -5 -8.5 -6.5t-8.5 0.5q-13 17 -30.5 30t-40.5 22q-3 2 -3 7.5t3 9.5l17 24q3 4 8 6t8 -1q18 -19 35.5 -32t36.5 -19v0zM650 248q3 -5 1 -11t-8 -9l-29 -19q-6 -4 -12.5 -3t-9.5 5q-8 27 -23.5 51t-38.5 46
q-3 5 -0.5 11t8.5 10l29 18q6 4 12 3.5t9 -5.5q12 -31 27.5 -55.5t34.5 -41.5zM738 114q2 -3 -0.5 -8t-7.5 -8l-27 -17q-5 -3 -10.5 -3.5t-7.5 2.5q-4 19 -14.5 36t-27.5 31q-2 3 0.5 8t7.5 8l27 17q5 3 10.5 3.5t7.5 -2.5q7 -23 17.5 -39.5t24.5 -27.5v0zM443 188
q1 -5 -4 -9t-12 -5l-33 -4q-7 -1 -12.5 2.5t-6.5 8.5q5 25 1.5 52.5t-13.5 55.5q-1 5 3.5 9t11.5 5l34 4q7 1 12.5 -2t5.5 -8q-3 -32 0.5 -59t12.5 -50zM654 823q6 1 10.5 -2.5t4.5 -8.5l3 -25q1 -6 -3 -10t-10 -5q-28 3 -46 2.5t-50 -9.5q-6 -1 -10.5 2.5t-4.5 8.5l-3 25
q-1 6 3 10t9 5q36 -1 54 -0.5t43 7.5zM642 532q9 -10 12.5 -19t0.5 -12l-33 -31q-3 -3 -12 1.5t-18 14.5q-38 50 -78.5 108t-93.5 109q-8 10 -12 19t0 12l17 16q3 3 12 -1.5t17 -14.5q50 -62 98 -112t90 -90v0zM287 867q5 -5 4 -12.5t-7 -11.5l-28 -21q-6 -4 -13 -3t-11 6
l-21 28q-5 6 -4 13.5t7 11.5l28 21q6 4 13 3t11 -7l21 -28v0zM261 264q0 -3 -5.5 -4.5t-12.5 -0.5l-33 4q-7 0 -11.5 2.5t-4.5 5.5q9 13 10.5 27t-3.5 30q0 3 5 4.5t12 0.5l33 -4q7 0 11.5 -2.5t4.5 -5.5q-8 -16 -9.5 -30t3.5 -27zM183 854q4 -6 3 -13t-7 -11l-28 -21
q-5 -5 -12.5 -4t-11.5 7l-21 28q-4 6 -3 13t6 12l28 21q6 4 13.5 3t11.5 -7l21 -28v0zM502 832q7 -2 10.5 -6.5t2.5 -8.5l-6 -38q-1 -5 -6.5 -7t-11.5 -1q-30 13 -72 27t-79 18q-6 2 -10 6.5t-3 8.5l6 23q1 5 6.5 7t11.5 0q38 -14 80 -20t71 -9v0zM774 782q1 -1 0.5 -5
t-3.5 -8l-13 -20q-3 -4 -6 -6t-5 -1q-6 10 -15 16.5t-22 8.5q-2 1 -1.5 5t3.5 8l13 20q3 4 6 6t5 1q8 -11 17.5 -17t20.5 -8v0zM805 393q5 -4 5 -11t-4 -13l-23 -30q-5 -6 -12 -7t-12 3q-19 25 -45.5 46t-60.5 37q-5 4 -5 11t4 13l23 29q5 6 12 7.5t12 -2.5
q26 -30 52.5 -50.5t53.5 -32.5zM399 399q4 -15 3.5 -26.5t-5.5 -13.5l-48 -10q-5 -2 -11.5 7.5t-11.5 24.5q-8 38 -18 76t-22 77.5t-25 79.5q-14 40 -29 82q-5 15 -4.5 26.5t5.5 13.5l24 7q5 1 12 -8.5t11 -24.5q12 -46 27 -88t31.5 -80.5l31.5 -73.5q16 -36 29 -69v0z
M536 437q8 -14 11 -25.5t-1 -13.5l-43 -21q-4 -2 -12 6.5t-16 22.5q-17 35 -35 72q-17 37 -36.5 74.5t-40.5 76.5q-21 38 -45 76q-8 14 -10.5 25.5t0.5 14.5l19 10q4 2 12.5 -6.5t15.5 -22.5q22 -43 46 -82q24 -40 47.5 -75.5t46.5 -68.5q22 -32 41 -63v0zM254 418
q2 -15 0.5 -26t-6.5 -11l-44 -2q-5 0 -10 9.5t-7 24.5q2 73 -4.5 147.5t-25.5 155.5q-3 15 -1 26t6 11l23 4q4 1 9 -9t8 -24q10 -89 23 -165t29 -141z" />
</svg>
