<?xml version="1.0" standalone="no"?>
<!DOCTYPE svg PUBLIC "-//W3C//DTD SVG 1.1//EN" "http://www.w3.org/Graphics/SVG/1.1/DTD/svg11.dtd" >
<svg xmlns="http://www.w3.org/2000/svg" xmlns:xlink="http://www.w3.org/1999/xlink" version="1.1" viewBox="-10 0 1044 1024">
   <path fill="currentColor"
d="M276 1024q13 -52 25 -95.5t20 -70.5l-22 -39.5t-16 -117.5q0 -1 23 -16q23 -14 54 -33.5t63 -38.5q32 -20 50 -31q5 -3 18 17l13 20l20 -12l-23 -29.5t-23 -30.5q1 -3 -29 16t-66 42t-66 42q-29 19 -29 17q6 -33 15 -75t32 -85q46 -85 89 -164q43 -80 76 -141t53 -97
l20 -37l48 77l-163 321l20 7l164 -309l51 49l-126 279l14 5l72 -94l78 49l-89 121l-69 -39l67 81l106 -142l47 69l-65 108l-53 -37l56 72l-78 170l-68 53l-16 119h-293v0zM1024 115q-26 55 -72 95q-45 39 -89 64t-76 37l-32 11l40 -91q46 -19 85 -50t65 -73q17 -29 25 -56
t9 -52h45v115v0zM196 846q-166 -135 -167 -234q-2 -99 62.5 -163t145.5 -95l81 -30l-44 86q-50 28 -65 41t-48 49q-54 60 -55 122q-2 61 18 111t46 82l26 31v0zM212 32l35 97l97 35l-97 36l-35 97l-36 -97l-97 -36l97 -35zM845 748l29 77l77 29l-77 29l-29 77l-29 -77
l-77 -29l77 -29zM900 383l17 47l46 17l-46 17l-17 46l-17 -46l-47 -17l47 -17z" />
</svg>
