<?xml version="1.0" standalone="no"?>
<!DOCTYPE svg PUBLIC "-//W3C//DTD SVG 1.1//EN" "http://www.w3.org/Graphics/SVG/1.1/DTD/svg11.dtd" >
<svg xmlns="http://www.w3.org/2000/svg" xmlns:xlink="http://www.w3.org/1999/xlink" version="1.1" viewBox="-10 0 1038 1024">
   <path fill="currentColor"
d="M61 644q-22 -20 -34.5 -48.5t-12.5 -60.5q0 -53 32.5 -93t82.5 -52q-14 -20 -22 -44t-8 -50q0 -11 1.5 -21.5t4.5 -20.5q-22 -11 -36 -32t-14 -47q0 -37 25.5 -62.5t62.5 -25.5q26 0 47 14t32 36q10 -3 20.5 -4.5t21.5 -1.5q13 0 26.5 2.5t25.5 6.5q2 -10 9 -18t17 -12
q-1 -4 -1.5 -8.5t-0.5 -9.5q0 -36 25.5 -61t60.5 -25q29 0 51 16.5t31 42.5q35 4 62 27t38 56q9 -4 18.5 -6t19.5 -2q18 0 34.5 6.5t30.5 16.5q4 -3 9 -6t9 -6q-2 -6 -3 -12.5t-1 -13.5q0 -37 26 -62.5t62 -25.5q37 0 62.5 25.5t25.5 62.5q0 6 -1 11.5t-2 10.5
q45 23 73.5 67t28.5 98q0 35 -12.5 67t-35.5 56q30 20 48 52.5t18 70.5q0 29 -10.5 54.5t-28.5 45.5q2 4 2.5 8t0.5 8q0 18 -13 31t-31 13q-10 0 -18.5 -4t-14.5 -11q-3 1 -6.5 1.5t-6.5 1.5q13 16 20.5 36t7.5 42q0 10 -1.5 19t-4.5 18q22 6 36.5 24.5t14.5 42.5
q0 29 -20.5 49.5t-49.5 20.5q-24 0 -43 -15t-24 -38q-8 3 -16.5 4t-17.5 1q-38 0 -68.5 -20.5t-45.5 -53.5q-2 2 -4.5 3.5t-4.5 2.5q2 5 3 11t1 11v1v1q21 4 35 20.5t14 39.5q0 25 -18 43t-43 18q-21 0 -37.5 -12.5t-21.5 -31.5q-6 1 -12.5 2t-13.5 1q-15 0 -29 -4t-25 -11
q-13 20 -34.5 32t-46.5 12q-39 0 -67.5 -28t-28.5 -68q0 -8 1.5 -16t4.5 -16q-8 -5 -15.5 -10.5t-15.5 -11.5q-15 12 -34.5 19.5t-40.5 7.5h-1q-6 29 -30 48.5t-55 19.5q-37 0 -62.5 -26t-25.5 -62q0 -28 15.5 -50t39.5 -32q0 -4 -0.5 -9t-0.5 -9q0 -14 3 -26.5t8 -23.5
q-6 -1 -11.5 -2.5t-10.5 -2.5q-1 13 -11 22.5t-24 9.5q-15 0 -25 -10.5t-10 -25.5q0 -9 4 -16.5t11 -12.5v0zM178 461q-19 0 -32 13t-13 32q0 18 13 31.5t32 13.5q18 0 31.5 -13.5t13.5 -31.5q0 -19 -13.5 -32t-31.5 -13v0zM272 239q-7 0 -12 5t-5 12q0 8 5 13t12 5
q8 0 13 -5t5 -13q0 -7 -5 -12t-13 -5zM783 271q-5 0 -8.5 4t-3.5 9t3.5 8.5t8.5 3.5q6 0 9.5 -3.5t3.5 -8.5t-3.5 -9t-9.5 -4zM862 402q-10 0 -17.5 7.5t-7.5 17.5t7.5 17.5t17.5 7.5t17.5 -7.5t7.5 -17.5t-7.5 -17.5t-17.5 -7.5zM624 765q14 -2 26 -5t22 -6q15 -5 15 -63
t1 -66q4 -32 36.5 -32.5t32.5 -35.5q0 -17 -2 -36t-5 -39q-7 -40 -21 -79t-37.5 -71t-56.5 -55t-78 -32q-8 -1 -17.5 -2t-19.5 -2v0v0l-23 1v-1h-0.5h-0.5q-10 1 -19.5 2t-17.5 2q-45 9 -78 32t-56.5 55t-37.5 71t-21 79q-3 20 -4.5 39t-1.5 36q-1 35 31.5 35.5t36.5 32.5
q1 7 1 64t12 62q10 4 23 7t28 6v-44h42v49q13 1 26.5 1.5t26.5 1.5v-52h42v52q14 0 27.5 -1t25.5 -2v-49h42v45v0zM367 606q-23 -14 -31.5 -41t-7.5 -51q0 -7 15.5 -10.5t20.5 -3.5q19 -3 41.5 7.5t42.5 14.5q5 1 14 4t10 8q5 19 4.5 31.5t-16.5 28.5q-2 2 -6 4.5t-9 4.5
q-17 8 -39 10.5t-39 -7.5v0zM649 606q-17 10 -38.5 7.5t-39.5 -10.5q-5 -2 -8.5 -4.5t-6.5 -4.5q-15 -16 -13.5 -28.5t6.5 -31.5q2 -5 11 -8t14 -4q20 -4 40 -14.5t38 -7.5q6 0 21 3.5t15 10.5q1 24 -7.5 51t-31.5 41v0zM553 659l-44 -15l-21.5 8t-21.5 7l22.5 -35.5
l22.5 -35.5l21 35.5l21 35.5v0zM818 717q-19 0 -32 13.5t-13 31.5q0 19 13 32t32 13t32 -13t13 -32q0 -18 -13 -31.5t-32 -13.5zM252 20q23 0 39 16.5t16 38.5q0 23 -16 39.5t-39 16.5t-39 -16.5t-16 -39.5q0 -22 16 -38.5t39 -16.5zM302 881q18 0 31.5 13t13.5 32
t-13.5 32.5t-31.5 13.5q-19 0 -32.5 -13.5t-13.5 -32.5t13.5 -32t32.5 -13zM666 28q21 0 36 15t15 36t-15 36t-36 15t-36 -15t-15 -36t15 -36t36 -15zM956 76q17 0 29 12.5t12 29.5t-12 29t-29 12t-29 -12t-12 -29t12 -29.5t29 -12.5zM904 17q10 0 17 7.5t7 17.5t-7 17.5
t-17 7.5q-11 0 -18 -7.5t-7 -17.5t7 -17.5t18 -7.5zM194 941q10 0 17.5 7.5t7.5 17.5t-7.5 17.5t-17.5 7.5q-11 0 -18 -7.5t-7 -17.5t7 -17.5t18 -7.5zM575 23q8 0 14 6t6 14t-6 14t-14 6t-14 -6t-6 -14t6 -14t14 -6zM56 325q10 0 17.5 7.5t7.5 17.5t-7.5 17.5t-17.5 7.5
t-17.5 -7.5t-7.5 -17.5t7.5 -17.5t17.5 -7.5z" />
</svg>
