<?xml version="1.0" standalone="no"?>
<!DOCTYPE svg PUBLIC "-//W3C//DTD SVG 1.1//EN" "http://www.w3.org/Graphics/SVG/1.1/DTD/svg11.dtd" >
<svg xmlns="http://www.w3.org/2000/svg" xmlns:xlink="http://www.w3.org/1999/xlink" version="1.1" viewBox="-10 0 1038 1024">
   <path fill="currentColor"
d="M10 242q-5 19 27.5 42.5t55.5 42.5q89 22 173 35t166 20.5t164 10.5t168 4l-76 -10q-75 -11 -188.5 -31t-245.5 -48q-132 -29 -244 -66v0zM374 802q63 -10 122 -4t115 25l-19.5 61.5t117.5 93.5q61 15 22 21q-40 6 -115 -9.5t-152 -59.5t-90 -128zM357 608q0 3 40 22
q40 20 97.5 43t122.5 43t114 23q57 3 -6.5 36.5t-113.5 21.5q-66 -15 -131.5 -21.5t-103.5 -3.5q12 -18 28.5 -59.5t-47.5 -104.5v0zM337 315l51 -3q50 -4 125 -9.5t161 -11.5q86 -7 156 -13q-53 23 -60.5 50t18.5 61l-451 -74v0zM281 461q-20 -29 -47.5 -56t-63.5 -41
l62 10q61 10 154.5 21t203.5 19q110 7 206 2q28 18 46 39.5t26 45.5l150 89l-82 143q45 59 35 72l-10 13l-25 -33t-31 -29q-14 10 11.5 54.5t1.5 31.5q-25 -13 -33.5 -43.5t-18.5 -17.5t-5 41.5l5 28.5l5 7t-24 -28q-30 -35 -14 -64l16 -29l60 -89l-53 -22q-14 27 -37 52.5
t-54 46.5l-26 -5q-26 -6 -67 -15.5t-91 -22.5q-51 -13 -98 -29q-40 -14 -79.5 -34.5t-60.5 -40.5l-72 111l-119 21q-2 85 -20 90l-18 5l1 -47.5t-7 -48.5q-20 -2 -28.5 57t-21.5 30q-14 -29 0 -63t-4 -29t-33.5 34.5l-15.5 29.5l-0.5 10t-2.5 -43t33 -67.5l35 -14.5l118 -39
l93 -153v0zM540 556q-28 -1 -48.5 6t-20.5 19q-1 11 21 8t50 -2q28 2 46 6.5t19 -6.5q0 -12 -19.5 -21t-47.5 -10v0zM414 458q-17 -7 -32.5 -4.5t-19.5 12.5t6 22t27 19q18 7 33 4.5t19 -12.5t-5.5 -22t-27.5 -19v0zM676 457q-21 8 -32.5 23t-7.5 27q5 12 23.5 15t39.5 -5
q22 -9 33.5 -23.5t6.5 -26.5t-23 -15t-40 5v0zM111 106q-23 23 -68 52.5t-34 49.5l324 96l549 -47l-102 -17q-103 -17 -235.5 -41t-258.5 -50q-127 -25 -175 -43v0zM364 146l620 -16q3 25 -44.5 50.5t-59.5 55.5zM129 90q51 -19 77 -37.5t51 -37.5q55 22 115 41
q59 18 122 30t129 18t133 5l-417 15l-210 -34v0z" />
</svg>
