<?xml version="1.0" standalone="no"?>
<!DOCTYPE svg PUBLIC "-//W3C//DTD SVG 1.1//EN" "http://www.w3.org/Graphics/SVG/1.1/DTD/svg11.dtd" >
<svg xmlns="http://www.w3.org/2000/svg" xmlns:xlink="http://www.w3.org/1999/xlink" version="1.1" viewBox="-10 0 1044 1024">
   <path fill="currentColor"
d="M0 326l120 43q-15 34 -26.5 69.5t-20.5 73.5h-73v-186zM0 698l52 -19v15v15q0 45 4 89t13 86l-69 58v-244zM1024 942l-52 -44q9 -45 14.5 -92.5t5.5 -96.5q0 -6 -0.5 -11.5t-0.5 -11.5l33 12v244v0zM1024 512h-54q-9 -40 -21.5 -77t-27.5 -72l103 -37v186zM1024 82
l-180 152q-10 -14 -21 -26.5t-22 -24.5q-16 -16 -32.5 -30t-33.5 -26l73 -127h216v82v0zM602 0l-11 63q-17 -3 -34.5 -5t-34.5 -2q-23 0 -45 3t-43 8l-12 -67h180v0zM216 0l79 137q-13 10 -26.5 21.5t-25.5 24.5q-14 14 -26.5 29t-24.5 31l-192 -161v-82h216v0zM141 377
l48 17q-13 28 -24 57.5t-19 60.5h-50q9 -36 20 -70t25 -65v0zM307 156l31 54q-24 17 -45.5 38t-40.5 46l-43 -36q12 -16 24.5 -31t25.5 -28q11 -12 23 -22.5t25 -20.5v0zM75 671l47 -17q-1 13 -1.5 27t-0.5 28q0 32 2.5 63t7.5 60l-42 35q-7 -38 -10.5 -77.5t-3.5 -80.5
v-19.5t1 -18.5v0zM587 85l-12 67q-13 -2 -26.5 -3.5t-26.5 -1.5q-19 0 -37 2.5t-36 7.5l-11 -67q20 -6 41 -9t43 -3q16 0 32.5 2t32.5 5v0zM827 248l-43 36q-21 -25 -44 -46t-48 -38l31 -54q16 12 31.5 25t30.5 28q11 11 21.5 23.5t20.5 25.5v0zM952 881l-41 -34
q6 -34 9 -68.5t3 -69.5q0 -12 -0.5 -24t-0.5 -24l47 17v15.5v15.5q0 45 -4 88t-13 84v0zM947 512h-49q-9 -33 -21 -64t-26 -59l48 -18q15 33 27 68t21 73v0zM613 431q1 4 2 10t3 15q1 5 -2.5 6t-7.5 -1q-10 -7 -22 -12t-20 -10q-14 -9 -23 -19.5t-18 -24.5q-4 -6 -8 -13
t-7 -13q-16 -39 -2.5 -75t49.5 -57q7 -4 14 -6.5t15 -3.5q51 -8 83.5 22.5t44.5 76.5q2 8 3 19t2 25q1 25 1 49t-7 47l-1 1v-1q-4 -18 -13 -33.5t-24 -27.5v0v0q-1 -1 -2 -0.5t-1 1.5v0v0q-3 8 -4.5 16.5t-1.5 17.5l-0.5 0.5t-0.5 1.5q-2 1 -4 1t-4 -2q-5 -3 -9.5 -6.5
t-10.5 -5.5q-5 -3 -11 -2l-12 2q0 1 -0.5 1t-0.5 1v0zM285 527q-1 -2 -2 -2t-2 2t-7.5 19t-10.5 4q-9 -25 -6 -50t7 -48q7 -46 46 -70t83 -7q24 9 40.5 29.5t19.5 47.5q4 34 -12.5 67t-41.5 55q-5 4 -9.5 9.5t-10.5 9.5q-2 1 -3.5 0.5t-2.5 -3.5q-2 -7 -3.5 -15.5
t-5.5 -13.5q0 -1 -0.5 -1h-1.5q-2 1 -3.5 2t-2.5 2q-10 17 -19 33.5t-18 33.5q-1 1 -1.5 1t-1.5 -1q-12 -25 -18 -52t-13 -52v0zM477 973q-2 2 -28.5 -16.5t-35.5 -36.5q-11 -20 -12 -54t55 -76q22 -17 53.5 -26t46.5 -15q23 -8 45 -19.5t37 -30.5q16 -19 21.5 -44t3.5 -45
q-4 -31 -21 -50t-38 -42q-6 -5 -13 -11.5t-13 -13.5q-1 0 -1 -1v-1q0 -5 3 -6t7 0q14 6 26.5 8.5t26.5 4.5q6 1 10.5 1.5t7.5 -6.5v-1.5t-1 -0.5l-5 -9v-1.5v-0.5q7 -8 16 0.5t17 -0.5h0.5h1.5q6 6 14.5 11t18.5 9q1 1 3 0.5t3 -1.5q1 -2 2.5 -4.5t2.5 -4.5q8 -18 12 -37
t5 -38q0 -2 0.5 -2t1.5 1q3 6 7 11.5t7 11.5q9 13 34 73.5t25 100.5q0 39 -22.5 85.5t-36.5 59.5q-29 28 -64.5 52t-80.5 38q-18 5 -37.5 9.5t-35.5 6.5q-24 3 -45 8.5t-32 29.5q-8 16 -4.5 36t12.5 35v1.5v0.5v0zM501 573h-1v1q1 6 2 13t2 13q1 7 -2.5 6t-5.5 -3
q-8 -8 -15 -16t-13 -18q-1 -2 -1 -4.5t2 -4.5l7.5 -7.5t6.5 -7.5q8 -9 11 -18.5t7 -20.5v0v0q0 -1 1 -1.5t2 -0.5v0h1q6 3 12 3.5t12 0.5q2 0 3.5 1t1.5 2q7 26 15.5 56.5t19.5 58.5v2.5t-1 1.5h-1.5t-0.5 -1q-15 -15 -31.5 -28.5t-33.5 -27.5v0zM283 686q-15 -13 -24 -29.5
t-12 -36.5q-2 -11 -2 -20t4 -19h1h1q12 28 30 50t41 42q2 3 4.5 2.5t4.5 -3.5q3 -6 6 -11.5t9 -11.5q4 -4 7.5 -8.5t7.5 -9.5q1 -2 1.5 -2t1.5 2q1 4 3 14t11 1q16 -15 27 -26.5t18 -18.5q2 -2 4 -4.5t4 -4.5q11 -12 8.5 6t-2.5 20q-3 15 2.5 27t18.5 20q12 8 25 15t27 13
q3 2 3 3.5t-2 2.5q-27 14 -52.5 27t-54.5 22h-1.5h-0.5q-34 -9 -63.5 -24.5t-55.5 -37.5v0zM845 675v0h1q5 17 9 48t-7 46q-9 12 -18.5 24.5t-18.5 25.5q-3 3 -2 -18.5t-13 -33.5q-1 0 20.5 -33.5t28.5 -58.5v0zM289 812q-40 -14 -56 -43t-12 -70q0 -4 2 -4.5t5 1.5
q2 1 3.5 5.5t2.5 6.5q5 8 13 15.5t19 13.5q13 7 11.5 21t-0.5 26q0 3 4.5 11.5t7.5 15.5v1v0v0zM596 978q10 -18 -8.5 -51t-19.5 -36v0v0q0 -1 43 -16.5t43 -14.5q11 18 9.5 44.5t-19.5 42.5q-6 5 -11 10.5t-11 9.5q-2 1 -13.5 8t-13.5 4v-0.5t1 -0.5v0z" />
</svg>
