<?xml version="1.0" standalone="no"?>
<!DOCTYPE svg PUBLIC "-//W3C//DTD SVG 1.1//EN" "http://www.w3.org/Graphics/SVG/1.1/DTD/svg11.dtd" >
<svg xmlns="http://www.w3.org/2000/svg" xmlns:xlink="http://www.w3.org/1999/xlink" version="1.1" viewBox="-10 0 1044 1024">
   <path fill="currentColor"
d="M663 422l20 51l50 20l-50 20l-20 50l-20 -50l-50 -20l50 -20l20 -51v0zM508 151l32 80l79 31l-79 31l-32 80l-31 -80l-80 -31l80 -31l31 -80v0zM377 440l42 106l106 42l-106 41l-42 106l-42 -106l-105 -41l105 -42zM847 1024l-152 -151l32 -31l-38 -38q-62 43 -134 61
q-71 18 -143.5 12t-140.5 -37q-68 -30 -124 -86q-62 -62 -93 -140q-31 -79 -31 -160.5t31 -159.5t93 -141q63 -62 141 -93t159.5 -31t160.5 31q78 31 140 93q56 56 86 124q31 68 37 140t-12 144t-61 134l38 38l31 -32l157 158v165h-177v0zM195 201q-52 52 -78 118t-26 134.5
t26 134.5t78 119q52 52 118 78t134.5 26t134.5 -26t119 -78q52 -53 78 -119t26 -134.5t-26 -134.5t-78 -118q-53 -52 -119 -78t-134.5 -26t-134.5 26t-118 78v0zM515 460q0 7 -5 12t-12 5t-12 -5t-5 -12t5 -12t12 -5t12 5t5 12zM622 654q0 7 -5 12t-12 5t-12 -5t-5 -12
t5 -11.5t12 -4.5t12 4.5t5 11.5zM703 330q0 7 -5 12t-12 5t-12 -5t-5 -12t5 -12t12 -5t12 5t5 12zM177 458q1 7 -4 13t-13 7q-8 0 -13.5 -5t-6.5 -13l1 -28q1 -29 14 -70t45 -86q33 -45 95 -79q7 -4 14.5 -1.5t10.5 9.5q4 6 2 13.5t-9 11.5q-55 29 -83 68t-39.5 74.5
t-12.5 60.5l-1 25v0zM255 458q1 7 -4 13t-13 7q-8 0 -13.5 -5t-6.5 -12l3 -42t39 -80q5 -5 12.5 -5.5t13.5 4.5q6 6 6 13.5t-5 12.5q-28 30 -30 62l-2 32v0z" />
</svg>
