<?xml version="1.0" standalone="no"?>
<!DOCTYPE svg PUBLIC "-//W3C//DTD SVG 1.1//EN" "http://www.w3.org/Graphics/SVG/1.1/DTD/svg11.dtd" >
<svg xmlns="http://www.w3.org/2000/svg" xmlns:xlink="http://www.w3.org/1999/xlink" version="1.1" viewBox="-10 0 1034 1024">
   <path fill="currentColor"
d="M59 1024l5 -308q29 -29 82 -32t133 52l-121 94l22 128q-1 -11 27 -48t33 -47q10 -19 24.5 -33t31.5 -24q22 -14 46 -25t44 -25q24 42 60 58.5t77 16.5q42 0 78 -16.5t60 -58.5q35 24 80 46.5t68 67.5q6 13 29.5 45.5l23.5 32.5l13 -21t30 -51q4 -6 -47 -48.5t-48 -48.5
q24 -41 100 -38t76 8l-25 275h-211l-45 -50v50h-363v-48l-44 48h-239v0zM670 692q1 0 -39.5 46.5t-107.5 46.5q-76 0 -111 -46.5l-35 -46.5q-11 -16 -19 -33.5t-14 -37.5q-5 -19 -8 -39t-3 -40q0 -51 15 -93t41 -72.5t60 -48.5q35 -17 74 -17q40 0 74 17q35 18 61 48.5
t41 72.5q14 42 14 93q0 26 -4 51.5t-12 48.5q-6 13 -12.5 26t-14.5 24v0zM625 464q-17 0 -29 11.5t-12 28.5t12 29t29 12q16 0 28 -12t12 -29t-12 -28.5t-28 -11.5v0zM420 464q-17 0 -29 11.5t-12 28.5t12 29t29 12t29 -12t12 -29t-12 -28.5t-29 -11.5v0zM623 675
q7 -8 11.5 -17t4.5 -18q0 -29 -35.5 -50t-84.5 -21q-50 0 -85 21t-35 50q0 9 4 18t12 17h208v0zM915 27l-820 181l25 64l820 -181zM941 201l-825 -167l-23 64l826 167zM151 227h24v516h-24v-516zM877 227h27v545h-27v-545z" />
</svg>
