<?xml version="1.0" standalone="no"?>
<!DOCTYPE svg PUBLIC "-//W3C//DTD SVG 1.1//EN" "http://www.w3.org/Graphics/SVG/1.1/DTD/svg11.dtd" >
<svg xmlns="http://www.w3.org/2000/svg" xmlns:xlink="http://www.w3.org/1999/xlink" version="1.1" viewBox="-10 0 1034 1024">
   <path fill="currentColor"
d="M328 510q4 51 -19.5 86.5t-61.5 35.5t-68 -35.5t-34 -86.5q-4 -50 20 -85.5t62 -35.5t67.5 35.5t33.5 85.5zM496 331q2 50 -22 85.5t-61 35.5q-36 0 -63.5 -35.5t-29.5 -85.5t22 -85.5t61 -35.5q36 0 63.5 35.5t29.5 85.5zM714 326q-1 50 -27 85.5t-62 35.5
q-37 0 -62.5 -35.5t-24.5 -85.5q0 -50 26.5 -85.5t62.5 -35.5t61.5 35.5t25.5 85.5zM889 512q0 50 -26 85.5t-63 35.5q-36 0 -61.5 -35.5t-25.5 -85.5q1 -50 27 -85.5t62 -35.5q37 0 62.5 35.5t24.5 85.5zM527 466q-22 1 -64.5 9t-67.5 72q-24 65 -37.5 93t-87.5 53
q-38 12 -58 48q-21 35 -25.5 76.5t5.5 80.5q10 38 35 56q54 40 98 40.5t122 -48.5q79 -49 101.5 -24.5t61.5 53.5q39 28 108 33t101 -68t24 -148t-88 -91q-80 -17 -89.5 -67t-28.5 -99q-16 -40 -52 -54.5t-58 -14.5v0zM170 214q-5 9 -21 48t-14 64q2 19 17 32.5t34 13.5
t31 -13.5t10 -32.5q-2 -25 -30 -61t-27 -51v0zM366 27q-13 20 -25.5 53.5t-10.5 58.5q2 19 17 32.5t34 13.5t31 -13.5t10 -32.5q-2 -25 -30.5 -51t-25.5 -61zM634 19q6 26 -17.5 56.5t-22.5 55.5q2 20 16 33.5t33 13.5t32 -13.5t12 -33.5q-2 -25 -22 -61t-31 -51v0zM840 214
q2 16 -24 51.5t-27 60.5q0 20 12.5 33t31.5 13t33.5 -13t14.5 -33q2 -25 -16.5 -64t-24.5 -48z" />
</svg>
