<?xml version="1.0" standalone="no"?>
<!DOCTYPE svg PUBLIC "-//W3C//DTD SVG 1.1//EN" "http://www.w3.org/Graphics/SVG/1.1/DTD/svg11.dtd" >
<svg xmlns="http://www.w3.org/2000/svg" xmlns:xlink="http://www.w3.org/1999/xlink" version="1.1" viewBox="-10 0 1044 1024">
   <path fill="currentColor"
d="M920 1024q-35 -17 -76 -41q-40 -25 -79 -60t-73 -80q-34 -46 -57 -104q-32 -80 -62 -145t-124 -175q-31 18 -103.5 5t-143.5 -84q-25 -24 -39 -63q-15 -38 -22.5 -74.5t-10.5 -63.5l-2 -26l25 1q24 1 59.5 8.5t75.5 22.5t70 42q65 59 93.5 128.5t7.5 95.5q23 15 55 41
q33 25 70 60t77 79t77 98q18 27 48 52q31 25 69 48.5t81 44.5q44 21 88 40v150h-104v0zM154 652l36 85l85 35l-85 35l-36 85l-35 -85l-85 -35l85 -35l35 -85v0zM122 376q15 0 25.5 11t10.5 26t-10.5 26t-25.5 11q-16 0 -26.5 -11t-10.5 -26t10.5 -26t26.5 -11v0zM563 276
q9 -57 64.5 -109.5l55.5 -52.5l34.5 63t27.5 131q-9 75 -43.5 128.5t-62.5 50.5t-60 -61.5t-16 -149.5v0zM884 34l35 85l85 36l-85 35l-35 85l-36 -85l-85 -35l85 -36zM770 553q8 -55 60 -105.5l52 -50.5l34 59.5t27 124.5q-7 71 -39 122.5t-59 48.5q-26 -2 -57.5 -57
t-17.5 -142v0zM339 483q93 4 143 47.5t48 71.5q-3 28 -62.5 50.5t-134.5 15.5q-69 -7 -123 -54l-54 -47l62.5 -43t120.5 -41zM478 748q92 4 142.5 47.5t47.5 70.5q-2 28 -62 51t-134 15q-69 -7 -123.5 -53.5l-54.5 -46.5l63 -43.5t121 -40.5v0zM460 52q19 0 32 13t13 31
q0 19 -13 32t-32 13q-18 0 -31 -13t-13 -32q0 -18 13 -31t31 -13z" />
</svg>
