<?xml version="1.0" standalone="no"?>
<!DOCTYPE svg PUBLIC "-//W3C//DTD SVG 1.1//EN" "http://www.w3.org/Graphics/SVG/1.1/DTD/svg11.dtd" >
<svg xmlns="http://www.w3.org/2000/svg" xmlns:xlink="http://www.w3.org/1999/xlink" version="1.1" viewBox="-10 0 1044 1024">
   <path fill="currentColor"
d="M307 1024l43 -364l-85 -5l-152 -358q-48 -96 -63.5 -174t-0.5 -94q7 -6 38 -4t77 14t103 33q56 22 115 55v0l588 292l-150 58l204 -17v84l-211 -64l211 151v91l-38 -14l-348 -261l145 -34l-234 -92q-30 -4 -70.5 -10.5t-74.5 -2.5q52 54 94 97.5t59 55.5q45 31 109 69
q65 37 131.5 78t127.5 85q61 43 99 85v117q-29 -32 -80 -86t-101 -100t-87 -70q-36 -23 -36 7q0 24 27 60t70 79.5t98 91.5q54 48 109 96v51h-4q-44 -30 -88 -63.5t-80 -66.5q-98 -92 -136 -105t27 60q21 24 72.5 70.5t120.5 104.5h-48l-82 -68q-42 -35 -79 -67t-67 -61
q-30 -28 -49 -48q-6 -7 35.5 -31.5l41.5 -24.5l-45 -86l-133 -103l-17 -17q-18 -18 -44.5 -43t-56.5 -52t-55 -47q-4 38 5.5 82.5t13.5 75.5l9 57l157 1l37 351l167 -26l95 107h-67l-35 -44l-137 44h-102l-6 -350l-122 -14l89 364h-134v0zM1024 398l-265 -119l265 -11v130z
" />
</svg>
