<?xml version="1.0" standalone="no"?>
<!DOCTYPE svg PUBLIC "-//W3C//DTD SVG 1.1//EN" "http://www.w3.org/Graphics/SVG/1.1/DTD/svg11.dtd" >
<svg xmlns="http://www.w3.org/2000/svg" xmlns:xlink="http://www.w3.org/1999/xlink" version="1.1" viewBox="-10 0 1034 1024">
   <path fill="currentColor"
d="M668 710h-71v-123v-14v-14q0 -24 -0.5 -50.5t0.5 -52.5q0 -5 0.5 -10t1.5 -9q1 -9 2 -17.5t3 -16.5t4.5 -15t5.5 -13q6 -12 15.5 -20.5t20.5 -15.5q14 -9 29.5 -16t28.5 -16q15 27 38 37.5t49 10.5q27 0 49.5 -10.5t38.5 -37.5q22 16 51 30t43 43q18 34 17.5 84t-0.5 95
v14t-1 14v123h-71v-185h-11v190v240l18 19l28 27h-153v-294h-17v294h-154l29 -27l18 -19v-240v-190h-12v185v0zM482 385q-4 -6 -6 -10l-2 -4q-6 -9 -10.5 -18.5t-8.5 -20.5q-2 -10 -3.5 -21t-1.5 -22q0 -55 30.5 -90.5t73.5 -35.5t73.5 35.5t30.5 90.5q0 5 -0.5 10.5
t-1.5 10.5q-2 1 -4.5 2.5t-5.5 2.5q-2 2 -4 3l-4 2q1 -7 2 -15t1 -16q0 -48 -25 -79t-62 -31t-62.5 31t-25.5 79q0 10 1.5 19.5t3.5 19.5q3 9 7 17.5t9 16.5q1 0 1.5 1t0.5 2l17 20t48 20q8 0 15.5 -2t13.5 -6l-2 10l-2 10q-6 2 -12 3t-13 1q-28 0 -45.5 -12.5t-26.5 -23.5
q3 -2 6 -5.5t2 -10.5v2.5v2.5q-1 4 -3 6.5t-5 4.5v0zM264 1001h-100v-191h-11v191h-99l18 -18l12 -12v-156v-124h-8v121h-46v-80v-9.5v-9.5v-63t11 -56q8 -16 23.5 -23.5t29.5 -15.5q9 10 25.5 19.5t39.5 9.5q20 0 36.5 -10t26.5 -20q3 2 6.5 3.5t6.5 3.5q4 2 7.5 4t7.5 4
q8 6 15 12.5t12 15.5q4 9 6.5 19.5t3.5 21.5q1 5 1 9v9q1 14 0.5 29t-0.5 28v9.5t-1 9.5v80h-46v-121h-7v280l12 12l15 15l4 -4l-1.5 3t-1.5 2l2 2v0zM247 542q14 -16 32 -25.5t33 -20.5q12 19 28.5 27t35.5 8h4t4 -1q0 -5 1 -10.5t1 -11.5q-2 1 -4.5 1h-5.5
q-35 0 -51.5 -21.5l-16.5 -21.5q-5 -7 -9 -15.5t-6 -17.5q-3 -9 -4 -18t-1 -19q0 -47 26 -77t62 -30q37 0 62.5 30t25.5 77v10t-1 9l8 -4t8 -5q13 23 32.5 32t42.5 9q5 0 11 -0.5t11 -1.5q0 4 -0.5 8.5t-0.5 8.5q-5 1 -10.5 1.5t-10.5 0.5q-24 0 -44.5 -8t-35.5 -28
l-1.5 1.5t-1.5 0.5q-4 2 -9 2t-8 -3q-4 -3 -6 -7t-1 -9q0 -4 0.5 -8.5t0.5 -8.5q0 -39 -21 -64.5t-51 -25.5t-51 25.5t-21 64.5q0 9 1 17t4 16q2 7 5.5 14.5t7.5 13.5l0.5 1t0.5 2l14 16t39 16h4h3q4 -1 8 0t7 4t4 6.5t1 7.5q-1 6 -1.5 11t-0.5 11q-1 6 -5.5 10t-10.5 5
h-4.5h-4.5q-20 0 -37.5 -6.5t-30.5 -22.5q-12 7 -24 14.5t-22 18.5q-1 0 -1 -0.5v-0.5q-4 -2 -7.5 -4t-6.5 -4v0zM309 818v149q0 4 -1.5 7t-3.5 5l-5 5h55v-197q0 -4 2.5 -10t13.5 -6h10q16 0 17.5 8l1.5 8v197h65.5h65.5v-235q0 -9 3 -13t14 -4h11q17 0 18.5 8.5l1.5 8.5
v235h41l-1 1q-3 3 -5 7t-2 9h-50v-252h-14v252h-165v-214h-12v214h-84q0 -5 -1.5 -9t-5.5 -7l-2 -2l2 -2l13 -14v-134q6 -1 10.5 -5t6.5 -10v0zM637 966v-2v-2l-1 -206v-24h17v24v195l-7 7zM220 523l-17 19.5t-44 19.5q-32 0 -46.5 -19.5l-14.5 -19.5q-4 -6 -7.5 -13.5
t-6.5 -15.5q-2 -8 -3 -16.5t-1 -16.5q0 -42 23 -69t56 -27q32 0 55.5 27t23.5 69q0 11 -2 21.5t-5 19.5l-5.5 11t-5.5 10zM889 266l-25.5 29.5t-68.5 29.5q-48 0 -71 -29.5t-22 -29.5q-7 -10 -12.5 -21.5t-9.5 -23.5q-3 -12 -4.5 -24.5t-1.5 -26.5q0 -64 35.5 -105.5
t85.5 -41.5t85.5 41.5t35.5 105.5q0 17 -2.5 33t-7.5 31q-4 9 -8 17t-9 15z" />
</svg>
