<?xml version="1.0" standalone="no"?>
<!DOCTYPE svg PUBLIC "-//W3C//DTD SVG 1.1//EN" "http://www.w3.org/Graphics/SVG/1.1/DTD/svg11.dtd" >
<svg xmlns="http://www.w3.org/2000/svg" xmlns:xlink="http://www.w3.org/1999/xlink" version="1.1" viewBox="-10 0 1034 1024">
   <path fill="currentColor"
d="M831 271l-70.5 -26.5t-207.5 39.5q-33 15 -57 35.5l-24 20.5l-22.5 31t-14.5 85q4 27 18 62q13 35 27.5 66.5t25.5 53.5l11 21l-176 309h179l-26 -33l131 -252l-60 -194l77 119l11 16v-222l28 -13l-1 337l65 19l1 -29q2 -28 4.5 -66.5t4.5 -78.5t3 -63l-24.5 -30.5
t-15.5 -96.5q5 -47 30 -76.5t83 -33.5v0zM785 618l30 48l-28 257l47 45h-159l21 -196l75 19l14 -173v0zM925 330q41 31 51.5 77t-15.5 80q-26 35 -73.5 37.5t-87.5 -28.5q-41 -31 -51.5 -77t15.5 -80q26 -35 73.5 -37.5t87.5 28.5zM812 532l28 6.5t51 7.5l9 69.5t-1 111.5
l-66 13l1 -24t0 -57t-5 -68q-5 -36 -17 -59v0zM874 74q5 -5 12.5 -5t12.5 5q5 6 5 13.5t-5 12.5q-5 4 -7.5 8t-2.5 8q-1 4 0 8t3 7q3 8 7.5 16t8.5 16q5 11 7 22t-1 22q-2 8 -7.5 15.5t-14.5 15.5q-6 5 -13.5 4t-11.5 -6q-5 -6 -4.5 -13.5t6.5 -12.5q4 -3 7 -6.5t4 -6.5
q1 -6 -1 -11t-5 -10q-3 -6 -6.5 -12t-6.5 -12q-5 -11 -7.5 -22.5t0.5 -23.5q2 -7 6.5 -15.5t13.5 -16.5v0zM745 77q-4 -7 -1.5 -14t8.5 -10q7 -4 14 -1.5t10 8.5q6 11 11.5 21t9.5 20q3 9 4.5 19t-1.5 20q-2 9 -8 19t-18 20q-6 5 -13.5 4t-11.5 -6q-5 -6 -4.5 -13.5
t6.5 -12.5t9.5 -9.5t4.5 -8.5q2 -7 0 -14t-5 -14l-8 -14t-7 -14v0zM228 110h125l-122 136q4 -2 8.5 -3t8.5 -1q5 -1 10 -1h11q15 0 29.5 4t29.5 12t27 19.5t21 26.5q9 14 14 32t5 38q0 25 -6 46.5t-17 38.5t-26 29.5t-34 21.5t-39.5 13t-43.5 4t-44 -4t-40 -13t-34 -21.5
t-26 -29.5t-17 -38.5t-6 -46.5q0 -16 3.5 -31t10.5 -29q7 -15 15.5 -28t18.5 -25l118 -150v0zM160 373q0 16 5 28.5t14 21.5q10 10 22.5 14.5t27.5 4.5q14 0 26.5 -4.5t22.5 -14.5q9 -9 14 -21.5t5 -28.5q0 -15 -5 -27.5t-14 -22.5q-10 -10 -22.5 -14.5t-26.5 -4.5
q-15 0 -27.5 4.5t-22.5 14.5q-9 10 -14 22.5t-5 27.5v0z" />
</svg>
