<?xml version="1.0" standalone="no"?>
<!DOCTYPE svg PUBLIC "-//W3C//DTD SVG 1.1//EN" "http://www.w3.org/Graphics/SVG/1.1/DTD/svg11.dtd" >
<svg xmlns="http://www.w3.org/2000/svg" xmlns:xlink="http://www.w3.org/1999/xlink" version="1.1" viewBox="-10 0 1034 1024">
   <path fill="currentColor"
d="M739 617q6 30 5.5 54t-3.5 51q-6 47 -24 85q-19 37 -49.5 64t-72.5 41q-42 15 -94 15q-37 0 -77 -16q-39 -16 -71.5 -47t-53.5 -78t-21 -109q0 -41 17 -90t41.5 -98.5t52.5 -95.5q29 -46 52 -81q-13 54 -1.5 102.5t29.5 93.5q14 -35 30 -71t27.5 -74.5t15.5 -78.5t-6 -83
q27 40 58 93q32 53 61.5 109t51.5 112q23 55 32 102v0zM480 711q-12 -11 -30 -39.5t-22 -47.5q-4 35 -6 84.5t13 80.5q1 1 2 3t2 3q7 12 16.5 20.5t22.5 13.5q31 13 62 -4t45 -48q21 -50 13.5 -115.5t-17.5 -121.5q-9 56 -39.5 96t-61.5 75v0zM731 464l25 -20q24 -19 58 -49
t70 -66t60 -69q23 -32 0 -83l-23 -51l-56 -4.5t-79 27.5q-23 33 -34 86q-12 53 -16.5 104t-4.5 88v37v0zM306 464l-25 -20q-24 -19 -58 -49t-70 -66t-59 -69q-23 -32 0 -83l23 -51l55.5 -4.5t78.5 27.5q23 33 34 86q12 53 16.5 104t4.5 88v37v0zM737 494l69 -27t123 -33
q27 -3 50 27.5l23 30.5l-15.5 34.5t-42.5 37.5q-28 3 -63 -7q-36 -11 -68 -25t-54 -26l-22 -12v0zM300 494l-68.5 -27t-123.5 -33q-27 -3 -49.5 27.5l-22.5 30.5l15.5 34.5t42.5 37.5t62 -7q36 -11 68 -25t54 -26l22 -12v0z" />
</svg>
