<?xml version="1.0" standalone="no"?>
<!DOCTYPE svg PUBLIC "-//W3C//DTD SVG 1.1//EN" "http://www.w3.org/Graphics/SVG/1.1/DTD/svg11.dtd" >
<svg xmlns="http://www.w3.org/2000/svg" xmlns:xlink="http://www.w3.org/1999/xlink" version="1.1" viewBox="-10 0 1044 1024">
   <path fill="currentColor"
d="M432 1024l86 -127l-46 -92l406 -121l81 172l65 56v112h-592zM1024 511l-109 122l-516 158l15 41l-59 20l-30 -98l-195 60q-1 4 -3 7.5t-5 6.5q-13 18 -35.5 20.5t-40.5 -10.5q-17 -14 -20 -36.5t10 -39.5q14 -18 36 -20.5t40 11.5q1 0 2 1l2 2l191 -61l-30 -97l56 -19
l14 43l519 -160l158 41v8v0zM817 236l15 2l-63 209l5 9l-410 120l-3 -14q-1 -3 -3 -6t-5 -4q-3 -2 -10 -1t-10 2l-37 12l68 -55l28 12q28 11 69.5 8.5t87.5 -32.5t82 -113l108 -162l36 5q4 -5 9 -11l10 -12q-14 -7 -28.5 -15t-28.5 -15q3 -4 7 -8.5t8 -8.5q6 3 12 6.5
t13 6.5q29 -32 60 -64.5t63 -63.5q17 -1 34.5 -1.5t35.5 -1.5q3 13 6.5 26.5t6.5 27.5q-28 31 -56 63t-54 65q5 3 11 5.5t12 5.5q-3 5 -6.5 9t-6.5 9q-14 -7 -27.5 -14t-27.5 -14q-3 3 -5.5 6t-5.5 7v0zM840 205q22 -26 45 -52t46 -51l-4 -16q-6 1 -11.5 1.5t-11.5 0.5
q-24 25 -47 50.5t-46 51.5l15 7.5t14 7.5v0zM92 715q1 -6 1.5 -6.5t3.5 -7.5q19 -19 38.5 -33.5t55.5 -8.5l52 -53l20 72l-155 48q-6 -4 -8 -6.5t-8 -4.5v0zM582 321l-17 56t-75 82q-66 29 -115 3t-49 -27q-15 -9 -29.5 -21.5t-27.5 -27.5q-11 -14 -21.5 -30.5t-18.5 -34.5
q-20 -44 -23 -86q-4 -43 7 -79.5t34 -65.5q24 -28 58 -44q34 -15 71 -14q37 2 71.5 18.5t63.5 47.5q30 31 50 75q10 23 16 46.5t8 46.5q1 14 0 28t-3 27v0zM277 797l-22 15q-6 45 -39 52.5t-63 -0.5q-6 -4 -10.5 -8t-8.5 -8v0v0q2 -3 3.5 -5.5t3.5 -5.5l136 -40v0zM654 170
q0 -16 -5 -35.5t-15 -37.5q-11 -19 -25.5 -33t-27.5 -22q22 -7 46.5 2.5t37.5 33.5q14 24 10.5 50t-21.5 42zM119 330q4 23 14.5 49t29.5 51q19 24 41.5 41t43.5 25q-30 15 -66.5 6t-60.5 -40t-24 -68.5t22 -63.5v0zM381 732l402 -123l32 -36l-54 -13l-395 122l15 50v0z" />
</svg>
