<?xml version="1.0" standalone="no"?>
<!DOCTYPE svg PUBLIC "-//W3C//DTD SVG 1.1//EN" "http://www.w3.org/Graphics/SVG/1.1/DTD/svg11.dtd" >
<svg xmlns="http://www.w3.org/2000/svg" xmlns:xlink="http://www.w3.org/1999/xlink" version="1.1" viewBox="-10 0 1034 1024">
   <path fill="currentColor"
d="M0 326l157 18l22 -36l-179 -46v-80l373 86q-10 71 29.5 99.5l39.5 28.5l-154 169l232 48l-304 281l24 55l-115 -28l171 -246l-101 -7l-195 244v-181l167 -282l-167 -30v-93v0zM218 1024q39 -11 84 -26q45 -14 93.5 -32t98.5 -39q51 -22 102 -47q105 -52 175 -140
t105 -192.5t36 -215.5q1 -112 -29 -210q64 119 81 243q18 124 -10.5 237.5t-100.5 208.5q-73 95 -188 156q-34 17 -67.5 31.5t-66.5 25.5h-313v0zM685 1024q41 -25 78 -53t68.5 -57.5t56.5 -60.5q24 -32 39 -65q-11 63 -47 122.5t-88 113.5h-107v0zM849 0q7 18 13 36.5
t10 36.5q-8 -16 -19 -34.5t-25 -38.5h21v0zM776 0q62 97 83 206q21 110 2.5 217t-76.5 204q-57 96 -151 168q63 -72 95 -164q32 -93 32 -193.5t-34 -201.5t-103 -189q-10 -13 -20 -24.5t-21 -22.5h193v0zM521 97q42 5 67 51t18 105q-7 60 -42 98.5t-77 33.5t-67 -50.5
t-18 -105.5q7 -59 42 -98t77 -34v0z" />
</svg>
