<?xml version="1.0" standalone="no"?>
<!DOCTYPE svg PUBLIC "-//W3C//DTD SVG 1.1//EN" "http://www.w3.org/Graphics/SVG/1.1/DTD/svg11.dtd" >
<svg xmlns="http://www.w3.org/2000/svg" xmlns:xlink="http://www.w3.org/1999/xlink" version="1.1" viewBox="-10 0 1034 1024">
   <path fill="currentColor"
d="M820 570q8 39 7 70.5t-5 67.5q-7 61 -31 110q-25 50 -65 84.5t-95 53.5t-122 19q-49 0 -100 -20q-52 -21 -94 -61.5t-70 -102.5q-27 -61 -27 -143q0 -53 22 -117t54 -128.5t69 -124.5t68 -106q-17 70 -2.5 133.5t38.5 123.5q18 -46 39 -93q21 -48 36.5 -98t20.5 -102
q5 -53 -9 -109q35 53 77 121q41 69 79.5 142.5t67.5 146.5q30 73 42 133v0zM482 693q-16 -15 -39.5 -52t-28.5 -61q-6 45 -8.5 110t17.5 105q1 2 2.5 4t2.5 4q9 16 21.5 26.5t29.5 18.5q41 17 81.5 -5.5t57.5 -62.5q14 -33 18 -72q3 -39 0.5 -79.5t-9.5 -81.5
q-7 -40 -14 -77q-12 73 -51.5 125.5t-79.5 97.5v0z" />
</svg>
