<?xml version="1.0" standalone="no"?>
<!DOCTYPE svg PUBLIC "-//W3C//DTD SVG 1.1//EN" "http://www.w3.org/Graphics/SVG/1.1/DTD/svg11.dtd" >
<svg xmlns="http://www.w3.org/2000/svg" xmlns:xlink="http://www.w3.org/1999/xlink" version="1.1" viewBox="-10 0 1034 1024">
   <path fill="currentColor"
d="M676 101q11 50 53 95.5t143 -11.5q101 -58 113 2t14 110q1 24 0 107q-1 82 -2.5 171t-3.5 158l-1 70l-9 67t-47 -44q-20 -56 -32 -114q-12 -59 -19.5 -106.5t-10.5 -77.5l-3 -30l-1 33t-5 72.5t-13 72.5q-8 33 -22 34q-15 1 -26 -39q-11 -39 -18 -91.5t-10 -104.5
q-2 -52 1 -76l-4 28q-5 28 -12 64t-16 70q-9 33 -17 44q-17 21 -40 -13.5t-16 -110.5q8 -76 14.5 -120.5l6.5 -44.5l-11 26q-12 26 -28 54t-33 47t-29 5q-23 -29 -2 -93.5t40 -99.5l-44 41.5t-51 13.5q-7 -29 14 -53t28 -33l-15.5 6.5t-17.5 -7.5q-1 -14 10.5 -38t25.5 -40
l-20 6t-23 -9q-3 -16 17.5 -33t29.5 -22q5 -73 42.5 -55.5t49.5 69.5v0zM348 101q-11 50 -53 95.5t-143 -11.5q-101 -58 -113 2t-14 110q-1 24 0 107q1 82 2.5 171t3.5 158l1 70l9 67t47 -44q20 -56 32 -114q12 -59 19.5 -106.5t10.5 -77.5l3 -30l1 33t5 72.5t13 72.5
q8 33 22 34q15 1 26 -39q11 -39 18 -91.5t10 -104.5q2 -52 -1 -76l4 28q5 28 12 64t16 70q9 33 17 44q17 21 40 -13.5t16 -110.5q-8 -76 -14.5 -120.5l-6.5 -44.5l11 26q12 26 28 54t33 47t29 5q23 -29 2 -93.5t-40 -99.5l44 41.5t51 13.5q7 -29 -14 -53t-28 -33l15.5 6.5
t17.5 -7.5q1 -14 -10.5 -38t-25.5 -40l20 6t23 -9q3 -16 -17.5 -33t-29.5 -22q-5 -73 -42.5 -55.5t-49.5 69.5v0zM661 970l-37.5 -58.5t-37.5 -267.5q0 -1 28 -0.5l28 0.5q-30 134 -11.5 212t30.5 114v0zM363 970l37.5 -58.5t37.5 -267.5q0 -1 -28 -0.5l-28 0.5
q30 134 11.5 212t-30.5 114v0zM779 970l-30 -35.5t-30 -162.5h22.5h22.5q-24 82 -9 129t24 69zM245 970l30 -35.5t30 -162.5h-22.5h-22.5q24 82 9 129t-24 69v0z" />
</svg>
