<?xml version="1.0" standalone="no"?>
<!DOCTYPE svg PUBLIC "-//W3C//DTD SVG 1.1//EN" "http://www.w3.org/Graphics/SVG/1.1/DTD/svg11.dtd" >
<svg xmlns="http://www.w3.org/2000/svg" xmlns:xlink="http://www.w3.org/1999/xlink" version="1.1" viewBox="-10 0 1044 1024">
   <path fill="currentColor"
d="M0 905q15 -64 33.5 -137t34.5 -138l-21 -125l58 -57q7 -12 27 -31l20 -19l6 37.5t12 86.5q4 44 27 106.5l23 62.5l-61 57l0.5 50.5t0.5 110.5q19 -44 44 -81t51 -49q13 -6 26 -13.5t24 -15.5q35 61 87 85t112 24q61 0 112.5 -24.5t86.5 -84.5q3 2 19 16t28 23
q34 27 59.5 65t41.5 78q1 -65 1.5 -124.5l0.5 -59.5l-62 -57l23 -62.5t28 -106.5q5 -49 5 -86v-37l27.5 21.5t32.5 27.5l57 57l-21 125q10 39 21 82q11 44 21.5 87t20.5 84t18 76v65h-1024v-119v0zM222 190q-1 10 -9.5 15.5t-18.5 4.5q-10 -2 -16 -10t-4 -18l20.5 -47.5
t110.5 -86.5q9 -4 18.5 0t13.5 13t0.5 18.5t-13.5 13.5q-67 29 -84.5 63l-17.5 34v0zM754 292q12 32 19 69t7 78q0 38 -6.5 74.5t-17.5 70.5q-8 19 -17.5 37.5t-21.5 35.5q1 0 -14 21q-16 21 -43.5 46t-67.5 46q-39 21 -88 21q-55 0 -95 -21t-66 -46t-39 -46l-12 -21
q-15 -23 -27.5 -49t-20.5 -54q-8 -27 -12 -56t-4 -59q0 -73 22 -135q22 -61 59.5 -105.5t87.5 -69.5t107 -25q14 0 27.5 2t26.5 4v274q0 7 5.5 12.5t12.5 5.5q8 0 13 -5.5t5 -12.5v-262q11 4 21.5 9.5t20.5 11.5v241q0 7 5.5 12.5t12.5 5.5q8 0 13 -5.5t5 -12.5v-214
q13 12 24.5 25t21.5 28v161q0 8 5 13t13 5q7 0 12.5 -5t5.5 -13v-92v0zM615 536q-12 -12 -44 -18t-68.5 -6t-68.5 6q-33 6 -44 18q-24 23 -30.5 42.5t16.5 66.5q17 35 49 1t77 -29q44 6 79.5 35.5t52.5 -5.5q23 -47 14 -67.5t-33 -43.5v0zM120 206q-1 11 -8.5 17.5
t-17.5 5.5t-17 -8.5t-6 -18.5l10.5 -43.5t53.5 -80.5q8 -6 18 -5.5t16 8.5q7 8 6 18t-8 17q-32 26 -39.5 58l-7.5 32v0z" />
</svg>
