<?xml version="1.0" standalone="no"?>
<!DOCTYPE svg PUBLIC "-//W3C//DTD SVG 1.1//EN" "http://www.w3.org/Graphics/SVG/1.1/DTD/svg11.dtd" >
<svg xmlns="http://www.w3.org/2000/svg" xmlns:xlink="http://www.w3.org/1999/xlink" version="1.1" viewBox="-10 0 1034 1024">
   <path fill="currentColor"
d="M291 350h-12h-13q-55 0 -93.5 -8.5t-38.5 -19.5q0 -12 38.5 -20.5t93.5 -8.5q15 0 29.5 1t27.5 2l13 -11l57 7t106 -48l106 3q7 -1 15 -1h16q41 0 70 5.5t29 13.5t-24 13.5t-59 6.5l72 57l82 122l-58 35l-80 -118l-78 -40l78 180l-16 102q13 -1 27.5 -2t29.5 -1
q55 0 94 8.5t39 20.5q0 11 -39 19.5t-94 8.5q-18 0 -34.5 -1t-30.5 -3l-14 89l13 17q8 -1 19 -2t22 -1q29 0 50 5.5t21 13.5t-21 14t-50 6q-4 0 -8 -0.5t-8 -0.5l73 101l-45 98l-26 -93l-134 -147l22 -204l-29 9l-60 195l69 135l-70 110l2 -102l-93 -150q-11 1 -22.5 1.5
t-23.5 0.5q-54 0 -93 -8.5t-39 -20.5q0 -11 39 -19.5t93 -8.5q15 0 29 0.5t27 2.5l59 -185l-64 -155l-54 112l-103 114l-54 -50l94 -111l26 -89v0zM476 121q8 48 -10.5 87t-54.5 49q-40 11 -78 -18t-52 -81q-14 -51 4 -95.5t57 -55.5q33 -8 65 10t52 55q16 -2 34.5 -3.5
t39.5 -1.5q55 0 93.5 8.5t38.5 19.5q0 12 -38.5 20.5t-93.5 8.5q-15 0 -29.5 -1t-27.5 -2v0zM964 565q0 9 -22.5 15t-53.5 6t-53.5 -6t-22.5 -15t22.5 -15t53.5 -6t53.5 6t22.5 15zM341 796q0 8 -37 14t-90 6q-52 0 -89 -6t-37 -14q0 -9 37 -15t89 -6q53 0 90 6t37 15z
M886 218q0 8 -30 14t-72 6t-72 -6t-30 -14q0 -9 30 -15t72 -6t72 6t30 15zM279 257q0 10 -40.5 18t-98.5 8t-98.5 -8t-40.5 -18q0 -11 40.5 -18.5t98.5 -7.5t98.5 7.5t40.5 18.5zM1008 711q0 11 -41 18.5t-98 7.5q-58 0 -99 -7.5t-41 -18.5t41 -18.5t99 -7.5q57 0 98 7.5
t41 18.5v0z" />
</svg>
