<?xml version="1.0" standalone="no"?>
<!DOCTYPE svg PUBLIC "-//W3C//DTD SVG 1.1//EN" "http://www.w3.org/Graphics/SVG/1.1/DTD/svg11.dtd" >
<svg xmlns="http://www.w3.org/2000/svg" xmlns:xlink="http://www.w3.org/1999/xlink" version="1.1" viewBox="-10 0 1044 1024">
   <path fill="currentColor"
d="M1024 293v225l-74 -27l-26 -6q-25 -6 -64.5 -12t-86.5 -11q-46 -5 -88 -2l-12 -6.5t-30 -16.5q-21 -12 -44.5 -26.5t-39.5 -24.5l-205 -71l-18 -72l25 2t84 9q13 1 28 3t32 4q25 3 55 7t64 9l-44 -34.5t-165 -34.5q-61 -1 -113 10q-53 11 -91.5 24t-60.5 24l-22 11
l-49 -69l42 -19t104.5 -42.5t134.5 -44.5q73 -21 133 -25l60 5.5t96 21.5q32 13 58 38q26 24 62 52t91 53q55 26 144 41l20 5v0zM294 257l19 40l-149 35l-30 -29l160 -46v0zM304 324l-95 21l20 25l51 -9q5 -10 11 -19.5t13 -17.5v0zM752 847v0l12 -28l-1 -1q1 -3 2.5 -6
l2.5 -5q7 -18 13.5 -36t12.5 -37q4 -13 4.5 -22t0.5 -23q0 -4 -1.5 -7t-5.5 -5q-43 -23 -83.5 -52.5t-83.5 -52.5q-29 -16 -17 -48.5t-22 -45.5q-17 -7 -36 -12.5t-41 -10.5q-41 -9 -85 -10q-44 -2 -85 8.5t-77 34.5q-35 24 -62 66q-4 7 -9 15.5t-9 18.5v0v1v0v0l-9 23v0
h-0.5h-0.5v0q-3 11 -6 20.5t-4 17.5q-10 48 -1 90q10 43 32.5 78.5t54.5 64.5q33 30 69 52q19 11 37 20.5t34 16.5q34 13 47.5 -18.5t45.5 -23.5q48 13 98.5 21t97.5 20q4 1 7 0t6 -4q10 -9 14.5 -17.5t10.5 -20.5q9 -17 17 -35t15 -36q1 -2 2 -5t3 -6v0zM591 603
q3 22 -8 42.5t-26 34.5q-4 4 -8 7t-7 4q-21 10 -33 3t-28 -19q-4 -4 -11.5 -19.5t-6.5 -21.5q4 -21 9.5 -39.5t15.5 -35.5q2 -5 11.5 -19t16.5 -12q24 9 47.5 28t27.5 47v0zM685 768l-28 68l32 12l-10 24h-0.5h-0.5l-30 -12h-0.5h-0.5l-29 79h-0.5h-0.5l-23 -10h-1v0l30 -78
v-1h-1l-29 -12q-1 0 -1 -0.5v-0.5l10 -24l31 13l28 -67v-1v0l-30 -12q-1 0 -1 -0.5v-0.5l10 -24v0h1l30 12v0v-1l30 -86l13 5l13 5l-31 86v0.5v0.5l30 12q1 0 1 0.5v0.5l-10 24v0h-1l-30 -12h-0.5h-0.5v0zM479 884q-23 17 -53 15t-53 -12q-7 -3 -4 -19.5t4 -22.5
q6 -19 16.5 -39.5t22.5 -38.5q3 -5 18 -11t21 -5q20 2 32 8t21 27q1 4 2 8.5t1 10.5q1 21 -5 43.5t-23 35.5v0zM605 720l-32 38l-1 24.5t-2 23.5l-26 -36l-26 -36l43.5 -7z" />
</svg>
