<?xml version="1.0" standalone="no"?>
<!DOCTYPE svg PUBLIC "-//W3C//DTD SVG 1.1//EN" "http://www.w3.org/Graphics/SVG/1.1/DTD/svg11.dtd" >
<svg xmlns="http://www.w3.org/2000/svg" xmlns:xlink="http://www.w3.org/1999/xlink" version="1.1" viewBox="-10 0 1044 1024">
   <path fill="currentColor"
d="M0 670l350 -82l-11 -6.5t-18 -11.5l-2 -2l-2 -2q-2 -9 -1.5 -17.5t3.5 -18.5q0 -1 0.5 -1.5l0.5 -0.5q2 -1 4 -1t5 1q24 16 52 31l28 15l25 -6l-40.5 -36.5t-85.5 -76.5q-3 -3 -3 -10.5t1 -13.5q0 -6 9.5 -9.5t9.5 -2.5q42 32 80.5 59.5t81.5 58.5q2 2 3.5 1.5t2.5 -2.5
l12 -18v-0.5v-1.5q-33 -42 -67 -84l-68 -84q-4 -5 -3 -11l1 -6q9 -13 24 -15.5t17 0.5q31 38 62.5 76.5t63.5 76.5q1 1 2 1h2l25 -9v0v0l0.5 -0.5t0.5 -1.5v0v0l-4 -6v-0.5v-0.5h0.5h0.5q10 7 21.5 10t22.5 8q1 0 1 1v1q0 9 -1 18t-1 17q-2 17 5.5 21t20.5 8q7 3 14.5 4
t14.5 4l0.5 0.5l0.5 0.5q8 12 -4 29t6 29q4 3 11 7t17 10q13 7 19 14.5t9 22.5q2 14 7 26.5t13 24.5q8 14 21 21t29 6q14 -1 29.5 -2t28.5 -8v0q0 -1 1 -0.5l1 0.5v0v0q1 3 2.5 6.5t2.5 6.5q4 9 11 39q7 29 17 70t21 87q11 47 21 90h-204l-22 -234l-2 -2t-2 -1
q-29 1 -58 -3.5t-54 -18.5q-4 -2 -11 -7t-16 -12t-18.5 -14.5t-19.5 -14.5l-323 307h-50l384 -365q26 -27 55.5 -54l29.5 -27l8 -7t3 -5l-0.5 -0.5t-1.5 -0.5q-3 1 -65 15q-62 13 -154 32.5t-200 42.5q-108 24 -203 44v-29v0zM1024 797q-11 -20 -22.5 -40t-22.5 -39
q-10 -17 -21 -34t-20 -36v-1.5t1 -1.5q9 -9 17.5 -18.5t17.5 -18.5q4 -4 7 -8l6 -8q1 -2 0.5 -2.5t-1.5 0.5q-14 9 -28 19t-25 17q-22 14 -47 25.5t-49 14.5q-3 1 -7 0.5t-9 -1.5q-20 -6 -26.5 -29t-10.5 -42q-2 -10 -8 -18t-14 -14q-4 -2 -8 -3t-8 -3q-7 -2 -12.5 -8.5
t-1.5 -15.5q5 -9 9.5 -18t8.5 -18v-0.5t-1 -1.5q-2 -2 -5 -3.5t-6 -2.5q-14 -5 -25 -9t-19 -7q-7 -4 -7 -9.5t1 -13.5q1 -6 2 -12.5t2 -13.5q1 -2 0 -3t-3 -1q-9 0 -18.5 -1.5t-19.5 -4.5q-13 -3 -28.5 -13.5t-12.5 -26.5q2 -11 7 -22.5t9 -22.5q6 -17 13.5 -35.5
t12.5 -36.5q2 -7 3.5 -15t-1.5 -14q-6 -10 -14 -20t-10 -22q-4 -22 -6 -38t-1 -36t10 -55.5t14 -53.5l135 -2h242v797zM309 293v78h-91v91h-79v-91h-91v-78h91v-91h79v91h91v0zM480 103v48h-56v56h-48v-56h-56v-48h56v-56h48v56h56zM516 287q12 8 20.5 20.5t17.5 23.5v1v1
q-3 18 -8.5 35t-8.5 34q-1 2 -1 3v2v2l-1 -1q-15 -27 -30.5 -54t-31.5 -54q-2 -3 -2 -6.5t2 -5.5q9 -10 21 -9t22 8v0zM139 748q-2 -2 -3.5 -5t-2.5 -6q0 -3 -0.5 -6t-0.5 -6q0 -16 9 -26t21 -10q13 0 21.5 10t8.5 26q0 4 -0.5 8t-1.5 7l-2 4t-3 4l-6.5 6t-16.5 6
q-12 0 -17.5 -6l-5.5 -6v0zM188 759q4 2 10.5 6t8.5 9q5 8 5 20.5v23.5q0 2 -0.5 3.5t-0.5 3.5v31h-17v-46h-3v107l4 4l7 7h-38v-73h-4v73h-38l7 -7l4 -4v-107h-2v46h-18v-31v-3.5v-3.5v-24t4 -22q2 -4 8.5 -7.5t9.5 -5.5l7.5 4.5t18.5 4.5q12 0 19.5 -4.5l7.5 -4.5v0z
M632 872v57h-66v66h-57v-66h-67v-57h67v-67h57v67h66z" />
</svg>
