<?xml version="1.0" standalone="no"?>
<!DOCTYPE svg PUBLIC "-//W3C//DTD SVG 1.1//EN" "http://www.w3.org/Graphics/SVG/1.1/DTD/svg11.dtd" >
<svg xmlns="http://www.w3.org/2000/svg" xmlns:xlink="http://www.w3.org/1999/xlink" version="1.1" viewBox="-10 0 1044 1024">
   <path fill="currentColor"
d="M1024 615v246l-92 -2l-80 64l-132 22l-167 -273l-198 15l-7 18l-206 -5l5 -84l407 5l124 145l141 -29l-132 -18l-61 -120l-86 -58l-28 -43l52 -73l29 41l75 48l201 111l155 -10v0zM534 713l31 66l-179 33l-10 -77zM474 964l160 -60l35 54l-151 54l-44 -48v0zM420 861
l164 -42l30 52l-168 65l-26 -75v0zM376 352q5 24 4.5 42.5t-3.5 40.5q-8 72 -57 115.5t-130 43.5q-58 0 -115.5 -48.5t-57.5 -146.5q0 -32 12 -70q13 -38 32.5 -76.5t41.5 -74.5t41 -63q-11 41 -2 79t23 74q22 -55 45.5 -114t6.5 -126q21 31 46 72q25 42 47.5 85.5
t40.5 87.5q18 43 25 79v0zM174 426q-10 -9 -23.5 -31t-17.5 -37q-3 27 -4.5 66t10.5 63q1 1 1.5 2.5t1.5 2.5q5 9 12.5 15.5t17.5 10.5q25 11 49 -2.5t34 -37.5q17 -40 11.5 -91t-14.5 -94q-7 43 -30.5 74.5t-47.5 58.5v0z" />
</svg>
