<?xml version="1.0" standalone="no"?>
<!DOCTYPE svg PUBLIC "-//W3C//DTD SVG 1.1//EN" "http://www.w3.org/Graphics/SVG/1.1/DTD/svg11.dtd" >
<svg xmlns="http://www.w3.org/2000/svg" xmlns:xlink="http://www.w3.org/1999/xlink" version="1.1" viewBox="-10 0 1034 1024">
   <path fill="currentColor"
d="M849 535q-2 2 -4 3.5t-5 2.5q-40 26 -84 35t-85.5 2.5t-76.5 -28.5q-36 -21 -59 -57t-29 -78q-5 -41 6 -81.5t38 -76.5q26 -37 66 -63t84 -35t85.5 -2.5t77.5 28.5q35 22 58 58q36 55 30 120.5t-47 119.5l-32 -90l-34 111q-1 9 2.5 17t8.5 14v0zM606 297l-27 38.5t9 82.5
q56 71 120.5 43l64.5 -28q-123 -39 -145 -87.5l-22 -48.5v0zM439 275q12 -45 41.5 -85.5t73.5 -68.5q41 -27 85.5 -37.5t87.5 -6.5v13.5v13.5q-39 -4 -80 5.5t-79 33.5q-40 26 -66.5 62.5t-37.5 77.5q-6 -3 -12 -4.5t-13 -3.5v0zM527 70q-3 2 -6.5 3.5t-6.5 4.5
q-40 25 -66.5 62t-37.5 77q-1 5 -7 5t-9 -1t-6 -4t-3 -7q12 -45 41 -85.5t74 -69.5q2 -1 4 -2.5t4 -2.5q4 -2 9 -0.5t7 3.5q3 3 4.5 7.5t-1.5 9.5v0zM0 118l91 160l267 77l103 40l0.5 53.5t16.5 78.5q27 42 78 67l51 25l48 405h-270l82 -48l-27 -161l-373 209h-67v-428
l178 -100l-178 -49v-329v0zM889 387l42 119q1 2 1 4v4q-2 23 -20 37.5t-42 12.5q-23 -2 -37.5 -20.5t-12.5 -41.5q0 -1 0.5 -1.5t0.5 -1.5l33 -111q2 -6 6.5 -9.5t10.5 -3.5t11 3t7 9v0zM872 393l-34 111q-1 16 9 28t25 14q16 1 28 -9t14 -25l-42 -119v0z" />
</svg>
