<?xml version="1.0" standalone="no"?>
<!DOCTYPE svg PUBLIC "-//W3C//DTD SVG 1.1//EN" "http://www.w3.org/Graphics/SVG/1.1/DTD/svg11.dtd" >
<svg xmlns="http://www.w3.org/2000/svg" xmlns:xlink="http://www.w3.org/1999/xlink" version="1.1" viewBox="-10 0 1034 1024">
   <path fill="currentColor"
d="M591 636q2 1 25.5 1.5t31.5 1.5q9 1 27.5 -4t27.5 -6q26 -2 36 -7t35 -16q14 -7 20.5 -17.5t20.5 -21.5q22 57 42 118t40 137l-29 23q-29 24 -92 55t-164 61q-102 30 -246 43l38 -40t-3 -122q-21 -41 -56 -118t-68.5 -153t-58.5 -133l-25 -56l-34 -44t-78 -53l47 -23
q47 -22 117.5 -50.5t151.5 -54.5q82 -26 151 -33l43.5 47t90.5 118q-4 7 -38.5 39.5t-51.5 44.5q-16 11 -42 40t-32 43q-18 42 -21.5 70t3.5 60q1 6 -31 41t-31 40q-10 31 5 69.5t19 34.5q30 -31 40.5 -42.5t31.5 -36.5q8 -9 25 -29t32 -27v0zM301 329q-1 3 -2 8t-1 11
q0 12 1.5 25.5t1.5 20.5q0 2 -1 4.5t-2 4.5q-1 4 -1.5 7.5t0.5 7.5t5 6t8 0q4 -1 6 -4.5t1 -7.5q0 -1 1 -2.5t1 -3.5l2 -6t1 -6q0 -6 -1 -17.5t-2 -22.5v-6v-5t0.5 -3t0.5 -2q2 6 4.5 11.5t5.5 9.5q6 11 13 17.5t14 8.5q6 1 12.5 -1t13.5 -8q1 -1 2 -3t2 -5v-2.5v-2.5
q4 3 9.5 4t10.5 0q1 -1 3 -1.5t4 -0.5l3.5 -3.5t1.5 -2.5q2 -3 3.5 -8t2.5 -11q1 -8 1.5 -16.5t1.5 -16.5q1 -3 1.5 -6t1.5 -5q5 5 9.5 10t10.5 11q1 1 4 5t5 7q2 1 3 2t1 2q3 1 5.5 1h3.5q3 -1 5 -3t3 -6q0 -4 2 -21t6 -32q2 4 4 7l4 6q5 6 10 11t10 8q6 2 11.5 1t11.5 -5
l4.5 -4.5t4.5 -5.5q2 2 5 4t6 3q4 2 8 1t6 -5t1 -8t-5 -6q-5 -2 -8.5 -5t-7.5 -6q-1 -2 -3 -3t-4 -1t-4 0.5t-3 1.5q-2 2 -4 5t-3 5l-1.5 2.5t-3.5 3.5q0 1 -1 1.5t-1 1.5q-8 -5 -13.5 -13.5t-9.5 -14.5q-1 -3 -2.5 -5t-2.5 -4v-0.5v-1.5l-2 -2t-1 -2q-2 -1 -3 -2t-3 -1
t-4.5 0.5t-4.5 2.5q-2 1 -4 3.5t-3 6.5q-3 8 -5.5 22t-4.5 26q-7 -7 -12 -13t-12 -13q-2 -2 -5 -2.5t-6 -0.5l-2 1q-5 2 -9.5 7.5t-6.5 14.5t-3 19.5t-3 20.5q0 3 -0.5 6.5t-1.5 5.5l-0.5 0.5t-1.5 0.5v-0.5t-1 -0.5l-2 -2l-2 -2q-2 -3 -4 -6.5t-3 -6.5t-1.5 -6.5t-1.5 -7.5
q-1 -1 -2.5 -6.5t-2.5 -7.5q-2 -3 -4 -4t-4 -1q-3 -1 -5.5 0t-4.5 2q-2 2 -3 4.5t-1 5.5q0 2 1 4t1 4q2 3 3.5 8t4.5 10q0 5 -0.5 9.5t-0.5 9.5q0 1 -0.5 3t-0.5 4v0v0v3q-1 1 -2 1.5t-2 0.5q-2 0 -4 -2.5t-5 -4.5q-9 -13 -16 -33t-12 -34q0 -2 -1 -3.5t-2 -1.5q-1 -1 -8 -2
t-9 8q0 1 -1 6.5t-1 7.5v1.5v1.5l-2 20v0zM367 352l1 -1v0v0zM408 486l-5 -5t-5 -6q-4 -4 -7.5 -7t-5.5 -4q-3 -1 -5.5 -1.5t-4.5 -0.5l-5 2.5t-5 4.5t-4 8t-3 11q-3 11 -4.5 24.5t-2.5 19.5q-1 4 1.5 7.5t6.5 3.5q5 1 8.5 -1.5t3.5 -6.5q1 -6 2.5 -20t5.5 -25v-1.5t1 -1.5
l0.5 0.5l0.5 0.5q4 4 8.5 9t8.5 8q3 3 6 4t5 1q6 0 10 -3t7 -8l0.5 0.5t0.5 1.5q4 6 9 8t10 0q4 -1 6 -5t0 -8q-1 -3 -3 -5t-5 -2q0 -1 -1 -2.5t-1 -2.5q-3 -6 -5.5 -12.5t-4.5 -8.5t-4.5 -3t-6.5 0l-1.5 1t-3.5 3q-1 0 -3 4.5t-3 6.5q0 1 -0.5 4.5t-1.5 6.5v0v0v0zM54 313
l-20.5 39.5t7.5 89.5q28 49 68.5 52t61.5 0l-3 -35l-44 6t12 -106l-82 -46v0zM382 930l-56 62l-41 -18.5t-28 -81.5q14 -64 47.5 -68t39.5 13l8 30l-25.5 -10t-34.5 41l16 9.5t74 22.5v0zM462 674l28 -26q27 -26 69.5 -68t93.5 -95q51 -52 97 -105l-18 26q-19 27 -54.5 73.5
t-89.5 109.5t-125 134l0.5 -11.5t-1.5 -37.5v0zM712 309q22 -25 44 -50.5t44 -51.5q-1 2 -3 17t-1 19q1 0 8 -22t9 -29q8 -10 17 -20l18 -20q11 -11 21.5 -22.5t20.5 -24.5q18 -22 33.5 -45.5t33.5 -45.5l-10 102t-16 104q-2 2 -39.5 52.5t-37.5 51.5v0v0l26 -19t37 -29
q-2 7 -4 13.5t-4 13.5q-7 22 -14.5 43.5t-17.5 43.5q-2 4 -4 8.5t-4 8.5q-1 1 -2.5 1.5t-2.5 1.5q-6 5 -35.5 21t-30.5 17q0 1 6.5 0l6.5 -1q2 1 20.5 -4.5t23.5 -6.5q-4 6 -7.5 12.5t-6.5 13.5q-12 21 -25 42t-28 40q-19 25 -41.5 36.5t-44.5 17.5q-21 6 -42.5 8.5
t-41.5 4.5q-8 0 -16 0.5t-16 1.5q72 -80 131 -163q60 -82 102.5 -149t66.5 -110l23 -42q-34 56 -81 117q-46 60 -96.5 118t-100.5 111t-92 95q-1 -5 -1 -9.5v-9.5q-2 -25 2.5 -54.5t24.5 -60.5q3 -5 7.5 -10.5t8.5 -11.5q3 -3 6 -6.5t7 -6.5q2 7 5.5 16.5t4.5 13.5
q2 5 6.5 15.5t5.5 11.5q1 0 -3.5 -31t-5.5 -38q16 -13 32 -27t31 -29q8 -8 15 -15.5t15 -15.5q-1 1 -4 15t-1 21v0v0v0.5v0.5v-1v0q0 -2 7.5 -22t9.5 -27v0z" />
</svg>
