<?xml version="1.0" standalone="no"?>
<!DOCTYPE svg PUBLIC "-//W3C//DTD SVG 1.1//EN" "http://www.w3.org/Graphics/SVG/1.1/DTD/svg11.dtd" >
<svg xmlns="http://www.w3.org/2000/svg" xmlns:xlink="http://www.w3.org/1999/xlink" version="1.1" viewBox="-10 0 1044 1024">
   <path fill="currentColor"
d="M1024 443l-17 6l-46 305l-90 -100l-115 43l152 -176l34 128l34 -297l48 -31v122v0zM1024 97l-120 146l-54 213l-18 -247l163 -209h29v97v0zM375 992q-27 -1 -48.5 -6.5t-50.5 -14.5q-24 -8 -53 -25q-30 -18 -58 -47t-51 -71q-23 -41 -33 -97q-6 -48 -12.5 -99.5
t-6.5 -103.5q0 -26 3 -55t9 -60q10 -61 29 -117q19 -57 51.5 -104.5t81.5 -83.5q49 -37 119 -60q12 -4 26.5 -5t30.5 -1h0.5h0.5v1h35q0 -1 0.5 -1h0.5q16 1 30.5 2.5t26.5 4.5q44 8 80.5 25.5t66.5 42.5l-219 178l-9 127l-34 85l40 70v3.5t-1 5.5l-29 174l1 17l-151 -3
h-0.5t-0.5 1v36v1h1l154 3l5 86l-35 91v0zM265 434q-35 0 -59.5 24.5t-24.5 59.5t24.5 59.5t59.5 24.5q34 0 58.5 -24.5t24.5 -59.5t-24.5 -59.5t-58.5 -24.5v0zM694 157q45 52 71 119t38 137q5 31 7.5 60t2.5 55q-1 53 -51 54t-56 49q-9 70 -26.5 140.5t-27.5 140.5
q0 6 -3.5 9.5t-8.5 5.5q-19 8 -31 11.5t-32 5.5q-28 2 -56 3t-56 1q-4 0 -8.5 -0.5t-9.5 0.5v0h-34l36 -34l-8 -98h32l0.5 0.5l0.5 0.5v47v1v0h38h0.5h0.5v-48h0.5h0.5l133 -4l0.5 -3.5l0.5 -3.5q0 -1 -0.5 -17.5l-0.5 -16.5l-133 6v0v0v-47q0 -1 -0.5 -1h-0.5h-38h-0.5
t-0.5 1v46v1h-1l-35 -1l-2 -22l10 -90l50 17l-14.5 -24.5t-28.5 -48.5l2 -23l-25 -81l46 -89l-13 -108l231 -151v0zM646 601q36 -20 49 -62t12 -78q0 -11 -23.5 -16t-31.5 -6q-29 -3 -57 -1t-59 8q-7 1 -21 20t-16 27q-8 28 -15 46.5t17 42.5q4 4 10 7.5t13 7.5
q28 12 61.5 16t60.5 -12v0z" />
</svg>
