<?xml version="1.0" standalone="no"?>
<!DOCTYPE svg PUBLIC "-//W3C//DTD SVG 1.1//EN" "http://www.w3.org/Graphics/SVG/1.1/DTD/svg11.dtd" >
<svg xmlns="http://www.w3.org/2000/svg" xmlns:xlink="http://www.w3.org/1999/xlink" version="1.1" viewBox="-10 0 1034 1024">
   <path fill="currentColor"
d="M396 0h588l-329 211l180 230l-467 412l170 -389l-305 -306l163 -158v0zM617 756l339 -95l-31 113l-306 16v-1.5v-1.5q0 -8 -0.5 -15.5t-1.5 -15.5v0zM307 674l-213 -243l90 -4l141 227l-9.5 9.5t-8.5 10.5zM287 872l-158 101l9 -85l137 -44q2 7 5 14t7 14v0zM615 826
l291 19l-18 65l-278 -67q2 -4 3 -8.5t2 -8.5v0zM358 632l-100 -209l68 -4l55 202q-6 3 -12 5.5t-11 5.5v0zM267 814l-124 20l5 -49l117 8q1 5 1.5 10.5t0.5 10.5v0z" />
</svg>
