<?xml version="1.0" standalone="no"?>
<!DOCTYPE svg PUBLIC "-//W3C//DTD SVG 1.1//EN" "http://www.w3.org/Graphics/SVG/1.1/DTD/svg11.dtd" >
<svg xmlns="http://www.w3.org/2000/svg" xmlns:xlink="http://www.w3.org/1999/xlink" version="1.1" viewBox="-10 0 1034 1024">
   <path fill="currentColor"
d="M293 143l-74.5 -11t-130.5 77q-55 87 -51.5 141.5t3.5 69.5l44.5 3t85.5 -24l16 -64t92 -76l15 -116v0zM727 148l10 44.5t10 61.5l44 28t59 127l37 12t96 0l-1 -70t-36 -125q-35 -54 -91 -76.5t-128 -1.5v0zM762 657l46 124l124 46l-124 46l-46 124l-46 -124l-123 -46
l123 -46zM800 615q-6 -9 -16 -15t-22 -6q-14 0 -25 8t-16 21l-42 114l-113 42q-13 4 -21 15.5t-8 25.5t8 25t21 16l89 36q-29 6 -90 7q-61 2 -122.5 1t-108.5 -3l-46 -2l-67 -317q20 -22 27 -63t7 -81t-4 -69l-3 -30q22 -22 45 -26l23 -4l16 -159l69 -33q0 24 23.5 41
t91.5 17t82.5 -31.5l14.5 -31.5l67 38l28 147q22 0 48 23.5l26 23.5q-11 42 -9 85q3 42 10 76.5t15 55.5l8 22l-6 31v0zM102 30l14 40l39 15l-39 14l-14 40l-15 -40l-39 -14l39 -15l15 -40v0zM122 484l25 66l66 25l-66 25l-25 66l-24 -66l-67 -25l67 -25l24 -66v0zM920 533
l18 48l48 19l-48 18l-18 48l-19 -48l-48 -18l48 -19z" />
</svg>
