<?xml version="1.0" standalone="no"?>
<!DOCTYPE svg PUBLIC "-//W3C//DTD SVG 1.1//EN" "http://www.w3.org/Graphics/SVG/1.1/DTD/svg11.dtd" >
<svg xmlns="http://www.w3.org/2000/svg" xmlns:xlink="http://www.w3.org/1999/xlink" version="1.1" viewBox="-10 0 1034 1024">
   <path fill="currentColor"
d="M209 646q-2 -8 -4 -17t-3 -18q-7 -46 9.5 -100t44.5 -94q19 -27 43.5 -45t54.5 -32q2 -1 3 -3.5t0 -5.5q-5 -12 -10 -23.5t-11 -23.5q-5 -10 -14 -33t-22 -57v-0.5v-0.5v-0.5t1 -0.5v0v0l36 -5t79.5 -11.5t80.5 -11.5l36 -5h0.5h0.5v0v0v0.5v0.5l-103 232q-2 4 -1 6t4 4
l8 4t9 3q55 12 109.5 24t108.5 23v0v0l2 2t0 2v0v0l-42 115q-1 4 0.5 6.5t4.5 3.5l12 4l12 4q13 4 30 7.5t29 6.5q7 2 14 3.5t13 3.5h1.5h0.5q0 -1 -0.5 -1h-0.5q-17 -14 -30.5 -24t-33.5 -25q0 -1 -0.5 -1t-0.5 -1q9 -24 22 -54.5t21 -54.5q4 -15 4 -26t-19 -15
q-53 -11 -98 -22t-98 -22v0v0l-0.5 -1l-0.5 -1v0v0q26 -57 44.5 -104.5t43.5 -105.5h8.5t8.5 1q-2 30 -3.5 60t-2.5 61q-1 3 0 6.5t2 6.5q1 1 23.5 10t24.5 10q55 25 75.5 41.5t34.5 30.5q22 23 36.5 53t22.5 61v0v1t1.5 7.5l1.5 6.5q8 58 -2 115q-9 58 -29.5 113t-49.5 107
q-30 52 -62 97l-0.5 0.5t-1.5 0.5q-38 8 -63 11.5t-47 6.5q-14 3 -26 4l-24 2q-16 3 -32.5 4t-32.5 1h-1h-1q-3 -2 -6 -4.5t-8 -5.5q-28 -21 -56 -46.5t-54 -54.5q24 -10 40 -17l16 -7l4 -2l4 -2q13 -10 15 -25.5t-8 -28.5q-1 -2 -3 -3.5t-3 -3.5l-151 -117v0v0
q-11 -9 -21.5 -11t-19.5 0v0zM214 76q62 -19 125 -21.5t143 21.5q-1 0 -1 0.5v0.5q-2 2 -33.5 11.5t-35.5 10.5q-58 -11 -103 -4t-90 22q-2 0 -4.5 1t-4.5 2l2 -22l2 -22v0zM79 274q-3 28 3 56.5t20 57.5l2 4l2 4q26 -41 54.5 -75.5t74.5 -70.5q5 8 10.5 17t10.5 17
q-47 37 -75 73t-52 79q5 8 11.5 13.5t12.5 13.5l-4 14t-5 13q-2 5 -2.5 9.5t-1.5 8.5q-8 -9 -16.5 -16t-15.5 -16q-1 2 -1.5 4t-1.5 5q-18 42 -20 82t15 72q4 7 14.5 19.5t16.5 17.5q-4 11 -7 22l-6 22q-13 -11 -29.5 -29t-23.5 -33q-21 -40 -20 -88t22 -101q4 -8 7.5 -16
t7.5 -16q-5 -8 -9 -16l-8 -16q-15 -32 -22 -64.5t-5 -63.5q3 1 6 1h6h0.5h0.5q7 0 14 -1t14 -3v0zM959 250q5 23 4 48.5t-8 52.5q4 6 7 12.5t6 12.5q24 51 27.5 102t-16.5 97q-17 38 -47.5 67t-71.5 48q1 -3 2 -8t3 -9q1 -1 0.5 -3t0.5 -3q4 -5 4.5 -12t3.5 -12q1 -2 1.5 -4
t1.5 -4q22 -15 38.5 -34t26.5 -42q15 -36 13 -75.5t-19 -79.5q-8 19 -19.5 39t-25.5 40q0 -2 -7 -27l-7 -25q8 -13 14.5 -26t11.5 -26q3 -6 5 -11.5t4 -11.5q-19 -28 -43.5 -55.5t-55.5 -52.5q3 1 5.5 1h5.5v0h51q13 13 25 26t22 27q1 -14 0 -27t-4 -25h41v0zM787 228
q-17 -12 -35.5 -23.5t-38.5 -21.5q-6 -5 -18 -14.5l-12 -9.5l-3 -45l11 -2.5t21 -3.5q21 -1 40.5 -0.5t38.5 2.5q12 2 24.5 4.5t23.5 6.5l-24 35q-7 -2 -14.5 -3.5t-15.5 -2.5q-12 -2 -25.5 -2.5t-27.5 -0.5q17 9 33 18.5t30 19.5l-3 5q-8 12 -8 22t3 16v0zM343 804v0h1
q1 2 0.5 4t-2.5 3v1h-1l-192 82q-1 1 -2 0.5t0 -2.5q6 -46 18 -91.5t29 -90.5q3 -8 8 -10t13 4l128 100v0zM906 77q0 -1 0.5 -1h0.5q3 -3 7 -3t7 2q0 1 0.5 1t0.5 1q22 30 41.5 60.5t36.5 60.5q6 11 3 16t-15 5h-164q-7 0 -9 -3t3 -9l88 -130v0zM47 246q0 -30 3 -60.5
t4 -60.5q0 -1 0.5 -2t1.5 -1l120 -65q5 -3 7.5 -1.5t1.5 7.5q-4 35 -7 72t-4 76q0 1 -1 2l-2 2q-30 10 -60.5 20t-61.5 13h-0.5h-0.5l-0.5 -0.5t-0.5 -1.5v0v0v0z" />
</svg>
