<?xml version="1.0" standalone="no"?>
<!DOCTYPE svg PUBLIC "-//W3C//DTD SVG 1.1//EN" "http://www.w3.org/Graphics/SVG/1.1/DTD/svg11.dtd" >
<svg xmlns="http://www.w3.org/2000/svg" xmlns:xlink="http://www.w3.org/1999/xlink" version="1.1" viewBox="-10 0 1034 1024">
   <path fill="currentColor"
d="M920 386q34 -39 39.5 -101t-26.5 -120q-31 -58 -86 -87t-106 -22q33 22 68.5 58.5t61.5 84.5q27 48 38 97.5t11 89.5zM82 608q-34 40 -37.5 102t29.5 119t88.5 85t106.5 19q-34 -21 -70.5 -56.5t-63.5 -82.5t-40 -96.5t-13 -89.5v0zM612 277q8 18 18.5 37t22.5 40
q34 54 70.5 115.5t73.5 129.5q1 1 1.5 2.5t0.5 3.5q-6 70 -62 124.5t-130 1.5q-22 -16 -35 -43.5t2 -53.5q15 -25 52 -42t63 -27v0v0q2 -1 3 -3.5t0 -4.5v0v0q-31 -53 -74 -132q-44 -79 -83.5 -153.5t-67.5 -128.5t-28 -57q-3 -18 5 -36t30 -14q8 1 15.5 4.5t13.5 8.5
q27 23 53 47.5t51 51.5q35 37 98.5 77t115.5 45q4 0 8 1l8 2v0v0q1 1 1.5 2t-0.5 2v0v0q-17 28 -42.5 43t-57.5 16q-26 1 -64 -22t-60 -38q-2 -1 -2 -0.5v1.5v0zM118 448q5 0 64 49t131.5 111.5t140.5 122.5q68 59 92 80q3 2 4 6t0 7q-12 47 -43.5 99.5t-92.5 46.5
q-40 -4 -70.5 -37t-8.5 -77q14 -27 35.5 -46.5t50.5 -30.5v0v0q1 -1 1 -2v-2h-0.5h-0.5q-26 -22 -74 -64q-48 -41 -97 -84.5t-91 -80.5q-41 -37 -54 -49q-6 -6 -9 -13t-4 -15q-2 -11 4.5 -16t21.5 -5v0zM221 48l47 126l127 47l-127 47l-47 127l-47 -127l-127 -47l127 -47
l47 -126v0zM860 698l31 83l83 31l-83 31l-31 83l-31 -83l-83 -31l83 -31zM691 111q0 8 -5 13t-13 5q-7 0 -12.5 -5t-5.5 -13q0 -7 5.5 -12t12.5 -5q8 0 13 5t5 12zM963 943q0 7 -5 12.5t-12 5.5q-8 0 -13 -5.5t-5 -12.5q0 -8 5 -13t13 -5q7 0 12 5t5 13zM105 351q0 8 -5 13
t-13 5q-7 0 -12.5 -5t-5.5 -13q0 -7 5.5 -12t12.5 -5q8 0 13 5t5 12v0zM449 559q0 7 -5 12t-13 5q-7 0 -12.5 -5t-5.5 -12q0 -8 5.5 -13t12.5 -5q8 0 13 5t5 13zM905 520q0 7 -5 12.5t-13 5.5q-7 0 -12.5 -5.5t-5.5 -12.5t5.5 -12.5t12.5 -5.5q8 0 13 5.5t5 12.5zM429 440
q0 14 -10.5 24.5t-25.5 10.5q-14 0 -24.5 -10.5t-10.5 -24.5q0 -15 10.5 -25.5t24.5 -10.5q15 0 25.5 10.5t10.5 25.5z" />
</svg>
