<?xml version="1.0" standalone="no"?>
<!DOCTYPE svg PUBLIC "-//W3C//DTD SVG 1.1//EN" "http://www.w3.org/Graphics/SVG/1.1/DTD/svg11.dtd" >
<svg xmlns="http://www.w3.org/2000/svg" xmlns:xlink="http://www.w3.org/1999/xlink" version="1.1" viewBox="-10 0 1034 1024">
   <path fill="currentColor"
d="M706 331l-58 -45t-4 -128q55 -84 4 -97.5t-93 -16.5q-21 -2 -92 -6q-70 -3 -146.5 -6t-136.5 -6l-60 -2l-57.5 4.5t35.5 42.5q47 19 96 33q50 13 90 22t66 13l26 4l-28 -1t-62.5 0.5t-62.5 7.5q-29 5 -31 18q-1 12 32 24q33 11 77.5 20t88.5 13q45 5 66 3l-24 3
q-25 2 -56 6.5t-60 10.5t-39 12q-19 14 9.5 35t93.5 19q66 -2 104.5 -5.5l38.5 -3.5l-71 29t-47 50q23 22 79.5 7t87.5 -29l-38 35.5t-14 42.5q25 8 46 -9t29 -22l-6 13t6 15t33 -7t35 -19l-6 16.5t7 19.5q13 4 28.5 -13t20.5 -25l-7 -78v0zM676 206q6 1 12 3t12 5
q27 11 52.5 19.5t50.5 14.5q6 1 14 2t17 2q14 1 26 5.5t23 11.5q13 7 26.5 14.5t26.5 15.5q2 1 5 3.5t7 6.5q9 9 14.5 17.5t3.5 21.5q-2 15 -6 30.5t-9 31.5q-3 7 -4.5 13.5t-3.5 12.5q-6 25 -15 50t-20 48q-3 7 -7.5 7.5t-7.5 -6.5q-16 -31 -43.5 -50.5t-58.5 -32.5
q-9 -3 -17.5 -8t-15.5 -10q1 -4 1.5 -8t0.5 -9l-8 -79q0 -9 -5.5 -16.5t-14.5 -11.5l-38 -26.5t-18 -77.5v0zM67 415l349 87l-33 84l-316 -171v0zM113 602l246 47l-33 84l-213 -131v0zM706 487q4 1 8.5 1h8.5q21 0 44.5 4.5t42.5 9.5q10 2 17 11t12 18v1t-1 2q-3 4 -6.5 8.5
t-6.5 8.5q-28 35 -56.5 69.5t-56.5 68.5q-3 3 -5 5.5t-5 4.5q-2 1 -3.5 1t-2.5 -1q-4 -5 -14 -3t-15 4q-9 4 -18.5 10.5t-19.5 14.5v0v0l-0.5 0.5t0.5 0.5v0v0q0 1 0.5 1h0.5q17 -5 37.5 -5.5t36.5 8.5l17 8.5t14 10.5q37 32 74 64.5t74 65.5v0.5v0.5q4 14 6.5 27t4.5 26
q1 7 0 13.5t-4 13.5q-6 13 -13.5 27.5t-18.5 18.5h-2h-3q-75 -26 -150 -52.5t-149 -53.5q-5 -1 -9.5 -3t-8.5 -5q-3 -1 -5 -3.5t-2 -5.5l-4 -18v0v0q0 -1 -0.5 -1h-1.5v0v0l-15 11q-2 2 -3.5 2t-3.5 -1q-32 -14 -63.5 -29t-62.5 -31q-3 -1 -3.5 -3t0.5 -4q5 -16 10.5 -31.5
t12.5 -31.5q1 -3 1.5 -6t1.5 -7q4 -28 22 -50.5t40 -39.5q10 -7 18 -15.5t15 -17.5q10 -12 12 -28t3 -32q1 -17 5.5 -33t9.5 -32q16 5 32 2.5t30 -9.5h0.5h0.5q3 1 7 2.5t8 2.5q7 1 15.5 0.5t17.5 -3.5q2 0 4 -1t5 -1q4 5 10 9t15 6q8 2 18 0.5t20 -6.5v0z" />
</svg>
