<?xml version="1.0" standalone="no"?>
<!DOCTYPE svg PUBLIC "-//W3C//DTD SVG 1.1//EN" "http://www.w3.org/Graphics/SVG/1.1/DTD/svg11.dtd" >
<svg xmlns="http://www.w3.org/2000/svg" xmlns:xlink="http://www.w3.org/1999/xlink" version="1.1" viewBox="-10 0 1034 1024">
   <path fill="currentColor"
d="M124 1024q40 -117 117 -188q78 -71 172 -100.5t196 -19.5q101 9 190 53l52 -66l109 228l-248 -50l47 -60q-74 -33 -153 -41q-80 -7 -156.5 16t-145.5 79q-68 56 -121 149h-59v0zM258 1024q41 -66 98 -106t114.5 -56.5t106.5 -12.5q48 5 71 27q-48 4 -94 14q-45 10 -87 27
t-79 43q-38 27 -69 64h-61v0zM675 0l27 374l243 8l-331 256l-171 -638h232zM541 463l16 74q-4 8 -17 25.5t-25 16.5q-13 -2 -9 -18.5l4 -16.5q-13 12 -31.5 22.5t-30.5 10.5q-12 -1 -7.5 -14l4.5 -13q-7 6 -25.5 24.5t-42.5 13.5q-24 -4 8 -42l32 -38q-28 18 -79.5 38
t-75.5 3q-25 -18 38.5 -53.5l63.5 -35.5l-36 7.5t-98 17.5q-61 9 -91 -7.5t-13 -31.5t91.5 -33l74.5 -18q-20 4 -63 5q-44 0 -87.5 -3t-76.5 -10q-32 -7 -30 -19q5 -23 80 -43q74 -19 157.5 -24t145.5 9q61 15 40 59q-40 86 21.5 90l61.5 4v0z" />
</svg>
