<?xml version="1.0" standalone="no"?>
<!DOCTYPE svg PUBLIC "-//W3C//DTD SVG 1.1//EN" "http://www.w3.org/Graphics/SVG/1.1/DTD/svg11.dtd" >
<svg xmlns="http://www.w3.org/2000/svg" xmlns:xlink="http://www.w3.org/1999/xlink" version="1.1" viewBox="-10 0 1044 1024">
   <path fill="currentColor"
d="M0 740l381 283l-1 1h-121l-259 -262v-22v0zM465 1024l-334 -338l455 338h-121v0zM743 1024l-16 -14l41 -155l256 -128v297h-281v0zM1024 709l-264 121l37 -206l41 -67l186 150v2v0zM1024 543l-266 -270l266 198v72zM1024 380l-375 -380h1l374 278v102zM598 888l70 -106
l100 -137l-60 353l-110 -110v0zM704 451l116 92l-249 322l-97 -100l230 -314v0zM443 730l-1 1l-107 -8l-289 -223l14 -79l163 109l49 -69l-24 -26l-40 36l-174 -130l25 -110l234 179l43 -57l-23 -23l-26 26l-220 -177l97 -73l112 116l27 -14l86 82l57 -9l34 138l11 49
l123 -41l-103 -6l-34 -147l50 -16l-36 -38l-96 35l-47 -58l176 -115l189 179v147l-238 307l-32 16v-1v0zM311 187l-119 -94l111 -60l110 93z" />
</svg>
