<?xml version="1.0" standalone="no"?>
<!DOCTYPE svg PUBLIC "-//W3C//DTD SVG 1.1//EN" "http://www.w3.org/Graphics/SVG/1.1/DTD/svg11.dtd" >
<svg xmlns="http://www.w3.org/2000/svg" xmlns:xlink="http://www.w3.org/1999/xlink" version="1.1" viewBox="-10 0 1034 1024">
   <path fill="currentColor"
d="M248 448q-9 9 -16 15t-18 14q-17 13 -32 29q-4 5 -8.5 5t-5.5 -7q-3 -13 -4 -26.5t-2 -27.5q-1 -33 -2.5 -66.5t-3.5 -66.5q-1 -28 0 -56q0 -5 4 -7q10 -6 20 -11.5t21 -10.5q54 -21 97 -46q11 -7 26 -19q10 -9 22 -14t25 -8q29 -7 59 -15q5 -1 16 -1q12 0 22 2.5
t17 12.5q18 25 33 56q6 13 12 24q27 45 43 95q3 7 0 10.5t-11 0.5q-32 -11 -65.5 -6t-64.5 18q-18 7 -39.5 10t-34.5 6q-12 3 -26.5 16t-24.5 23q-15 14 -30.5 26t-28.5 25v0zM525 825l-3 18q-1 4 -5 6q-67 24 -133 44q-5 1 -7 -3q-14 -29 -27 -61q-2 -6 -6 -12
q-17 -23 -19.5 -52t1.5 -56q2 -12 2 -24t-1 -22q-2 -16 -11.5 -29.5t-19.5 -25.5q-16 -17 -26 -39t-20 -43q-2 -5 -3 -10q-1 -8 5 -12q13 -10 27 -18q15 -10 33 -18.5t35 -17.5q17 -8 32 -15t29 -20q15 -15 35 -28.5t37 -22.5q9 -5 20.5 -3.5t20.5 4.5l1 0.5t1 1.5v0l2 22
l14 178q1 7 0 14q0 4 -5 4q-6 0 -12 8t-7 13q-8 19 -10 45v0v0v0.5v0.5v0v0v0q1 0 1 -1q9 -16 23.5 -30t32.5 -19q11 -3 18.5 -5t17.5 -3q98 -5 196 -9h1.5t0.5 1v0q23 15 44 31q11 8 16 21q5 14 9.5 29.5t-0.5 26.5q-1 1 -1.5 2t-2.5 1v0q-144 68 -289 132q-9 4 -19 7
q-6 2 -11 -2l-15 -10v0v0q-1 -1 -1.5 -0.5l-0.5 0.5v1v0v0v0z" />
</svg>
