<?xml version="1.0" standalone="no"?>
<!DOCTYPE svg PUBLIC "-//W3C//DTD SVG 1.1//EN" "http://www.w3.org/Graphics/SVG/1.1/DTD/svg11.dtd" >
<svg xmlns="http://www.w3.org/2000/svg" xmlns:xlink="http://www.w3.org/1999/xlink" version="1.1" viewBox="-10 0 1034 1024">
   <path fill="currentColor"
d="M30 1024q13 -31 28 -61t31 -59q3 -9 11.5 -13t16.5 0l42 15q9 3 12.5 11.5t0.5 16.5q-13 22 -24.5 44.5t-22.5 45.5h-95v0zM468 1024v-45q-52 -1 -103.5 -5.5t-102.5 -11.5q-9 0 -16 -6.5t-7 -15.5v-45q0 -9 7 -15.5t16 -6.5q51 9 102.5 14t103.5 7v-73q-21 0 -42 -1
t-41 -3q-17 -2 -28.5 -3.5t-26.5 -8.5q-4 -2 -7 -5t-3 -8q-8 -59 -21.5 -120t-20.5 -120q-5 -41 -46.5 -42t-41.5 -45q0 -23 2 -47t7 -51q8 -51 27 -102q18 -50 48 -91.5t73 -71.5t102 -41q10 -2 22 -3t25 -2h16h16q13 1 25 2t22 3q59 11 102 41t73 71.5t48 91.5
q19 51 27 102q5 27 7 51t2 47q0 44 -41.5 45t-46.5 42q-7 59 -21.5 118.5t-22.5 119.5q0 5 -3 8t-7 5q-15 6 -25.5 9t-27.5 5q-20 2 -41 3t-42 1v73q52 -2 103.5 -7t102.5 -14q10 0 16.5 6.5t6.5 15.5v45q0 9 -6.5 15.5t-16.5 6.5q-51 7 -102.5 11.5t-103.5 5.5v45h-88v0z
M899 1024q-11 -23 -22.5 -45.5t-24.5 -44.5q-3 -8 0.5 -16.5t12.5 -11.5l42 -15q8 -4 16.5 0t11.5 13q16 29 31 59t28 61h-95v0zM544 711h0.5h0.5v40v1h1h31h0.5t0.5 -1v-40v0v0h50h0.5h0.5v40v1v0h32h1v-1v-40v0h1h42v-0.5v-0.5v-31v-0.5v-0.5h-42h-1v0v-40v0h-1h-32v0v0
v40h-0.5h-0.5h-50v0v0v-40h-0.5h-0.5h-31h-1v0v40h-0.5h-0.5l-50 1v-41h-31h-0.5h-0.5v40v0h-1h-19v0v0h-22v0v0h-24h-1v0v-40h-0.5h-0.5h-32v0v0v40h-0.5h-0.5h-42v0.5v0.5v31v0.5v0.5h42h0.5h0.5v40v1v0h32h0.5t0.5 -1v-40v0h1h24v0v0h22v0v0h19h1v0v40q0 1 0.5 1h0.5h31
v-41h50v0zM695 527q30 -17 41 -52.5t10 -65.5q0 -10 -20 -14t-27 -5q-24 -3 -50 10.5t-52 18.5q-6 2 -17.5 5.5t-13.5 10.5q-7 24 -9.5 40.5t17.5 35.5q4 4 8.5 7t11.5 6q22 10 50.5 13t50.5 -10v0zM329 527q22 13 50.5 10t50.5 -13q7 -3 11.5 -6t8.5 -7q20 -19 21 -35.5
t-5 -40.5q-2 -7 -13.5 -10.5t-18.5 -5.5q-26 -5 -55.5 -18.5t-53.5 -10.5q-7 1 -27 5t-20 14q-1 30 10 65.5t41 52.5v0zM570 596q0 1 -27.5 -45.5l-27.5 -46.5l-28.5 46l-28.5 46q-1 1 27 -9l28 -10l57 19v0z" />
</svg>
