<?xml version="1.0" standalone="no"?>
<!DOCTYPE svg PUBLIC "-//W3C//DTD SVG 1.1//EN" "http://www.w3.org/Graphics/SVG/1.1/DTD/svg11.dtd" >
<svg xmlns="http://www.w3.org/2000/svg" xmlns:xlink="http://www.w3.org/1999/xlink" version="1.1" viewBox="-10 0 1044 1024">
   <path fill="currentColor"
d="M0 213l105 213l-105 -132v-81v0zM1024 293l-105 133l105 -213v80v0zM1024 105l-278 539l183 -644h95v105v0zM874 0q-17 79 -44 177q-28 99 -57.5 199.5t-58.5 194.5t-52 163l-19 21l-96 -206q-4 -9 -12.5 -14.5t-18.5 -5.5t-18 5.5t-13 14.5l-98 210q-23 -67 -54 -163
q-32 -96 -65 -200.5t-64 -208.5q-31 -103 -52 -187h722v0zM95 0l183 644l-278 -538v-106h95zM91 476l11 31l31 11l-31 11l-11 31l-11 -31l-31 -11l31 -11l11 -31v0zM930 456l16 44l43 16l-43 16l-16 44l-17 -44l-43 -16l43 -16l17 -44v0zM838 956q-89 25 -170 38
q-80 13 -158.5 13t-157.5 -13q-80 -13 -169 -38v-360l213 257l120 -257l118 251l204 -251v360v0zM706 48l-14 38l-38 15l38 14l14 38l15 -38l38 -14l-38 -15zM332 29l-17 47l-46 17l46 17l17 47l18 -47l46 -17l-46 -17zM512 120l-31 95l-59 -30l9 66h-100l81 59l-46 47
l65 11l-31 95l81 -58l31 58l31 -58l81 58l-31 -95l65 -11l-46 -47l81 -59h-100l9 -66l-59 30l-31 -95v0zM611 523q-3 4 -3 9.5t3 9.5q4 4 9.5 4t9.5 -4t4 -9.5t-4 -9.5t-9.5 -4t-9.5 4zM397 548q-6 6 -6 13.5t6 13.5q5 5 13 5t13 -5q6 -6 6 -13.5t-6 -13.5q-5 -5 -13 -5
t-13 5z" />
</svg>
