<?xml version="1.0" standalone="no"?>
<!DOCTYPE svg PUBLIC "-//W3C//DTD SVG 1.1//EN" "http://www.w3.org/Graphics/SVG/1.1/DTD/svg11.dtd" >
<svg xmlns="http://www.w3.org/2000/svg" xmlns:xlink="http://www.w3.org/1999/xlink" version="1.1" viewBox="-10 0 1034 1024">
   <path fill="currentColor"
d="M57 1024q4 -40 12.5 -76.5t23.5 -65.5q33 -65 97.5 -92.5t114.5 -62.5q11 18 23 33t26 26q-22 20 -56 38t-37 25q-2 3 25 47l27 44l-0.5 -8.5t-2.5 -19.5q0 -1 25 0t55.5 2.5t55.5 2.5t25 0q0 -2 -25 -5q-26 -4 -56.5 -8t-55.5 -7q-26 -4 -26 -5q-2 -16 -3 -29t0 -13
q5 -5 29.5 -18t49.5 -24q27 15 57.5 21.5t62.5 6.5q61 0 112.5 -24.5t86.5 -84.5q51 35 117 67.5t98 97.5q7 14 12.5 29t9.5 31q-23 -7 -72 -19.5t-53 -15.5q-1 0 -9 -26.5t-10 -29.5q-3 -2 -65 5t-62 8q5 4 58.5 5.5t54.5 3.5q5 10 13 33t14 30q2 2 65 13.5t71 11.5l4 26
t4 27h-896v0zM629 139q5 3 9.5 5.5t8.5 6.5q30 21 55 51q24 29 41.5 66t27.5 80q9 43 9 91q0 38 -6.5 74.5t-17.5 70.5q-8 19 -17.5 37.5t-21.5 35.5q1 0 -32 41.5t-90 70.5q-12 -10 -42.5 -31.5t-31.5 -24.5q-2 -4 28.5 -41.5t36.5 -48.5q-10 11 -49 46t-46 42q-1 1 5.5 7
t12.5 12q9 9 25 24t27 28q-13 4 -27.5 6.5t-29.5 2.5q-55 0 -95 -21t-66 -46t-39 -46l-12 -21q-15 -23 -27.5 -49t-20.5 -54q-7 -25 -11 -50.5t-4 -52.5l106 -42l1 1q-1 5 -1.5 9.5t-0.5 9.5q0 32 15 54.5t36 22.5q2 0 4 -0.5t4 -0.5l8 14l83 -2l60 57l-53 -80h-81
q20 -9 22.5 -35t2.5 -30q0 -32 -14.5 -54.5t-35.5 -22.5q-7 0 -13.5 2.5t-12.5 7.5l-27 22l-79 30l94 -157l-114 122q8 -61 32 -112q25 -50 61 -86.5t82 -56.5q45 -20 96 -20q16 0 31 2t29 6v0v0l-48 85l143 97l-78 58l-94 -62l87 94q-4 9 -6.5 20.5t-2.5 24.5
q0 32 14.5 54.5t35.5 22.5q9 0 17.5 -5t14.5 -13l3 -4q7 -10 11.5 -24.5t4.5 -30.5q0 -30 -13.5 -52t-32.5 -25l59 -46l82 49l-71 -61l-122 -105l61 -50v0v0v0z" />
</svg>
