<?xml version="1.0" standalone="no"?>
<!DOCTYPE svg PUBLIC "-//W3C//DTD SVG 1.1//EN" "http://www.w3.org/Graphics/SVG/1.1/DTD/svg11.dtd" >
<svg xmlns="http://www.w3.org/2000/svg" xmlns:xlink="http://www.w3.org/1999/xlink" version="1.1" viewBox="-10 0 1034 1024">
   <path fill="currentColor"
d="M506 24l57 70q56 70 124 168t125 202q57 105 57 174q0 75 -29 141q-28 66 -77.5 115t-115.5 78q-66 28 -141 28t-141 -28q-66 -29 -115 -78t-78 -115t-29 -141q0 -69 57 -174q57 -104 125 -202t124 -168l57 -70v0zM607 813q12 -2 22.5 -4.5t18.5 -5.5q13 -4 13.5 -54.5
t1.5 -57.5q3 -27 31 -28t28 -30q0 -15 -1.5 -31.5t-4.5 -34.5q-12 -69 -51 -130t-117 -75q-7 -2 -14.5 -2.5t-16.5 -1.5h-1v1h-20v0v-1v0q-9 1 -17 1.5t-15 2.5q-78 14 -117 75t-51 130q-3 18 -4.5 34.5t-1.5 31.5q0 29 28 30t32 28v56.5t11 53.5q9 3 20 6t25 5v-38h36v42
q11 1 22.5 2t23.5 1v-45h36v45q12 0 23.5 -0.5t23.5 -1.5v-43h36v39v0zM629 675q-15 9 -34 6.5t-34 -8.5q-4 -2 -7.5 -4.5t-5.5 -4.5q-14 -13 -12 -24t6 -27q1 -5 9 -7.5t12 -3.5q17 -3 34.5 -12t33.5 -7q5 0 18.5 3t13.5 9q0 21 -7 44.5t-27 35.5v0zM545 721l-38 -13
l-19 6.5t-18 6.5l19 -31l19 -31l18.5 31l18.5 31v0zM384 675q-20 -12 -27.5 -35.5t-6.5 -44.5q0 -6 13 -9t18 -3q16 -2 36 7t37 12q4 1 12 3.5t9 7.5q5 16 4 27t-14 24q-3 2 -6 4.5t-7 4.5q-16 6 -34.5 8.5t-33.5 -6.5v0zM232 182q0 28 -19.5 48t-48.5 20q-28 0 -47.5 -20
t-19.5 -48t19.5 -48t47.5 -20q29 0 48.5 20t19.5 48zM902 259q0 30 -21 51t-50 21q-30 0 -51 -21t-21 -51q0 -29 21 -50t51 -21q29 0 50 21t21 50v0zM914 91q0 15 -11 26t-26 11t-26 -11t-11 -26t11 -26t26 -11t26 11t11 26zM196 354q0 15 -10.5 25.5t-25.5 10.5
q-16 0 -26.5 -10.5t-10.5 -25.5q0 -16 10.5 -26.5t26.5 -10.5q15 0 25.5 10.5t10.5 26.5v0zM351 102q0 11 -7.5 18t-17.5 7t-17 -7t-7 -18q0 -10 7 -17t17 -7t17.5 7t7.5 17zM724 130q0 10 -7 17.5t-17 7.5t-17.5 -7.5t-7.5 -17.5t7.5 -17t17.5 -7t17 7t7 17z" />
</svg>
