<?xml version="1.0" standalone="no"?>
<!DOCTYPE svg PUBLIC "-//W3C//DTD SVG 1.1//EN" "http://www.w3.org/Graphics/SVG/1.1/DTD/svg11.dtd" >
<svg xmlns="http://www.w3.org/2000/svg" xmlns:xlink="http://www.w3.org/1999/xlink" version="1.1" viewBox="-10 0 1034 1024">
   <path fill="currentColor"
d="M329 374q-7 18 -16.5 36.5t-21.5 36.5q-51 74 -119 103.5t-114 -1.5q-46 -32 -42.5 -106.5t54.5 -148.5q1 -2 2.5 -4t3.5 -4q-22 0 -37.5 -6.5t-17.5 -17.5q-3 -16 19 -32t56 -23q18 -4 34.5 -4t29.5 3q38 -24 76.5 -28.5t66.5 14.5q19 13 29.5 34.5t12.5 48.5
q13 6 28 18.5t28 30.5q24 32 30.5 62.5t-7.5 40.5q-15 11 -42 -4t-51 -46l-1.5 -1.5t-0.5 -1.5v0zM151 280q-8 -4 -18.5 5t-17.5 24q-7 16 -6 29.5t8 17.5q8 3 18.5 -5.5t17.5 -24.5t6.5 -29.5t-8.5 -16.5zM251 308q-8 -4 -18.5 5t-17.5 24q-7 16 -6.5 29.5t8.5 17.5
q8 3 18.5 -5.5t17.5 -24.5t6 -29.5t-8 -16.5v0zM337 176q12 -24 34.5 -38t50.5 -14q15 0 28.5 4t25.5 12q17 -9 36 -14t40 -5q30 0 57 10.5t48 28.5q13 -11 29.5 -17t34.5 -6q38 0 65.5 24.5t32.5 61.5q49 9 84 44t44 84q10 6 19.5 15.5t17.5 21.5q20 28 25 54.5t-9 35.5
q-11 9 -29.5 1t-37.5 -28q-1 4 -3 7l-4 6q11 19 17.5 40.5t6.5 44.5q0 51 -29 91.5t-74 57.5v296h-63v-241q-9 7 -20 12.5t-23 7.5v177h-60v-183q-1 -1 -2.5 -1.5t-2.5 -1.5q-20 17 -46 26t-54 9q-32 0 -61 -12t-50 -33v220h-64v-222q-10 -2 -19.5 -6.5t-18.5 -10.5v195h-60
v-234q-29 -6 -50.5 -35.5t-37.5 -59.5q-5 -5 -9 -11.5t-7 -13.5q32 -17 63.5 -44.5t56.5 -65.5q6 -7 11 -15t9 -16q14 12 28.5 19.5t26.5 10.5q15 3 28 0t22 -10q10 -7 16.5 -18.5t7.5 -27.5q1 -20 -8.5 -48.5t-31.5 -57.5q-12 -16 -25 -28.5t-26 -21.5q-4 -23 -14.5 -43
t-25.5 -34v0zM136 682l27 73l73 27l-73 27l-27 73l-27 -73l-73 -27l73 -27zM892 40l21 58l58 22l-58 22l-21 58l-22 -58l-58 -22l58 -22l22 -58v0z" />
</svg>
