<?xml version="1.0" standalone="no"?>
<!DOCTYPE svg PUBLIC "-//W3C//DTD SVG 1.1//EN" "http://www.w3.org/Graphics/SVG/1.1/DTD/svg11.dtd" >
<svg xmlns="http://www.w3.org/2000/svg" xmlns:xlink="http://www.w3.org/1999/xlink" version="1.1" viewBox="-10 0 1034 1024">
   <path fill="currentColor"
d="M275 74q2 -5 6 -8t9 -3t9.5 3t5.5 8l56 157l159 56q5 1 8 5.5t3 9.5t-3 9t-8 6l-159 55l-56 158q-1 5 -5.5 7.5t-9.5 2.5t-9 -2.5t-6 -7.5l-56 -158l-158 -55q-5 -2 -8 -6t-3 -9t3 -9.5t8 -5.5l158 -56l56 -157v0zM499 649q1 -2 3.5 -4t5.5 -2t5 2t3 4l32 90l91 32
q3 1 4.5 3.5t1.5 5.5t-1.5 5t-4.5 3l-91 32l-32 90q-1 3 -3 4.5t-5 1.5t-5.5 -1.5t-3.5 -4.5l-32 -90l-91 -32q-2 -1 -4 -3t-2 -5t2 -5.5t4 -3.5l91 -32l32 -90v0zM191 712q0 22 -15 37t-37 15q-21 0 -36 -15t-15 -37q0 -21 15 -36t36 -15q22 0 37 15t15 36zM954 920
q0 21 -15 36t-36 15q-22 0 -37 -15t-15 -36q0 -22 15 -37t37 -15q21 0 36 15t15 37zM708 125q0 13 -9 22t-21 9q-13 0 -21.5 -9t-8.5 -22q0 -12 8.5 -21t21.5 -9q12 0 21 9t9 21zM965 73q0 7 -5 11.5t-11 4.5q-7 0 -11.5 -4.5t-4.5 -11.5q0 -6 4.5 -10.5t11.5 -4.5
q6 0 11 4.5t5 10.5zM86 946q0 6 -4.5 10.5t-10.5 4.5q-7 0 -11.5 -4.5t-4.5 -10.5q0 -7 4.5 -11.5t11.5 -4.5q6 0 10.5 4.5t4.5 11.5zM787 745q0 7 -4.5 11.5t-11.5 4.5q-6 0 -10.5 -4.5t-4.5 -11.5q0 -6 4.5 -10.5t10.5 -4.5q7 0 11.5 4.5t4.5 10.5zM79 77q0 7 -4.5 11.5
t-10.5 4.5q-7 0 -11.5 -4.5t-4.5 -11.5q0 -6 4.5 -10.5t11.5 -4.5q6 0 10.5 4.5t4.5 10.5zM795 282q1 -3 4 -5t7 -2q3 0 6 2t4 5l41 113l114 40q3 2 5 4.5t2 6.5t-2 7t-5 4l-114 40l-41 113q-1 3 -4 5.5t-6 2.5q-4 0 -7 -2.5t-4 -5.5l-40 -113l-114 -40q-4 -1 -6 -4t-2 -7
t2 -6.5t6 -4.5l114 -40l40 -113v0z" />
</svg>
