<?xml version="1.0" standalone="no"?>
<!DOCTYPE svg PUBLIC "-//W3C//DTD SVG 1.1//EN" "http://www.w3.org/Graphics/SVG/1.1/DTD/svg11.dtd" >
<svg xmlns="http://www.w3.org/2000/svg" xmlns:xlink="http://www.w3.org/1999/xlink" version="1.1" viewBox="-10 0 1034 1024">
   <path fill="currentColor"
d="M297 574q-19 37 -63.5 46.5t-88.5 -13.5q-43 -23 -59.5 -65.5t3.5 -79.5t64.5 -46.5t87.5 13.5q43 24 59.5 66t-3.5 79zM607 678q-3 -3 -19 -10t-43 -9q-61 -4 -96 -2l-35 2l-95 133l-101 153h-117l109 -154l94 -170q50 -66 32.5 -106.5l-17.5 -40.5q56 -12 112 -16
t110.5 5t105.5 31q51 23 96 63q24 36 23 87t-13 98t-25 80l-14 33h139l36 -34l82 124h-394l-8 -6t0 -35q2 -9 11 -40q8 -31 17 -65.5t15 -62.5t5 -31q-1 -1 -0.5 -10t-9.5 -17v0zM592 710q-3 6 -25.5 75.5l-22.5 69.5h14q-2 2 -23 44.5t-23 45.5h-105l-11.5 -7.5t3.5 -33.5
q7 -12 22 -45q16 -34 33 -70t31 -67q14 -30 18 -37q11 -11 54.5 -3t34.5 28zM240 86h100v178h53l-104 82l-103 -82h54v-178v0zM510 86h101v227h53l-104 82l-103 -82h53v-227v0zM781 86h100v330h54l-104 82l-103 -82h53v-330v0z" />
</svg>
