<?xml version="1.0" standalone="no"?>
<!DOCTYPE svg PUBLIC "-//W3C//DTD SVG 1.1//EN" "http://www.w3.org/Graphics/SVG/1.1/DTD/svg11.dtd" >
<svg xmlns="http://www.w3.org/2000/svg" xmlns:xlink="http://www.w3.org/1999/xlink" version="1.1" viewBox="-10 0 1044 1024">
   <path fill="currentColor"
d="M506 880q-82 -41 -141 -98t-97.5 -128.5t-57.5 -156.5q-18 -85 -19 -183q51 -14 96 -35q44 -20 83.5 -46t73.5 -58q33 -31 62 -68v773v0zM124 495l9 46t33.5 111t67.5 135t109 117l-43 -19q-44 -18 -91.5 -65t-78.5 -126t-6 -199v0zM506 1024v-144h1q79 -43 137 -100
q58 -58 96.5 -129.5t58.5 -155.5q20 -85 23 -181q-47 -16 -91 -36q-43 -20 -83 -46t-75 -57q-36 -31 -66 -69l-1 1v-107h518v1024h-518zM661 893q117 -39 170 -106q53 -66 69.5 -130.5t11.5 -111.5l-5 -47q-8 81 -47 153t-83.5 125.5t-79.5 84.5z" />
</svg>
