<?xml version="1.0" standalone="no"?>
<!DOCTYPE svg PUBLIC "-//W3C//DTD SVG 1.1//EN" "http://www.w3.org/Graphics/SVG/1.1/DTD/svg11.dtd" >
<svg xmlns="http://www.w3.org/2000/svg" xmlns:xlink="http://www.w3.org/1999/xlink" version="1.1" viewBox="-10 0 1044 1024">
   <path fill="currentColor"
d="M1024 383l-148 -78l148 20v58zM1024 268l-157 14l157 -73v59zM1024 79q-57 43 -125 95t-127 95.5t-100 71.5q-40 29 -43 26t19 -38q21 -35 55.5 -88.5t77.5 -117.5q42 -64 83 -123h160v79zM722 0l-39 145l-13 -145h52v0zM614 0l45 140l-115 -140h70v0zM140 301
q26 -5 53 4.5t54 65.5l7 15l49 -33l-7 -16q-21 -44 -49.5 -63.5t-55.5 -24.5q63 -69 114.5 -67t80.5 12q-14 21 -18 49.5t11 64.5l7 15l48 -7l-6 -16q-15 -33 -6.5 -57t24.5 -40q5 -6 10.5 -10.5t10.5 -7.5q53 -15 90.5 -3.5l37.5 11.5q20 13 17.5 38t-13.5 62
q-21 66 -27 99.5t-3 43.5q5 19 38 8q33 -10 70 -30t67 -39l31 -20l26 38q5 32 1 53.5t-13 35.5q-18 25 -41 30.5l-23 5.5l-16 1l21 49l16 -1l31.5 -8t55.5 -42q10 -15 16.5 -36.5t5.5 -50.5l119 75q-2 79 -24 106.5t-44 40.5q-7 3 -17.5 6.5t-22.5 4.5q-21 3 -44 -3.5
t-41 -32.5l-9 -14l-37 40l10 14q24 35 55 44.5t59 5.5q2 0 4 -0.5t5 -0.5q-16 47 -50 61.5l-34 14.5l-12 123l-44 24q-8 -88 -49.5 -127t-76.5 -52q20 -13 38.5 -32t29.5 -46v0v-1q4 -10 6.5 -20.5t3.5 -22.5l2 -17l-47 -6l-2 18q0 3 -0.5 6.5t-1.5 7.5q-17 1 -29.5 -2.5
t-21.5 -10.5q-21 -15 -25.5 -36l-4.5 -21l-1 -17l-51 14l1 17l4.5 24.5t24.5 46.5q11 13 28.5 22t43.5 10q-10 17 -14.5 22.5t-17.5 13.5q-24 14 -43 18.5l-19 4.5q-34 1 -57.5 -2.5l-23.5 -3.5q-56 -7 -74 -44t-20 -65q3 -23 14.5 -47.5t37.5 -42.5q35 -25 50.5 -50
t19.5 -47q5 -23 2.5 -40.5t-5.5 -25.5l-5 -17l-50 2l5 17q2 6 4 18.5t-1 28.5q-4 17 -17 36.5t-40 38.5q-3 3 -33.5 -32t-33.5 -33q-4 4 -20 19.5t-19 20.5q-4 3 30 37.5t31 38.5q-10 16 -13.5 28.5t-6.5 29.5q-28 14 -34.5 19l-6.5 5q-86 0 -83 -59l3 -59
q-61 -16 -69.5 -60l-8.5 -44q-4 -52 16 -79.5t42 -39.5v0z" />
</svg>
