<?xml version="1.0" standalone="no"?>
<!DOCTYPE svg PUBLIC "-//W3C//DTD SVG 1.1//EN" "http://www.w3.org/Graphics/SVG/1.1/DTD/svg11.dtd" >
<svg xmlns="http://www.w3.org/2000/svg" xmlns:xlink="http://www.w3.org/1999/xlink" version="1.1" viewBox="-10 0 1034 1024">
   <path fill="currentColor"
d="M303 956l-10 -45l392 -83l10 45l-392 83v0zM894 289l45 8l-66 399l-45 -7l66 -400v0zM361 179l382 310l61 -88zM186 374l245 419l89 -62l-334 -357v0zM246 374q7 -10 15 -20t17 -20l-48 -48q-36 -5 -65.5 -5h-29.5q-14 -48 -35 -96t-40.5 -86t-32.5 -61l-14 -23
q48 35 96 59q48 23 86.5 37.5t63.5 20.5l24 6q-6 24 -6 47.5t4 44.5l51 51q10 -9 21 -17.5t22 -16.5l90 72q-14 9 -28 19t-27 22l368 368l70 5l157 162l-105 7v114l-161 -161l-8 -67l-375 -375q-9 10 -17.5 21t-16.5 22l-76 -82v0zM481 190q44 -18 91 -28t94.5 -11.5
t94.5 5.5t92 22t65.5 -26t45.5 -40q20 2 18 75.5t-83 59.5q-72 -13 -145 -11.5t-143 19.5l-130 -65v0zM256 581q-15 41 -23 84q-9 43 -10 86.5t4 86.5q6 43 18 85q17 53 -55.5 56t-78.5 -3q-44 -44 19 -50t44 -60q-17 -49 -24 -99q-8 -50 -6 -100.5t14 -100.5t33 -97z" />
</svg>
