<?xml version="1.0" standalone="no"?>
<!DOCTYPE svg PUBLIC "-//W3C//DTD SVG 1.1//EN" "http://www.w3.org/Graphics/SVG/1.1/DTD/svg11.dtd" >
<svg xmlns="http://www.w3.org/2000/svg" xmlns:xlink="http://www.w3.org/1999/xlink" version="1.1" viewBox="-10 0 1034 1024">
   <path fill="currentColor"
d="M542 494v0v0l1 0.5t1 -0.5v0v0q48 -45 95.5 -89.5t96.5 -88.5q9 -9 17.5 1t14.5 19l10 16t10 15q2 2 2 4.5t-2 4.5q-13 14 -26.5 28t-27.5 27q-38 36 -74.5 73t-74.5 73q0 1 -0.5 1.5t0.5 1.5l11 31v0v0q1 1 1.5 1h0.5v0h1q38 -26 77.5 -51t79.5 -49q5 -4 7.5 -1t4.5 7
q8 13 14.5 25.5t12.5 24.5q1 2 0.5 3.5t-2.5 3.5l-399 297q-1 1 -1.5 1h-0.5q-2 0 -4 0.5t-4 0.5q-36 4 -71 9l-70 10h-7t-6 -4l-24 -26t-23 -27q-13 -15 -24 -32t-22 -33q-6 -10 -11 -18.5t-7 -14.5q-10 -24 -12 -48.5t3 -49.5q2 -7 2.5 -10.5t0.5 -4.5q14 -76 29.5 -152
t31.5 -151q1 -6 3.5 -7.5t7.5 -0.5q16 2 32 5t33 7l0.5 0.5t0.5 1.5q-2 42 -4.5 84.5t-6.5 85.5q0 2 0.5 3t1.5 2q26 22 29 62t-13 68q-1 2 -0.5 2.5t1.5 -0.5q30 -10 40.5 -40t2.5 -58q-4 -17 -14 -30t-25 -21q-2 -1 -2.5 -2.5t0.5 -3.5q25 -44 51 -87q25 -44 50 -87.5
t50 -87.5q25 -43 49 -87v0v0q1 -2 2.5 -2h2.5v0v0l62 35q1 1 1 1.5v1.5q-2 5 -4.5 10.5t-5.5 10.5q-27 55 -53.5 110t-52.5 111v0v0v1.5t1 0.5v0v0l31 10q1 1 1.5 0.5t1.5 -0.5q40 -57 80.5 -113.5t80.5 -113.5q2 -3 7.5 -10t14.5 -18q2 -4 4.5 -6t7.5 2q12 8 23 16.5
t22 17.5q5 5 5 9t-3 9q-15 23 -30.5 45.5t-29.5 44.5q-27 41 -54 81.5t-54 81.5v2v1l20 24v0zM829 248q0 -1 -0.5 -1t-1.5 2q-4 14 -8 27.5t-8 27.5q-3 10 -8 4t-6 -10q-13 -39 -26.5 -78.5t-26.5 -78.5q-4 -12 7.5 -7.5t14.5 6.5q31 17 61.5 34t61.5 34q4 2 6.5 5t-1.5 7
q0 1 -0.5 1h-1.5l-31 4v0v0l-0.5 0.5t0.5 0.5v0v0q24 38 38.5 79t20.5 85q8 66 -3 134q-11 69 -40 129.5t-76 109.5q-48 49 -112 77q-4 1 -8.5 1.5t-2.5 -7.5l0.5 -0.5l0.5 -0.5q72 -43 119 -113t67 -151t12 -165q-9 -84 -48 -156v0z" />
</svg>
