<?xml version="1.0" standalone="no"?>
<!DOCTYPE svg PUBLIC "-//W3C//DTD SVG 1.1//EN" "http://www.w3.org/Graphics/SVG/1.1/DTD/svg11.dtd" >
<svg xmlns="http://www.w3.org/2000/svg" xmlns:xlink="http://www.w3.org/1999/xlink" version="1.1" viewBox="-10 0 1034 1024">
   <path fill="currentColor"
d="M295 545l19 18t20 64q2 45 -10.5 63.5t-24.5 29.5l37 62l70 101l90 125l67 -47l-69 -120l-51 -106l222 -1l183 80l33 198l123 -44l-70 -34l15 -196l-229 -134l205 -6l30 -99l-326 -2l-152 1l86 -30l96 -40l-47 -62l-94 36l-179 73l-44 70v0zM134 541q-5 2 -10.5 4
t-10.5 5q-5 2 -9 4t-8 5l23 11l15 -29v0zM77 572q-38 30 -52 70.5t3 75.5q20 44 74 56t110 -15q56 -26 81 -75.5t4 -93.5q-17 -36 -60 -50.5t-91 -1.5l10 5l-18 37l36 19l-9 18l-37 -19l-19 37l-18 -9l19 -37l-33 -17v0zM120 734l21 -41l-41 -21l10 -21l41 21l21 -41l21 10
l-21 42l41 21l-10 20l-41 -21l-21 41l-21 -10v0zM577 323h-130v-161h-66l131 -131l131 131h-66v161v0z" />
</svg>
