<?xml version="1.0" standalone="no"?>
<!DOCTYPE svg PUBLIC "-//W3C//DTD SVG 1.1//EN" "http://www.w3.org/Graphics/SVG/1.1/DTD/svg11.dtd" >
<svg xmlns="http://www.w3.org/2000/svg" xmlns:xlink="http://www.w3.org/1999/xlink" version="1.1" viewBox="-10 0 1034 1024">
   <path fill="currentColor"
d="M141 377l17.5 9.5t65.5 -18.5q40 -23 50.5 -41t14.5 -34l72 -2l172 103l149 20l-4 83l-133 -4l-153 -66l106 174l184 136l185 28l27 132l-74 -60l-164 7l-240 -125l89 129l-88 73l-142 -223l-82 -132l20 91l-11 118l-89 -3l20 -118l-35 -194l43 -83v0zM827 357h-55
l110 -173l110 173h-61q-2 26 -6 51.5t-10 45.5q-15 47 -44 84q-29 36 -67 58t-83 28q-45 5 -92 -10q56 -13 109 -64t78 -127q4 -13 6.5 -31t4.5 -35v0zM36 236q-2 -5 -3 -11l-2 -12q0 -5 -0.5 -9.5t-0.5 -9.5l23 14l-17 28v0zM31 170q5 -48 32.5 -82.5t67.5 -38.5
q48 -6 87.5 34t47.5 103q7 62 -22 110t-78 54q-41 5 -76.5 -24t-50.5 -78l10 6l22 -36l36 22l11 -18l-36 -22l21 -36l-18 -11l-21 36l-33 -19v0zM194 120l-24 40l-40 -24l-12 20l40 24l-24 41l20 12l24 -40l41 24l12 -20l-41 -25l24 -40l-20 -12v0z" />
</svg>
