<?xml version="1.0" standalone="no"?>
<!DOCTYPE svg PUBLIC "-//W3C//DTD SVG 1.1//EN" "http://www.w3.org/Graphics/SVG/1.1/DTD/svg11.dtd" >
<svg xmlns="http://www.w3.org/2000/svg" xmlns:xlink="http://www.w3.org/1999/xlink" version="1.1" viewBox="-10 0 1034 1024">
   <path fill="currentColor"
d="M911 602q-34 52 -103 99q-69 46 -143 82.5t-137 61.5q-63 24 -86 31l1 3l58 83l-114 -25l-13 -36q-13 6 -26.5 12t-28.5 11q-36 14 -70 21.5t-60 8.5l26 19l-101 11l-25 -68l78 -57l-3 25q21 -15 51.5 -31t66.5 -30q15 -5 29 -9.5t28 -8.5l-15 -38l55 -78l14 2l12 86l1 2
q23 -8 87.5 -31.5t144.5 -62.5l273 -83v0zM755 290l12 -22l-19 -35q13 -5 27 -12t28 -15q35 -19 63 -40.5t47 -40.5l-2 32l75 -72l-37 -65l-96 25l22 14q-27 5 -59.5 18t-66.5 33q-14 8 -27 16t-25 16l-21 -36l-115 -11l69 80l2 2q-14 9 -48 28q-33 20 -80 44t-105 50
q-57 26 -119 47l125 60q48 -18 93 -39q45 -20 82 -39.5t64 -34.5q28 -15 40 -23l1 2l14 56l56 -38v0zM9 498l158 -96l63 5l190 91l176 -13l185 -123l34 -4l190 65l-99 119l-288 88l-92 -60l-77 74l-306 -38l-134 -108v0zM634 538q-3 11 4.5 12l7.5 1q113 -6 169.5 -38.5
t65.5 -38.5q9 -5 5 -9.5l-4 -4.5l-29 -12.5t-37 -16.5q-8 -5 -15.5 -2l-7.5 3l-159 106v0zM407 555l-171 -83l-8 -1.5t-16 3.5q-7 6 -34 23l-27 17l-3 4.5t6 8.5q10 4 70.5 28.5t172.5 13.5l7.5 -2t2.5 -12v0z" />
</svg>
