<?xml version="1.0" standalone="no"?>
<!DOCTYPE svg PUBLIC "-//W3C//DTD SVG 1.1//EN" "http://www.w3.org/Graphics/SVG/1.1/DTD/svg11.dtd" >
<svg xmlns="http://www.w3.org/2000/svg" xmlns:xlink="http://www.w3.org/1999/xlink" version="1.1" viewBox="-10 0 1034 1024">
   <path fill="currentColor"
d="M593 15q52 0 135 107q82 106 152.5 242.5t106.5 264.5q37 128 -2 170l-32 27q-33 27 -104 61.5t-185 68.5q-113 34 -276 48l43 -45t-3 -137q-24 -46 -63 -133q-39 -86 -77 -171.5t-66 -149.5l-28 -63l-38.5 -49.5t-87.5 -59.5l53 -26q53 -25 132 -56.5t170 -61.5
q92 -29 170 -37v0zM436 422q-3 -2 -7.5 -10t-7.5 -11q-4 -5 -8 -8.5t-6 -4.5q-3 -2 -5.5 -2h-5.5q-3 1 -6 3t-5 5q-3 4 -6 13.5t-5 16.5q-3 12 -5.5 27t-3.5 22q0 4 5.5 8.5t10.5 4.5q5 1 8.5 -2t4.5 -7q1 -7 3 -22.5t5 -27.5q1 -1 1 -2t1 -2l0.5 0.5l0.5 0.5q5 5 10 10.5
t9 9.5q4 3 7 4t5 1q7 0 12 -3.5t8 -9.5v1.5t1 0.5q4 7 9.5 9.5t11.5 0.5q4 -2 6.5 -6t0.5 -9q-1 -3 -3.5 -5t-5.5 -3q0 -1 -1 -2.5t-1 -2.5q-3 -7 -7.5 -18.5t-6.5 -14.5q-3 -3 -5.5 -3.5t-6.5 0.5q-1 0 -2.5 0.5t-3.5 3.5q-1 1 -3.5 5.5t-2.5 6.5q-1 2 0 10t0 12v0v0v0z
M672 702q-4 -2 -8.5 -3t-9.5 -1q-10 1 -19.5 4.5t-12.5 6.5q-5 5 -5 12.5t5 12.5q5 4 11.5 4.5t11.5 -3.5l13 -2q3 3 7.5 5.5t9.5 3.5q4 1 8.5 0.5t7.5 -2.5q4 -1 6.5 -4t3.5 -7q1 -2 1.5 -4.5t0.5 -4.5q1 -2 2 -4.5t1 -4.5q0 -1 3 -0.5t4 0.5q3 4 8 7.5t9 5.5l6 4t10 6
q7 2 13 1t11 -6q3 -3 5 -7t2 -9v-5v-4q2 -5 3.5 -10.5t2.5 -11.5q0 -2 0.5 -4.5t1.5 -4.5q0 -2 0.5 -3t1.5 -2q1 -2 3 -4.5t4 -5.5l2 0.5t3 1.5l4 4l4 4q1 5 6 9.5t11 4.5q7 0 12 -5.5t5 -12.5q0 -8 -4 -13.5t-8 -9.5q-8 -8 -14.5 -13t-18.5 -5h-6.5t-8.5 1l-4 2t-4 3
l-2.5 2.5t-3.5 2.5q-1 2 -2.5 4.5t-1.5 4.5q-5 4 -8 10t-4 13q-2 6 -2.5 12.5t-3.5 10.5v2t-1 1l-3 -2.5t-5 -3.5q-2 -3 -6.5 -5t-6.5 -3q-3 -2 -7 -4.5t-8 -3.5q-5 -1 -9.5 -1t-9.5 1q-6 2 -10 7t-6 12q0 2 -0.5 6t-0.5 7v0zM492 522q0 1 -1.5 6t-2.5 6q-2 6 -3.5 14.5
t-2.5 12.5t-1.5 11.5t-0.5 9.5q1 5 2.5 7.5l1.5 2.5q3 3 5.5 4.5t5.5 1.5q3 1 7 0t7 -4q1 0 3.5 -3t2.5 -10v-1v-1v-8q1 -1 1 -2.5t1 -3.5q3 4 6.5 8.5t7.5 8.5q3 3 5.5 7t2.5 8q0 7 5 12t13 5q7 0 12 -5t5 -12q0 -8 -3 -16t-9 -16q-5 -7 -12 -14t-11 -14q-2 -2 -7 -10
t-9 -11q-6 -5 -12 -5t-10 2q-2 1 -4.5 3t-4.5 6v0zM571 325q-3 6 -5.5 13l-2.5 7l-16 -23l-0.5 0.5l-0.5 0.5q0 2 -1 9t0 12q1 1 2 16.5t1 16.5q-1 4 0 9t4 8q5 5 12.5 5t12.5 -5q2 -2 3.5 -4.5t2.5 -6.5v-4v-4q2 2 5 4.5t6 3.5q7 4 13.5 2.5t10.5 -5.5q5 -6 8 -11t5 -12v0
v0q1 0 2 0.5t2 1.5q3 1 6 2.5t6 1.5q5 0 8.5 -1.5t6.5 -4.5q2 -2 4.5 -5.5t5.5 -5.5q0 -1 1 -2t1 -2q2 1 5 1.5t5 1.5q5 3 11 2t10 -5q5 -5 5 -12.5t-5 -12.5q-4 -3 -9 -4.5t-8 -2.5t-8 -3t-10 -2q-6 -1 -10.5 1t-7.5 5q-2 2 -4 5.5t-2 6.5q-1 0 -1.5 0.5t-0.5 1.5
q-1 -1 -1.5 -1h-1.5q-1 -2 -2.5 -4t-3.5 -4q-1 -1 -4 -3t-6 -3q-4 -1 -7.5 -1t-7.5 2q-2 1 -4.5 3.5t-4.5 6.5q0 1 -0.5 2.5t-0.5 3.5v6.5v5.5q0 1 -0.5 2t-0.5 2q-1 -1 -2 -1.5t-2 -0.5q-3 -4 -6.5 -7.5l-6.5 -6.5l-1 -1.5l-1 -1.5q-2 -6 -4 -4.5t-5 5.5v0zM597 581
q-1 2 -6 10.5t-6 9.5q-2 3 -4 5.5t-4 5.5q-3 6 -0.5 13t8.5 10t13 1t10 -8l2 -2l3 -3q2 -3 4 -5.5t4 -4.5q1 -3 2.5 -7t1.5 -5q3 -3 4.5 -6t1.5 -8q1 -2 1 -6v-6q0 -1 0.5 -2.5t1.5 -3.5v-4v-5t0.5 -4t0.5 -4v-5v-6q2 -2 2.5 -4.5t0.5 -5.5q0 -8 -5 -13t-12 -5t-11.5 3.5
t-7.5 9.5q-1 2 -1.5 6.5t-0.5 9.5v6v3l-0.5 3.5t-0.5 6.5q0 2 -1 4t-1 4v6v6v0zM764 464q-3 -4 -16.5 -15.5t-15.5 -12.5q-4 -1 -11.5 -2t-14.5 0q-8 1 -13 4.5t-7 7.5q0 1 -0.5 2.5l-1.5 4.5v6.5v6.5q1 4 2 6.5t2 4.5q0 1 1 3t2 3q2 4 5.5 9.5t6.5 9.5q1 1 1.5 3.5l0.5 2.5
v23q0 7 5.5 12t12.5 5t12 -5t5 -12v-23q0 -1 -2 -9t-3 -9q0 -2 -1 -4t-2 -3q-2 -3 -5 -8l-3 -5q3 4 6.5 8t6.5 8q1 1 3.5 6.5t3.5 8.5q0 3 1.5 13t2.5 11q2 2 5 3.5t8 2.5q2 0 6.5 -0.5t6.5 -0.5q6 0 16 -2t18 -5q5 -2 9 -4t6 -4t3.5 -4.5t1.5 -5.5q7 -1 11 -6t4 -11
t-3.5 -11t-9.5 -6q-2 -1 -7 -4t-8 -3q-5 -1 -9.5 0.5t-7.5 4.5q-2 2 -3.5 5t-1.5 7q-1 1 -0.5 4t0.5 6q-3 1 -7 2t-7 2q-1 -1 -1 -1.5v-0.5q-2 -5 -3.5 -9t-3.5 -8q-1 -1 -1.5 -3t-0.5 -3q-1 -2 -2 -3.5t-3 -2.5v0zM562 750q-1 2 -2 3l-2 2q-3 4 -4 7.5t-1 5.5q0 7 5 12.5
t13 5.5q5 0 9 -3t7 -8q2 -1 4.5 -3.5t3.5 -6.5q2 -4 2 -9.5v-9.5q0 -8 -5 -13t-13 -5q-7 0 -12 5t-5 13v1.5v2.5zM309 239q-1 4 -2 9.5t-1 12.5q0 13 2 28.5t1 22.5q0 3 -1 5.5t-2 4.5q-2 5 -2 9t1 8t8.5 9.5t12.5 3.5q4 -1 6 -5t1 -9l1 -2t1 -4q2 -3 3 -6.5t1 -6.5
q0 -7 -1.5 -20t-1.5 -25v-7v-6v-3v-2q3 6 5.5 12t5.5 12q7 11 15 18.5t16 9.5q7 2 14.5 -0.5t15.5 -9.5q0 -1 1.5 -3t1.5 -5q0 -1 0.5 -3t0.5 -4q5 4 10.5 5.5t11.5 -0.5q1 -1 3.5 -1.5t4.5 -1.5q3 -1 4.5 -2.5t1.5 -3.5q2 -3 3.5 -9t2.5 -12q1 -9 2 -18.5t2 -18.5
q1 -4 1.5 -7t1.5 -6q6 6 11 11.5t12 12.5q0 1 4 6t6 7l3 3l2 2q3 2 5.5 1.5t4.5 -0.5q3 -1 5 -3t3 -7q1 -4 3 -28t6 -41q2 4 4.5 12.5t5.5 11.5q5 7 10.5 12.5t11.5 8.5t12.5 2t12.5 -6q3 -2 6 -5t5 -6l6 4t7 4t8.5 0.5t6.5 -5.5q2 -5 0.5 -14t-5.5 -12q-5 -2 -9 -5t-8 -7
q-2 -2 -4 -3t-4 -1t-4.5 0.5t-4.5 1.5q-2 2 -4 5.5t-3 5.5l-1.5 7.5t-3.5 9.5q-1 1 -2 1.5t-1 1.5q-9 -5 -15 -20t-10 -22q-2 -3 -3.5 -5t-2.5 -4l-0.5 -1l-0.5 -1l-1.5 -3t-1.5 -2q-2 -1 -3.5 -2t-3.5 -1q-2 -1 -4.5 0t-5.5 2q-2 2 -4 5t-4 7q-3 9 -6 29.5t-5 34.5
q-8 -8 -13.5 -19.5t-13.5 -19.5q-2 -2 -5.5 -3t-6.5 0l-2 1q-6 2 -15 7t-11 15q-3 9 -1.5 22.5t0.5 24.5q-1 4 -1.5 7.5t-0.5 6.5q-1 0 -1.5 0.5l-0.5 0.5q-1 0 -1 -0.5t-1 -0.5l-2 -2t-2 -3q-3 -3 -5 -6.5t-4 -7.5q0 -4 -1 -7.5t-2 -8.5q-1 -1 -2.5 -7.5t-2.5 -7.5
q-3 -4 -5.5 -5t-3.5 -2q-4 0 -7 1t-4 2q-2 2 -3.5 5t-1.5 6q0 2 1 4.5t2 4.5q1 4 3 9.5t5 11.5q0 5 -0.5 10t-0.5 11q0 1 0.5 8t0.5 9v0v0v4q-1 1 -2 1h-2q-3 1 -6.5 -6.5t-5.5 -10.5q-11 -14 -17.5 -32t-11.5 -33q-1 -3 -2.5 -4t-2.5 -2q0 -1 -11 -5t-13 6q0 1 -1 7t-1 8
q-1 1 -0.5 2t0.5 2l-3 22v0zM38 228l-23 44t8 100q32 56 77.5 59.5t68.5 -0.5l-4 -40l-49 7t14 -119l-92 -51v0zM406 921l-63 69l-46 -20.5t-31 -91.5t53 -75.5t44 13.5l10 34l-28.5 -11.5t-39.5 46.5l18 10.5t83 25.5z" />
</svg>
