<?xml version="1.0" standalone="no"?>
<!DOCTYPE svg PUBLIC "-//W3C//DTD SVG 1.1//EN" "http://www.w3.org/Graphics/SVG/1.1/DTD/svg11.dtd" >
<svg xmlns="http://www.w3.org/2000/svg" xmlns:xlink="http://www.w3.org/1999/xlink" version="1.1" viewBox="-10 0 1034 1024">
   <path fill="currentColor"
d="M88 1024q2 -54 10 -103t27 -86q30 -60 89.5 -85.5t106.5 -57.5q33 56 81 78t103 22q56 0 104 -22.5t81 -78.5q47 33 108 63t91 90q18 37 26 83t10 97h-837v0zM703 605l-14 20q-14 19 -40 42.5t-62 42.5q-37 19 -82 19q-102 0 -149.5 -61.5t-46.5 -62.5q-14 -21 -25.5 -45
t-19.5 -50q-7 -25 -10.5 -52t-3.5 -55q0 -67 20 -124t55 -98t81 -64q47 -23 99 -23q53 0 100 23q46 23 81 64t55 98t20 124q0 36 -6 70t-17 64q-7 19 -16 36t-19 32v0zM581 483l-81 45l-81 -45l-59 33l80 46l-80 45l59 33l81 -45l81 45l60 -33l-81 -45l81 -46zM884 107
l26 57l58 26l-58 26l-26 57l-25 -57l-58 -26l58 -26l25 -57v0zM163 46l36 80l79 36l-79 36l-36 80l-36 -80l-80 -36l80 -36l36 -80v0zM871 512l32 65l71 29l-71 30l-32 64l-32 -64l-71 -30l71 -29zM117 446l17 38l38 18l-38 17l-17 38l-18 -38l-37 -17l37 -18l18 -38v0z
M191 633q12 0 20.5 8t8.5 20t-8.5 20.5t-20.5 8.5t-20.5 -8.5t-8.5 -20.5t8.5 -20t20.5 -8z" />
</svg>
