<?xml version="1.0" standalone="no"?>
<!DOCTYPE svg PUBLIC "-//W3C//DTD SVG 1.1//EN" "http://www.w3.org/Graphics/SVG/1.1/DTD/svg11.dtd" >
<svg xmlns="http://www.w3.org/2000/svg" xmlns:xlink="http://www.w3.org/1999/xlink" version="1.1" viewBox="-10 0 1034 1024">
   <path fill="currentColor"
d="M544 64q-6 16 5 68t29.5 113.5t40.5 118.5q21 57 34 84q38 75 67 172q28 98 20.5 183.5t-62.5 142.5q-56 57 -186 50q-66 -4 -122 -39t-93.5 -88t-52.5 -118t0 -128q23 -95 76 -194q53 -100 107 -181t96 -133l41 -51v0zM494 352q0 -1 0.5 -1.5t0.5 -1.5v0.5t-1 2.5z
M494 352q-10 20 -34 53q-23 33 -49.5 73t-50.5 85q-23 44 -34 88q-8 36 0 73q9 37 30 67t53 50t69 21q80 3 115 -35q34 -38 37 -91.5t-19 -109.5q-22 -55 -55 -87q-2 -2 8.5 52.5t0.5 105.5q-8 40 -34.5 61.5t-31.5 18.5q-3 -1 -4 -32.5t5 -65.5q5 -34 -0.5 -68.5
t-8.5 -40.5q-3 -7 -36 55.5t-34 62.5q-11 0 -20 -38t7 -89q19 -60 49 -127.5t37 -81.5v0zM721 168l-18 45t-40 75q-3 3 6 28q8 24 24.5 67t38.5 103t47 136q18 58 19 105t-10 85q-1 3 15 -14q16 -18 32 -50t24 -77q7 -45 -9 -95q-30 -91 -54 -166t-40.5 -129t-25.5 -83
l-9 -30v0zM408 33l-1.5 40.5t-2.5 80.5q0 8 -42.5 69.5t-107.5 171.5q-24 41 -50.5 105.5t-25.5 96.5q0 2 -4 -23q-5 -25 -6 -63.5t5 -81.5q7 -43 28 -76q48 -75 87 -137q38 -61 65 -103.5t41 -63.5t14 -16v0zM862 38l30 81l82 31l-82 30l-30 81l-30 -81l-82 -30l82 -31
l30 -81v0zM123 146l24 64l64 24l-64 24l-24 65l-24 -65l-64 -24l64 -24l24 -64v0zM133 728l16 43l42 16l-42 15l-16 43l-16 -43l-42 -15l42 -16zM867 830l18 47l47 18l-47 17l-18 47l-17 -47l-47 -17l47 -18zM915 313l13 35l35 14l-35 13l-13 35l-13 -35l-36 -13l36 -14z
" />
</svg>
