<?xml version="1.0" standalone="no"?>
<!DOCTYPE svg PUBLIC "-//W3C//DTD SVG 1.1//EN" "http://www.w3.org/Graphics/SVG/1.1/DTD/svg11.dtd" >
<svg xmlns="http://www.w3.org/2000/svg" xmlns:xlink="http://www.w3.org/1999/xlink" version="1.1" viewBox="-10 0 1044 1024">
   <path fill="currentColor"
d="M20 1024l46 -101l127 -281l24 -53.5t49 -63.5l19 44l15.5 -14t39.5 -20v71l34 2.5t51 29.5t32 52t46 28l6 4.5t-1 37.5q-7 34 -22 59.5t-71 27.5q-57 1 -60 25.5t2 51.5q3 18 15.5 46t23.5 54h-376v0zM946 1024q9 -11 14.5 -21t1.5 -18q-8 -19 -29 -61t-29 -62
q-1 -1 -0.5 -2t1.5 -1q10 -9 20 -18.5t20 -18.5q4 -3 8 -7t7 -9q1 -1 0.5 -1.5t-2.5 0.5q-15 8 -30.5 17.5t-27.5 15.5q-24 13 -51.5 23t-52.5 12q-4 0 -8.5 -0.5t-8.5 -2.5q-21 -7 -26 -32.5t-8 -44.5q-2 -11 -7 -20t-14 -16q-3 -2 -7 -4t-8 -3q-8 -3 -13.5 -10.5
t0.5 -16.5q5 -9 27.5 -21t28.5 -22v-0.5t-1 -1.5q-2 -2 -5 -4t-6 -3q-15 -6 -43 -8.5t-36 -6.5t-7.5 -10t2.5 -14q2 -7 3.5 -13.5t2.5 -13.5q1 -2 0 -3.5t-3 -1.5q-10 -1 -20 -3t-19 -6q-14 -4 -29.5 -16.5t-11.5 -28.5q3 -12 9.5 -24t11.5 -23q8 -17 17 -36t16 -37
q3 -8 5 -16t-1 -15q-5 -12 -13 -23t-9 -24q-2 -23 -2.5 -40t1.5 -38q2 -22 6.5 -42t11.5 -39q23 -65 58 -112t78 -77h256v1024h-78v0zM447 406l-51 131l-74 -131h-148q-42 0 -72 -29.5t-30 -72.5v-106q0 -42 30 -72t72 -30h273q42 0 72 30t30 72v106q0 42 -30 72t-72 30v0z
" />
</svg>
