<?xml version="1.0" standalone="no"?>
<!DOCTYPE svg PUBLIC "-//W3C//DTD SVG 1.1//EN" "http://www.w3.org/Graphics/SVG/1.1/DTD/svg11.dtd" >
<svg xmlns="http://www.w3.org/2000/svg" xmlns:xlink="http://www.w3.org/1999/xlink" version="1.1" viewBox="-10 0 1038 1024">
   <path fill="currentColor"
d="M363 135q61 -7 110 40.5t57 121.5q8 73 -29.5 130t-99.5 64q-61 6 -110.5 -41.5t-57.5 -120.5q-8 -74 30 -131t100 -63zM302 1024l18 -98l-27 -234l-80 149l-50 156l-95 -50l39 -166l174 -271l39.5 29t101.5 16q62 -12 85.5 -41t28.5 -51l200 130l76 -91v-46l178 -38
l-5 68l-103 56l-121 203l-144 -49l22 192l17 136h-162l-1 -5l-2 5h-189v0zM924 64q-16 -17 -39 -17t-40 17l-78 78q-16 16 -16 39t16 39l78 79q17 16 40 16t39 -16l78 -79q16 -16 16 -39t-16 -39zM92 214q-29 0 -49.5 33t-20.5 80t20.5 80.5t49.5 33.5q-9 -20 -15 -50
t-6 -64t6 -63.5t15 -49.5zM667 429q29 0 49.5 -33.5t20.5 -80.5t-20.5 -80t-49.5 -33q8 20 14.5 49.5t6.5 63.5t-6.5 64t-14.5 50zM173 214q-29 0 -49.5 33t-20.5 80t20.5 80.5t49.5 33.5q-8 -20 -14.5 -50t-6.5 -64t6.5 -63.5t14.5 -49.5zM585 429q29 0 49.5 -33.5
t20.5 -80.5t-20.5 -80t-49.5 -33q8 20 14.5 49.5t6.5 63.5t-6.5 64t-14.5 50z" />
</svg>
