<?xml version="1.0" standalone="no"?>
<!DOCTYPE svg PUBLIC "-//W3C//DTD SVG 1.1//EN" "http://www.w3.org/Graphics/SVG/1.1/DTD/svg11.dtd" >
<svg xmlns="http://www.w3.org/2000/svg" xmlns:xlink="http://www.w3.org/1999/xlink" version="1.1" viewBox="-10 0 1034 1024">
   <path fill="currentColor"
d="M373 0l93 240l-137 338l138 98l-31 46q-32 45 -71.5 99.5t-75.5 100.5q-36 45 -45 45q-6 0 -7 -32q0 -32 1.5 -71t3.5 -71l3 -33l-186 -103l115 -267l-174 -96v-294h373v0zM458 551q-14 -10 -15 -26.5t12 -30.5q12 -13 29.5 -15.5t31.5 6.5q0 1 52 55t52 153q0 16 -12 29
t-30 15q-19 2 -32 -8.5t-13 -27.5q0 -72 -37.5 -111l-37.5 -39v0zM539 412q-14 -10 -15 -26.5t12 -30.5q12 -13 29.5 -15.5t31.5 6.5l29 25q29 24 63 70.5t63 114.5t29 155q0 16 -12.5 29.5t-30.5 15.5t-31 -9t-13 -27q0 -74 -24 -132q-25 -57 -54 -96t-53 -60l-24 -20v0z
M618 269q-14 -10 -15 -26.5t12 -30.5q12 -13 29.5 -15.5t30.5 6.5l42 35q41 34 90 101t91 164q41 98 41 223q0 16 -12.5 29t-30.5 15t-31 -8.5t-13 -26.5q0 -112 -37 -199q-36 -87 -80 -146t-81 -90l-36 -31v0z" />
</svg>
