<?xml version="1.0" standalone="no"?>
<!DOCTYPE svg PUBLIC "-//W3C//DTD SVG 1.1//EN" "http://www.w3.org/Graphics/SVG/1.1/DTD/svg11.dtd" >
<svg xmlns="http://www.w3.org/2000/svg" xmlns:xlink="http://www.w3.org/1999/xlink" version="1.1" viewBox="-10 0 1034 1024">
   <path fill="currentColor"
d="M159 1024q1 -51 7.5 -99t23.5 -84q25 -49 74 -70t88 -47q27 46 66 64t85 18t85.5 -18.5t65.5 -64.5q39 27 89 52t75 74q18 35 24 80.5t6 94.5h-689v0zM851 236l31 68l68 30l-68 31l-31 68l-31 -68l-67 -31l67 -30l31 -68v0zM375 130q10 0 17 7t7 17t-7 17.5t-17 7.5
t-17.5 -7.5t-7.5 -17.5t7.5 -17t17.5 -7zM907 86q10 0 17.5 7t7.5 17t-7.5 17.5t-17.5 7.5t-17 -7.5t-7 -17.5t7 -17t17 -7zM207 596l14 32l33 15l-33 15l-14 32l-15 -32l-32 -15l32 -15zM100 399l19 43l44 19l-44 20l-19 43l-20 -43l-43 -20l43 -19l20 -43v0zM90 800
q10 0 17.5 7t7.5 17q0 11 -7.5 18t-17.5 7t-17 -7t-7 -18q0 -10 7 -17t17 -7zM568 37l22 49l49 22l-49 22l-22 49l-22 -49l-49 -22l49 -22zM898 702l22 48l49 22l-49 22l-22 49l-22 -49l-49 -22l49 -22zM945 484l15 33l32 14l-32 15l-15 32l-15 -32l-32 -15l32 -14zM665 653
q1 0 -43.5 51t-118.5 51q-84 0 -123 -51t-38 -51q-12 -18 -21.5 -37.5t-15.5 -41.5q-6 -20 -9 -42t-3 -45q0 -56 17 -102q16 -47 44.5 -80.5t66.5 -52.5q39 -19 82 -19t82 19q38 19 66.5 52.5t44.5 80.5q17 46 17 102q0 29 -5 57t-14 53q-6 15 -13 29t-16 27zM501 448
q-19 -34 -52 -37t-52 14q-20 17 -20 48t20 65q13 26 44 50t60 41q30 -17 60.5 -41t44.5 -50q20 -34 20 -65t-20 -48t-52.5 -14t-52.5 37v0zM172 70l31 68l68 31l-68 30l-31 68l-30 -68l-68 -30l68 -31z" />
</svg>
