<?xml version="1.0" standalone="no"?>
<!DOCTYPE svg PUBLIC "-//W3C//DTD SVG 1.1//EN" "http://www.w3.org/Graphics/SVG/1.1/DTD/svg11.dtd" >
<svg xmlns="http://www.w3.org/2000/svg" xmlns:xlink="http://www.w3.org/1999/xlink" version="1.1" viewBox="-10 0 1044 1024">
   <path fill="currentColor"
d="M60 0q13 10 24 22t20 25q28 43 30.5 102.5t-33.5 134.5q-15 30 -20.5 55t-2.5 46v2v2q40 41 77.5 78t77.5 76q11 4 22.5 8.5t22.5 8.5l10 -12q1 0 1 -1v-1q-36 -62 -72 -123l-72 -122q-4 -7 -1.5 -15t3.5 -8q13 -15 33 -15t22 4q33 56 67 111.5t67 110.5q1 2 2.5 2.5
t3.5 0.5l33 -7h0.5h0.5l0.5 -0.5t0.5 -1.5v0v0l-3 -9v-0.5v-0.5h0.5h0.5q12 10 26 16.5t27 15.5q1 0 1.5 1t0.5 2q-3 11 -5.5 22.5t-4.5 22.5q-5 22 3.5 28.5t24.5 14.5q4 2 8.5 3.5t8.5 3.5q2 0 4 1t3 2q4 1 7 2.5t6 2.5l0.5 0.5t0.5 1.5q8 17 -11 37t2 39q4 4 12.5 11
t20.5 16q16 12 22.5 23t7.5 30q0 19 4 36.5t11 34.5q9 20 24.5 31t36.5 13q18 2 38 3t39 -5v0h1.5t0.5 1v0q1 4 2.5 8.5t2.5 8.5q6 32 13.5 62.5t16.5 61.5h-234l-10 -86q0 -2 -1 -3t-3 -1q-37 -4 -74 -15.5t-67 -34.5q-5 -4 -13 -11.5t-18 -18.5q-17 -18 -34.5 -35.5
l-34.5 -34.5q-8 -9 -18 -20.5t-20 -20.5l-17.5 -17.5l-16.5 -16.5l-40 -39q-1 -1 -17.5 -16.5t-16.5 -16.5q-6 -5 -10.5 -11t-9.5 -11q-9 -9 -18 -17.5t-18 -17.5q-2 -1 -3 -2.5t-1 -3.5q-1 -9 0 -17.5t4 -17.5q-10 -10 -19.5 -20t-19.5 -21v-34q2 4 5 8t7 7
q32 35 65.5 64.5t101.5 49.5q46 14 114 22t168 9l-40 -6t-96.5 -21.5t-117.5 -42.5q-60 -27 -101 -69q-20 -21 -33 -45t-17 -52q-2 -24 3.5 -52t21.5 -61q50 -101 26 -171t-87 -104h40v0zM0 136q20 31 15 72t-15 85v-157zM842 1024q-5 -18 -10.5 -36.5t-11.5 -36.5
q-7 -26 -16.5 -53t-16.5 -54q0 -2 -3 -7.5t-2 -6.5q15 -9 32 -17t33 -17q6 -4 12.5 -6.5t11.5 -7.5q2 -2 1.5 -2.5t-2.5 0.5q-21 7 -43.5 16.5t-40.5 15.5q-33 11 -70.5 19t-71.5 5q-5 0 -10.5 -2t-10.5 -5q-26 -14 -27.5 -47.5t-1.5 -59.5q0 -14 -5 -27t-15 -24
q-4 -4 -9 -7t-10 -5q-10 -6 -15.5 -17t3.5 -21q9 -11 32.5 -11.5t50.5 -12.5q56 -24 70 -68.5l14 -44.5q-31 23 -58.5 43.5t-67.5 33.5q-21 7 -43 -1.5t-31 -16.5q-10 -7 -8 -14.5t6 -17.5q4 -8 8 -25t7 -25q1 -3 0 -5t-3 -2q-13 -4 -35 -8.5t-34 -11.5q-17 -8 -27.5 -25.5
t-1.5 -38.5q7 -15 18 -30.5t20 -29.5q19 -28 33.5 -47t27.5 -42q5 -9 9.5 -19.5t1.5 -20.5q-5 -16 -12.5 -32t-6.5 -33q1 -30 4 -52t10 -50q1 -4 1.5 -7.5t1.5 -6.5h494v1024h-182v0zM0 49q5 -2 9 -3.5t8 -2.5q3 -1 6 -1.5t4 -1.5v0v0h5t4 1q1 0 2 1l2 2q4 3 5 8.5t0 12.5
q-1 3 -3 7.5t-4 9.5q3 -1 6 -1h5q5 1 9 2t6 3t3.5 5.5t0.5 8.5q-1 3 -2.5 7t-3.5 7q1 1 2 1.5t2 1.5q2 3 3 6t1 6q0 2 -0.5 4.5t-0.5 4.5q4 3 4.5 6.5t0.5 5.5t-1.5 4t-3.5 4q-1 0 -3 0.5t-6 0.5q-2 0 -4 -0.5t-4 -2.5q-2 0 -4 -1t-3 -2t-2 -2.5t-1 -3.5v-2.5t1 -3.5
q0 -1 1 -2.5t2 -2.5l1 -3q-2 0 -3.5 -0.5l-1.5 -0.5q-3 0 -5 -1.5t-3 -3.5q-1 -3 -1 -5.5t1 -4.5l1.5 -2t2.5 -3l5 -9h-7h-7q-3 1 -5.5 0.5t-3.5 -0.5q-3 -1 -4.5 -2t-2.5 -2t-2 -3t-1 -4t0.5 -4t2.5 -5q1 -3 4 -8t5 -10q0 -1 0.5 -1t0.5 -1q-5 2 -11 4t-12 5v-23v0zM0 375
q1 -1 1.5 -2.5t2.5 -3.5q2 -3 5.5 -6t6.5 -5t5.5 -3t4.5 -1q4 0 7 3t3 8q0 3 -1 5.5t-4 3.5l0.5 0.5l0.5 0.5q1 1 1.5 3.5t0.5 6.5t-3 7.5t-7 3.5q-3 0 -5 -1.5t-3 -2.5h-1h-1q-3 0 -6 -1t-6 -4l-1 -1t-1 -2v-9v0zM202 621q-8 -1 -15 -3l-14 -4t-13.5 -4.5t-12.5 -4.5
q6 6 12.5 11.5t12.5 10.5q2 2 3.5 2.5t4.5 0.5l23 -3q2 0 2.5 -0.5t-0.5 -2.5l-1.5 -1.5zM347 250q14 12 22.5 29.5t17.5 34.5q1 1 3.5 4.5t1.5 4.5q-16 27 -24.5 42.5t-16.5 38.5q0 1 -0.5 3t-0.5 3q0 2 -0.5 2t-0.5 -2l-30 -76t-31 -76q-1 -4 -0.5 -8.5t3.5 -7.5
q13 -11 29 -7t27 15v0zM59 207q-2 0 -4.5 -0.5t-4.5 -0.5q-4 -2 -6 -6t0 -8q1 -4 5 -6t8 -1q2 1 4.5 1t4.5 1q3 0 5.5 0.5t4.5 1.5q4 2 6 5.5t2 9.5q0 7 -3 12t-7 8q-1 0 -2 0.5t-2 1.5l2 4l2 4q2 5 2.5 10.5t-2.5 10.5q-3 6 -7 9t-9 4q-2 0 -4 0.5t-3 0.5q-1 5 -3.5 8
t-4.5 6l-3.5 3.5t-2.5 3.5l-2 2t-1 3q0 5 -3 8t-7 3q-5 0 -8 -3t-3 -8q0 -6 2.5 -11t6.5 -9q1 -2 2.5 -3.5l2.5 -2.5q2 -2 2.5 -3.5t0.5 -3.5v1.5v0.5l0.5 -4t2.5 -6t5 -3.5t7 -1.5q2 -1 3.5 -1t3.5 -1h2t1 -1v-1.5v-1.5t-0.5 -2t-1.5 -1q-1 -3 -2.5 -4.5t-2.5 -3.5
q-3 -4 -3 -7t1 -5q1 -4 3.5 -6.5t6.5 -4.5q1 0 2 -0.5t1 -1.5v0zM30 435q1 -2 3 -2.5t4 -0.5t4 1t3 2q2 1 3 3.5t1 5.5q-1 1 -1.5 3t-2.5 4t-4.5 3t-4.5 1q-1 0 -1.5 0.5l-0.5 0.5q-1 2 -3.5 3.5t-5.5 1.5q-5 0 -8 -3t-3 -7q0 -3 1.5 -6t4.5 -5q2 -2 5 -3.5t6 -1.5v0z
M69 488q1 0 3.5 0.5t3.5 0.5q3 1 5 2t4 3q1 1 2 2.5t2 3.5v3.5v3.5h1.5h0.5q3 0 6 0.5t5 1.5q5 2 7.5 5.5t2.5 9.5q0 5 -3 8t-7 3t-6.5 -1.5t-3.5 -4.5q-1 0 -3 -0.5t-3 -0.5q-3 0 -6 -0.5t-5 -1.5t-4 -3t-3 -5v-2.5v-3.5v-1.5v-0.5q-1 -1 -1.5 -1h-1.5q-3 -1 -5.5 -2
t-4.5 -3q-3 -3 -3 -7.5t3 -7.5t7 -3t7 2v0zM143 542q4 0 7 3t3 7q0 5 -3 8t-8 3q-6 0 -9 -2t-5 -5l-0.5 -0.5l-1.5 -1.5q-3 -3 -3 -7.5t3 -7.5t7.5 -3t7.5 3q1 0 1.5 1t0.5 2v0zM186 581q-4 -1 -6.5 -4t-2.5 -7t3 -7.5t7 -3.5q2 0 6 1.5t6 2.5q2 2 3 4.5t1 4.5q0 5 -3 8
t-8 3q-2 0 -3.5 -0.5t-2.5 -1.5v0zM247 601l-10 -2q-4 0 -7 -3t-3 -7q0 -5 3 -8t8 -3q1 0 5 0.5t8 1.5q2 1 4 1.5t3 1.5q4 2 4.5 4.5t0.5 4.5q0 5 -3 8t-7 3q-2 0 -3.5 -0.5t-2.5 -1.5zM609 202l34 2.5t56 9.5q20 7 54 24.5l34 17.5l-19.5 -24t-31.5 -32q-15 -10 -38 -19.5
t-41 -10.5q-13 -2 -30.5 15l-17.5 17v0z" />
</svg>
