<?xml version="1.0" standalone="no"?>
<!DOCTYPE svg PUBLIC "-//W3C//DTD SVG 1.1//EN" "http://www.w3.org/Graphics/SVG/1.1/DTD/svg11.dtd" >
<svg xmlns="http://www.w3.org/2000/svg" xmlns:xlink="http://www.w3.org/1999/xlink" version="1.1" viewBox="-10 0 1034 1024">
   <path fill="currentColor"
d="M279 320l-103 -60l30 -52l111 64l-37 -99l52 -19l60 161l90 52v-108l-105 -132l43 -34l17 21l14.5 18.5t30.5 38.5v-122h60v120l63 -76l43 35l-106 127v112l87 -50l64 -163l51 19l-10 26l-9.5 25t-19.5 49l113 -65l30 52l-102 59l91 15l-9 54l-157 -26l-99 57l83 48
l173 -26l9 54l-27 4l-26.5 4t-52.5 8l117 67l-30 52l-106 -61l32 87l-52 19l-55 -149l-95 -55v99l105 131l-42 35l-18 -22l-14.5 -18.5t-30.5 -37.5v132h-60v-131l-63 77l-42 -35l105 -128v-102l-92 53l-59 151l-51 -20l10 -26l7.5 -19.5t16.5 -41.5l-108 62l-30 -52
l115 -66l-104 -18l9 -54l170 29l86 -50l-96 -56l-160 25l-9 -54l28 -4l20.5 -3.5t43.5 -6.5v0zM250 734v9h-214v-94h83l14 23q14 24 37.5 35t48.5 7q6 6 14 11t16 9h1v0zM103 621h-66v-94h72v0v0q-5 7 -8.5 14.5t-5.5 15.5q-4 16 -2 32.5t10 31.5v0zM915 527h72v94h-66
q13 -23 11 -48.5t-17 -45.5v0v0v0zM905 649h83v94h-214v-9q9 -3 17 -8.5t14 -11.5q9 1 17.5 0.5t17.5 -2.5q16 -5 29 -15t22 -25l14 -23v0zM691 774h176v94h-214v-63l2 -2t2 -1l34 -28v0zM621 818v50h-49q17 -6 30 -19t19 -31v0v0v0zM452 868h-45v-39q7 13 19 23.5t26 15.5z
M375 808v60h-214v-94h172l32 27q3 2 5.5 3.5t4.5 3.5v0zM482 774h60v16h-60v-16v0zM542 743h-14v-94h77l43 52l-43 35l-63 -78v85v0zM583 621h-140l39 -48v-46h60v43l41 51v0zM420 649h76v94h-14v-84l-63 77l-42 -35l43 -52v0zM683 649h58l1 2v5l-50 19zM731 621h-59
l-19 -51v-43h105l90 51l-25 43h-22l-89 -52l19 52v0zM266 527h109v35l-23 59h-59q4 -9 9.5 -23.5t11.5 -29.5l-91 53h-22l-25 -43l90 -51v0zM283 649h59l-11 26l-49 -19v-6l1 -1v0zM250 896v94h-214v-94h214zM129 774v94h-92v-94h92v0zM987 774v94h-92v-94h92v0zM496 896v94
h-214v-94h214zM742 896v94h-214v-94h214zM988 896v94h-214v-94h214v0z" />
</svg>
