<?xml version="1.0" standalone="no"?>
<!DOCTYPE svg PUBLIC "-//W3C//DTD SVG 1.1//EN" "http://www.w3.org/Graphics/SVG/1.1/DTD/svg11.dtd" >
<svg xmlns="http://www.w3.org/2000/svg" xmlns:xlink="http://www.w3.org/1999/xlink" version="1.1" viewBox="-10 0 1034 1024">
   <path fill="currentColor"
d="M757 478q6 33 5.5 59t-4.5 56q-5 50 -26 91q-20 41 -53.5 70t-78.5 45q-46 16 -102 16q-40 0 -83 -17t-78 -51t-58 -85q-22 -51 -22 -119q0 -44 18 -97t44.5 -106.5t57.5 -103.5t56 -88q-14 58 -1.5 110.5t32.5 102.5q15 -38 32 -78q17 -39 30 -80.5t17 -85.5t-7 -90
q29 44 64 101q34 57 65.5 118t56.5 122q25 60 35 110v0zM476 581q-14 -13 -33 -44t-24 -50q-4 37 -6 91t14 87q1 2 2 3.5t2 3.5q7 13 17.5 22t24.5 15q34 14 68 -4.5t48 -52.5q23 -55 15 -125.5t-19 -131.5q-10 61 -43 104.5t-66 81.5v0zM235 743h-199v-94h158
q7 26 17.5 49.5t23.5 44.5v0zM187 621h-26v-94h20q0 4 -0.5 8t-0.5 8q0 21 2 40.5t5 37.5v0zM839 527h28v94h-35q0 -5 1 -10t1 -9q2 -20 3.5 -38.5t1.5 -36.5zM826 649h162v94h-199q12 -21 21.5 -45t15.5 -49v0zM767 774h100v94h-214v-7q35 -15 63.5 -37t50.5 -50zM375 864
v4h-214v-94h97q25 31 55 53t62 37v0zM257 527h118v94h-109q-5 -18 -7 -37.5t-2 -40.5v-8v-8v0zM282 668v-19h139q1 4 2.5 8t3.5 8q1 2 2 3.5t2 3.5q7 13 17.5 22t24.5 15q6 2 11.5 3.5t11.5 1.5v29h-163q-15 -16 -28 -34.5t-23 -40.5v0zM415 621h-8v-94h8q-2 22 -2.5 47
t2.5 47v0zM437 527h85q-11 14 -23 27.5t-23 26.5q-8 -8 -19 -23t-20 -31v0zM604 527h17v94h-22q5 -22 6 -46t-1 -48zM591 649h151v13q-9 23 -21.5 43.5t-29.5 37.5h-163v-33q20 -7 36 -22t25 -36q0 -1 0.5 -1.5l1.5 -1.5v0zM754 621h-101v-94h109q1 16 -0.5 32t-3.5 34
l-2 14zM371 774h4v3q-1 -1 -2 -1.5t-2 -1.5zM407 795v-21h214v17q-26 11 -57 17.5t-66 6.5q-22 0 -45 -5t-46 -15zM250 896v94h-214v-94h214zM129 527v94h-92v-94h92zM129 774v94h-92v-94h92v0zM987 527v94h-92v-94h92zM987 774v94h-92v-94h92v0zM496 896v94h-214v-94h214z
M742 896v94h-214v-94h214zM988 896v94h-214v-94h214v0z" />
</svg>
