<?xml version="1.0" standalone="no"?>
<!DOCTYPE svg PUBLIC "-//W3C//DTD SVG 1.1//EN" "http://www.w3.org/Graphics/SVG/1.1/DTD/svg11.dtd" >
<svg xmlns="http://www.w3.org/2000/svg" xmlns:xlink="http://www.w3.org/1999/xlink" version="1.1" viewBox="-10 0 1036 1024">
   <path fill="currentColor"
d="M7 354l122 -41l-77 70l15 6t36 17l85 -35q1 -19 2.5 -40.5t4.5 -42.5q0 -7 -48.5 -14l-48.5 -7l52 -17t54 -26q8 -55 18 -97.5t17 -52.5q6 -8 -21 -8.5l-27 -0.5l-136 -16l27 135l-75 -110v-69h246q0 2 0.5 3l0.5 1q32 9 63.5 17.5t34.5 8.5l89 -30h47l-49 45l54 25
t87 69q3 -3 6.5 -5t7.5 -5q7 -5 -39 -59.5l-46 -54.5l65 37t71 30q14 -17 24.5 -37t14.5 -44l1 -1h80q-7 17 -16.5 37t-23.5 40l77 52l32 -41t63 -88h48q-11 17 -19 33t-10 28l97 1l-124 41l-8.5 16t-25.5 31l1 75l119 117l-125 -56l-15 50t-54 106q23 -3 82.5 -8.5
t95.5 -4.5q43 1 35.5 -58l-7.5 -59q-1 -50 7 -91t22 -75v374q-11 22 -22 39t-19 28q10 4 20 7.5t21 6.5v66l-20 -2l20 100v23l-64 -93l-8 107l-45 -131l-109 82l-23 14t-14 18q11 5 41 37t65 75q5 7 59 -4.5l54 -11.5l-38.5 30.5t-34.5 36.5q12 15 23 31t21 31h-61
q-20 -32 -46.5 -66t-54.5 -60q-4 -3 -28 36.5l-24 39.5l14.5 -47.5t11.5 -50.5q-23 -17 -43 -25t-34 -1q-40 19 -64.5 58.5l-24.5 39.5l82 21l-122 40q-1 4 -2 7.5t-2 7.5h-51q9 -53 41.5 -99l32.5 -46l-102 -22l170 -35q2 -1 25 -24t46 -47q3 -3 -33.5 -58.5l-36.5 -55.5
l58.5 36t77.5 27q34 -17 67 -50.5t58 -67.5q0 -5 0.5 -8t0.5 -4q1 1 2.5 1.5t3.5 1.5q22 -30 35.5 -51.5l13.5 -21.5q-21 -8 -86.5 -22.5t-87.5 -19.5q-18 26 -41.5 49.5t-52.5 40.5l158 22l-223 20l-42 23.5t-127 47.5l-36 81l137 12l-184 60l-50 58t-141 87q-1 0 26 17.5
t65 41.5q4 2 30 -7t56 -21t54 -22l24 -11l-30.5 23t-55.5 44h-200q3 -6 4 -10.5t0 -5.5q-26 -16 -43.5 -26t-21.5 -10l-19 13.5t-39 38.5h-21v-80q16 -9 36.5 -16.5t44.5 -13.5l59.5 -7t47.5 -49q-8 -29 -16 -77.5t-12 -79.5q-8 13 -13.5 20l-5.5 7l19 172l-52 -91
l-31.5 43.5t-76.5 68.5v-166l35 56l29.5 -36t36.5 -79q8 -44 26.5 -88l18.5 -44l-23.5 11.5t-59.5 37.5q-14 9 -30.5 23.5t-32.5 31.5v-69q10 -8 48 -30.5t105 -48.5l-12.5 -12.5l-12.5 -12.5l-126 27l60 -59l-18 -10.5t-44 -19.5v-70v0zM396 619q1 -3 2 -5.5t1 -5.5
q15 -72 50.5 -117.5l35.5 -45.5l-7 -173l46 93l44 -51t100 -61q56 -11 83 -46.5l27 -35.5l-58 -83q-29 42 -79.5 81.5t-128.5 61.5l-58.5 11.5t-44.5 52.5q14 40 29 110.5l15 70.5l-12 -21t-28 -48.5t-32 -53.5t-25 -36l-19 23q-19 22 -43 57t-45 75q-22 41 -27 78
q-5 42 -20.5 76.5t-28.5 57.5q14 29 39.5 79.5t36.5 67.5l44 -47t77 -106l-64 -120l90 61v0zM727 107l1 -1l-1 1v0zM135 425q13 8 25.5 18t22.5 21l7 -18q-1 -5 -1.5 -10t-0.5 -10l-53 -1v0zM535 167q-3 -4 -6.5 -7.5t-7.5 -6.5l-125 27l60 -60l-41.5 -21.5t-85.5 -18.5
q-15 2 -28.5 18.5t-24.5 42.5q-1 4 35.5 38l36.5 34l-41 -22t-42 -18q-13 40 -19 87.5t-5 87.5q5 -9 25 -36q20 -28 54 -57.5t82 -53.5q47 -24 108 -27q4 0 10.5 -2t14.5 -5v0zM774 248l-45.5 23.5t-82.5 43.5l-10 128l-40 -74l-31.5 33.5t-41.5 76.5q-11 43 -32.5 85.5
l-21.5 42.5l24.5 -9.5t61.5 -32.5q38 -23 90.5 -71t68.5 -62l-17 -108l41 51l17 -50t19 -77v0zM7 202l63 47l-63 -9v-38v0z" />
</svg>
