<?xml version="1.0" standalone="no"?>
<!DOCTYPE svg PUBLIC "-//W3C//DTD SVG 1.1//EN" "http://www.w3.org/Graphics/SVG/1.1/DTD/svg11.dtd" >
<svg xmlns="http://www.w3.org/2000/svg" xmlns:xlink="http://www.w3.org/1999/xlink" version="1.1" viewBox="-10 0 1037 1024">
   <path fill="currentColor"
d="M604 527l25 -33q-80 -32 -141 -69q-61 -36 -103 -66.5t-64 -50.5l-21 -20q48 36 102 65q55 29 105 50.5t90 35.5q39 14 58 19l63 -84q6 -8 15.5 -11.5t19.5 -1.5q10 3 17 10.5t9 17.5l32 189l182 61q10 3 16 11.5t7 18.5t-4 19t-14 14l-170 89l-2 191q0 11 -6 19.5
t-15 12.5q-10 4 -20 2t-17 -9l-137 -134l-183 57q-10 3 -20 0.5t-17 -10.5q-6 -8 -7.5 -18.5t3.5 -19.5l45 -92q-80 -60 -148 -135q-69 -75 -119 -141t-79 -111l-28 -44q40 61 99 119q58 58 117.5 107t111.5 85q52 37 79 54l6 -13q-136 -98 -228 -220t-148 -229t-80 -179
l-24 -73q42 111 130 202t182.5 157t174.5 107q80 40 106 51v0zM588 223q-1 -1 -2.5 -2t-2.5 -1q-2 0 -3.5 1t-1.5 2l-12 27l-29 3q-2 0 -3 1t-1 3q-1 1 -0.5 2.5t1.5 2.5l22 20l-6 28q-1 2 -0.5 3.5t2.5 2.5q1 1 2.5 1t3.5 -1l25 -15l25 15q1 1 2.5 1t3.5 -1q1 -1 1.5 -2.5
t0.5 -3.5l-7 -28l22 -20q2 -1 2 -2.5v-2.5q-1 -2 -2 -3t-3 -1l-29 -3l-11 -27v0zM227 744q-1 -3 -3.5 -4.5t-5.5 -1.5q-2 0 -4.5 1.5t-3.5 4.5l-21 48l-52 5q-3 0 -5 2t-3 4q-1 3 0 5.5t3 4.5l39 35l-12 51q0 3 1 5.5t3 3.5q2 2 5 2t5 -1l45 -27l45 27q3 1 5.5 1t5.5 -2
q2 -1 3 -3.5t0 -5.5l-11 -51l39 -35q2 -2 3 -4.5t0 -5.5q-1 -2 -3 -4t-5 -2l-52 -5l-21 -48v0zM838 115q-1 -2 -2.5 -3.5t-4.5 -1.5q-2 0 -4 1.5t-3 3.5l-16 39l-42 4q-3 0 -4.5 1.5t-2.5 3.5t-0.5 4.5t2.5 3.5l32 28l-9 41q-1 2 0 4.5t3 3.5q1 1 3.5 1.5t4.5 -1.5l36 -21
l37 21q2 2 4 1.5t4 -1.5t3 -3.5t0 -4.5l-9 -41l31 -28q2 -1 2.5 -3.5t0.5 -4.5q-1 -2 -3 -3.5t-4 -1.5l-42 -4l-17 -39v0zM103 515q0 -2 -1.5 -2.5t-3.5 -0.5q-1 0 -2.5 0.5t-2.5 2.5l-12 28l-30 3q-2 0 -3 1l-2 2q0 2 0.5 3.5t1.5 2.5l23 20l-7 30q0 2 0.5 3.5t1.5 2.5t3 1
t3 -1l26 -16l26 16q2 1 3.5 1t2.5 -1q2 -1 2.5 -2.5t0.5 -3.5l-7 -30l23 -20q1 -1 1.5 -2.5t-0.5 -3.5q0 -1 -1.5 -2t-2.5 -1l-31 -3l-12 -28v0zM293 116q0 -1 -1 -1.5t-2 -0.5t-1.5 0.5l-1.5 1.5l-7 16l-17 1q-1 0 -1.5 1t-1.5 2l0.5 1t0.5 2l13 11l-3 17q-1 1 -0.5 2
t1.5 1q1 1 1.5 1t1.5 -1l15 -8l15 8q1 1 2 1t1 -1q1 0 1.5 -1t0.5 -2l-4 -17l13 -11q0 -1 0.5 -2l0.5 -1q-1 -1 -1.5 -2t-1.5 -1l-17 -1l-7 -16v0z" />
</svg>
